%TF.GenerationSoftware,KiCad,Pcbnew,(5.1.6-0-10_14)*%
%TF.CreationDate,2020-10-26T15:40:05+01:00*%
%TF.ProjectId,GenericEPaperRemote,47656e65-7269-4634-9550-617065725265,rev?*%
%TF.SameCoordinates,Original*%
%TF.FileFunction,Soldermask,Top*%
%TF.FilePolarity,Negative*%
%FSLAX46Y46*%
G04 Gerber Fmt 4.6, Leading zero omitted, Abs format (unit mm)*
G04 Created by KiCad (PCBNEW (5.1.6-0-10_14)) date 2020-10-26 15:40:05*
%MOMM*%
%LPD*%
G01*
G04 APERTURE LIST*
%ADD10C,0.100000*%
G04 APERTURE END LIST*
D10*
G36*
X268917144Y-136225743D02*
G01*
X269071703Y-136256487D01*
X269362884Y-136377098D01*
X269624941Y-136552199D01*
X269847801Y-136775059D01*
X270022902Y-137037116D01*
X270143513Y-137328297D01*
X270205000Y-137637414D01*
X270205000Y-137952586D01*
X270143513Y-138261703D01*
X270022902Y-138552884D01*
X269847801Y-138814941D01*
X269624941Y-139037801D01*
X269362884Y-139212902D01*
X269071703Y-139333513D01*
X268917145Y-139364256D01*
X268762588Y-139395000D01*
X268447412Y-139395000D01*
X268292855Y-139364256D01*
X268138297Y-139333513D01*
X267847116Y-139212902D01*
X267585059Y-139037801D01*
X267362199Y-138814941D01*
X267187098Y-138552884D01*
X267066487Y-138261703D01*
X267005000Y-137952586D01*
X267005000Y-137637414D01*
X267066487Y-137328297D01*
X267187098Y-137037116D01*
X267362199Y-136775059D01*
X267585059Y-136552199D01*
X267847116Y-136377098D01*
X268138297Y-136256487D01*
X268292856Y-136225743D01*
X268447412Y-136195000D01*
X268762588Y-136195000D01*
X268917144Y-136225743D01*
G37*
G36*
X84767144Y-136225743D02*
G01*
X84921703Y-136256487D01*
X85212884Y-136377098D01*
X85474941Y-136552199D01*
X85697801Y-136775059D01*
X85872902Y-137037116D01*
X85993513Y-137328297D01*
X86055000Y-137637414D01*
X86055000Y-137952586D01*
X85993513Y-138261703D01*
X85872902Y-138552884D01*
X85697801Y-138814941D01*
X85474941Y-139037801D01*
X85212884Y-139212902D01*
X84921703Y-139333513D01*
X84767145Y-139364256D01*
X84612588Y-139395000D01*
X84297412Y-139395000D01*
X84142855Y-139364256D01*
X83988297Y-139333513D01*
X83697116Y-139212902D01*
X83435059Y-139037801D01*
X83212199Y-138814941D01*
X83037098Y-138552884D01*
X82916487Y-138261703D01*
X82855000Y-137952586D01*
X82855000Y-137637414D01*
X82916487Y-137328297D01*
X83037098Y-137037116D01*
X83212199Y-136775059D01*
X83435059Y-136552199D01*
X83697116Y-136377098D01*
X83988297Y-136256487D01*
X84142856Y-136225743D01*
X84297412Y-136195000D01*
X84612588Y-136195000D01*
X84767144Y-136225743D01*
G37*
G36*
X254657819Y-137692958D02*
G01*
X254761494Y-137724408D01*
X254761496Y-137724409D01*
X254761499Y-137724410D01*
X254811853Y-137751325D01*
X254857042Y-137775479D01*
X254940790Y-137844210D01*
X255009521Y-137927958D01*
X255022685Y-137952586D01*
X255060590Y-138023501D01*
X255060591Y-138023504D01*
X255060592Y-138023506D01*
X255092042Y-138127181D01*
X255102661Y-138235000D01*
X255092042Y-138342819D01*
X255060592Y-138446494D01*
X255060590Y-138446499D01*
X255033675Y-138496853D01*
X255009521Y-138542042D01*
X254940790Y-138625790D01*
X254857042Y-138694521D01*
X254811853Y-138718675D01*
X254761499Y-138745590D01*
X254761496Y-138745591D01*
X254761494Y-138745592D01*
X254657819Y-138777042D01*
X254577018Y-138785000D01*
X253422982Y-138785000D01*
X253342181Y-138777042D01*
X253238506Y-138745592D01*
X253238504Y-138745591D01*
X253238501Y-138745590D01*
X253188147Y-138718675D01*
X253142958Y-138694521D01*
X253059210Y-138625790D01*
X252990479Y-138542042D01*
X252966325Y-138496853D01*
X252939410Y-138446499D01*
X252939408Y-138446494D01*
X252907958Y-138342819D01*
X252897339Y-138235000D01*
X252907958Y-138127181D01*
X252939408Y-138023506D01*
X252939409Y-138023504D01*
X252939410Y-138023501D01*
X252977315Y-137952586D01*
X252990479Y-137927958D01*
X253059210Y-137844210D01*
X253142958Y-137775479D01*
X253188147Y-137751325D01*
X253238501Y-137724410D01*
X253238504Y-137724409D01*
X253238506Y-137724408D01*
X253342181Y-137692958D01*
X253422982Y-137685000D01*
X254577018Y-137685000D01*
X254657819Y-137692958D01*
G37*
G36*
X251657819Y-135542958D02*
G01*
X251761494Y-135574408D01*
X251761496Y-135574409D01*
X251761499Y-135574410D01*
X251811853Y-135601325D01*
X251857042Y-135625479D01*
X251940790Y-135694210D01*
X252009521Y-135777958D01*
X252033675Y-135823147D01*
X252060590Y-135873501D01*
X252060591Y-135873504D01*
X252060592Y-135873506D01*
X252092042Y-135977181D01*
X252102661Y-136085000D01*
X252092042Y-136192819D01*
X252072728Y-136256487D01*
X252060590Y-136296499D01*
X252033675Y-136346853D01*
X252009521Y-136392042D01*
X251940790Y-136475790D01*
X251857042Y-136544521D01*
X251842677Y-136552199D01*
X251761499Y-136595590D01*
X251761496Y-136595591D01*
X251761494Y-136595592D01*
X251657819Y-136627042D01*
X251577018Y-136635000D01*
X250822982Y-136635000D01*
X250742181Y-136627042D01*
X250638506Y-136595592D01*
X250638504Y-136595591D01*
X250638501Y-136595590D01*
X250557323Y-136552199D01*
X250542958Y-136544521D01*
X250459210Y-136475790D01*
X250390479Y-136392042D01*
X250366325Y-136346853D01*
X250339410Y-136296499D01*
X250327272Y-136256487D01*
X250307958Y-136192819D01*
X250297339Y-136085000D01*
X250307958Y-135977181D01*
X250339408Y-135873506D01*
X250339409Y-135873504D01*
X250339410Y-135873501D01*
X250366325Y-135823147D01*
X250390479Y-135777958D01*
X250459210Y-135694210D01*
X250542958Y-135625479D01*
X250588147Y-135601325D01*
X250638501Y-135574410D01*
X250638504Y-135574409D01*
X250638506Y-135574408D01*
X250742181Y-135542958D01*
X250822982Y-135535000D01*
X251577018Y-135535000D01*
X251657819Y-135542958D01*
G37*
G36*
X257257819Y-135542958D02*
G01*
X257361494Y-135574408D01*
X257361496Y-135574409D01*
X257361499Y-135574410D01*
X257411853Y-135601325D01*
X257457042Y-135625479D01*
X257540790Y-135694210D01*
X257609521Y-135777958D01*
X257633675Y-135823147D01*
X257660590Y-135873501D01*
X257660591Y-135873504D01*
X257660592Y-135873506D01*
X257692042Y-135977181D01*
X257702661Y-136085000D01*
X257692042Y-136192819D01*
X257672728Y-136256487D01*
X257660590Y-136296499D01*
X257633675Y-136346853D01*
X257609521Y-136392042D01*
X257540790Y-136475790D01*
X257457042Y-136544521D01*
X257442677Y-136552199D01*
X257361499Y-136595590D01*
X257361496Y-136595591D01*
X257361494Y-136595592D01*
X257257819Y-136627042D01*
X257177018Y-136635000D01*
X256422982Y-136635000D01*
X256342181Y-136627042D01*
X256238506Y-136595592D01*
X256238504Y-136595591D01*
X256238501Y-136595590D01*
X256157323Y-136552199D01*
X256142958Y-136544521D01*
X256059210Y-136475790D01*
X255990479Y-136392042D01*
X255966325Y-136346853D01*
X255939410Y-136296499D01*
X255927272Y-136256487D01*
X255907958Y-136192819D01*
X255897339Y-136085000D01*
X255907958Y-135977181D01*
X255939408Y-135873506D01*
X255939409Y-135873504D01*
X255939410Y-135873501D01*
X255966325Y-135823147D01*
X255990479Y-135777958D01*
X256059210Y-135694210D01*
X256142958Y-135625479D01*
X256188147Y-135601325D01*
X256238501Y-135574410D01*
X256238504Y-135574409D01*
X256238506Y-135574408D01*
X256342181Y-135542958D01*
X256422982Y-135535000D01*
X257177018Y-135535000D01*
X257257819Y-135542958D01*
G37*
G36*
X196100000Y-136300000D02*
G01*
X194000000Y-136300000D01*
X194000000Y-134900000D01*
X196100000Y-134900000D01*
X196100000Y-136300000D01*
G37*
G36*
X187000000Y-136300000D02*
G01*
X184900000Y-136300000D01*
X184900000Y-134900000D01*
X187000000Y-134900000D01*
X187000000Y-136300000D01*
G37*
G36*
X181495000Y-136300000D02*
G01*
X179395000Y-136300000D01*
X179395000Y-134900000D01*
X181495000Y-134900000D01*
X181495000Y-136300000D01*
G37*
G36*
X172395000Y-136300000D02*
G01*
X170295000Y-136300000D01*
X170295000Y-134900000D01*
X172395000Y-134900000D01*
X172395000Y-136300000D01*
G37*
G36*
X166890000Y-136300000D02*
G01*
X164790000Y-136300000D01*
X164790000Y-134900000D01*
X166890000Y-134900000D01*
X166890000Y-136300000D01*
G37*
G36*
X157790000Y-136300000D02*
G01*
X155690000Y-136300000D01*
X155690000Y-134900000D01*
X157790000Y-134900000D01*
X157790000Y-136300000D01*
G37*
G36*
X152285000Y-136300000D02*
G01*
X150185000Y-136300000D01*
X150185000Y-134900000D01*
X152285000Y-134900000D01*
X152285000Y-136300000D01*
G37*
G36*
X143185000Y-136300000D02*
G01*
X141085000Y-136300000D01*
X141085000Y-134900000D01*
X143185000Y-134900000D01*
X143185000Y-136300000D01*
G37*
G36*
X137680000Y-136300000D02*
G01*
X135580000Y-136300000D01*
X135580000Y-134900000D01*
X137680000Y-134900000D01*
X137680000Y-136300000D01*
G37*
G36*
X128580000Y-136300000D02*
G01*
X126480000Y-136300000D01*
X126480000Y-134900000D01*
X128580000Y-134900000D01*
X128580000Y-136300000D01*
G37*
G36*
X109210000Y-136300000D02*
G01*
X107110000Y-136300000D01*
X107110000Y-134900000D01*
X109210000Y-134900000D01*
X109210000Y-136300000D01*
G37*
G36*
X100110000Y-136300000D02*
G01*
X98010000Y-136300000D01*
X98010000Y-134900000D01*
X100110000Y-134900000D01*
X100110000Y-136300000D01*
G37*
G36*
X112480000Y-133430000D02*
G01*
X111580000Y-133430000D01*
X111580000Y-132630000D01*
X112480000Y-132630000D01*
X112480000Y-133430000D01*
G37*
G36*
X244586000Y-132826000D02*
G01*
X242586000Y-132826000D01*
X242586000Y-130826000D01*
X244586000Y-130826000D01*
X244586000Y-132826000D01*
G37*
G36*
X86558091Y-130504823D02*
G01*
X86656036Y-130514470D01*
X86844535Y-130571651D01*
X87018256Y-130664506D01*
X87170528Y-130789472D01*
X87295494Y-130941744D01*
X87388349Y-131115465D01*
X87445530Y-131303964D01*
X87464838Y-131500000D01*
X87445530Y-131696036D01*
X87388349Y-131884535D01*
X87295494Y-132058256D01*
X87170528Y-132210528D01*
X87018256Y-132335494D01*
X86844535Y-132428349D01*
X86656036Y-132485530D01*
X86558091Y-132495177D01*
X86509120Y-132500000D01*
X84910880Y-132500000D01*
X84861909Y-132495177D01*
X84763964Y-132485530D01*
X84575465Y-132428349D01*
X84401744Y-132335494D01*
X84249472Y-132210528D01*
X84124506Y-132058256D01*
X84031651Y-131884535D01*
X83974470Y-131696036D01*
X83955162Y-131500000D01*
X83974470Y-131303964D01*
X84031651Y-131115465D01*
X84124506Y-130941744D01*
X84249472Y-130789472D01*
X84401744Y-130664506D01*
X84575465Y-130571651D01*
X84763964Y-130514470D01*
X84861909Y-130504823D01*
X84910880Y-130500000D01*
X86509120Y-130500000D01*
X86558091Y-130504823D01*
G37*
G36*
X114480000Y-132480000D02*
G01*
X113580000Y-132480000D01*
X113580000Y-131680000D01*
X114480000Y-131680000D01*
X114480000Y-132480000D01*
G37*
G36*
X205470000Y-132445000D02*
G01*
X203470000Y-132445000D01*
X203470000Y-130445000D01*
X205470000Y-130445000D01*
X205470000Y-132445000D01*
G37*
G36*
X209915000Y-132445000D02*
G01*
X207915000Y-132445000D01*
X207915000Y-130445000D01*
X209915000Y-130445000D01*
X209915000Y-132445000D01*
G37*
G36*
X214360000Y-132445000D02*
G01*
X212360000Y-132445000D01*
X212360000Y-130445000D01*
X214360000Y-130445000D01*
X214360000Y-132445000D01*
G37*
G36*
X218805000Y-132445000D02*
G01*
X216805000Y-132445000D01*
X216805000Y-130445000D01*
X218805000Y-130445000D01*
X218805000Y-132445000D01*
G37*
G36*
X181495000Y-131800000D02*
G01*
X179395000Y-131800000D01*
X179395000Y-130400000D01*
X181495000Y-130400000D01*
X181495000Y-131800000D01*
G37*
G36*
X152285000Y-131800000D02*
G01*
X150185000Y-131800000D01*
X150185000Y-130400000D01*
X152285000Y-130400000D01*
X152285000Y-131800000D01*
G37*
G36*
X109210000Y-131800000D02*
G01*
X107110000Y-131800000D01*
X107110000Y-130400000D01*
X109210000Y-130400000D01*
X109210000Y-131800000D01*
G37*
G36*
X143185000Y-131800000D02*
G01*
X141085000Y-131800000D01*
X141085000Y-130400000D01*
X143185000Y-130400000D01*
X143185000Y-131800000D01*
G37*
G36*
X187000000Y-131800000D02*
G01*
X184900000Y-131800000D01*
X184900000Y-130400000D01*
X187000000Y-130400000D01*
X187000000Y-131800000D01*
G37*
G36*
X157790000Y-131800000D02*
G01*
X155690000Y-131800000D01*
X155690000Y-130400000D01*
X157790000Y-130400000D01*
X157790000Y-131800000D01*
G37*
G36*
X196100000Y-131800000D02*
G01*
X194000000Y-131800000D01*
X194000000Y-130400000D01*
X196100000Y-130400000D01*
X196100000Y-131800000D01*
G37*
G36*
X172395000Y-131800000D02*
G01*
X170295000Y-131800000D01*
X170295000Y-130400000D01*
X172395000Y-130400000D01*
X172395000Y-131800000D01*
G37*
G36*
X100110000Y-131800000D02*
G01*
X98010000Y-131800000D01*
X98010000Y-130400000D01*
X100110000Y-130400000D01*
X100110000Y-131800000D01*
G37*
G36*
X128580000Y-131800000D02*
G01*
X126480000Y-131800000D01*
X126480000Y-130400000D01*
X128580000Y-130400000D01*
X128580000Y-131800000D01*
G37*
G36*
X137680000Y-131800000D02*
G01*
X135580000Y-131800000D01*
X135580000Y-130400000D01*
X137680000Y-130400000D01*
X137680000Y-131800000D01*
G37*
G36*
X166890000Y-131800000D02*
G01*
X164790000Y-131800000D01*
X164790000Y-130400000D01*
X166890000Y-130400000D01*
X166890000Y-131800000D01*
G37*
G36*
X112480000Y-131530000D02*
G01*
X111580000Y-131530000D01*
X111580000Y-130730000D01*
X112480000Y-130730000D01*
X112480000Y-131530000D01*
G37*
G36*
X261530000Y-130240000D02*
G01*
X259430000Y-130240000D01*
X259430000Y-128840000D01*
X261530000Y-128840000D01*
X261530000Y-130240000D01*
G37*
G36*
X252430000Y-130240000D02*
G01*
X250330000Y-130240000D01*
X250330000Y-128840000D01*
X252430000Y-128840000D01*
X252430000Y-130240000D01*
G37*
G36*
X234730000Y-130240000D02*
G01*
X232630000Y-130240000D01*
X232630000Y-128840000D01*
X234730000Y-128840000D01*
X234730000Y-130240000D01*
G37*
G36*
X225630000Y-130240000D02*
G01*
X223530000Y-130240000D01*
X223530000Y-128840000D01*
X225630000Y-128840000D01*
X225630000Y-130240000D01*
G37*
G36*
X93710000Y-129000000D02*
G01*
X91710000Y-129000000D01*
X91710000Y-125000000D01*
X93710000Y-125000000D01*
X93710000Y-129000000D01*
G37*
G36*
X86906035Y-125364470D02*
G01*
X87045484Y-125406772D01*
X87094534Y-125421651D01*
X87268258Y-125514508D01*
X87268260Y-125514509D01*
X87268259Y-125514509D01*
X87420528Y-125639472D01*
X87545494Y-125791744D01*
X87638349Y-125965465D01*
X87695530Y-126153964D01*
X87710000Y-126300881D01*
X87710000Y-127699119D01*
X87695530Y-127846036D01*
X87638349Y-128034535D01*
X87545494Y-128208256D01*
X87420528Y-128360528D01*
X87268256Y-128485494D01*
X87094535Y-128578349D01*
X86906036Y-128635530D01*
X86710000Y-128654838D01*
X86513965Y-128635530D01*
X86325466Y-128578349D01*
X86151745Y-128485494D01*
X85999473Y-128360528D01*
X85874507Y-128208256D01*
X85781652Y-128034535D01*
X85724471Y-127846035D01*
X85710000Y-127699119D01*
X85710000Y-126300882D01*
X85724470Y-126153965D01*
X85781650Y-125965470D01*
X85781651Y-125965466D01*
X85874508Y-125791742D01*
X85999472Y-125639472D01*
X86151744Y-125514506D01*
X86325465Y-125421651D01*
X86513964Y-125364470D01*
X86710000Y-125345162D01*
X86906035Y-125364470D01*
G37*
G36*
X162640000Y-128450000D02*
G01*
X161840000Y-128450000D01*
X161840000Y-127550000D01*
X162640000Y-127550000D01*
X162640000Y-128450000D01*
G37*
G36*
X189950000Y-128450000D02*
G01*
X189150000Y-128450000D01*
X189150000Y-127550000D01*
X189950000Y-127550000D01*
X189950000Y-128450000D01*
G37*
G36*
X174710000Y-128450000D02*
G01*
X173910000Y-128450000D01*
X173910000Y-127550000D01*
X174710000Y-127550000D01*
X174710000Y-128450000D01*
G37*
G36*
X176610000Y-128450000D02*
G01*
X175810000Y-128450000D01*
X175810000Y-127550000D01*
X176610000Y-127550000D01*
X176610000Y-128450000D01*
G37*
G36*
X191850000Y-128450000D02*
G01*
X191050000Y-128450000D01*
X191050000Y-127550000D01*
X191850000Y-127550000D01*
X191850000Y-128450000D01*
G37*
G36*
X131530000Y-128450000D02*
G01*
X130730000Y-128450000D01*
X130730000Y-127550000D01*
X131530000Y-127550000D01*
X131530000Y-128450000D01*
G37*
G36*
X133430000Y-128450000D02*
G01*
X132630000Y-128450000D01*
X132630000Y-127550000D01*
X133430000Y-127550000D01*
X133430000Y-128450000D01*
G37*
G36*
X145500000Y-128450000D02*
G01*
X144700000Y-128450000D01*
X144700000Y-127550000D01*
X145500000Y-127550000D01*
X145500000Y-128450000D01*
G37*
G36*
X160740000Y-128450000D02*
G01*
X159940000Y-128450000D01*
X159940000Y-127550000D01*
X160740000Y-127550000D01*
X160740000Y-128450000D01*
G37*
G36*
X147400000Y-128450000D02*
G01*
X146600000Y-128450000D01*
X146600000Y-127550000D01*
X147400000Y-127550000D01*
X147400000Y-128450000D01*
G37*
G36*
X238210000Y-128350000D02*
G01*
X237310000Y-128350000D01*
X237310000Y-127550000D01*
X238210000Y-127550000D01*
X238210000Y-128350000D01*
G37*
G36*
X245830000Y-128350000D02*
G01*
X244930000Y-128350000D01*
X244930000Y-127550000D01*
X245830000Y-127550000D01*
X245830000Y-128350000D01*
G37*
G36*
X83840312Y-126210248D02*
G01*
X83943351Y-126230743D01*
X84088942Y-126291049D01*
X84219970Y-126378599D01*
X84331401Y-126490030D01*
X84418951Y-126621058D01*
X84479257Y-126766649D01*
X84510000Y-126921207D01*
X84510000Y-127078793D01*
X84479257Y-127233351D01*
X84418951Y-127378942D01*
X84331401Y-127509970D01*
X84219970Y-127621401D01*
X84088942Y-127708951D01*
X83943351Y-127769257D01*
X83840312Y-127789752D01*
X83788794Y-127800000D01*
X83631206Y-127800000D01*
X83579688Y-127789752D01*
X83476649Y-127769257D01*
X83331058Y-127708951D01*
X83200030Y-127621401D01*
X83088599Y-127509970D01*
X83001049Y-127378942D01*
X82940743Y-127233351D01*
X82910000Y-127078793D01*
X82910000Y-126921207D01*
X82940743Y-126766649D01*
X83001049Y-126621058D01*
X83088599Y-126490030D01*
X83200030Y-126378599D01*
X83331058Y-126291049D01*
X83476649Y-126230743D01*
X83579688Y-126210248D01*
X83631206Y-126200000D01*
X83788794Y-126200000D01*
X83840312Y-126210248D01*
G37*
G36*
X240210000Y-127400000D02*
G01*
X239310000Y-127400000D01*
X239310000Y-126600000D01*
X240210000Y-126600000D01*
X240210000Y-127400000D01*
G37*
G36*
X247830000Y-127400000D02*
G01*
X246930000Y-127400000D01*
X246930000Y-126600000D01*
X247830000Y-126600000D01*
X247830000Y-127400000D01*
G37*
G36*
X132480000Y-126450000D02*
G01*
X131680000Y-126450000D01*
X131680000Y-125550000D01*
X132480000Y-125550000D01*
X132480000Y-126450000D01*
G37*
G36*
X146450000Y-126450000D02*
G01*
X145650000Y-126450000D01*
X145650000Y-125550000D01*
X146450000Y-125550000D01*
X146450000Y-126450000D01*
G37*
G36*
X245830000Y-126450000D02*
G01*
X244930000Y-126450000D01*
X244930000Y-125650000D01*
X245830000Y-125650000D01*
X245830000Y-126450000D01*
G37*
G36*
X238210000Y-126450000D02*
G01*
X237310000Y-126450000D01*
X237310000Y-125650000D01*
X238210000Y-125650000D01*
X238210000Y-126450000D01*
G37*
G36*
X190900000Y-126450000D02*
G01*
X190100000Y-126450000D01*
X190100000Y-125550000D01*
X190900000Y-125550000D01*
X190900000Y-126450000D01*
G37*
G36*
X175660000Y-126450000D02*
G01*
X174860000Y-126450000D01*
X174860000Y-125550000D01*
X175660000Y-125550000D01*
X175660000Y-126450000D01*
G37*
G36*
X161690000Y-126450000D02*
G01*
X160890000Y-126450000D01*
X160890000Y-125550000D01*
X161690000Y-125550000D01*
X161690000Y-126450000D01*
G37*
G36*
X261530000Y-125740000D02*
G01*
X259430000Y-125740000D01*
X259430000Y-124340000D01*
X261530000Y-124340000D01*
X261530000Y-125740000D01*
G37*
G36*
X252430000Y-125740000D02*
G01*
X250330000Y-125740000D01*
X250330000Y-124340000D01*
X252430000Y-124340000D01*
X252430000Y-125740000D01*
G37*
G36*
X234730000Y-125740000D02*
G01*
X232630000Y-125740000D01*
X232630000Y-124340000D01*
X234730000Y-124340000D01*
X234730000Y-125740000D01*
G37*
G36*
X225630000Y-125740000D02*
G01*
X223530000Y-125740000D01*
X223530000Y-124340000D01*
X225630000Y-124340000D01*
X225630000Y-125740000D01*
G37*
G36*
X205693378Y-120626859D02*
G01*
X206057355Y-120777623D01*
X206384926Y-120996499D01*
X206663501Y-121275074D01*
X206882377Y-121602645D01*
X207033141Y-121966622D01*
X207110000Y-122353017D01*
X207110000Y-122746983D01*
X207033141Y-123133378D01*
X206882377Y-123497355D01*
X206663501Y-123824926D01*
X206384926Y-124103501D01*
X206057355Y-124322377D01*
X205693378Y-124473141D01*
X205306983Y-124550000D01*
X204913017Y-124550000D01*
X204526622Y-124473141D01*
X204162645Y-124322377D01*
X203835074Y-124103501D01*
X203556499Y-123824926D01*
X203337623Y-123497355D01*
X203186859Y-123133378D01*
X203110000Y-122746983D01*
X203110000Y-122353017D01*
X203186859Y-121966622D01*
X203337623Y-121602645D01*
X203556499Y-121275074D01*
X203835074Y-120996499D01*
X204162645Y-120777623D01*
X204526622Y-120626859D01*
X204913017Y-120550000D01*
X205306983Y-120550000D01*
X205693378Y-120626859D01*
G37*
G36*
X121193378Y-120626859D02*
G01*
X121557355Y-120777623D01*
X121884926Y-120996499D01*
X122163501Y-121275074D01*
X122382377Y-121602645D01*
X122533141Y-121966622D01*
X122610000Y-122353017D01*
X122610000Y-122746983D01*
X122533141Y-123133378D01*
X122382377Y-123497355D01*
X122163501Y-123824926D01*
X121884926Y-124103501D01*
X121557355Y-124322377D01*
X121193378Y-124473141D01*
X120806983Y-124550000D01*
X120413017Y-124550000D01*
X120026622Y-124473141D01*
X119662645Y-124322377D01*
X119335074Y-124103501D01*
X119056499Y-123824926D01*
X118837623Y-123497355D01*
X118686859Y-123133378D01*
X118610000Y-122746983D01*
X118610000Y-122353017D01*
X118686859Y-121966622D01*
X118837623Y-121602645D01*
X119056499Y-121275074D01*
X119335074Y-120996499D01*
X119662645Y-120777623D01*
X120026622Y-120626859D01*
X120413017Y-120550000D01*
X120806983Y-120550000D01*
X121193378Y-120626859D01*
G37*
G36*
X109210000Y-123890000D02*
G01*
X107110000Y-123890000D01*
X107110000Y-122490000D01*
X109210000Y-122490000D01*
X109210000Y-123890000D01*
G37*
G36*
X100110000Y-123890000D02*
G01*
X98010000Y-123890000D01*
X98010000Y-122490000D01*
X100110000Y-122490000D01*
X100110000Y-123890000D01*
G37*
G36*
X86558091Y-121504823D02*
G01*
X86656036Y-121514470D01*
X86844535Y-121571651D01*
X87018256Y-121664506D01*
X87170528Y-121789472D01*
X87295494Y-121941744D01*
X87388349Y-122115465D01*
X87445530Y-122303964D01*
X87464838Y-122500000D01*
X87445530Y-122696036D01*
X87388349Y-122884535D01*
X87295494Y-123058256D01*
X87170528Y-123210528D01*
X87018256Y-123335494D01*
X86844535Y-123428349D01*
X86656036Y-123485530D01*
X86558091Y-123495177D01*
X86509120Y-123500000D01*
X84910880Y-123500000D01*
X84861909Y-123495177D01*
X84763964Y-123485530D01*
X84575465Y-123428349D01*
X84401744Y-123335494D01*
X84249472Y-123210528D01*
X84124506Y-123058256D01*
X84031651Y-122884535D01*
X83974470Y-122696036D01*
X83955162Y-122500000D01*
X83974470Y-122303964D01*
X84031651Y-122115465D01*
X84124506Y-121941744D01*
X84249472Y-121789472D01*
X84401744Y-121664506D01*
X84575465Y-121571651D01*
X84763964Y-121514470D01*
X84861909Y-121504823D01*
X84910880Y-121500000D01*
X86509120Y-121500000D01*
X86558091Y-121504823D01*
G37*
G36*
X268970000Y-121015000D02*
G01*
X266970000Y-121015000D01*
X266970000Y-119015000D01*
X268970000Y-119015000D01*
X268970000Y-121015000D01*
G37*
G36*
X112480000Y-120730000D02*
G01*
X111580000Y-120730000D01*
X111580000Y-119930000D01*
X112480000Y-119930000D01*
X112480000Y-120730000D01*
G37*
G36*
X152892000Y-119872000D02*
G01*
X150892000Y-119872000D01*
X150892000Y-117872000D01*
X152892000Y-117872000D01*
X152892000Y-119872000D01*
G37*
G36*
X161020000Y-119872000D02*
G01*
X159020000Y-119872000D01*
X159020000Y-117872000D01*
X161020000Y-117872000D01*
X161020000Y-119872000D01*
G37*
G36*
X156956000Y-119872000D02*
G01*
X154956000Y-119872000D01*
X154956000Y-117872000D01*
X156956000Y-117872000D01*
X156956000Y-119872000D01*
G37*
G36*
X114480000Y-119780000D02*
G01*
X113580000Y-119780000D01*
X113580000Y-118980000D01*
X114480000Y-118980000D01*
X114480000Y-119780000D01*
G37*
G36*
X100110000Y-119390000D02*
G01*
X98010000Y-119390000D01*
X98010000Y-117990000D01*
X100110000Y-117990000D01*
X100110000Y-119390000D01*
G37*
G36*
X109210000Y-119390000D02*
G01*
X107110000Y-119390000D01*
X107110000Y-117990000D01*
X109210000Y-117990000D01*
X109210000Y-119390000D01*
G37*
G36*
X181190000Y-118960000D02*
G01*
X179490000Y-118960000D01*
X179490000Y-117260000D01*
X181190000Y-117260000D01*
X181190000Y-118960000D01*
G37*
G36*
X193287936Y-117292665D02*
G01*
X193442626Y-117356739D01*
X193512076Y-117403145D01*
X193581844Y-117449762D01*
X193700238Y-117568156D01*
X193746855Y-117637924D01*
X193793261Y-117707374D01*
X193857335Y-117862064D01*
X193890000Y-118026282D01*
X193890000Y-118193718D01*
X193857335Y-118357936D01*
X193793261Y-118512626D01*
X193746855Y-118582076D01*
X193700238Y-118651844D01*
X193581844Y-118770238D01*
X193512076Y-118816855D01*
X193442626Y-118863261D01*
X193287936Y-118927335D01*
X193123718Y-118960000D01*
X192956282Y-118960000D01*
X192792064Y-118927335D01*
X192637374Y-118863261D01*
X192567924Y-118816855D01*
X192498156Y-118770238D01*
X192379762Y-118651844D01*
X192333145Y-118582076D01*
X192286739Y-118512626D01*
X192222665Y-118357936D01*
X192190000Y-118193718D01*
X192190000Y-118026282D01*
X192222665Y-117862064D01*
X192286739Y-117707374D01*
X192333145Y-117637924D01*
X192379762Y-117568156D01*
X192498156Y-117449762D01*
X192567924Y-117403145D01*
X192637374Y-117356739D01*
X192792064Y-117292665D01*
X192956282Y-117260000D01*
X193123718Y-117260000D01*
X193287936Y-117292665D01*
G37*
G36*
X190747936Y-117292665D02*
G01*
X190902626Y-117356739D01*
X190972076Y-117403145D01*
X191041844Y-117449762D01*
X191160238Y-117568156D01*
X191206855Y-117637924D01*
X191253261Y-117707374D01*
X191317335Y-117862064D01*
X191350000Y-118026282D01*
X191350000Y-118193718D01*
X191317335Y-118357936D01*
X191253261Y-118512626D01*
X191206855Y-118582076D01*
X191160238Y-118651844D01*
X191041844Y-118770238D01*
X190972076Y-118816855D01*
X190902626Y-118863261D01*
X190747936Y-118927335D01*
X190583718Y-118960000D01*
X190416282Y-118960000D01*
X190252064Y-118927335D01*
X190097374Y-118863261D01*
X190027924Y-118816855D01*
X189958156Y-118770238D01*
X189839762Y-118651844D01*
X189793145Y-118582076D01*
X189746739Y-118512626D01*
X189682665Y-118357936D01*
X189650000Y-118193718D01*
X189650000Y-118026282D01*
X189682665Y-117862064D01*
X189746739Y-117707374D01*
X189793145Y-117637924D01*
X189839762Y-117568156D01*
X189958156Y-117449762D01*
X190027924Y-117403145D01*
X190097374Y-117356739D01*
X190252064Y-117292665D01*
X190416282Y-117260000D01*
X190583718Y-117260000D01*
X190747936Y-117292665D01*
G37*
G36*
X188207936Y-117292665D02*
G01*
X188362626Y-117356739D01*
X188432076Y-117403145D01*
X188501844Y-117449762D01*
X188620238Y-117568156D01*
X188666855Y-117637924D01*
X188713261Y-117707374D01*
X188777335Y-117862064D01*
X188810000Y-118026282D01*
X188810000Y-118193718D01*
X188777335Y-118357936D01*
X188713261Y-118512626D01*
X188666855Y-118582076D01*
X188620238Y-118651844D01*
X188501844Y-118770238D01*
X188432076Y-118816855D01*
X188362626Y-118863261D01*
X188207936Y-118927335D01*
X188043718Y-118960000D01*
X187876282Y-118960000D01*
X187712064Y-118927335D01*
X187557374Y-118863261D01*
X187487924Y-118816855D01*
X187418156Y-118770238D01*
X187299762Y-118651844D01*
X187253145Y-118582076D01*
X187206739Y-118512626D01*
X187142665Y-118357936D01*
X187110000Y-118193718D01*
X187110000Y-118026282D01*
X187142665Y-117862064D01*
X187206739Y-117707374D01*
X187253145Y-117637924D01*
X187299762Y-117568156D01*
X187418156Y-117449762D01*
X187487924Y-117403145D01*
X187557374Y-117356739D01*
X187712064Y-117292665D01*
X187876282Y-117260000D01*
X188043718Y-117260000D01*
X188207936Y-117292665D01*
G37*
G36*
X185667936Y-117292665D02*
G01*
X185822626Y-117356739D01*
X185892076Y-117403145D01*
X185961844Y-117449762D01*
X186080238Y-117568156D01*
X186126855Y-117637924D01*
X186173261Y-117707374D01*
X186237335Y-117862064D01*
X186270000Y-118026282D01*
X186270000Y-118193718D01*
X186237335Y-118357936D01*
X186173261Y-118512626D01*
X186126855Y-118582076D01*
X186080238Y-118651844D01*
X185961844Y-118770238D01*
X185892076Y-118816855D01*
X185822626Y-118863261D01*
X185667936Y-118927335D01*
X185503718Y-118960000D01*
X185336282Y-118960000D01*
X185172064Y-118927335D01*
X185017374Y-118863261D01*
X184947924Y-118816855D01*
X184878156Y-118770238D01*
X184759762Y-118651844D01*
X184713145Y-118582076D01*
X184666739Y-118512626D01*
X184602665Y-118357936D01*
X184570000Y-118193718D01*
X184570000Y-118026282D01*
X184602665Y-117862064D01*
X184666739Y-117707374D01*
X184713145Y-117637924D01*
X184759762Y-117568156D01*
X184878156Y-117449762D01*
X184947924Y-117403145D01*
X185017374Y-117356739D01*
X185172064Y-117292665D01*
X185336282Y-117260000D01*
X185503718Y-117260000D01*
X185667936Y-117292665D01*
G37*
G36*
X183127936Y-117292665D02*
G01*
X183282626Y-117356739D01*
X183352076Y-117403145D01*
X183421844Y-117449762D01*
X183540238Y-117568156D01*
X183586855Y-117637924D01*
X183633261Y-117707374D01*
X183697335Y-117862064D01*
X183730000Y-118026282D01*
X183730000Y-118193718D01*
X183697335Y-118357936D01*
X183633261Y-118512626D01*
X183586855Y-118582076D01*
X183540238Y-118651844D01*
X183421844Y-118770238D01*
X183352076Y-118816855D01*
X183282626Y-118863261D01*
X183127936Y-118927335D01*
X182963718Y-118960000D01*
X182796282Y-118960000D01*
X182632064Y-118927335D01*
X182477374Y-118863261D01*
X182407924Y-118816855D01*
X182338156Y-118770238D01*
X182219762Y-118651844D01*
X182173145Y-118582076D01*
X182126739Y-118512626D01*
X182062665Y-118357936D01*
X182030000Y-118193718D01*
X182030000Y-118026282D01*
X182062665Y-117862064D01*
X182126739Y-117707374D01*
X182173145Y-117637924D01*
X182219762Y-117568156D01*
X182338156Y-117449762D01*
X182407924Y-117403145D01*
X182477374Y-117356739D01*
X182632064Y-117292665D01*
X182796282Y-117260000D01*
X182963718Y-117260000D01*
X183127936Y-117292665D01*
G37*
G36*
X112480000Y-118830000D02*
G01*
X111580000Y-118830000D01*
X111580000Y-118030000D01*
X112480000Y-118030000D01*
X112480000Y-118830000D01*
G37*
G36*
X245225090Y-115859215D02*
G01*
X245321689Y-115878429D01*
X245503678Y-115953811D01*
X245667463Y-116063249D01*
X245806751Y-116202537D01*
X245916189Y-116366322D01*
X245991571Y-116548311D01*
X246030000Y-116741509D01*
X246030000Y-116938491D01*
X245991571Y-117131689D01*
X245916189Y-117313678D01*
X245806751Y-117477463D01*
X245667463Y-117616751D01*
X245503678Y-117726189D01*
X245321689Y-117801571D01*
X245225090Y-117820786D01*
X245128493Y-117840000D01*
X244931507Y-117840000D01*
X244834910Y-117820786D01*
X244738311Y-117801571D01*
X244556322Y-117726189D01*
X244392537Y-117616751D01*
X244253249Y-117477463D01*
X244143811Y-117313678D01*
X244068429Y-117131689D01*
X244030000Y-116938491D01*
X244030000Y-116741509D01*
X244068429Y-116548311D01*
X244143811Y-116366322D01*
X244253249Y-116202537D01*
X244392537Y-116063249D01*
X244556322Y-115953811D01*
X244738311Y-115878429D01*
X244834910Y-115859215D01*
X244931507Y-115840000D01*
X245128493Y-115840000D01*
X245225090Y-115859215D01*
G37*
G36*
X241030000Y-117840000D02*
G01*
X239030000Y-117840000D01*
X239030000Y-115840000D01*
X241030000Y-115840000D01*
X241030000Y-117840000D01*
G37*
G36*
X242725090Y-115859215D02*
G01*
X242821689Y-115878429D01*
X243003678Y-115953811D01*
X243167463Y-116063249D01*
X243306751Y-116202537D01*
X243416189Y-116366322D01*
X243491571Y-116548311D01*
X243530000Y-116741509D01*
X243530000Y-116938491D01*
X243491571Y-117131689D01*
X243416189Y-117313678D01*
X243306751Y-117477463D01*
X243167463Y-117616751D01*
X243003678Y-117726189D01*
X242821689Y-117801571D01*
X242725090Y-117820786D01*
X242628493Y-117840000D01*
X242431507Y-117840000D01*
X242334910Y-117820786D01*
X242238311Y-117801571D01*
X242056322Y-117726189D01*
X241892537Y-117616751D01*
X241753249Y-117477463D01*
X241643811Y-117313678D01*
X241568429Y-117131689D01*
X241530000Y-116938491D01*
X241530000Y-116741509D01*
X241568429Y-116548311D01*
X241643811Y-116366322D01*
X241753249Y-116202537D01*
X241892537Y-116063249D01*
X242056322Y-115953811D01*
X242238311Y-115878429D01*
X242334910Y-115859215D01*
X242431507Y-115840000D01*
X242628493Y-115840000D01*
X242725090Y-115859215D01*
G37*
G36*
X268820000Y-115785000D02*
G01*
X267120000Y-115785000D01*
X267120000Y-114085000D01*
X268820000Y-114085000D01*
X268820000Y-115785000D01*
G37*
G36*
X142860913Y-113284320D02*
G01*
X142900249Y-113296253D01*
X142936509Y-113315634D01*
X142968287Y-113341713D01*
X142994366Y-113373491D01*
X143013747Y-113409751D01*
X143025680Y-113449087D01*
X143030000Y-113492948D01*
X143030000Y-114567052D01*
X143025680Y-114610913D01*
X143013747Y-114650249D01*
X142994366Y-114686509D01*
X142968287Y-114718287D01*
X142936509Y-114744366D01*
X142900249Y-114763747D01*
X142860913Y-114775680D01*
X142817052Y-114780000D01*
X139842948Y-114780000D01*
X139799087Y-114775680D01*
X139759751Y-114763747D01*
X139723491Y-114744366D01*
X139691713Y-114718287D01*
X139665634Y-114686509D01*
X139646253Y-114650249D01*
X139634320Y-114610913D01*
X139630000Y-114567052D01*
X139630000Y-113492948D01*
X139634320Y-113449087D01*
X139646253Y-113409751D01*
X139665634Y-113373491D01*
X139691713Y-113341713D01*
X139723491Y-113315634D01*
X139759751Y-113296253D01*
X139799087Y-113284320D01*
X139842948Y-113280000D01*
X142817052Y-113280000D01*
X142860913Y-113284320D01*
G37*
G36*
X268217936Y-111577665D02*
G01*
X268372626Y-111641739D01*
X268442076Y-111688145D01*
X268511844Y-111734762D01*
X268630238Y-111853156D01*
X268676855Y-111922924D01*
X268723261Y-111992374D01*
X268787335Y-112147064D01*
X268820000Y-112311282D01*
X268820000Y-112478718D01*
X268787335Y-112642936D01*
X268723261Y-112797626D01*
X268676855Y-112867076D01*
X268630238Y-112936844D01*
X268511844Y-113055238D01*
X268442076Y-113101855D01*
X268372626Y-113148261D01*
X268217936Y-113212335D01*
X268053718Y-113245000D01*
X267886282Y-113245000D01*
X267722064Y-113212335D01*
X267567374Y-113148261D01*
X267497924Y-113101855D01*
X267428156Y-113055238D01*
X267309762Y-112936844D01*
X267263145Y-112867076D01*
X267216739Y-112797626D01*
X267152665Y-112642936D01*
X267120000Y-112478718D01*
X267120000Y-112311282D01*
X267152665Y-112147064D01*
X267216739Y-111992374D01*
X267263145Y-111922924D01*
X267309762Y-111853156D01*
X267428156Y-111734762D01*
X267497924Y-111688145D01*
X267567374Y-111641739D01*
X267722064Y-111577665D01*
X267886282Y-111545000D01*
X268053718Y-111545000D01*
X268217936Y-111577665D01*
G37*
G36*
X137152865Y-111184512D02*
G01*
X137194076Y-111197014D01*
X137232065Y-111217319D01*
X137265358Y-111244642D01*
X137292681Y-111277935D01*
X137312986Y-111315924D01*
X137325488Y-111357135D01*
X137330000Y-111402947D01*
X137330000Y-111957053D01*
X137325488Y-112002865D01*
X137312986Y-112044076D01*
X137292681Y-112082065D01*
X137265358Y-112115358D01*
X137232065Y-112142681D01*
X137194076Y-112162986D01*
X137152865Y-112175488D01*
X137107053Y-112180000D01*
X134052947Y-112180000D01*
X134007135Y-112175488D01*
X133965924Y-112162986D01*
X133927935Y-112142681D01*
X133894642Y-112115358D01*
X133867319Y-112082065D01*
X133847014Y-112044076D01*
X133834512Y-112002865D01*
X133830000Y-111957053D01*
X133830000Y-111402947D01*
X133834512Y-111357135D01*
X133847014Y-111315924D01*
X133867319Y-111277935D01*
X133894642Y-111244642D01*
X133927935Y-111217319D01*
X133965924Y-111197014D01*
X134007135Y-111184512D01*
X134052947Y-111180000D01*
X137107053Y-111180000D01*
X137152865Y-111184512D01*
G37*
G36*
X92160000Y-111840000D02*
G01*
X91260000Y-111840000D01*
X91260000Y-111040000D01*
X92160000Y-111040000D01*
X92160000Y-111840000D01*
G37*
G36*
X192017936Y-109672665D02*
G01*
X192172626Y-109736739D01*
X192224322Y-109771282D01*
X192311844Y-109829762D01*
X192430238Y-109948156D01*
X192466793Y-110002865D01*
X192523261Y-110087374D01*
X192587335Y-110242064D01*
X192620000Y-110406282D01*
X192620000Y-110573718D01*
X192587335Y-110737936D01*
X192523261Y-110892626D01*
X192491606Y-110940000D01*
X192430238Y-111031844D01*
X192311844Y-111150238D01*
X192260549Y-111184512D01*
X192172626Y-111243261D01*
X192057114Y-111291107D01*
X192017936Y-111307335D01*
X191853718Y-111340000D01*
X191686282Y-111340000D01*
X191522064Y-111307335D01*
X191482886Y-111291107D01*
X191367374Y-111243261D01*
X191279451Y-111184512D01*
X191228156Y-111150238D01*
X191109762Y-111031844D01*
X191048394Y-110940000D01*
X191016739Y-110892626D01*
X190952665Y-110737936D01*
X190920000Y-110573718D01*
X190920000Y-110406282D01*
X190952665Y-110242064D01*
X191016739Y-110087374D01*
X191073207Y-110002865D01*
X191109762Y-109948156D01*
X191228156Y-109829762D01*
X191315678Y-109771282D01*
X191367374Y-109736739D01*
X191522064Y-109672665D01*
X191686282Y-109640000D01*
X191853718Y-109640000D01*
X192017936Y-109672665D01*
G37*
G36*
X181857936Y-109672665D02*
G01*
X182012626Y-109736739D01*
X182064322Y-109771282D01*
X182151844Y-109829762D01*
X182270238Y-109948156D01*
X182306793Y-110002865D01*
X182363261Y-110087374D01*
X182427335Y-110242064D01*
X182460000Y-110406282D01*
X182460000Y-110573718D01*
X182427335Y-110737936D01*
X182363261Y-110892626D01*
X182331606Y-110940000D01*
X182270238Y-111031844D01*
X182151844Y-111150238D01*
X182100549Y-111184512D01*
X182012626Y-111243261D01*
X181857936Y-111307335D01*
X181693718Y-111340000D01*
X181526282Y-111340000D01*
X181362064Y-111307335D01*
X181207374Y-111243261D01*
X181119451Y-111184512D01*
X181068156Y-111150238D01*
X180949762Y-111031844D01*
X180888394Y-110940000D01*
X180856739Y-110892626D01*
X180792665Y-110737936D01*
X180760000Y-110573718D01*
X180760000Y-110406282D01*
X180792665Y-110242064D01*
X180856739Y-110087374D01*
X180913207Y-110002865D01*
X180949762Y-109948156D01*
X181068156Y-109829762D01*
X181155678Y-109771282D01*
X181207374Y-109736739D01*
X181362064Y-109672665D01*
X181526282Y-109640000D01*
X181693718Y-109640000D01*
X181857936Y-109672665D01*
G37*
G36*
X184397936Y-109672665D02*
G01*
X184552626Y-109736739D01*
X184604322Y-109771282D01*
X184691844Y-109829762D01*
X184810238Y-109948156D01*
X184846793Y-110002865D01*
X184903261Y-110087374D01*
X184967335Y-110242064D01*
X185000000Y-110406282D01*
X185000000Y-110573718D01*
X184967335Y-110737936D01*
X184903261Y-110892626D01*
X184871606Y-110940000D01*
X184810238Y-111031844D01*
X184691844Y-111150238D01*
X184640549Y-111184512D01*
X184552626Y-111243261D01*
X184397936Y-111307335D01*
X184233718Y-111340000D01*
X184066282Y-111340000D01*
X183902064Y-111307335D01*
X183747374Y-111243261D01*
X183659451Y-111184512D01*
X183608156Y-111150238D01*
X183489762Y-111031844D01*
X183428394Y-110940000D01*
X183396739Y-110892626D01*
X183332665Y-110737936D01*
X183300000Y-110573718D01*
X183300000Y-110406282D01*
X183332665Y-110242064D01*
X183396739Y-110087374D01*
X183453207Y-110002865D01*
X183489762Y-109948156D01*
X183608156Y-109829762D01*
X183695678Y-109771282D01*
X183747374Y-109736739D01*
X183902064Y-109672665D01*
X184066282Y-109640000D01*
X184233718Y-109640000D01*
X184397936Y-109672665D01*
G37*
G36*
X189477936Y-109672665D02*
G01*
X189632626Y-109736739D01*
X189684322Y-109771282D01*
X189771844Y-109829762D01*
X189890238Y-109948156D01*
X189926793Y-110002865D01*
X189983261Y-110087374D01*
X190047335Y-110242064D01*
X190080000Y-110406282D01*
X190080000Y-110573718D01*
X190047335Y-110737936D01*
X189983261Y-110892626D01*
X189951606Y-110940000D01*
X189890238Y-111031844D01*
X189771844Y-111150238D01*
X189720549Y-111184512D01*
X189632626Y-111243261D01*
X189517114Y-111291107D01*
X189477936Y-111307335D01*
X189313718Y-111340000D01*
X189146282Y-111340000D01*
X188982064Y-111307335D01*
X188942886Y-111291107D01*
X188827374Y-111243261D01*
X188739451Y-111184512D01*
X188688156Y-111150238D01*
X188569762Y-111031844D01*
X188508394Y-110940000D01*
X188476739Y-110892626D01*
X188412665Y-110737936D01*
X188380000Y-110573718D01*
X188380000Y-110406282D01*
X188412665Y-110242064D01*
X188476739Y-110087374D01*
X188533207Y-110002865D01*
X188569762Y-109948156D01*
X188688156Y-109829762D01*
X188775678Y-109771282D01*
X188827374Y-109736739D01*
X188982064Y-109672665D01*
X189146282Y-109640000D01*
X189313718Y-109640000D01*
X189477936Y-109672665D01*
G37*
G36*
X186937936Y-109672665D02*
G01*
X187092626Y-109736739D01*
X187144322Y-109771282D01*
X187231844Y-109829762D01*
X187350238Y-109948156D01*
X187386793Y-110002865D01*
X187443261Y-110087374D01*
X187507335Y-110242064D01*
X187540000Y-110406282D01*
X187540000Y-110573718D01*
X187507335Y-110737936D01*
X187443261Y-110892626D01*
X187411606Y-110940000D01*
X187350238Y-111031844D01*
X187231844Y-111150238D01*
X187180549Y-111184512D01*
X187092626Y-111243261D01*
X186937936Y-111307335D01*
X186773718Y-111340000D01*
X186606282Y-111340000D01*
X186442064Y-111307335D01*
X186287374Y-111243261D01*
X186199451Y-111184512D01*
X186148156Y-111150238D01*
X186029762Y-111031844D01*
X185968394Y-110940000D01*
X185936739Y-110892626D01*
X185872665Y-110737936D01*
X185840000Y-110573718D01*
X185840000Y-110406282D01*
X185872665Y-110242064D01*
X185936739Y-110087374D01*
X185993207Y-110002865D01*
X186029762Y-109948156D01*
X186148156Y-109829762D01*
X186235678Y-109771282D01*
X186287374Y-109736739D01*
X186442064Y-109672665D01*
X186606282Y-109640000D01*
X186773718Y-109640000D01*
X186937936Y-109672665D01*
G37*
G36*
X237930000Y-110940000D02*
G01*
X235930000Y-110940000D01*
X235930000Y-107740000D01*
X237930000Y-107740000D01*
X237930000Y-110940000D01*
G37*
G36*
X249130000Y-110940000D02*
G01*
X247130000Y-110940000D01*
X247130000Y-107740000D01*
X249130000Y-107740000D01*
X249130000Y-110940000D01*
G37*
G36*
X94160000Y-110890000D02*
G01*
X93260000Y-110890000D01*
X93260000Y-110090000D01*
X94160000Y-110090000D01*
X94160000Y-110890000D01*
G37*
G36*
X268217936Y-109037665D02*
G01*
X268372626Y-109101739D01*
X268442076Y-109148145D01*
X268511844Y-109194762D01*
X268630238Y-109313156D01*
X268675721Y-109381227D01*
X268723261Y-109452374D01*
X268787335Y-109607064D01*
X268820000Y-109771282D01*
X268820000Y-109938718D01*
X268787335Y-110102936D01*
X268723261Y-110257626D01*
X268676855Y-110327076D01*
X268630238Y-110396844D01*
X268511844Y-110515238D01*
X268442076Y-110561855D01*
X268372626Y-110608261D01*
X268217936Y-110672335D01*
X268053718Y-110705000D01*
X267886282Y-110705000D01*
X267722064Y-110672335D01*
X267567374Y-110608261D01*
X267497924Y-110561855D01*
X267428156Y-110515238D01*
X267309762Y-110396844D01*
X267263145Y-110327076D01*
X267216739Y-110257626D01*
X267152665Y-110102936D01*
X267120000Y-109938718D01*
X267120000Y-109771282D01*
X267152665Y-109607064D01*
X267216739Y-109452374D01*
X267264279Y-109381227D01*
X267309762Y-109313156D01*
X267428156Y-109194762D01*
X267497924Y-109148145D01*
X267567374Y-109101739D01*
X267722064Y-109037665D01*
X267886282Y-109005000D01*
X268053718Y-109005000D01*
X268217936Y-109037665D01*
G37*
G36*
X253450000Y-110570000D02*
G01*
X252550000Y-110570000D01*
X252550000Y-109770000D01*
X253450000Y-109770000D01*
X253450000Y-110570000D01*
G37*
G36*
X137152865Y-109184512D02*
G01*
X137194076Y-109197014D01*
X137232065Y-109217319D01*
X137265358Y-109244642D01*
X137292681Y-109277935D01*
X137312986Y-109315924D01*
X137325488Y-109357135D01*
X137330000Y-109402947D01*
X137330000Y-109957053D01*
X137325488Y-110002865D01*
X137312986Y-110044076D01*
X137292681Y-110082065D01*
X137265358Y-110115358D01*
X137232065Y-110142681D01*
X137194076Y-110162986D01*
X137152865Y-110175488D01*
X137107053Y-110180000D01*
X134052947Y-110180000D01*
X134007135Y-110175488D01*
X133965924Y-110162986D01*
X133927935Y-110142681D01*
X133894642Y-110115358D01*
X133867319Y-110082065D01*
X133847014Y-110044076D01*
X133834512Y-110002865D01*
X133830000Y-109957053D01*
X133830000Y-109402947D01*
X133834512Y-109357135D01*
X133847014Y-109315924D01*
X133867319Y-109277935D01*
X133894642Y-109244642D01*
X133927935Y-109217319D01*
X133965924Y-109197014D01*
X134007135Y-109184512D01*
X134052947Y-109180000D01*
X137107053Y-109180000D01*
X137152865Y-109184512D01*
G37*
G36*
X87210000Y-110070000D02*
G01*
X85510000Y-110070000D01*
X85510000Y-108370000D01*
X87210000Y-108370000D01*
X87210000Y-110070000D01*
G37*
G36*
X92160000Y-109940000D02*
G01*
X91260000Y-109940000D01*
X91260000Y-109140000D01*
X92160000Y-109140000D01*
X92160000Y-109940000D01*
G37*
G36*
X255450000Y-109620000D02*
G01*
X254550000Y-109620000D01*
X254550000Y-108820000D01*
X255450000Y-108820000D01*
X255450000Y-109620000D01*
G37*
G36*
X189477936Y-107132665D02*
G01*
X189632626Y-107196739D01*
X189684322Y-107231282D01*
X189771844Y-107289762D01*
X189890238Y-107408156D01*
X189936855Y-107477924D01*
X189983261Y-107547374D01*
X190047335Y-107702064D01*
X190080000Y-107866282D01*
X190080000Y-108033718D01*
X190047335Y-108197936D01*
X189983261Y-108352626D01*
X189936855Y-108422076D01*
X189890238Y-108491844D01*
X189771844Y-108610238D01*
X189738071Y-108632804D01*
X189632626Y-108703261D01*
X189500794Y-108757867D01*
X189477936Y-108767335D01*
X189313718Y-108800000D01*
X189146282Y-108800000D01*
X188982064Y-108767335D01*
X188959206Y-108757867D01*
X188827374Y-108703261D01*
X188721929Y-108632804D01*
X188688156Y-108610238D01*
X188569762Y-108491844D01*
X188523145Y-108422076D01*
X188476739Y-108352626D01*
X188412665Y-108197936D01*
X188380000Y-108033718D01*
X188380000Y-107866282D01*
X188412665Y-107702064D01*
X188476739Y-107547374D01*
X188523145Y-107477924D01*
X188569762Y-107408156D01*
X188688156Y-107289762D01*
X188775678Y-107231282D01*
X188827374Y-107196739D01*
X188982064Y-107132665D01*
X189146282Y-107100000D01*
X189313718Y-107100000D01*
X189477936Y-107132665D01*
G37*
G36*
X182292804Y-107104275D02*
G01*
X182331706Y-107116075D01*
X182367553Y-107135236D01*
X182398976Y-107161024D01*
X182424764Y-107192447D01*
X182443925Y-107228294D01*
X182455725Y-107267196D01*
X182460000Y-107310595D01*
X182460000Y-108589405D01*
X182455725Y-108632804D01*
X182443925Y-108671706D01*
X182424764Y-108707553D01*
X182398976Y-108738976D01*
X182367553Y-108764764D01*
X182331706Y-108783925D01*
X182292804Y-108795725D01*
X182249405Y-108800000D01*
X180970595Y-108800000D01*
X180927196Y-108795725D01*
X180888294Y-108783925D01*
X180852447Y-108764764D01*
X180821024Y-108738976D01*
X180795236Y-108707553D01*
X180776075Y-108671706D01*
X180764275Y-108632804D01*
X180760000Y-108589405D01*
X180760000Y-107310595D01*
X180764275Y-107267196D01*
X180776075Y-107228294D01*
X180795236Y-107192447D01*
X180821024Y-107161024D01*
X180852447Y-107135236D01*
X180888294Y-107116075D01*
X180927196Y-107104275D01*
X180970595Y-107100000D01*
X182249405Y-107100000D01*
X182292804Y-107104275D01*
G37*
G36*
X184397936Y-107132665D02*
G01*
X184552626Y-107196739D01*
X184604322Y-107231282D01*
X184691844Y-107289762D01*
X184810238Y-107408156D01*
X184856855Y-107477924D01*
X184903261Y-107547374D01*
X184967335Y-107702064D01*
X185000000Y-107866282D01*
X185000000Y-108033718D01*
X184967335Y-108197936D01*
X184903261Y-108352626D01*
X184856855Y-108422076D01*
X184810238Y-108491844D01*
X184691844Y-108610238D01*
X184658071Y-108632804D01*
X184552626Y-108703261D01*
X184420794Y-108757867D01*
X184397936Y-108767335D01*
X184233718Y-108800000D01*
X184066282Y-108800000D01*
X183902064Y-108767335D01*
X183879206Y-108757867D01*
X183747374Y-108703261D01*
X183641929Y-108632804D01*
X183608156Y-108610238D01*
X183489762Y-108491844D01*
X183443145Y-108422076D01*
X183396739Y-108352626D01*
X183332665Y-108197936D01*
X183300000Y-108033718D01*
X183300000Y-107866282D01*
X183332665Y-107702064D01*
X183396739Y-107547374D01*
X183443145Y-107477924D01*
X183489762Y-107408156D01*
X183608156Y-107289762D01*
X183695678Y-107231282D01*
X183747374Y-107196739D01*
X183902064Y-107132665D01*
X184066282Y-107100000D01*
X184233718Y-107100000D01*
X184397936Y-107132665D01*
G37*
G36*
X186937936Y-107132665D02*
G01*
X187092626Y-107196739D01*
X187144322Y-107231282D01*
X187231844Y-107289762D01*
X187350238Y-107408156D01*
X187396855Y-107477924D01*
X187443261Y-107547374D01*
X187507335Y-107702064D01*
X187540000Y-107866282D01*
X187540000Y-108033718D01*
X187507335Y-108197936D01*
X187443261Y-108352626D01*
X187396855Y-108422076D01*
X187350238Y-108491844D01*
X187231844Y-108610238D01*
X187198071Y-108632804D01*
X187092626Y-108703261D01*
X186960794Y-108757867D01*
X186937936Y-108767335D01*
X186773718Y-108800000D01*
X186606282Y-108800000D01*
X186442064Y-108767335D01*
X186419206Y-108757867D01*
X186287374Y-108703261D01*
X186181929Y-108632804D01*
X186148156Y-108610238D01*
X186029762Y-108491844D01*
X185983145Y-108422076D01*
X185936739Y-108352626D01*
X185872665Y-108197936D01*
X185840000Y-108033718D01*
X185840000Y-107866282D01*
X185872665Y-107702064D01*
X185936739Y-107547374D01*
X185983145Y-107477924D01*
X186029762Y-107408156D01*
X186148156Y-107289762D01*
X186235678Y-107231282D01*
X186287374Y-107196739D01*
X186442064Y-107132665D01*
X186606282Y-107100000D01*
X186773718Y-107100000D01*
X186937936Y-107132665D01*
G37*
G36*
X192017936Y-107132665D02*
G01*
X192172626Y-107196739D01*
X192224322Y-107231282D01*
X192311844Y-107289762D01*
X192430238Y-107408156D01*
X192476855Y-107477924D01*
X192523261Y-107547374D01*
X192587335Y-107702064D01*
X192620000Y-107866282D01*
X192620000Y-108033718D01*
X192587335Y-108197936D01*
X192523261Y-108352626D01*
X192476855Y-108422076D01*
X192430238Y-108491844D01*
X192311844Y-108610238D01*
X192278071Y-108632804D01*
X192172626Y-108703261D01*
X192040794Y-108757867D01*
X192017936Y-108767335D01*
X191853718Y-108800000D01*
X191686282Y-108800000D01*
X191522064Y-108767335D01*
X191499206Y-108757867D01*
X191367374Y-108703261D01*
X191261929Y-108632804D01*
X191228156Y-108610238D01*
X191109762Y-108491844D01*
X191063145Y-108422076D01*
X191016739Y-108352626D01*
X190952665Y-108197936D01*
X190920000Y-108033718D01*
X190920000Y-107866282D01*
X190952665Y-107702064D01*
X191016739Y-107547374D01*
X191063145Y-107477924D01*
X191109762Y-107408156D01*
X191228156Y-107289762D01*
X191315678Y-107231282D01*
X191367374Y-107196739D01*
X191522064Y-107132665D01*
X191686282Y-107100000D01*
X191853718Y-107100000D01*
X192017936Y-107132665D01*
G37*
G36*
X253450000Y-108670000D02*
G01*
X252550000Y-108670000D01*
X252550000Y-107870000D01*
X253450000Y-107870000D01*
X253450000Y-108670000D01*
G37*
G36*
X137152865Y-107184512D02*
G01*
X137194076Y-107197014D01*
X137232065Y-107217319D01*
X137265358Y-107244642D01*
X137292681Y-107277935D01*
X137312986Y-107315924D01*
X137325488Y-107357135D01*
X137330000Y-107402947D01*
X137330000Y-107957053D01*
X137325488Y-108002865D01*
X137312986Y-108044076D01*
X137292681Y-108082065D01*
X137265358Y-108115358D01*
X137232065Y-108142681D01*
X137194076Y-108162986D01*
X137152865Y-108175488D01*
X137107053Y-108180000D01*
X134052947Y-108180000D01*
X134007135Y-108175488D01*
X133965924Y-108162986D01*
X133927935Y-108142681D01*
X133894642Y-108115358D01*
X133867319Y-108082065D01*
X133847014Y-108044076D01*
X133834512Y-108002865D01*
X133830000Y-107957053D01*
X133830000Y-107402947D01*
X133834512Y-107357135D01*
X133847014Y-107315924D01*
X133867319Y-107277935D01*
X133894642Y-107244642D01*
X133927935Y-107217319D01*
X133965924Y-107197014D01*
X134007135Y-107184512D01*
X134052947Y-107180000D01*
X137107053Y-107180000D01*
X137152865Y-107184512D01*
G37*
G36*
X268217936Y-106497665D02*
G01*
X268372626Y-106561739D01*
X268424322Y-106596282D01*
X268511844Y-106654762D01*
X268630238Y-106773156D01*
X268676855Y-106842924D01*
X268723261Y-106912374D01*
X268787335Y-107067064D01*
X268820000Y-107231282D01*
X268820000Y-107398718D01*
X268787335Y-107562936D01*
X268723261Y-107717626D01*
X268676855Y-107787076D01*
X268630238Y-107856844D01*
X268511844Y-107975238D01*
X268442076Y-108021855D01*
X268372626Y-108068261D01*
X268217936Y-108132335D01*
X268053718Y-108165000D01*
X267886282Y-108165000D01*
X267722064Y-108132335D01*
X267567374Y-108068261D01*
X267497924Y-108021855D01*
X267428156Y-107975238D01*
X267309762Y-107856844D01*
X267263145Y-107787076D01*
X267216739Y-107717626D01*
X267152665Y-107562936D01*
X267120000Y-107398718D01*
X267120000Y-107231282D01*
X267152665Y-107067064D01*
X267216739Y-106912374D01*
X267263145Y-106842924D01*
X267309762Y-106773156D01*
X267428156Y-106654762D01*
X267515678Y-106596282D01*
X267567374Y-106561739D01*
X267722064Y-106497665D01*
X267886282Y-106465000D01*
X268053718Y-106465000D01*
X268217936Y-106497665D01*
G37*
G36*
X86607936Y-105862665D02*
G01*
X86762626Y-105926739D01*
X86807993Y-105957053D01*
X86901844Y-106019762D01*
X87020238Y-106138156D01*
X87044987Y-106175196D01*
X87113261Y-106277374D01*
X87177335Y-106432064D01*
X87210000Y-106596282D01*
X87210000Y-106763718D01*
X87177335Y-106927936D01*
X87113261Y-107082626D01*
X87073499Y-107142133D01*
X87020238Y-107221844D01*
X86901844Y-107340238D01*
X86840499Y-107381227D01*
X86762626Y-107433261D01*
X86607936Y-107497335D01*
X86443718Y-107530000D01*
X86276282Y-107530000D01*
X86112064Y-107497335D01*
X85957374Y-107433261D01*
X85879501Y-107381227D01*
X85818156Y-107340238D01*
X85699762Y-107221844D01*
X85646501Y-107142133D01*
X85606739Y-107082626D01*
X85542665Y-106927936D01*
X85510000Y-106763718D01*
X85510000Y-106596282D01*
X85542665Y-106432064D01*
X85606739Y-106277374D01*
X85675013Y-106175196D01*
X85699762Y-106138156D01*
X85818156Y-106019762D01*
X85912007Y-105957053D01*
X85957374Y-105926739D01*
X86112064Y-105862665D01*
X86276282Y-105830000D01*
X86443718Y-105830000D01*
X86607936Y-105862665D01*
G37*
G36*
X137152865Y-105184512D02*
G01*
X137194076Y-105197014D01*
X137232065Y-105217319D01*
X137265358Y-105244642D01*
X137292681Y-105277935D01*
X137312986Y-105315924D01*
X137325488Y-105357135D01*
X137330000Y-105402947D01*
X137330000Y-105957053D01*
X137325488Y-106002865D01*
X137312986Y-106044076D01*
X137292681Y-106082065D01*
X137265358Y-106115358D01*
X137232065Y-106142681D01*
X137194076Y-106162986D01*
X137152865Y-106175488D01*
X137107053Y-106180000D01*
X134052947Y-106180000D01*
X134007135Y-106175488D01*
X133965924Y-106162986D01*
X133927935Y-106142681D01*
X133894642Y-106115358D01*
X133867319Y-106082065D01*
X133847014Y-106044076D01*
X133834512Y-106002865D01*
X133830000Y-105957053D01*
X133830000Y-105402947D01*
X133834512Y-105357135D01*
X133847014Y-105315924D01*
X133867319Y-105277935D01*
X133894642Y-105244642D01*
X133927935Y-105217319D01*
X133965924Y-105197014D01*
X134007135Y-105184512D01*
X134052947Y-105180000D01*
X137107053Y-105180000D01*
X137152865Y-105184512D01*
G37*
G36*
X268217936Y-103957665D02*
G01*
X268372626Y-104021739D01*
X268442076Y-104068145D01*
X268511844Y-104114762D01*
X268630238Y-104233156D01*
X268676855Y-104302924D01*
X268723261Y-104372374D01*
X268787335Y-104527064D01*
X268820000Y-104691282D01*
X268820000Y-104858718D01*
X268787335Y-105022936D01*
X268723261Y-105177626D01*
X268693522Y-105222133D01*
X268630238Y-105316844D01*
X268511844Y-105435238D01*
X268442076Y-105481855D01*
X268372626Y-105528261D01*
X268217936Y-105592335D01*
X268053718Y-105625000D01*
X267886282Y-105625000D01*
X267722064Y-105592335D01*
X267567374Y-105528261D01*
X267497924Y-105481855D01*
X267428156Y-105435238D01*
X267309762Y-105316844D01*
X267246478Y-105222133D01*
X267216739Y-105177626D01*
X267152665Y-105022936D01*
X267120000Y-104858718D01*
X267120000Y-104691282D01*
X267152665Y-104527064D01*
X267216739Y-104372374D01*
X267263145Y-104302924D01*
X267309762Y-104233156D01*
X267428156Y-104114762D01*
X267497924Y-104068145D01*
X267567374Y-104021739D01*
X267722064Y-103957665D01*
X267886282Y-103925000D01*
X268053718Y-103925000D01*
X268217936Y-103957665D01*
G37*
G36*
X137152865Y-103184512D02*
G01*
X137194076Y-103197014D01*
X137232065Y-103217319D01*
X137265358Y-103244642D01*
X137292681Y-103277935D01*
X137312986Y-103315924D01*
X137325488Y-103357135D01*
X137330000Y-103402947D01*
X137330000Y-103957053D01*
X137325488Y-104002865D01*
X137312986Y-104044076D01*
X137292681Y-104082065D01*
X137265358Y-104115358D01*
X137232065Y-104142681D01*
X137194076Y-104162986D01*
X137152865Y-104175488D01*
X137107053Y-104180000D01*
X134052947Y-104180000D01*
X134007135Y-104175488D01*
X133965924Y-104162986D01*
X133927935Y-104142681D01*
X133894642Y-104115358D01*
X133867319Y-104082065D01*
X133847014Y-104044076D01*
X133834512Y-104002865D01*
X133830000Y-103957053D01*
X133830000Y-103402947D01*
X133834512Y-103357135D01*
X133847014Y-103315924D01*
X133867319Y-103277935D01*
X133894642Y-103244642D01*
X133927935Y-103217319D01*
X133965924Y-103197014D01*
X134007135Y-103184512D01*
X134052947Y-103180000D01*
X137107053Y-103180000D01*
X137152865Y-103184512D01*
G37*
G36*
X109210000Y-103570000D02*
G01*
X107110000Y-103570000D01*
X107110000Y-102170000D01*
X109210000Y-102170000D01*
X109210000Y-103570000D01*
G37*
G36*
X100110000Y-103570000D02*
G01*
X98010000Y-103570000D01*
X98010000Y-102170000D01*
X100110000Y-102170000D01*
X100110000Y-103570000D01*
G37*
G36*
X240214636Y-101357135D02*
G01*
X240321689Y-101378429D01*
X240503678Y-101453811D01*
X240667463Y-101563249D01*
X240806751Y-101702537D01*
X240916189Y-101866322D01*
X240991571Y-102048311D01*
X240991571Y-102048313D01*
X241030000Y-102241507D01*
X241030000Y-102438493D01*
X241010785Y-102535090D01*
X240991571Y-102631689D01*
X240916189Y-102813678D01*
X240806751Y-102977463D01*
X240667463Y-103116751D01*
X240503678Y-103226189D01*
X240321689Y-103301571D01*
X240225090Y-103320786D01*
X240128493Y-103340000D01*
X239931507Y-103340000D01*
X239834910Y-103320785D01*
X239738311Y-103301571D01*
X239556322Y-103226189D01*
X239392537Y-103116751D01*
X239253249Y-102977463D01*
X239143811Y-102813678D01*
X239068429Y-102631689D01*
X239049215Y-102535090D01*
X239030000Y-102438493D01*
X239030000Y-102241507D01*
X239068429Y-102048313D01*
X239068429Y-102048311D01*
X239143811Y-101866322D01*
X239253249Y-101702537D01*
X239392537Y-101563249D01*
X239556322Y-101453811D01*
X239738311Y-101378429D01*
X239845364Y-101357135D01*
X239931507Y-101340000D01*
X240128493Y-101340000D01*
X240214636Y-101357135D01*
G37*
G36*
X245214636Y-101357135D02*
G01*
X245321689Y-101378429D01*
X245503678Y-101453811D01*
X245667463Y-101563249D01*
X245806751Y-101702537D01*
X245916189Y-101866322D01*
X245991571Y-102048311D01*
X245991571Y-102048313D01*
X246030000Y-102241507D01*
X246030000Y-102438493D01*
X246010785Y-102535090D01*
X245991571Y-102631689D01*
X245916189Y-102813678D01*
X245806751Y-102977463D01*
X245667463Y-103116751D01*
X245503678Y-103226189D01*
X245321689Y-103301571D01*
X245225090Y-103320786D01*
X245128493Y-103340000D01*
X244931507Y-103340000D01*
X244834910Y-103320785D01*
X244738311Y-103301571D01*
X244556322Y-103226189D01*
X244392537Y-103116751D01*
X244253249Y-102977463D01*
X244143811Y-102813678D01*
X244068429Y-102631689D01*
X244049215Y-102535090D01*
X244030000Y-102438493D01*
X244030000Y-102241507D01*
X244068429Y-102048313D01*
X244068429Y-102048311D01*
X244143811Y-101866322D01*
X244253249Y-101702537D01*
X244392537Y-101563249D01*
X244556322Y-101453811D01*
X244738311Y-101378429D01*
X244845364Y-101357135D01*
X244931507Y-101340000D01*
X245128493Y-101340000D01*
X245214636Y-101357135D01*
G37*
G36*
X268217936Y-101417665D02*
G01*
X268372626Y-101481739D01*
X268442076Y-101528145D01*
X268511844Y-101574762D01*
X268630238Y-101693156D01*
X268636507Y-101702539D01*
X268723261Y-101832374D01*
X268787335Y-101987064D01*
X268820000Y-102151282D01*
X268820000Y-102318718D01*
X268787335Y-102482936D01*
X268723261Y-102637626D01*
X268676855Y-102707076D01*
X268630238Y-102776844D01*
X268511844Y-102895238D01*
X268442076Y-102941855D01*
X268372626Y-102988261D01*
X268217936Y-103052335D01*
X268053718Y-103085000D01*
X267886282Y-103085000D01*
X267722064Y-103052335D01*
X267567374Y-102988261D01*
X267497924Y-102941855D01*
X267428156Y-102895238D01*
X267309762Y-102776844D01*
X267263145Y-102707076D01*
X267216739Y-102637626D01*
X267152665Y-102482936D01*
X267120000Y-102318718D01*
X267120000Y-102151282D01*
X267152665Y-101987064D01*
X267216739Y-101832374D01*
X267303493Y-101702539D01*
X267309762Y-101693156D01*
X267428156Y-101574762D01*
X267497924Y-101528145D01*
X267567374Y-101481739D01*
X267722064Y-101417665D01*
X267886282Y-101385000D01*
X268053718Y-101385000D01*
X268217936Y-101417665D01*
G37*
G36*
X137152865Y-101184512D02*
G01*
X137194076Y-101197014D01*
X137232065Y-101217319D01*
X137265358Y-101244642D01*
X137292681Y-101277935D01*
X137312986Y-101315924D01*
X137325488Y-101357135D01*
X137330000Y-101402947D01*
X137330000Y-101957053D01*
X137325488Y-102002865D01*
X137312986Y-102044076D01*
X137292681Y-102082065D01*
X137265358Y-102115358D01*
X137232065Y-102142681D01*
X137194076Y-102162986D01*
X137152865Y-102175488D01*
X137107053Y-102180000D01*
X134052947Y-102180000D01*
X134007135Y-102175488D01*
X133965924Y-102162986D01*
X133927935Y-102142681D01*
X133894642Y-102115358D01*
X133867319Y-102082065D01*
X133847014Y-102044076D01*
X133834512Y-102002865D01*
X133830000Y-101957053D01*
X133830000Y-101402947D01*
X133834512Y-101357135D01*
X133847014Y-101315924D01*
X133867319Y-101277935D01*
X133894642Y-101244642D01*
X133927935Y-101217319D01*
X133965924Y-101197014D01*
X134007135Y-101184512D01*
X134052947Y-101180000D01*
X137107053Y-101180000D01*
X137152865Y-101184512D01*
G37*
G36*
X258470000Y-101160000D02*
G01*
X256970000Y-101160000D01*
X256970000Y-100160000D01*
X258470000Y-100160000D01*
X258470000Y-101160000D01*
G37*
G36*
X253570000Y-101160000D02*
G01*
X252070000Y-101160000D01*
X252070000Y-100160000D01*
X253570000Y-100160000D01*
X253570000Y-101160000D01*
G37*
G36*
X233070000Y-101160000D02*
G01*
X231570000Y-101160000D01*
X231570000Y-100160000D01*
X233070000Y-100160000D01*
X233070000Y-101160000D01*
G37*
G36*
X228170000Y-101160000D02*
G01*
X226670000Y-101160000D01*
X226670000Y-100160000D01*
X228170000Y-100160000D01*
X228170000Y-101160000D01*
G37*
G36*
X112480000Y-100410000D02*
G01*
X111580000Y-100410000D01*
X111580000Y-99610000D01*
X112480000Y-99610000D01*
X112480000Y-100410000D01*
G37*
G36*
X137152865Y-99184512D02*
G01*
X137194076Y-99197014D01*
X137232065Y-99217319D01*
X137265358Y-99244642D01*
X137292681Y-99277935D01*
X137312986Y-99315924D01*
X137325488Y-99357135D01*
X137330000Y-99402947D01*
X137330000Y-99957053D01*
X137325488Y-100002865D01*
X137312986Y-100044076D01*
X137292681Y-100082065D01*
X137265358Y-100115358D01*
X137232065Y-100142681D01*
X137194076Y-100162986D01*
X137152865Y-100175488D01*
X137107053Y-100180000D01*
X134052947Y-100180000D01*
X134007135Y-100175488D01*
X133965924Y-100162986D01*
X133927935Y-100142681D01*
X133894642Y-100115358D01*
X133867319Y-100082065D01*
X133847014Y-100044076D01*
X133834512Y-100002865D01*
X133830000Y-99957053D01*
X133830000Y-99402947D01*
X133834512Y-99357135D01*
X133847014Y-99315924D01*
X133867319Y-99277935D01*
X133894642Y-99244642D01*
X133927935Y-99217319D01*
X133965924Y-99197014D01*
X134007135Y-99184512D01*
X134052947Y-99180000D01*
X137107053Y-99180000D01*
X137152865Y-99184512D01*
G37*
G36*
X186937936Y-98242665D02*
G01*
X187092626Y-98306739D01*
X187162076Y-98353145D01*
X187231844Y-98399762D01*
X187350238Y-98518156D01*
X187396855Y-98587924D01*
X187443261Y-98657374D01*
X187507335Y-98812064D01*
X187540000Y-98976282D01*
X187540000Y-99143718D01*
X187507335Y-99307936D01*
X187443261Y-99462626D01*
X187396855Y-99532076D01*
X187350238Y-99601844D01*
X187231844Y-99720238D01*
X187162076Y-99766855D01*
X187092626Y-99813261D01*
X186937936Y-99877335D01*
X186773718Y-99910000D01*
X186606282Y-99910000D01*
X186442064Y-99877335D01*
X186287374Y-99813261D01*
X186217924Y-99766855D01*
X186148156Y-99720238D01*
X186029762Y-99601844D01*
X185983145Y-99532076D01*
X185936739Y-99462626D01*
X185872665Y-99307936D01*
X185840000Y-99143718D01*
X185840000Y-98976282D01*
X185872665Y-98812064D01*
X185936739Y-98657374D01*
X185983145Y-98587924D01*
X186029762Y-98518156D01*
X186148156Y-98399762D01*
X186217924Y-98353145D01*
X186287374Y-98306739D01*
X186442064Y-98242665D01*
X186606282Y-98210000D01*
X186773718Y-98210000D01*
X186937936Y-98242665D01*
G37*
G36*
X184397936Y-98242665D02*
G01*
X184552626Y-98306739D01*
X184622076Y-98353145D01*
X184691844Y-98399762D01*
X184810238Y-98518156D01*
X184856855Y-98587924D01*
X184903261Y-98657374D01*
X184967335Y-98812064D01*
X185000000Y-98976282D01*
X185000000Y-99143718D01*
X184967335Y-99307936D01*
X184903261Y-99462626D01*
X184856855Y-99532076D01*
X184810238Y-99601844D01*
X184691844Y-99720238D01*
X184622076Y-99766855D01*
X184552626Y-99813261D01*
X184397936Y-99877335D01*
X184233718Y-99910000D01*
X184066282Y-99910000D01*
X183902064Y-99877335D01*
X183747374Y-99813261D01*
X183677924Y-99766855D01*
X183608156Y-99720238D01*
X183489762Y-99601844D01*
X183443145Y-99532076D01*
X183396739Y-99462626D01*
X183332665Y-99307936D01*
X183300000Y-99143718D01*
X183300000Y-98976282D01*
X183332665Y-98812064D01*
X183396739Y-98657374D01*
X183443145Y-98587924D01*
X183489762Y-98518156D01*
X183608156Y-98399762D01*
X183677924Y-98353145D01*
X183747374Y-98306739D01*
X183902064Y-98242665D01*
X184066282Y-98210000D01*
X184233718Y-98210000D01*
X184397936Y-98242665D01*
G37*
G36*
X181857936Y-98242665D02*
G01*
X182012626Y-98306739D01*
X182082076Y-98353145D01*
X182151844Y-98399762D01*
X182270238Y-98518156D01*
X182316855Y-98587924D01*
X182363261Y-98657374D01*
X182427335Y-98812064D01*
X182460000Y-98976282D01*
X182460000Y-99143718D01*
X182427335Y-99307936D01*
X182363261Y-99462626D01*
X182316855Y-99532076D01*
X182270238Y-99601844D01*
X182151844Y-99720238D01*
X182082076Y-99766855D01*
X182012626Y-99813261D01*
X181857936Y-99877335D01*
X181693718Y-99910000D01*
X181526282Y-99910000D01*
X181362064Y-99877335D01*
X181207374Y-99813261D01*
X181137924Y-99766855D01*
X181068156Y-99720238D01*
X180949762Y-99601844D01*
X180903145Y-99532076D01*
X180856739Y-99462626D01*
X180792665Y-99307936D01*
X180760000Y-99143718D01*
X180760000Y-98976282D01*
X180792665Y-98812064D01*
X180856739Y-98657374D01*
X180903145Y-98587924D01*
X180949762Y-98518156D01*
X181068156Y-98399762D01*
X181137924Y-98353145D01*
X181207374Y-98306739D01*
X181362064Y-98242665D01*
X181526282Y-98210000D01*
X181693718Y-98210000D01*
X181857936Y-98242665D01*
G37*
G36*
X170427936Y-98242665D02*
G01*
X170582626Y-98306739D01*
X170652076Y-98353145D01*
X170721844Y-98399762D01*
X170840238Y-98518156D01*
X170886855Y-98587924D01*
X170933261Y-98657374D01*
X170997335Y-98812064D01*
X171030000Y-98976282D01*
X171030000Y-99143718D01*
X170997335Y-99307936D01*
X170933261Y-99462626D01*
X170886855Y-99532076D01*
X170840238Y-99601844D01*
X170721844Y-99720238D01*
X170652076Y-99766855D01*
X170582626Y-99813261D01*
X170427936Y-99877335D01*
X170263718Y-99910000D01*
X170096282Y-99910000D01*
X169932064Y-99877335D01*
X169777374Y-99813261D01*
X169707924Y-99766855D01*
X169638156Y-99720238D01*
X169519762Y-99601844D01*
X169473145Y-99532076D01*
X169426739Y-99462626D01*
X169362665Y-99307936D01*
X169330000Y-99143718D01*
X169330000Y-98976282D01*
X169362665Y-98812064D01*
X169426739Y-98657374D01*
X169473145Y-98587924D01*
X169519762Y-98518156D01*
X169638156Y-98399762D01*
X169707924Y-98353145D01*
X169777374Y-98306739D01*
X169932064Y-98242665D01*
X170096282Y-98210000D01*
X170263718Y-98210000D01*
X170427936Y-98242665D01*
G37*
G36*
X168490000Y-99910000D02*
G01*
X166790000Y-99910000D01*
X166790000Y-98210000D01*
X168490000Y-98210000D01*
X168490000Y-99910000D01*
G37*
G36*
X114480000Y-99460000D02*
G01*
X113580000Y-99460000D01*
X113580000Y-98660000D01*
X114480000Y-98660000D01*
X114480000Y-99460000D01*
G37*
G36*
X109210000Y-99070000D02*
G01*
X107110000Y-99070000D01*
X107110000Y-97670000D01*
X109210000Y-97670000D01*
X109210000Y-99070000D01*
G37*
G36*
X100110000Y-99070000D02*
G01*
X98010000Y-99070000D01*
X98010000Y-97670000D01*
X100110000Y-97670000D01*
X100110000Y-99070000D01*
G37*
G36*
X196326000Y-99044000D02*
G01*
X194326000Y-99044000D01*
X194326000Y-97044000D01*
X196326000Y-97044000D01*
X196326000Y-99044000D01*
G37*
G36*
X112480000Y-98510000D02*
G01*
X111580000Y-98510000D01*
X111580000Y-97710000D01*
X112480000Y-97710000D01*
X112480000Y-98510000D01*
G37*
G36*
X130499065Y-96791340D02*
G01*
X130538600Y-96803333D01*
X130575041Y-96822811D01*
X130606979Y-96849021D01*
X130633189Y-96880959D01*
X130652667Y-96917400D01*
X130664660Y-96956935D01*
X130669000Y-97001000D01*
X130669000Y-97998000D01*
X130664660Y-98042065D01*
X130652667Y-98081600D01*
X130633189Y-98118041D01*
X130606979Y-98149979D01*
X130575041Y-98176189D01*
X130538600Y-98195667D01*
X130499065Y-98207660D01*
X130455000Y-98212000D01*
X129133000Y-98212000D01*
X129088935Y-98207660D01*
X129049400Y-98195667D01*
X129012959Y-98176189D01*
X128981021Y-98149979D01*
X128954811Y-98118041D01*
X128935333Y-98081600D01*
X128923340Y-98042065D01*
X128919000Y-97998000D01*
X128919000Y-97001000D01*
X128923340Y-96956935D01*
X128935333Y-96917400D01*
X128954811Y-96880959D01*
X128981021Y-96849021D01*
X129012959Y-96822811D01*
X129049400Y-96803333D01*
X129088935Y-96791340D01*
X129133000Y-96787000D01*
X130455000Y-96787000D01*
X130499065Y-96791340D01*
G37*
G36*
X137152865Y-97184512D02*
G01*
X137194076Y-97197014D01*
X137232065Y-97217319D01*
X137265358Y-97244642D01*
X137292681Y-97277935D01*
X137312986Y-97315924D01*
X137325488Y-97357135D01*
X137330000Y-97402947D01*
X137330000Y-97957053D01*
X137325488Y-98002865D01*
X137312986Y-98044076D01*
X137292681Y-98082065D01*
X137265358Y-98115358D01*
X137232065Y-98142681D01*
X137194076Y-98162986D01*
X137152865Y-98175488D01*
X137107053Y-98180000D01*
X134052947Y-98180000D01*
X134007135Y-98175488D01*
X133965924Y-98162986D01*
X133927935Y-98142681D01*
X133894642Y-98115358D01*
X133867319Y-98082065D01*
X133847014Y-98044076D01*
X133834512Y-98002865D01*
X133830000Y-97957053D01*
X133830000Y-97402947D01*
X133834512Y-97357135D01*
X133847014Y-97315924D01*
X133867319Y-97277935D01*
X133894642Y-97244642D01*
X133927935Y-97217319D01*
X133965924Y-97197014D01*
X134007135Y-97184512D01*
X134052947Y-97180000D01*
X137107053Y-97180000D01*
X137152865Y-97184512D01*
G37*
G36*
X258470000Y-97960000D02*
G01*
X256970000Y-97960000D01*
X256970000Y-96960000D01*
X258470000Y-96960000D01*
X258470000Y-97960000D01*
G37*
G36*
X253570000Y-97960000D02*
G01*
X252070000Y-97960000D01*
X252070000Y-96960000D01*
X253570000Y-96960000D01*
X253570000Y-97960000D01*
G37*
G36*
X228170000Y-97960000D02*
G01*
X226670000Y-97960000D01*
X226670000Y-96960000D01*
X228170000Y-96960000D01*
X228170000Y-97960000D01*
G37*
G36*
X233070000Y-97960000D02*
G01*
X231570000Y-97960000D01*
X231570000Y-96960000D01*
X233070000Y-96960000D01*
X233070000Y-97960000D01*
G37*
G36*
X182292804Y-95674275D02*
G01*
X182331706Y-95686075D01*
X182367553Y-95705236D01*
X182398976Y-95731024D01*
X182424764Y-95762447D01*
X182443925Y-95798294D01*
X182455725Y-95837196D01*
X182460000Y-95880595D01*
X182460000Y-97159405D01*
X182455725Y-97202804D01*
X182443925Y-97241706D01*
X182424764Y-97277553D01*
X182398976Y-97308976D01*
X182367553Y-97334764D01*
X182331706Y-97353925D01*
X182292804Y-97365725D01*
X182249405Y-97370000D01*
X180970595Y-97370000D01*
X180927196Y-97365725D01*
X180888294Y-97353925D01*
X180852447Y-97334764D01*
X180821024Y-97308976D01*
X180795236Y-97277553D01*
X180776075Y-97241706D01*
X180764275Y-97202804D01*
X180760000Y-97159405D01*
X180760000Y-95880595D01*
X180764275Y-95837196D01*
X180776075Y-95798294D01*
X180795236Y-95762447D01*
X180821024Y-95731024D01*
X180852447Y-95705236D01*
X180888294Y-95686075D01*
X180927196Y-95674275D01*
X180970595Y-95670000D01*
X182249405Y-95670000D01*
X182292804Y-95674275D01*
G37*
G36*
X184397936Y-95702665D02*
G01*
X184552626Y-95766739D01*
X184622076Y-95813145D01*
X184691844Y-95859762D01*
X184810238Y-95978156D01*
X184850135Y-96037867D01*
X184903261Y-96117374D01*
X184967335Y-96272064D01*
X185000000Y-96436282D01*
X185000000Y-96603718D01*
X184967335Y-96767936D01*
X184903261Y-96922626D01*
X184880336Y-96956935D01*
X184810238Y-97061844D01*
X184691844Y-97180238D01*
X184658071Y-97202804D01*
X184552626Y-97273261D01*
X184397936Y-97337335D01*
X184233718Y-97370000D01*
X184066282Y-97370000D01*
X183902064Y-97337335D01*
X183747374Y-97273261D01*
X183641929Y-97202804D01*
X183608156Y-97180238D01*
X183489762Y-97061844D01*
X183419664Y-96956935D01*
X183396739Y-96922626D01*
X183332665Y-96767936D01*
X183300000Y-96603718D01*
X183300000Y-96436282D01*
X183332665Y-96272064D01*
X183396739Y-96117374D01*
X183449865Y-96037867D01*
X183489762Y-95978156D01*
X183608156Y-95859762D01*
X183677924Y-95813145D01*
X183747374Y-95766739D01*
X183902064Y-95702665D01*
X184066282Y-95670000D01*
X184233718Y-95670000D01*
X184397936Y-95702665D01*
G37*
G36*
X186937936Y-95702665D02*
G01*
X187092626Y-95766739D01*
X187162076Y-95813145D01*
X187231844Y-95859762D01*
X187350238Y-95978156D01*
X187390135Y-96037867D01*
X187443261Y-96117374D01*
X187507335Y-96272064D01*
X187540000Y-96436282D01*
X187540000Y-96603718D01*
X187507335Y-96767936D01*
X187443261Y-96922626D01*
X187420336Y-96956935D01*
X187350238Y-97061844D01*
X187231844Y-97180238D01*
X187198071Y-97202804D01*
X187092626Y-97273261D01*
X186960794Y-97327867D01*
X186937936Y-97337335D01*
X186773718Y-97370000D01*
X186606282Y-97370000D01*
X186442064Y-97337335D01*
X186419206Y-97327867D01*
X186287374Y-97273261D01*
X186181929Y-97202804D01*
X186148156Y-97180238D01*
X186029762Y-97061844D01*
X185959664Y-96956935D01*
X185936739Y-96922626D01*
X185872665Y-96767936D01*
X185840000Y-96603718D01*
X185840000Y-96436282D01*
X185872665Y-96272064D01*
X185936739Y-96117374D01*
X185989865Y-96037867D01*
X186029762Y-95978156D01*
X186148156Y-95859762D01*
X186217924Y-95813145D01*
X186287374Y-95766739D01*
X186442064Y-95702665D01*
X186606282Y-95670000D01*
X186773718Y-95670000D01*
X186937936Y-95702665D01*
G37*
G36*
X142860913Y-94584320D02*
G01*
X142900249Y-94596253D01*
X142936509Y-94615634D01*
X142968287Y-94641713D01*
X142994366Y-94673491D01*
X143013747Y-94709751D01*
X143025680Y-94749087D01*
X143030000Y-94792948D01*
X143030000Y-95867052D01*
X143025680Y-95910913D01*
X143013747Y-95950249D01*
X142994366Y-95986509D01*
X142968287Y-96018287D01*
X142936509Y-96044366D01*
X142900249Y-96063747D01*
X142860913Y-96075680D01*
X142817052Y-96080000D01*
X139842948Y-96080000D01*
X139799087Y-96075680D01*
X139759751Y-96063747D01*
X139723491Y-96044366D01*
X139691713Y-96018287D01*
X139665634Y-95986509D01*
X139646253Y-95950249D01*
X139634320Y-95910913D01*
X139630000Y-95867052D01*
X139630000Y-94792948D01*
X139634320Y-94749087D01*
X139646253Y-94709751D01*
X139665634Y-94673491D01*
X139691713Y-94641713D01*
X139723491Y-94615634D01*
X139759751Y-94596253D01*
X139799087Y-94584320D01*
X139842948Y-94580000D01*
X142817052Y-94580000D01*
X142860913Y-94584320D01*
G37*
G36*
X130499065Y-93816340D02*
G01*
X130538600Y-93828333D01*
X130575041Y-93847811D01*
X130606979Y-93874021D01*
X130633189Y-93905959D01*
X130652667Y-93942400D01*
X130664660Y-93981935D01*
X130669000Y-94026000D01*
X130669000Y-95023000D01*
X130664660Y-95067065D01*
X130652667Y-95106600D01*
X130633189Y-95143041D01*
X130606979Y-95174979D01*
X130575041Y-95201189D01*
X130538600Y-95220667D01*
X130499065Y-95232660D01*
X130455000Y-95237000D01*
X129133000Y-95237000D01*
X129088935Y-95232660D01*
X129049400Y-95220667D01*
X129012959Y-95201189D01*
X128981021Y-95174979D01*
X128954811Y-95143041D01*
X128935333Y-95106600D01*
X128923340Y-95067065D01*
X128919000Y-95023000D01*
X128919000Y-94026000D01*
X128923340Y-93981935D01*
X128935333Y-93942400D01*
X128954811Y-93905959D01*
X128981021Y-93874021D01*
X129012959Y-93847811D01*
X129049400Y-93828333D01*
X129088935Y-93816340D01*
X129133000Y-93812000D01*
X130455000Y-93812000D01*
X130499065Y-93816340D01*
G37*
G36*
X227976015Y-93284437D02*
G01*
X228016494Y-93296716D01*
X228053802Y-93316658D01*
X228086504Y-93343496D01*
X228113342Y-93376198D01*
X228133284Y-93413506D01*
X228145563Y-93453985D01*
X228150000Y-93499034D01*
X228150000Y-94460966D01*
X228145563Y-94506015D01*
X228133284Y-94546494D01*
X228113342Y-94583802D01*
X228086504Y-94616504D01*
X228053802Y-94643342D01*
X228016494Y-94663284D01*
X227976015Y-94675563D01*
X227930966Y-94680000D01*
X227219034Y-94680000D01*
X227173985Y-94675563D01*
X227133506Y-94663284D01*
X227096198Y-94643342D01*
X227063496Y-94616504D01*
X227036658Y-94583802D01*
X227016716Y-94546494D01*
X227004437Y-94506015D01*
X227000000Y-94460966D01*
X227000000Y-93499034D01*
X227004437Y-93453985D01*
X227016716Y-93413506D01*
X227036658Y-93376198D01*
X227063496Y-93343496D01*
X227096198Y-93316658D01*
X227133506Y-93296716D01*
X227173985Y-93284437D01*
X227219034Y-93280000D01*
X227930966Y-93280000D01*
X227976015Y-93284437D01*
G37*
G36*
X230026015Y-93284437D02*
G01*
X230066494Y-93296716D01*
X230103802Y-93316658D01*
X230136504Y-93343496D01*
X230163342Y-93376198D01*
X230183284Y-93413506D01*
X230195563Y-93453985D01*
X230200000Y-93499034D01*
X230200000Y-94460966D01*
X230195563Y-94506015D01*
X230183284Y-94546494D01*
X230163342Y-94583802D01*
X230136504Y-94616504D01*
X230103802Y-94643342D01*
X230066494Y-94663284D01*
X230026015Y-94675563D01*
X229980966Y-94680000D01*
X229269034Y-94680000D01*
X229223985Y-94675563D01*
X229183506Y-94663284D01*
X229146198Y-94643342D01*
X229113496Y-94616504D01*
X229086658Y-94583802D01*
X229066716Y-94546494D01*
X229054437Y-94506015D01*
X229050000Y-94460966D01*
X229050000Y-93499034D01*
X229054437Y-93453985D01*
X229066716Y-93413506D01*
X229086658Y-93376198D01*
X229113496Y-93343496D01*
X229146198Y-93316658D01*
X229183506Y-93296716D01*
X229223985Y-93284437D01*
X229269034Y-93280000D01*
X229980966Y-93280000D01*
X230026015Y-93284437D01*
G37*
G36*
X253376015Y-93284437D02*
G01*
X253416494Y-93296716D01*
X253453802Y-93316658D01*
X253486504Y-93343496D01*
X253513342Y-93376198D01*
X253533284Y-93413506D01*
X253545563Y-93453985D01*
X253550000Y-93499034D01*
X253550000Y-94460966D01*
X253545563Y-94506015D01*
X253533284Y-94546494D01*
X253513342Y-94583802D01*
X253486504Y-94616504D01*
X253453802Y-94643342D01*
X253416494Y-94663284D01*
X253376015Y-94675563D01*
X253330966Y-94680000D01*
X252619034Y-94680000D01*
X252573985Y-94675563D01*
X252533506Y-94663284D01*
X252496198Y-94643342D01*
X252463496Y-94616504D01*
X252436658Y-94583802D01*
X252416716Y-94546494D01*
X252404437Y-94506015D01*
X252400000Y-94460966D01*
X252400000Y-93499034D01*
X252404437Y-93453985D01*
X252416716Y-93413506D01*
X252436658Y-93376198D01*
X252463496Y-93343496D01*
X252496198Y-93316658D01*
X252533506Y-93296716D01*
X252573985Y-93284437D01*
X252619034Y-93280000D01*
X253330966Y-93280000D01*
X253376015Y-93284437D01*
G37*
G36*
X255426015Y-93284437D02*
G01*
X255466494Y-93296716D01*
X255503802Y-93316658D01*
X255536504Y-93343496D01*
X255563342Y-93376198D01*
X255583284Y-93413506D01*
X255595563Y-93453985D01*
X255600000Y-93499034D01*
X255600000Y-94460966D01*
X255595563Y-94506015D01*
X255583284Y-94546494D01*
X255563342Y-94583802D01*
X255536504Y-94616504D01*
X255503802Y-94643342D01*
X255466494Y-94663284D01*
X255426015Y-94675563D01*
X255380966Y-94680000D01*
X254669034Y-94680000D01*
X254623985Y-94675563D01*
X254583506Y-94663284D01*
X254546198Y-94643342D01*
X254513496Y-94616504D01*
X254486658Y-94583802D01*
X254466716Y-94546494D01*
X254454437Y-94506015D01*
X254450000Y-94460966D01*
X254450000Y-93499034D01*
X254454437Y-93453985D01*
X254466716Y-93413506D01*
X254486658Y-93376198D01*
X254513496Y-93343496D01*
X254546198Y-93316658D01*
X254583506Y-93296716D01*
X254623985Y-93284437D01*
X254669034Y-93280000D01*
X255380966Y-93280000D01*
X255426015Y-93284437D01*
G37*
G36*
X88724000Y-92270000D02*
G01*
X87224000Y-92270000D01*
X87224000Y-91270000D01*
X88724000Y-91270000D01*
X88724000Y-92270000D01*
G37*
G36*
X93624000Y-92270000D02*
G01*
X92124000Y-92270000D01*
X92124000Y-91270000D01*
X93624000Y-91270000D01*
X93624000Y-92270000D01*
G37*
G36*
X98884000Y-92270000D02*
G01*
X97384000Y-92270000D01*
X97384000Y-91270000D01*
X98884000Y-91270000D01*
X98884000Y-92270000D01*
G37*
G36*
X113944000Y-92270000D02*
G01*
X112444000Y-92270000D01*
X112444000Y-91270000D01*
X113944000Y-91270000D01*
X113944000Y-92270000D01*
G37*
G36*
X109044000Y-92270000D02*
G01*
X107544000Y-92270000D01*
X107544000Y-91270000D01*
X109044000Y-91270000D01*
X109044000Y-92270000D01*
G37*
G36*
X103784000Y-92270000D02*
G01*
X102284000Y-92270000D01*
X102284000Y-91270000D01*
X103784000Y-91270000D01*
X103784000Y-92270000D01*
G37*
G36*
X243570000Y-91805000D02*
G01*
X241570000Y-91805000D01*
X241570000Y-89805000D01*
X243570000Y-89805000D01*
X243570000Y-91805000D01*
G37*
G36*
X205693378Y-87626859D02*
G01*
X206057355Y-87777623D01*
X206384926Y-87996499D01*
X206663501Y-88275074D01*
X206882377Y-88602645D01*
X207033141Y-88966622D01*
X207110000Y-89353017D01*
X207110000Y-89746983D01*
X207033141Y-90133378D01*
X206882377Y-90497355D01*
X206663501Y-90824926D01*
X206384926Y-91103501D01*
X206057355Y-91322377D01*
X205693378Y-91473141D01*
X205306983Y-91550000D01*
X204913017Y-91550000D01*
X204526622Y-91473141D01*
X204162645Y-91322377D01*
X203835074Y-91103501D01*
X203556499Y-90824926D01*
X203337623Y-90497355D01*
X203186859Y-90133378D01*
X203110000Y-89746983D01*
X203110000Y-89353017D01*
X203186859Y-88966622D01*
X203337623Y-88602645D01*
X203556499Y-88275074D01*
X203835074Y-87996499D01*
X204162645Y-87777623D01*
X204526622Y-87626859D01*
X204913017Y-87550000D01*
X205306983Y-87550000D01*
X205693378Y-87626859D01*
G37*
G36*
X121193378Y-87626859D02*
G01*
X121557355Y-87777623D01*
X121884926Y-87996499D01*
X122163501Y-88275074D01*
X122382377Y-88602645D01*
X122533141Y-88966622D01*
X122610000Y-89353017D01*
X122610000Y-89746983D01*
X122533141Y-90133378D01*
X122382377Y-90497355D01*
X122163501Y-90824926D01*
X121884926Y-91103501D01*
X121557355Y-91322377D01*
X121193378Y-91473141D01*
X120806983Y-91550000D01*
X120413017Y-91550000D01*
X120026622Y-91473141D01*
X119662645Y-91322377D01*
X119335074Y-91103501D01*
X119056499Y-90824926D01*
X118837623Y-90497355D01*
X118686859Y-90133378D01*
X118610000Y-89746983D01*
X118610000Y-89353017D01*
X118686859Y-88966622D01*
X118837623Y-88602645D01*
X119056499Y-88275074D01*
X119335074Y-87996499D01*
X119662645Y-87777623D01*
X120026622Y-87626859D01*
X120413017Y-87550000D01*
X120806983Y-87550000D01*
X121193378Y-87626859D01*
G37*
G36*
X109044000Y-89070000D02*
G01*
X107544000Y-89070000D01*
X107544000Y-88070000D01*
X109044000Y-88070000D01*
X109044000Y-89070000D01*
G37*
G36*
X113944000Y-89070000D02*
G01*
X112444000Y-89070000D01*
X112444000Y-88070000D01*
X113944000Y-88070000D01*
X113944000Y-89070000D01*
G37*
G36*
X103784000Y-89070000D02*
G01*
X102284000Y-89070000D01*
X102284000Y-88070000D01*
X103784000Y-88070000D01*
X103784000Y-89070000D01*
G37*
G36*
X98884000Y-89070000D02*
G01*
X97384000Y-89070000D01*
X97384000Y-88070000D01*
X98884000Y-88070000D01*
X98884000Y-89070000D01*
G37*
G36*
X93624000Y-89070000D02*
G01*
X92124000Y-89070000D01*
X92124000Y-88070000D01*
X93624000Y-88070000D01*
X93624000Y-89070000D01*
G37*
G36*
X88724000Y-89070000D02*
G01*
X87224000Y-89070000D01*
X87224000Y-88070000D01*
X88724000Y-88070000D01*
X88724000Y-89070000D01*
G37*
G36*
X113694015Y-84902437D02*
G01*
X113734494Y-84914716D01*
X113771802Y-84934658D01*
X113804504Y-84961496D01*
X113831342Y-84994198D01*
X113851284Y-85031506D01*
X113863563Y-85071985D01*
X113868000Y-85117034D01*
X113868000Y-86078966D01*
X113863563Y-86124015D01*
X113851284Y-86164494D01*
X113831342Y-86201802D01*
X113804504Y-86234504D01*
X113771802Y-86261342D01*
X113734494Y-86281284D01*
X113694015Y-86293563D01*
X113648966Y-86298000D01*
X112937034Y-86298000D01*
X112891985Y-86293563D01*
X112851506Y-86281284D01*
X112814198Y-86261342D01*
X112781496Y-86234504D01*
X112754658Y-86201802D01*
X112734716Y-86164494D01*
X112722437Y-86124015D01*
X112718000Y-86078966D01*
X112718000Y-85117034D01*
X112722437Y-85071985D01*
X112734716Y-85031506D01*
X112754658Y-84994198D01*
X112781496Y-84961496D01*
X112814198Y-84934658D01*
X112851506Y-84914716D01*
X112891985Y-84902437D01*
X112937034Y-84898000D01*
X113648966Y-84898000D01*
X113694015Y-84902437D01*
G37*
G36*
X111644015Y-84902437D02*
G01*
X111684494Y-84914716D01*
X111721802Y-84934658D01*
X111754504Y-84961496D01*
X111781342Y-84994198D01*
X111801284Y-85031506D01*
X111813563Y-85071985D01*
X111818000Y-85117034D01*
X111818000Y-86078966D01*
X111813563Y-86124015D01*
X111801284Y-86164494D01*
X111781342Y-86201802D01*
X111754504Y-86234504D01*
X111721802Y-86261342D01*
X111684494Y-86281284D01*
X111644015Y-86293563D01*
X111598966Y-86298000D01*
X110887034Y-86298000D01*
X110841985Y-86293563D01*
X110801506Y-86281284D01*
X110764198Y-86261342D01*
X110731496Y-86234504D01*
X110704658Y-86201802D01*
X110684716Y-86164494D01*
X110672437Y-86124015D01*
X110668000Y-86078966D01*
X110668000Y-85117034D01*
X110672437Y-85071985D01*
X110684716Y-85031506D01*
X110704658Y-84994198D01*
X110731496Y-84961496D01*
X110764198Y-84934658D01*
X110801506Y-84914716D01*
X110841985Y-84902437D01*
X110887034Y-84898000D01*
X111598966Y-84898000D01*
X111644015Y-84902437D01*
G37*
G36*
X103534015Y-84902437D02*
G01*
X103574494Y-84914716D01*
X103611802Y-84934658D01*
X103644504Y-84961496D01*
X103671342Y-84994198D01*
X103691284Y-85031506D01*
X103703563Y-85071985D01*
X103708000Y-85117034D01*
X103708000Y-86078966D01*
X103703563Y-86124015D01*
X103691284Y-86164494D01*
X103671342Y-86201802D01*
X103644504Y-86234504D01*
X103611802Y-86261342D01*
X103574494Y-86281284D01*
X103534015Y-86293563D01*
X103488966Y-86298000D01*
X102777034Y-86298000D01*
X102731985Y-86293563D01*
X102691506Y-86281284D01*
X102654198Y-86261342D01*
X102621496Y-86234504D01*
X102594658Y-86201802D01*
X102574716Y-86164494D01*
X102562437Y-86124015D01*
X102558000Y-86078966D01*
X102558000Y-85117034D01*
X102562437Y-85071985D01*
X102574716Y-85031506D01*
X102594658Y-84994198D01*
X102621496Y-84961496D01*
X102654198Y-84934658D01*
X102691506Y-84914716D01*
X102731985Y-84902437D01*
X102777034Y-84898000D01*
X103488966Y-84898000D01*
X103534015Y-84902437D01*
G37*
G36*
X101484015Y-84902437D02*
G01*
X101524494Y-84914716D01*
X101561802Y-84934658D01*
X101594504Y-84961496D01*
X101621342Y-84994198D01*
X101641284Y-85031506D01*
X101653563Y-85071985D01*
X101658000Y-85117034D01*
X101658000Y-86078966D01*
X101653563Y-86124015D01*
X101641284Y-86164494D01*
X101621342Y-86201802D01*
X101594504Y-86234504D01*
X101561802Y-86261342D01*
X101524494Y-86281284D01*
X101484015Y-86293563D01*
X101438966Y-86298000D01*
X100727034Y-86298000D01*
X100681985Y-86293563D01*
X100641506Y-86281284D01*
X100604198Y-86261342D01*
X100571496Y-86234504D01*
X100544658Y-86201802D01*
X100524716Y-86164494D01*
X100512437Y-86124015D01*
X100508000Y-86078966D01*
X100508000Y-85117034D01*
X100512437Y-85071985D01*
X100524716Y-85031506D01*
X100544658Y-84994198D01*
X100571496Y-84961496D01*
X100604198Y-84934658D01*
X100641506Y-84914716D01*
X100681985Y-84902437D01*
X100727034Y-84898000D01*
X101438966Y-84898000D01*
X101484015Y-84902437D01*
G37*
G36*
X93374015Y-84902437D02*
G01*
X93414494Y-84914716D01*
X93451802Y-84934658D01*
X93484504Y-84961496D01*
X93511342Y-84994198D01*
X93531284Y-85031506D01*
X93543563Y-85071985D01*
X93548000Y-85117034D01*
X93548000Y-86078966D01*
X93543563Y-86124015D01*
X93531284Y-86164494D01*
X93511342Y-86201802D01*
X93484504Y-86234504D01*
X93451802Y-86261342D01*
X93414494Y-86281284D01*
X93374015Y-86293563D01*
X93328966Y-86298000D01*
X92617034Y-86298000D01*
X92571985Y-86293563D01*
X92531506Y-86281284D01*
X92494198Y-86261342D01*
X92461496Y-86234504D01*
X92434658Y-86201802D01*
X92414716Y-86164494D01*
X92402437Y-86124015D01*
X92398000Y-86078966D01*
X92398000Y-85117034D01*
X92402437Y-85071985D01*
X92414716Y-85031506D01*
X92434658Y-84994198D01*
X92461496Y-84961496D01*
X92494198Y-84934658D01*
X92531506Y-84914716D01*
X92571985Y-84902437D01*
X92617034Y-84898000D01*
X93328966Y-84898000D01*
X93374015Y-84902437D01*
G37*
G36*
X91324015Y-84902437D02*
G01*
X91364494Y-84914716D01*
X91401802Y-84934658D01*
X91434504Y-84961496D01*
X91461342Y-84994198D01*
X91481284Y-85031506D01*
X91493563Y-85071985D01*
X91498000Y-85117034D01*
X91498000Y-86078966D01*
X91493563Y-86124015D01*
X91481284Y-86164494D01*
X91461342Y-86201802D01*
X91434504Y-86234504D01*
X91401802Y-86261342D01*
X91364494Y-86281284D01*
X91324015Y-86293563D01*
X91278966Y-86298000D01*
X90567034Y-86298000D01*
X90521985Y-86293563D01*
X90481506Y-86281284D01*
X90444198Y-86261342D01*
X90411496Y-86234504D01*
X90384658Y-86201802D01*
X90364716Y-86164494D01*
X90352437Y-86124015D01*
X90348000Y-86078966D01*
X90348000Y-85117034D01*
X90352437Y-85071985D01*
X90364716Y-85031506D01*
X90384658Y-84994198D01*
X90411496Y-84961496D01*
X90444198Y-84934658D01*
X90481506Y-84914716D01*
X90521985Y-84902437D01*
X90567034Y-84898000D01*
X91278966Y-84898000D01*
X91324015Y-84902437D01*
G37*
G36*
X268917145Y-81615744D02*
G01*
X269071703Y-81646487D01*
X269362884Y-81767098D01*
X269624941Y-81942199D01*
X269847801Y-82165059D01*
X270022902Y-82427116D01*
X270143513Y-82718297D01*
X270205000Y-83027414D01*
X270205000Y-83342586D01*
X270143513Y-83651703D01*
X270022902Y-83942884D01*
X269847801Y-84204941D01*
X269624941Y-84427801D01*
X269362884Y-84602902D01*
X269071703Y-84723513D01*
X268917145Y-84754256D01*
X268762588Y-84785000D01*
X268447412Y-84785000D01*
X268292855Y-84754256D01*
X268138297Y-84723513D01*
X267847116Y-84602902D01*
X267585059Y-84427801D01*
X267362199Y-84204941D01*
X267187098Y-83942884D01*
X267066487Y-83651703D01*
X267005000Y-83342586D01*
X267005000Y-83027414D01*
X267066487Y-82718297D01*
X267187098Y-82427116D01*
X267362199Y-82165059D01*
X267585059Y-81942199D01*
X267847116Y-81767098D01*
X268138297Y-81646487D01*
X268292856Y-81615743D01*
X268447412Y-81585000D01*
X268762588Y-81585000D01*
X268917145Y-81615744D01*
G37*
G36*
X84767145Y-81615744D02*
G01*
X84921703Y-81646487D01*
X85212884Y-81767098D01*
X85474941Y-81942199D01*
X85697801Y-82165059D01*
X85872902Y-82427116D01*
X85993513Y-82718297D01*
X86055000Y-83027414D01*
X86055000Y-83342586D01*
X85993513Y-83651703D01*
X85872902Y-83942884D01*
X85697801Y-84204941D01*
X85474941Y-84427801D01*
X85212884Y-84602902D01*
X84921703Y-84723513D01*
X84767145Y-84754256D01*
X84612588Y-84785000D01*
X84297412Y-84785000D01*
X84142855Y-84754256D01*
X83988297Y-84723513D01*
X83697116Y-84602902D01*
X83435059Y-84427801D01*
X83212199Y-84204941D01*
X83037098Y-83942884D01*
X82916487Y-83651703D01*
X82855000Y-83342586D01*
X82855000Y-83027414D01*
X82916487Y-82718297D01*
X83037098Y-82427116D01*
X83212199Y-82165059D01*
X83435059Y-81942199D01*
X83697116Y-81767098D01*
X83988297Y-81646487D01*
X84142855Y-81615744D01*
X84297412Y-81585000D01*
X84612588Y-81585000D01*
X84767145Y-81615744D01*
G37*
M02*
