M48
; DRILL file {KiCad (5.1.6-0-10_14)} date Monday, October 26, 2020 at 03:40:08 PM
; FORMAT={-:-/ absolute / inch / decimal}
; #@! TF.CreationDate,2020-10-26T15:40:08+01:00
; #@! TF.GenerationSoftware,Kicad,Pcbnew,(5.1.6-0-10_14)
; #@! TF.FileFunction,Plated,1,2,PTH
FMAT,2
INCH
T1C0.0118
T2C0.0157
T3C0.0197
T4C0.0394
T5C0.0591
%
G90
G05
T1
X3.52Y-3.52
X3.53Y-3.57
X3.53Y-4.76
X3.53Y-4.81
X3.53Y-4.86
X3.53Y-4.91
X3.53Y-4.97
X3.53Y-5.03
X3.53Y-5.09
X3.53Y-5.15
X3.73Y-3.62
X3.73Y-3.65
X3.76Y-3.62
X3.76Y-3.65
X3.79Y-3.62
X3.79Y-3.65
X3.8Y-4.08
X3.8Y-4.58
X3.94Y-3.62
X3.94Y-3.65
X3.9444Y-3.5056
X3.97Y-3.62
X3.97Y-3.65
X4.02Y-3.56
X4.12Y-3.43
X4.1644Y-3.5056
X4.22Y-3.54
X4.51Y-4.8
X4.55Y-5.17
X5.37Y-5.05
X5.39Y-5.22
X5.48Y-4.24
X5.48Y-4.31
X5.49Y-4.0
X5.57Y-4.89
X5.6Y-4.36
X5.61Y-4.075
X5.61Y-4.16
X5.64Y-4.96
X5.72Y-5.22
X5.79Y-4.13
X6.0Y-4.96
X6.06Y-4.87
X6.17Y-5.05
X6.19Y-5.01
X6.35Y-4.91
X6.68Y-4.13
X6.79Y-4.25
X6.94Y-4.9
X7.03Y-4.5
X7.03Y-4.53
X7.07Y-4.46
X7.21Y-4.46
X7.42Y-3.65
X7.425Y-5.1
X7.475Y-5.1
X7.525Y-5.1
X7.56Y-4.96
X7.575Y-5.1
X7.625Y-5.025
X7.625Y-5.075
X7.675Y-5.025
X7.675Y-5.075
X7.725Y-5.025
X7.725Y-5.075
X7.825Y-4.925
X7.825Y-5.125
X7.825Y-5.175
X7.825Y-5.225
X7.87Y-4.9
X7.875Y-5.125
X7.875Y-5.175
X7.875Y-5.225
X7.925Y-5.125
X7.925Y-5.175
X7.925Y-5.225
X7.95Y-4.02
X8.01Y-3.37
X8.04Y-4.5007
X8.06Y-4.5293
X8.12Y-4.6
X8.125Y-4.935
X8.13Y-4.1
X8.13Y-5.35
X8.17Y-4.4
X8.18Y-5.35
X8.22Y-3.38
X8.23Y-5.35
X8.24Y-4.4093
X8.28Y-5.35
X8.29Y-4.92
X8.31Y-4.89
X8.32Y-5.35
X8.33Y-4.92
X8.35Y-4.89
X8.37Y-4.92
X8.37Y-5.35
X8.39Y-4.89
X8.41Y-4.8
X8.41Y-4.92
X8.42Y-4.6
X8.42Y-5.35
X8.47Y-5.35
X8.49Y-4.07
X8.4964Y-4.3763
X8.52Y-5.35
X8.5429Y-4.4829
X8.57Y-5.35
X8.59Y-4.5
X8.63Y-3.91
X8.64Y-5.04
X8.65Y-3.94
X8.67Y-5.02
X8.67Y-5.06
X8.68Y-4.55
X8.7Y-5.0
X8.7Y-5.04
X8.7Y-5.08
X8.7125Y-3.69
X8.7125Y-3.7294
X8.7125Y-3.7687
X8.7125Y-3.8081
X8.7125Y-3.8475
X8.7226Y-4.6924
X8.7519Y-3.69
X8.7519Y-3.7294
X8.7519Y-3.7687
X8.7519Y-3.8081
X8.7519Y-3.8475
X8.76Y-4.135
X8.77Y-4.17
X8.79Y-4.205
X8.7913Y-3.69
X8.7913Y-3.7294
X8.7913Y-3.7687
X8.7913Y-3.8081
X8.7913Y-3.8475
X8.805Y-4.24
X8.8306Y-3.69
X8.8306Y-3.7294
X8.8306Y-3.7687
X8.8306Y-3.8081
X8.8306Y-3.8475
X8.87Y-3.69
X8.87Y-3.7294
X8.87Y-3.7687
X8.87Y-3.8081
X8.87Y-3.8475
X8.87Y-4.05
X8.87Y-4.51
X8.87Y-4.65
X8.9089Y-4.5007
X8.915Y-4.595
X8.945Y-4.135
X8.955Y-4.17
X8.955Y-4.65
X8.955Y-4.75
X8.955Y-4.85
X8.96Y-3.47
X8.965Y-4.205
X8.97Y-4.38
X8.975Y-4.235
X9.0Y-4.25
X9.0121Y-3.5714
X9.02Y-3.84
X9.02Y-3.89
X9.02Y-4.02
X9.02Y-4.08
X9.02Y-4.13
X9.06Y-5.14
X9.07Y-5.17
X9.09Y-5.14
X9.1Y-5.17
X9.12Y-5.14
X9.14Y-3.59
X9.17Y-3.66
X9.17Y-3.69
X9.17Y-3.72
X9.17Y-3.75
X9.17Y-3.78
X9.17Y-4.1
X9.17Y-4.14
X9.17Y-4.32
X9.2Y-3.44
X9.2Y-4.3
X9.2Y-4.34
X9.21Y-4.6
X9.22Y-4.1
X9.22Y-4.14
X9.23Y-4.28
X9.23Y-4.32
X9.23Y-4.36
X9.28Y-3.49
X9.28Y-3.86
X9.3Y-4.77
X9.3Y-4.89
X9.3Y-5.07
X9.31Y-5.1
X9.34Y-4.65
X9.34Y-5.14
X9.3625Y-4.4625
X9.46Y-5.14
X9.49Y-4.96
X9.49Y-5.0
X9.49Y-5.04
X9.5Y-4.4
X9.52Y-5.0
X9.52Y-5.04
X9.54Y-4.7
X9.54Y-5.1
X9.56Y-4.18
X9.57Y-4.7
X9.59Y-4.91
X9.62Y-4.7
X9.66Y-4.7
X9.66Y-4.93
X9.69Y-4.17
X9.7Y-3.81
X9.79Y-5.3
X9.79Y-5.34
X9.79Y-5.38
X9.79Y-5.42
X9.82Y-3.66
X9.82Y-3.69
X9.82Y-3.72
X9.8207Y-4.7607
X9.83Y-4.92
X9.83Y-5.28
X9.835Y-4.865
X9.85Y-3.69
X9.87Y-4.11
X9.87Y-5.28
X9.88Y-3.69
X9.89Y-3.99
X9.8928Y-4.7128
X9.9Y-4.18
X9.91Y-5.28
X9.9246Y-3.4154
X9.95Y-5.28
X9.95Y-5.32
X10.0Y-4.38
X10.0Y-5.275
X10.02Y-4.71
X10.02Y-4.765
X10.025Y-5.3
X10.1019Y-3.48
X10.1019Y-3.5194
X10.1019Y-3.5587
X10.1019Y-3.5981
X10.12Y-5.03
X10.125Y-4.68
X10.1413Y-3.48
X10.1413Y-3.5194
X10.1413Y-3.5587
X10.1413Y-3.5981
X10.15Y-4.55
X10.1598Y-4.7264
X10.17Y-4.99
X10.17Y-5.03
X10.1704Y-4.7896
X10.1756Y-4.57
X10.1806Y-3.48
X10.1806Y-3.5194
X10.1806Y-3.5587
X10.1806Y-3.5981
X10.1835Y-4.7027
X10.22Y-3.48
X10.22Y-3.5194
X10.22Y-3.5587
X10.22Y-3.5981
X10.22Y-4.99
X10.22Y-5.03
X10.26Y-4.99
X10.26Y-5.03
X10.29Y-4.69
X10.2911Y-4.6194
X10.2933Y-5.1608
X10.3Y-4.5593
X10.3243Y-5.0509
X10.325Y-5.15
X10.33Y-3.62
X10.3444Y-4.5944
X10.3455Y-5.025
X10.35Y-4.65
X10.36Y-3.69
X10.42Y-4.84
X10.42Y-4.88
X10.4219Y-5.0667
X10.428Y-5.0338
X10.43Y-5.11
X10.43Y-5.15
X10.43Y-5.19
X10.43Y-5.23
X10.46Y-4.84
X10.46Y-4.88
X10.47Y-5.23
X10.5Y-4.84
X10.5Y-4.88
X10.51Y-5.23
X10.54Y-4.84
X10.54Y-4.88
X10.55Y-5.23
X10.58Y-4.84
X10.62Y-4.84
T2
X4.3596Y-3.6204
X4.3596Y-3.7804
T4
X6.14Y-4.68
X5.98Y-4.68
X6.6Y-3.9
X6.7Y-3.9
X7.15Y-4.25
X7.15Y-4.35
X7.25Y-4.25
X7.25Y-4.35
X7.35Y-4.25
X7.35Y-4.35
X7.45Y-4.25
X7.45Y-4.35
X7.55Y-4.25
X7.55Y-4.35
X9.55Y-3.575
X3.4Y-4.2
X3.4Y-4.3
X7.15Y-3.8
X7.15Y-3.9
X7.25Y-3.8
X7.25Y-3.9
X7.35Y-3.8
X7.35Y-3.9
X6.3Y-4.68
X7.69Y-3.86
X10.55Y-4.725
X8.4Y-5.175
X8.225Y-5.175
X8.05Y-5.175
X10.55Y-4.025
X10.55Y-4.125
X10.55Y-4.225
X10.55Y-4.325
X10.55Y-4.425
X10.55Y-4.525
X9.45Y-4.0291
X9.45Y-4.6
X9.5484Y-4.6
X9.6469Y-4.0291
X9.6469Y-4.6
X7.1Y-4.65
X7.2Y-4.65
X7.3Y-4.65
X7.4Y-4.65
X7.5Y-4.65
X7.6Y-4.65
X8.575Y-5.175
X9.59Y-5.19
T3
G00X9.9035Y-5.3577
M15
G01X9.876Y-5.3577
M16
G05
G00X10.0217Y-5.4423
M15
G01X9.9783Y-5.4423
M16
G05
G00X10.124Y-5.3577
M15
G01X10.0965Y-5.3577
M16
G05
T4
G00X3.3449Y-4.8228
M15
G01X3.4039Y-4.8228
M16
G05
G00X3.3449Y-5.1772
M15
G01X3.4039Y-5.1772
M16
G05
G00X3.4138Y-5.0256
M15
G01X3.4138Y-4.9744
M16
G05
G00X3.65Y-5.0394
M15
G01X3.65Y-4.9606
M16
G05
T5
G00X9.328Y-4.3303
M15
G01X9.328Y-4.2791
M16
G05
G00X9.7689Y-4.3303
M15
G01X9.7689Y-4.2791
M16
G05
T0
M30
