%TF.GenerationSoftware,KiCad,Pcbnew,(5.1.6-0-10_14)*%
%TF.CreationDate,2020-10-26T15:40:05+01:00*%
%TF.ProjectId,GenericEPaperRemote,47656e65-7269-4634-9550-617065725265,rev?*%
%TF.SameCoordinates,Original*%
%TF.FileFunction,Soldermask,Bot*%
%TF.FilePolarity,Negative*%
%FSLAX46Y46*%
G04 Gerber Fmt 4.6, Leading zero omitted, Abs format (unit mm)*
G04 Created by KiCad (PCBNEW (5.1.6-0-10_14)) date 2020-10-26 15:40:05*
%MOMM*%
%LPD*%
G01*
G04 APERTURE LIST*
%ADD10C,0.100000*%
G04 APERTURE END LIST*
D10*
G36*
X268917144Y-136225743D02*
G01*
X269071703Y-136256487D01*
X269362884Y-136377098D01*
X269624941Y-136552199D01*
X269847801Y-136775059D01*
X270022902Y-137037116D01*
X270143513Y-137328297D01*
X270205000Y-137637414D01*
X270205000Y-137952586D01*
X270143513Y-138261703D01*
X270022902Y-138552884D01*
X269847801Y-138814941D01*
X269624941Y-139037801D01*
X269362884Y-139212902D01*
X269071703Y-139333513D01*
X268917145Y-139364256D01*
X268762588Y-139395000D01*
X268447412Y-139395000D01*
X268292855Y-139364256D01*
X268138297Y-139333513D01*
X267847116Y-139212902D01*
X267585059Y-139037801D01*
X267362199Y-138814941D01*
X267187098Y-138552884D01*
X267066487Y-138261703D01*
X267005000Y-137952586D01*
X267005000Y-137637414D01*
X267066487Y-137328297D01*
X267187098Y-137037116D01*
X267362199Y-136775059D01*
X267585059Y-136552199D01*
X267847116Y-136377098D01*
X268138297Y-136256487D01*
X268292856Y-136225743D01*
X268447412Y-136195000D01*
X268762588Y-136195000D01*
X268917144Y-136225743D01*
G37*
G36*
X84767144Y-136225743D02*
G01*
X84921703Y-136256487D01*
X85212884Y-136377098D01*
X85474941Y-136552199D01*
X85697801Y-136775059D01*
X85872902Y-137037116D01*
X85993513Y-137328297D01*
X86055000Y-137637414D01*
X86055000Y-137952586D01*
X85993513Y-138261703D01*
X85872902Y-138552884D01*
X85697801Y-138814941D01*
X85474941Y-139037801D01*
X85212884Y-139212902D01*
X84921703Y-139333513D01*
X84767145Y-139364256D01*
X84612588Y-139395000D01*
X84297412Y-139395000D01*
X84142855Y-139364256D01*
X83988297Y-139333513D01*
X83697116Y-139212902D01*
X83435059Y-139037801D01*
X83212199Y-138814941D01*
X83037098Y-138552884D01*
X82916487Y-138261703D01*
X82855000Y-137952586D01*
X82855000Y-137637414D01*
X82916487Y-137328297D01*
X83037098Y-137037116D01*
X83212199Y-136775059D01*
X83435059Y-136552199D01*
X83697116Y-136377098D01*
X83988297Y-136256487D01*
X84142856Y-136225743D01*
X84297412Y-136195000D01*
X84612588Y-136195000D01*
X84767144Y-136225743D01*
G37*
G36*
X254657819Y-137692958D02*
G01*
X254761494Y-137724408D01*
X254761496Y-137724409D01*
X254761499Y-137724410D01*
X254811853Y-137751325D01*
X254857042Y-137775479D01*
X254940790Y-137844210D01*
X255009521Y-137927958D01*
X255022685Y-137952586D01*
X255060590Y-138023501D01*
X255060591Y-138023504D01*
X255060592Y-138023506D01*
X255092042Y-138127181D01*
X255102661Y-138235000D01*
X255092042Y-138342819D01*
X255060592Y-138446494D01*
X255060590Y-138446499D01*
X255033675Y-138496853D01*
X255009521Y-138542042D01*
X254940790Y-138625790D01*
X254857042Y-138694521D01*
X254811853Y-138718675D01*
X254761499Y-138745590D01*
X254761496Y-138745591D01*
X254761494Y-138745592D01*
X254657819Y-138777042D01*
X254577018Y-138785000D01*
X253422982Y-138785000D01*
X253342181Y-138777042D01*
X253238506Y-138745592D01*
X253238504Y-138745591D01*
X253238501Y-138745590D01*
X253188147Y-138718675D01*
X253142958Y-138694521D01*
X253059210Y-138625790D01*
X252990479Y-138542042D01*
X252966325Y-138496853D01*
X252939410Y-138446499D01*
X252939408Y-138446494D01*
X252907958Y-138342819D01*
X252897339Y-138235000D01*
X252907958Y-138127181D01*
X252939408Y-138023506D01*
X252939409Y-138023504D01*
X252939410Y-138023501D01*
X252977315Y-137952586D01*
X252990479Y-137927958D01*
X253059210Y-137844210D01*
X253142958Y-137775479D01*
X253188147Y-137751325D01*
X253238501Y-137724410D01*
X253238504Y-137724409D01*
X253238506Y-137724408D01*
X253342181Y-137692958D01*
X253422982Y-137685000D01*
X254577018Y-137685000D01*
X254657819Y-137692958D01*
G37*
G36*
X254875000Y-137085000D02*
G01*
X254425000Y-137085000D01*
X254425000Y-135585000D01*
X254875000Y-135585000D01*
X254875000Y-137085000D01*
G37*
G36*
X254225000Y-137085000D02*
G01*
X253775000Y-137085000D01*
X253775000Y-135585000D01*
X254225000Y-135585000D01*
X254225000Y-137085000D01*
G37*
G36*
X253575000Y-137085000D02*
G01*
X253125000Y-137085000D01*
X253125000Y-135585000D01*
X253575000Y-135585000D01*
X253575000Y-137085000D01*
G37*
G36*
X252925000Y-137085000D02*
G01*
X252475000Y-137085000D01*
X252475000Y-135585000D01*
X252925000Y-135585000D01*
X252925000Y-137085000D01*
G37*
G36*
X255525000Y-137085000D02*
G01*
X255075000Y-137085000D01*
X255075000Y-135585000D01*
X255525000Y-135585000D01*
X255525000Y-137085000D01*
G37*
G36*
X234440065Y-135019340D02*
G01*
X234479600Y-135031333D01*
X234516041Y-135050811D01*
X234547979Y-135077021D01*
X234574189Y-135108959D01*
X234593667Y-135145400D01*
X234605660Y-135184935D01*
X234610000Y-135229000D01*
X234610000Y-136551000D01*
X234605660Y-136595065D01*
X234593667Y-136634600D01*
X234574189Y-136671041D01*
X234547979Y-136702979D01*
X234516041Y-136729189D01*
X234479600Y-136748667D01*
X234440065Y-136760660D01*
X234396000Y-136765000D01*
X233399000Y-136765000D01*
X233354935Y-136760660D01*
X233315400Y-136748667D01*
X233278959Y-136729189D01*
X233247021Y-136702979D01*
X233220811Y-136671041D01*
X233201333Y-136634600D01*
X233189340Y-136595065D01*
X233185000Y-136551000D01*
X233185000Y-135229000D01*
X233189340Y-135184935D01*
X233201333Y-135145400D01*
X233220811Y-135108959D01*
X233247021Y-135077021D01*
X233278959Y-135050811D01*
X233315400Y-135031333D01*
X233354935Y-135019340D01*
X233399000Y-135015000D01*
X234396000Y-135015000D01*
X234440065Y-135019340D01*
G37*
G36*
X231465065Y-135019340D02*
G01*
X231504600Y-135031333D01*
X231541041Y-135050811D01*
X231572979Y-135077021D01*
X231599189Y-135108959D01*
X231618667Y-135145400D01*
X231630660Y-135184935D01*
X231635000Y-135229000D01*
X231635000Y-136551000D01*
X231630660Y-136595065D01*
X231618667Y-136634600D01*
X231599189Y-136671041D01*
X231572979Y-136702979D01*
X231541041Y-136729189D01*
X231504600Y-136748667D01*
X231465065Y-136760660D01*
X231421000Y-136765000D01*
X230424000Y-136765000D01*
X230379935Y-136760660D01*
X230340400Y-136748667D01*
X230303959Y-136729189D01*
X230272021Y-136702979D01*
X230245811Y-136671041D01*
X230226333Y-136634600D01*
X230214340Y-136595065D01*
X230210000Y-136551000D01*
X230210000Y-135229000D01*
X230214340Y-135184935D01*
X230226333Y-135145400D01*
X230245811Y-135108959D01*
X230272021Y-135077021D01*
X230303959Y-135050811D01*
X230340400Y-135031333D01*
X230379935Y-135019340D01*
X230424000Y-135015000D01*
X231421000Y-135015000D01*
X231465065Y-135019340D01*
G37*
G36*
X251657819Y-135542958D02*
G01*
X251761494Y-135574408D01*
X251761496Y-135574409D01*
X251761499Y-135574410D01*
X251811853Y-135601325D01*
X251857042Y-135625479D01*
X251940790Y-135694210D01*
X252009521Y-135777958D01*
X252033675Y-135823147D01*
X252060590Y-135873501D01*
X252060591Y-135873504D01*
X252060592Y-135873506D01*
X252092042Y-135977181D01*
X252102661Y-136085000D01*
X252092042Y-136192819D01*
X252072728Y-136256487D01*
X252060590Y-136296499D01*
X252037337Y-136340001D01*
X252009521Y-136392042D01*
X251940790Y-136475790D01*
X251857042Y-136544521D01*
X251811853Y-136568675D01*
X251761499Y-136595590D01*
X251761496Y-136595591D01*
X251761494Y-136595592D01*
X251657819Y-136627042D01*
X251577018Y-136635000D01*
X250822982Y-136635000D01*
X250742181Y-136627042D01*
X250638506Y-136595592D01*
X250638504Y-136595591D01*
X250638501Y-136595590D01*
X250588147Y-136568675D01*
X250542958Y-136544521D01*
X250459210Y-136475790D01*
X250390479Y-136392042D01*
X250362663Y-136340001D01*
X250339410Y-136296499D01*
X250327272Y-136256487D01*
X250307958Y-136192819D01*
X250297339Y-136085000D01*
X250307958Y-135977181D01*
X250339408Y-135873506D01*
X250339409Y-135873504D01*
X250339410Y-135873501D01*
X250366325Y-135823147D01*
X250390479Y-135777958D01*
X250459210Y-135694210D01*
X250542958Y-135625479D01*
X250588147Y-135601325D01*
X250638501Y-135574410D01*
X250638504Y-135574409D01*
X250638506Y-135574408D01*
X250742181Y-135542958D01*
X250822982Y-135535000D01*
X251577018Y-135535000D01*
X251657819Y-135542958D01*
G37*
G36*
X257257819Y-135542958D02*
G01*
X257361494Y-135574408D01*
X257361496Y-135574409D01*
X257361499Y-135574410D01*
X257411853Y-135601325D01*
X257457042Y-135625479D01*
X257540790Y-135694210D01*
X257609521Y-135777958D01*
X257633675Y-135823147D01*
X257660590Y-135873501D01*
X257660591Y-135873504D01*
X257660592Y-135873506D01*
X257692042Y-135977181D01*
X257702661Y-136085000D01*
X257692042Y-136192819D01*
X257672728Y-136256487D01*
X257660590Y-136296499D01*
X257637337Y-136340001D01*
X257609521Y-136392042D01*
X257540790Y-136475790D01*
X257457042Y-136544521D01*
X257411853Y-136568675D01*
X257361499Y-136595590D01*
X257361496Y-136595591D01*
X257361494Y-136595592D01*
X257257819Y-136627042D01*
X257177018Y-136635000D01*
X256422982Y-136635000D01*
X256342181Y-136627042D01*
X256238506Y-136595592D01*
X256238504Y-136595591D01*
X256238501Y-136595590D01*
X256188147Y-136568675D01*
X256142958Y-136544521D01*
X256059210Y-136475790D01*
X255990479Y-136392042D01*
X255962663Y-136340001D01*
X255939410Y-136296499D01*
X255927272Y-136256487D01*
X255907958Y-136192819D01*
X255897339Y-136085000D01*
X255907958Y-135977181D01*
X255939408Y-135873506D01*
X255939409Y-135873504D01*
X255939410Y-135873501D01*
X255966325Y-135823147D01*
X255990479Y-135777958D01*
X256059210Y-135694210D01*
X256142958Y-135625479D01*
X256188147Y-135601325D01*
X256238501Y-135574410D01*
X256238504Y-135574409D01*
X256238506Y-135574408D01*
X256342181Y-135542958D01*
X256422982Y-135535000D01*
X257177018Y-135535000D01*
X257257819Y-135542958D01*
G37*
G36*
X238136015Y-135194437D02*
G01*
X238176494Y-135206716D01*
X238213802Y-135226658D01*
X238246504Y-135253496D01*
X238273342Y-135286198D01*
X238293284Y-135323506D01*
X238305563Y-135363985D01*
X238310000Y-135409034D01*
X238310000Y-136370966D01*
X238305563Y-136416015D01*
X238293284Y-136456494D01*
X238273342Y-136493802D01*
X238246504Y-136526504D01*
X238213802Y-136553342D01*
X238176494Y-136573284D01*
X238136015Y-136585563D01*
X238090966Y-136590000D01*
X237379034Y-136590000D01*
X237333985Y-136585563D01*
X237293506Y-136573284D01*
X237256198Y-136553342D01*
X237223496Y-136526504D01*
X237196658Y-136493802D01*
X237176716Y-136456494D01*
X237164437Y-136416015D01*
X237160000Y-136370966D01*
X237160000Y-135409034D01*
X237164437Y-135363985D01*
X237176716Y-135323506D01*
X237196658Y-135286198D01*
X237223496Y-135253496D01*
X237256198Y-135226658D01*
X237293506Y-135206716D01*
X237333985Y-135194437D01*
X237379034Y-135190000D01*
X238090966Y-135190000D01*
X238136015Y-135194437D01*
G37*
G36*
X240186015Y-135194437D02*
G01*
X240226494Y-135206716D01*
X240263802Y-135226658D01*
X240296504Y-135253496D01*
X240323342Y-135286198D01*
X240343284Y-135323506D01*
X240355563Y-135363985D01*
X240360000Y-135409034D01*
X240360000Y-136370966D01*
X240355563Y-136416015D01*
X240343284Y-136456494D01*
X240323342Y-136493802D01*
X240296504Y-136526504D01*
X240263802Y-136553342D01*
X240226494Y-136573284D01*
X240186015Y-136585563D01*
X240140966Y-136590000D01*
X239429034Y-136590000D01*
X239383985Y-136585563D01*
X239343506Y-136573284D01*
X239306198Y-136553342D01*
X239273496Y-136526504D01*
X239246658Y-136493802D01*
X239226716Y-136456494D01*
X239214437Y-136416015D01*
X239210000Y-136370966D01*
X239210000Y-135409034D01*
X239214437Y-135363985D01*
X239226716Y-135323506D01*
X239246658Y-135286198D01*
X239273496Y-135253496D01*
X239306198Y-135226658D01*
X239343506Y-135206716D01*
X239383985Y-135194437D01*
X239429034Y-135190000D01*
X240140966Y-135190000D01*
X240186015Y-135194437D01*
G37*
G36*
X244586000Y-132826000D02*
G01*
X242586000Y-132826000D01*
X242586000Y-130826000D01*
X244586000Y-130826000D01*
X244586000Y-132826000D01*
G37*
G36*
X235290000Y-132590000D02*
G01*
X233290000Y-132590000D01*
X233290000Y-131090000D01*
X235290000Y-131090000D01*
X235290000Y-132590000D01*
G37*
G36*
X86558091Y-130504823D02*
G01*
X86656036Y-130514470D01*
X86844535Y-130571651D01*
X87018256Y-130664506D01*
X87170528Y-130789472D01*
X87295494Y-130941744D01*
X87388349Y-131115465D01*
X87445530Y-131303964D01*
X87464838Y-131499999D01*
X87445530Y-131696036D01*
X87388349Y-131884535D01*
X87295494Y-132058256D01*
X87170528Y-132210528D01*
X87018256Y-132335494D01*
X86844535Y-132428349D01*
X86656036Y-132485530D01*
X86558091Y-132495177D01*
X86509120Y-132500000D01*
X84910880Y-132500000D01*
X84861909Y-132495177D01*
X84763964Y-132485530D01*
X84575465Y-132428349D01*
X84401744Y-132335494D01*
X84249472Y-132210528D01*
X84124506Y-132058256D01*
X84031651Y-131884535D01*
X83974470Y-131696036D01*
X83955162Y-131499999D01*
X83974470Y-131303964D01*
X84031651Y-131115465D01*
X84124506Y-130941744D01*
X84249472Y-130789472D01*
X84401744Y-130664506D01*
X84575465Y-130571651D01*
X84763964Y-130514470D01*
X84861909Y-130504823D01*
X84910880Y-130500000D01*
X86509120Y-130500000D01*
X86558091Y-130504823D01*
G37*
G36*
X269820000Y-132470000D02*
G01*
X268520000Y-132470000D01*
X268520000Y-130820000D01*
X269820000Y-130820000D01*
X269820000Y-132470000D01*
G37*
G36*
X218805000Y-132445000D02*
G01*
X216805000Y-132445000D01*
X216805000Y-130445000D01*
X218805000Y-130445000D01*
X218805000Y-132445000D01*
G37*
G36*
X214360000Y-132445000D02*
G01*
X212360000Y-132445000D01*
X212360000Y-130445000D01*
X214360000Y-130445000D01*
X214360000Y-132445000D01*
G37*
G36*
X209915000Y-132445000D02*
G01*
X207915000Y-132445000D01*
X207915000Y-130445000D01*
X209915000Y-130445000D01*
X209915000Y-132445000D01*
G37*
G36*
X205470000Y-132445000D02*
G01*
X203470000Y-132445000D01*
X203470000Y-130445000D01*
X205470000Y-130445000D01*
X205470000Y-132445000D01*
G37*
G36*
X258336015Y-131264437D02*
G01*
X258376494Y-131276716D01*
X258413802Y-131296658D01*
X258446504Y-131323496D01*
X258473342Y-131356198D01*
X258493284Y-131393506D01*
X258505563Y-131433985D01*
X258510000Y-131479034D01*
X258510000Y-132190966D01*
X258505563Y-132236015D01*
X258493284Y-132276494D01*
X258473342Y-132313802D01*
X258446504Y-132346504D01*
X258413802Y-132373342D01*
X258376494Y-132393284D01*
X258336015Y-132405563D01*
X258290966Y-132410000D01*
X257329034Y-132410000D01*
X257283985Y-132405563D01*
X257243506Y-132393284D01*
X257206198Y-132373342D01*
X257173496Y-132346504D01*
X257146658Y-132313802D01*
X257126716Y-132276494D01*
X257114437Y-132236015D01*
X257110000Y-132190966D01*
X257110000Y-131479034D01*
X257114437Y-131433985D01*
X257126716Y-131393506D01*
X257146658Y-131356198D01*
X257173496Y-131323496D01*
X257206198Y-131296658D01*
X257243506Y-131276716D01*
X257283985Y-131264437D01*
X257329034Y-131260000D01*
X258290966Y-131260000D01*
X258336015Y-131264437D01*
G37*
G36*
X255656000Y-131833000D02*
G01*
X252156000Y-131833000D01*
X252156000Y-129533000D01*
X255656000Y-129533000D01*
X255656000Y-131833000D01*
G37*
G36*
X250256000Y-131833000D02*
G01*
X246756000Y-131833000D01*
X246756000Y-129533000D01*
X250256000Y-129533000D01*
X250256000Y-131833000D01*
G37*
G36*
X239465065Y-130319340D02*
G01*
X239504600Y-130331333D01*
X239541041Y-130350811D01*
X239572979Y-130377021D01*
X239599189Y-130408959D01*
X239618667Y-130445400D01*
X239630660Y-130484935D01*
X239635000Y-130529000D01*
X239635000Y-131526000D01*
X239630660Y-131570065D01*
X239618667Y-131609600D01*
X239599189Y-131646041D01*
X239572979Y-131677979D01*
X239541041Y-131704189D01*
X239504600Y-131723667D01*
X239465065Y-131735660D01*
X239421000Y-131740000D01*
X238099000Y-131740000D01*
X238054935Y-131735660D01*
X238015400Y-131723667D01*
X237978959Y-131704189D01*
X237947021Y-131677979D01*
X237920811Y-131646041D01*
X237901333Y-131609600D01*
X237889340Y-131570065D01*
X237885000Y-131526000D01*
X237885000Y-130529000D01*
X237889340Y-130484935D01*
X237901333Y-130445400D01*
X237920811Y-130408959D01*
X237947021Y-130377021D01*
X237978959Y-130350811D01*
X238015400Y-130331333D01*
X238054935Y-130319340D01*
X238099000Y-130315000D01*
X239421000Y-130315000D01*
X239465065Y-130319340D01*
G37*
G36*
X224225065Y-130319340D02*
G01*
X224264600Y-130331333D01*
X224301041Y-130350811D01*
X224332979Y-130377021D01*
X224359189Y-130408959D01*
X224378667Y-130445400D01*
X224390660Y-130484935D01*
X224395000Y-130529000D01*
X224395000Y-131526000D01*
X224390660Y-131570065D01*
X224378667Y-131609600D01*
X224359189Y-131646041D01*
X224332979Y-131677979D01*
X224301041Y-131704189D01*
X224264600Y-131723667D01*
X224225065Y-131735660D01*
X224181000Y-131740000D01*
X222859000Y-131740000D01*
X222814935Y-131735660D01*
X222775400Y-131723667D01*
X222738959Y-131704189D01*
X222707021Y-131677979D01*
X222680811Y-131646041D01*
X222661333Y-131609600D01*
X222649340Y-131570065D01*
X222645000Y-131526000D01*
X222645000Y-130529000D01*
X222649340Y-130484935D01*
X222661333Y-130445400D01*
X222680811Y-130408959D01*
X222707021Y-130377021D01*
X222738959Y-130350811D01*
X222775400Y-130331333D01*
X222814935Y-130319340D01*
X222859000Y-130315000D01*
X224181000Y-130315000D01*
X224225065Y-130319340D01*
G37*
G36*
X267370000Y-131470000D02*
G01*
X265820000Y-131470000D01*
X265820000Y-130045000D01*
X267370000Y-130045000D01*
X267370000Y-131470000D01*
G37*
G36*
X228990000Y-131440000D02*
G01*
X226990000Y-131440000D01*
X226990000Y-127640000D01*
X228990000Y-127640000D01*
X228990000Y-131440000D01*
G37*
G36*
X258336015Y-129214437D02*
G01*
X258376494Y-129226716D01*
X258413802Y-129246658D01*
X258446504Y-129273496D01*
X258473342Y-129306198D01*
X258493284Y-129343506D01*
X258505563Y-129383985D01*
X258510000Y-129429034D01*
X258510000Y-130140966D01*
X258505563Y-130186015D01*
X258493284Y-130226494D01*
X258473342Y-130263802D01*
X258446504Y-130296504D01*
X258413802Y-130323342D01*
X258376494Y-130343284D01*
X258336015Y-130355563D01*
X258290966Y-130360000D01*
X257329034Y-130360000D01*
X257283985Y-130355563D01*
X257243506Y-130343284D01*
X257206198Y-130323342D01*
X257173496Y-130296504D01*
X257146658Y-130263802D01*
X257126716Y-130226494D01*
X257114437Y-130186015D01*
X257110000Y-130140966D01*
X257110000Y-129429034D01*
X257114437Y-129383985D01*
X257126716Y-129343506D01*
X257146658Y-129306198D01*
X257173496Y-129273496D01*
X257206198Y-129246658D01*
X257243506Y-129226716D01*
X257283985Y-129214437D01*
X257329034Y-129210000D01*
X258290966Y-129210000D01*
X258336015Y-129214437D01*
G37*
G36*
X270120000Y-130320000D02*
G01*
X268220000Y-130320000D01*
X268220000Y-129320000D01*
X270120000Y-129320000D01*
X270120000Y-130320000D01*
G37*
G36*
X235290000Y-130290000D02*
G01*
X233290000Y-130290000D01*
X233290000Y-128790000D01*
X235290000Y-128790000D01*
X235290000Y-130290000D01*
G37*
G36*
X267200000Y-129795000D02*
G01*
X265820000Y-129795000D01*
X265820000Y-129345000D01*
X267200000Y-129345000D01*
X267200000Y-129795000D01*
G37*
G36*
X267200000Y-129145000D02*
G01*
X265820000Y-129145000D01*
X265820000Y-128695000D01*
X267200000Y-128695000D01*
X267200000Y-129145000D01*
G37*
G36*
X93710000Y-129000000D02*
G01*
X91710000Y-129000000D01*
X91710000Y-125000000D01*
X93710000Y-125000000D01*
X93710000Y-129000000D01*
G37*
G36*
X239465065Y-127344340D02*
G01*
X239504600Y-127356333D01*
X239541041Y-127375811D01*
X239572979Y-127402021D01*
X239599189Y-127433959D01*
X239618667Y-127470400D01*
X239630660Y-127509935D01*
X239635000Y-127554000D01*
X239635000Y-128551000D01*
X239630660Y-128595065D01*
X239618667Y-128634600D01*
X239599189Y-128671041D01*
X239572979Y-128702979D01*
X239541041Y-128729189D01*
X239504600Y-128748667D01*
X239465065Y-128760660D01*
X239421000Y-128765000D01*
X238099000Y-128765000D01*
X238054935Y-128760660D01*
X238015400Y-128748667D01*
X237978959Y-128729189D01*
X237947021Y-128702979D01*
X237920811Y-128671041D01*
X237901333Y-128634600D01*
X237889340Y-128595065D01*
X237885000Y-128551000D01*
X237885000Y-127554000D01*
X237889340Y-127509935D01*
X237901333Y-127470400D01*
X237920811Y-127433959D01*
X237947021Y-127402021D01*
X237978959Y-127375811D01*
X238015400Y-127356333D01*
X238054935Y-127344340D01*
X238099000Y-127340000D01*
X239421000Y-127340000D01*
X239465065Y-127344340D01*
G37*
G36*
X224225065Y-127344340D02*
G01*
X224264600Y-127356333D01*
X224301041Y-127375811D01*
X224332979Y-127402021D01*
X224359189Y-127433959D01*
X224378667Y-127470400D01*
X224390660Y-127509935D01*
X224395000Y-127554000D01*
X224395000Y-128551000D01*
X224390660Y-128595065D01*
X224378667Y-128634600D01*
X224359189Y-128671041D01*
X224332979Y-128702979D01*
X224301041Y-128729189D01*
X224264600Y-128748667D01*
X224225065Y-128760660D01*
X224181000Y-128765000D01*
X222859000Y-128765000D01*
X222814935Y-128760660D01*
X222775400Y-128748667D01*
X222738959Y-128729189D01*
X222707021Y-128702979D01*
X222680811Y-128671041D01*
X222661333Y-128634600D01*
X222649340Y-128595065D01*
X222645000Y-128551000D01*
X222645000Y-127554000D01*
X222649340Y-127509935D01*
X222661333Y-127470400D01*
X222680811Y-127433959D01*
X222707021Y-127402021D01*
X222738959Y-127375811D01*
X222775400Y-127356333D01*
X222814935Y-127344340D01*
X222859000Y-127340000D01*
X224181000Y-127340000D01*
X224225065Y-127344340D01*
G37*
G36*
X86906035Y-125364470D02*
G01*
X87045484Y-125406772D01*
X87094534Y-125421651D01*
X87268258Y-125514508D01*
X87268260Y-125514509D01*
X87268259Y-125514509D01*
X87420528Y-125639472D01*
X87545494Y-125791744D01*
X87638349Y-125965465D01*
X87695530Y-126153964D01*
X87710000Y-126300881D01*
X87710000Y-127699119D01*
X87695530Y-127846036D01*
X87638349Y-128034535D01*
X87545494Y-128208256D01*
X87420528Y-128360528D01*
X87268256Y-128485494D01*
X87094535Y-128578349D01*
X86906036Y-128635530D01*
X86710000Y-128654838D01*
X86513965Y-128635530D01*
X86325466Y-128578349D01*
X86151745Y-128485494D01*
X85999473Y-128360528D01*
X85874507Y-128208256D01*
X85781652Y-128034535D01*
X85724471Y-127846035D01*
X85710000Y-127699119D01*
X85710000Y-126300882D01*
X85724470Y-126153965D01*
X85781650Y-125965470D01*
X85781651Y-125965466D01*
X85874508Y-125791742D01*
X85999472Y-125639472D01*
X86151744Y-125514506D01*
X86325465Y-125421651D01*
X86513964Y-125364470D01*
X86710000Y-125345162D01*
X86906035Y-125364470D01*
G37*
G36*
X267200000Y-128495000D02*
G01*
X265820000Y-128495000D01*
X265820000Y-128045000D01*
X267200000Y-128045000D01*
X267200000Y-128495000D01*
G37*
G36*
X105542000Y-128404000D02*
G01*
X102042000Y-128404000D01*
X102042000Y-126104000D01*
X105542000Y-126104000D01*
X105542000Y-128404000D01*
G37*
G36*
X100142000Y-128404000D02*
G01*
X96642000Y-128404000D01*
X96642000Y-126104000D01*
X100142000Y-126104000D01*
X100142000Y-128404000D01*
G37*
G36*
X270120000Y-128020000D02*
G01*
X268220000Y-128020000D01*
X268220000Y-126220000D01*
X270120000Y-126220000D01*
X270120000Y-128020000D01*
G37*
G36*
X235290000Y-127990000D02*
G01*
X233290000Y-127990000D01*
X233290000Y-126490000D01*
X235290000Y-126490000D01*
X235290000Y-127990000D01*
G37*
G36*
X267200000Y-127845000D02*
G01*
X265820000Y-127845000D01*
X265820000Y-127395000D01*
X267200000Y-127395000D01*
X267200000Y-127845000D01*
G37*
G36*
X83840312Y-126210248D02*
G01*
X83943351Y-126230743D01*
X84088942Y-126291049D01*
X84219970Y-126378599D01*
X84331401Y-126490030D01*
X84418951Y-126621058D01*
X84479257Y-126766649D01*
X84510000Y-126921207D01*
X84510000Y-127078793D01*
X84479257Y-127233351D01*
X84418951Y-127378942D01*
X84331401Y-127509970D01*
X84219970Y-127621401D01*
X84088942Y-127708951D01*
X83943351Y-127769257D01*
X83840312Y-127789752D01*
X83788794Y-127800000D01*
X83631206Y-127800000D01*
X83579688Y-127789752D01*
X83476649Y-127769257D01*
X83331058Y-127708951D01*
X83200030Y-127621401D01*
X83088599Y-127509970D01*
X83001049Y-127378942D01*
X82940743Y-127233351D01*
X82910000Y-127078793D01*
X82910000Y-126921207D01*
X82940743Y-126766649D01*
X83001049Y-126621058D01*
X83088599Y-126490030D01*
X83200030Y-126378599D01*
X83331058Y-126291049D01*
X83476649Y-126230743D01*
X83579688Y-126210248D01*
X83631206Y-126200000D01*
X83788794Y-126200000D01*
X83840312Y-126210248D01*
G37*
G36*
X267200000Y-127195000D02*
G01*
X265820000Y-127195000D01*
X265820000Y-126745000D01*
X267200000Y-126745000D01*
X267200000Y-127195000D01*
G37*
G36*
X267370000Y-126495000D02*
G01*
X265820000Y-126495000D01*
X265820000Y-125070000D01*
X267370000Y-125070000D01*
X267370000Y-126495000D01*
G37*
G36*
X269820000Y-125720000D02*
G01*
X268520000Y-125720000D01*
X268520000Y-124070000D01*
X269820000Y-124070000D01*
X269820000Y-125720000D01*
G37*
G36*
X205693378Y-120626859D02*
G01*
X206057355Y-120777623D01*
X206384926Y-120996499D01*
X206663501Y-121275074D01*
X206882377Y-121602645D01*
X207033141Y-121966622D01*
X207110000Y-122353017D01*
X207110000Y-122746983D01*
X207033141Y-123133378D01*
X206882377Y-123497355D01*
X206663501Y-123824926D01*
X206384926Y-124103501D01*
X206057355Y-124322377D01*
X205693378Y-124473141D01*
X205306983Y-124550000D01*
X204913017Y-124550000D01*
X204526622Y-124473141D01*
X204162645Y-124322377D01*
X203835074Y-124103501D01*
X203556499Y-123824926D01*
X203337623Y-123497355D01*
X203186859Y-123133378D01*
X203110000Y-122746983D01*
X203110000Y-122353017D01*
X203186859Y-121966622D01*
X203337623Y-121602645D01*
X203556499Y-121275074D01*
X203835074Y-120996499D01*
X204162645Y-120777623D01*
X204526622Y-120626859D01*
X204913017Y-120550000D01*
X205306983Y-120550000D01*
X205693378Y-120626859D01*
G37*
G36*
X121193378Y-120626859D02*
G01*
X121557355Y-120777623D01*
X121884926Y-120996499D01*
X122163501Y-121275074D01*
X122382377Y-121602645D01*
X122533141Y-121966622D01*
X122610000Y-122353017D01*
X122610000Y-122746983D01*
X122533141Y-123133378D01*
X122382377Y-123497355D01*
X122163501Y-123824926D01*
X121884926Y-124103501D01*
X121557355Y-124322377D01*
X121193378Y-124473141D01*
X120806983Y-124550000D01*
X120413017Y-124550000D01*
X120026622Y-124473141D01*
X119662645Y-124322377D01*
X119335074Y-124103501D01*
X119056499Y-123824926D01*
X118837623Y-123497355D01*
X118686859Y-123133378D01*
X118610000Y-122746983D01*
X118610000Y-122353017D01*
X118686859Y-121966622D01*
X118837623Y-121602645D01*
X119056499Y-121275074D01*
X119335074Y-120996499D01*
X119662645Y-120777623D01*
X120026622Y-120626859D01*
X120413017Y-120550000D01*
X120806983Y-120550000D01*
X121193378Y-120626859D01*
G37*
G36*
X229719999Y-122440000D02*
G01*
X229720000Y-122440000D01*
X229720000Y-122440001D01*
X229720290Y-122442944D01*
X229720290Y-123937056D01*
X229720000Y-123939999D01*
X229720000Y-123940000D01*
X229719999Y-123940000D01*
X229717056Y-123940290D01*
X229222944Y-123940290D01*
X229215238Y-123939531D01*
X229204117Y-123937882D01*
X229173935Y-123937882D01*
X229168043Y-123937302D01*
X229077697Y-123919331D01*
X229074862Y-123918471D01*
X229074858Y-123918470D01*
X229074854Y-123918468D01*
X229072022Y-123917609D01*
X228986916Y-123882358D01*
X228984306Y-123880963D01*
X228984302Y-123880961D01*
X228984298Y-123880958D01*
X228981690Y-123879564D01*
X228905096Y-123828385D01*
X228902811Y-123826510D01*
X228902803Y-123826505D01*
X228902796Y-123826498D01*
X228900513Y-123824625D01*
X228835375Y-123759487D01*
X228833502Y-123757204D01*
X228833495Y-123757197D01*
X228833490Y-123757189D01*
X228831615Y-123754904D01*
X228780436Y-123678310D01*
X228779042Y-123675702D01*
X228779039Y-123675698D01*
X228779037Y-123675694D01*
X228777642Y-123673084D01*
X228742391Y-123587978D01*
X228740669Y-123582303D01*
X228722698Y-123491957D01*
X228722118Y-123486065D01*
X228722118Y-123455883D01*
X228720469Y-123444762D01*
X228720000Y-123440000D01*
X228719710Y-123437056D01*
X228719710Y-122942944D01*
X228720469Y-122935238D01*
X228722118Y-122924117D01*
X228722118Y-122893935D01*
X228722698Y-122888043D01*
X228740669Y-122797697D01*
X228742391Y-122792022D01*
X228777642Y-122706916D01*
X228779037Y-122704306D01*
X228779039Y-122704302D01*
X228779042Y-122704298D01*
X228780436Y-122701690D01*
X228831615Y-122625096D01*
X228833490Y-122622811D01*
X228833495Y-122622803D01*
X228833502Y-122622796D01*
X228835375Y-122620513D01*
X228900513Y-122555375D01*
X228902796Y-122553502D01*
X228902803Y-122553495D01*
X228902811Y-122553490D01*
X228905096Y-122551615D01*
X228981690Y-122500436D01*
X228984298Y-122499042D01*
X228984302Y-122499039D01*
X228984306Y-122499037D01*
X228986916Y-122497642D01*
X229072022Y-122462391D01*
X229074854Y-122461532D01*
X229074858Y-122461530D01*
X229074862Y-122461529D01*
X229077697Y-122460669D01*
X229168043Y-122442698D01*
X229173935Y-122442118D01*
X229204117Y-122442118D01*
X229215238Y-122440469D01*
X229222944Y-122439710D01*
X229717056Y-122439710D01*
X229719999Y-122440000D01*
G37*
G36*
X230524762Y-122440469D02*
G01*
X230535883Y-122442118D01*
X230566065Y-122442118D01*
X230571957Y-122442698D01*
X230662303Y-122460669D01*
X230665138Y-122461529D01*
X230665142Y-122461530D01*
X230665146Y-122461532D01*
X230667978Y-122462391D01*
X230753084Y-122497642D01*
X230755694Y-122499037D01*
X230755698Y-122499039D01*
X230755702Y-122499042D01*
X230758310Y-122500436D01*
X230834904Y-122551615D01*
X230837189Y-122553490D01*
X230837197Y-122553495D01*
X230837204Y-122553502D01*
X230839487Y-122555375D01*
X230904625Y-122620513D01*
X230906498Y-122622796D01*
X230906505Y-122622803D01*
X230906510Y-122622811D01*
X230908385Y-122625096D01*
X230959564Y-122701690D01*
X230960958Y-122704298D01*
X230960961Y-122704302D01*
X230960963Y-122704306D01*
X230962358Y-122706916D01*
X230997609Y-122792022D01*
X230999331Y-122797697D01*
X231017302Y-122888043D01*
X231017882Y-122893935D01*
X231017882Y-122924117D01*
X231019531Y-122935238D01*
X231020290Y-122942944D01*
X231020290Y-123437056D01*
X231019531Y-123444762D01*
X231017882Y-123455883D01*
X231017882Y-123486065D01*
X231017302Y-123491957D01*
X230999331Y-123582303D01*
X230997609Y-123587978D01*
X230962358Y-123673084D01*
X230960963Y-123675694D01*
X230960961Y-123675698D01*
X230960958Y-123675702D01*
X230959564Y-123678310D01*
X230908385Y-123754904D01*
X230906510Y-123757189D01*
X230906505Y-123757197D01*
X230906498Y-123757204D01*
X230904625Y-123759487D01*
X230839487Y-123824625D01*
X230837204Y-123826498D01*
X230837197Y-123826505D01*
X230837189Y-123826510D01*
X230834904Y-123828385D01*
X230758310Y-123879564D01*
X230755702Y-123880958D01*
X230755698Y-123880961D01*
X230755694Y-123880963D01*
X230753084Y-123882358D01*
X230667978Y-123917609D01*
X230665146Y-123918468D01*
X230665142Y-123918470D01*
X230665138Y-123918471D01*
X230662303Y-123919331D01*
X230571957Y-123937302D01*
X230566065Y-123937882D01*
X230535883Y-123937882D01*
X230524762Y-123939531D01*
X230517056Y-123940290D01*
X230022944Y-123940290D01*
X230020001Y-123940000D01*
X230020000Y-123940000D01*
X230020000Y-123939999D01*
X230019710Y-123937056D01*
X230019710Y-122442944D01*
X230020000Y-122440001D01*
X230020000Y-122440000D01*
X230020001Y-122440000D01*
X230022944Y-122439710D01*
X230517056Y-122439710D01*
X230524762Y-122440469D01*
G37*
G36*
X215276015Y-122494437D02*
G01*
X215316494Y-122506716D01*
X215353802Y-122526658D01*
X215386504Y-122553496D01*
X215413342Y-122586198D01*
X215433284Y-122623506D01*
X215445563Y-122663985D01*
X215450000Y-122709034D01*
X215450000Y-123670966D01*
X215445563Y-123716015D01*
X215433284Y-123756494D01*
X215413342Y-123793802D01*
X215386504Y-123826504D01*
X215353802Y-123853342D01*
X215316494Y-123873284D01*
X215276015Y-123885563D01*
X215230966Y-123890000D01*
X214519034Y-123890000D01*
X214473985Y-123885563D01*
X214433506Y-123873284D01*
X214396198Y-123853342D01*
X214363496Y-123826504D01*
X214336658Y-123793802D01*
X214316716Y-123756494D01*
X214304437Y-123716015D01*
X214300000Y-123670966D01*
X214300000Y-122709034D01*
X214304437Y-122663985D01*
X214316716Y-122623506D01*
X214336658Y-122586198D01*
X214363496Y-122553496D01*
X214396198Y-122526658D01*
X214433506Y-122506716D01*
X214473985Y-122494437D01*
X214519034Y-122490000D01*
X215230966Y-122490000D01*
X215276015Y-122494437D01*
G37*
G36*
X217326015Y-122494437D02*
G01*
X217366494Y-122506716D01*
X217403802Y-122526658D01*
X217436504Y-122553496D01*
X217463342Y-122586198D01*
X217483284Y-122623506D01*
X217495563Y-122663985D01*
X217500000Y-122709034D01*
X217500000Y-123670966D01*
X217495563Y-123716015D01*
X217483284Y-123756494D01*
X217463342Y-123793802D01*
X217436504Y-123826504D01*
X217403802Y-123853342D01*
X217366494Y-123873284D01*
X217326015Y-123885563D01*
X217280966Y-123890000D01*
X216569034Y-123890000D01*
X216523985Y-123885563D01*
X216483506Y-123873284D01*
X216446198Y-123853342D01*
X216413496Y-123826504D01*
X216386658Y-123793802D01*
X216366716Y-123756494D01*
X216354437Y-123716015D01*
X216350000Y-123670966D01*
X216350000Y-122709034D01*
X216354437Y-122663985D01*
X216366716Y-122623506D01*
X216386658Y-122586198D01*
X216413496Y-122553496D01*
X216446198Y-122526658D01*
X216483506Y-122506716D01*
X216523985Y-122494437D01*
X216569034Y-122490000D01*
X217280966Y-122490000D01*
X217326015Y-122494437D01*
G37*
G36*
X261015000Y-123830000D02*
G01*
X259265000Y-123830000D01*
X259265000Y-123380000D01*
X261015000Y-123380000D01*
X261015000Y-123830000D01*
G37*
G36*
X253815000Y-123830000D02*
G01*
X252065000Y-123830000D01*
X252065000Y-123380000D01*
X253815000Y-123380000D01*
X253815000Y-123830000D01*
G37*
G36*
X86558091Y-121504823D02*
G01*
X86656036Y-121514470D01*
X86844535Y-121571651D01*
X87018256Y-121664506D01*
X87170528Y-121789472D01*
X87295494Y-121941744D01*
X87388349Y-122115465D01*
X87445530Y-122303964D01*
X87464838Y-122500000D01*
X87445530Y-122696036D01*
X87388349Y-122884535D01*
X87295494Y-123058256D01*
X87170528Y-123210528D01*
X87018256Y-123335494D01*
X86844535Y-123428349D01*
X86656036Y-123485530D01*
X86590781Y-123491957D01*
X86509120Y-123500000D01*
X84910880Y-123500000D01*
X84829219Y-123491957D01*
X84763964Y-123485530D01*
X84575465Y-123428349D01*
X84401744Y-123335494D01*
X84249472Y-123210528D01*
X84124506Y-123058256D01*
X84031651Y-122884535D01*
X83974470Y-122696036D01*
X83955162Y-122500000D01*
X83974470Y-122303964D01*
X84031651Y-122115465D01*
X84124506Y-121941744D01*
X84249472Y-121789472D01*
X84401744Y-121664506D01*
X84575465Y-121571651D01*
X84763964Y-121514470D01*
X84861909Y-121504823D01*
X84910880Y-121500000D01*
X86509120Y-121500000D01*
X86558091Y-121504823D01*
G37*
G36*
X253815000Y-123180000D02*
G01*
X252065000Y-123180000D01*
X252065000Y-122730000D01*
X253815000Y-122730000D01*
X253815000Y-123180000D01*
G37*
G36*
X261015000Y-123180000D02*
G01*
X259265000Y-123180000D01*
X259265000Y-122730000D01*
X261015000Y-122730000D01*
X261015000Y-123180000D01*
G37*
G36*
X253815000Y-122530000D02*
G01*
X252065000Y-122530000D01*
X252065000Y-122080000D01*
X253815000Y-122080000D01*
X253815000Y-122530000D01*
G37*
G36*
X261015000Y-122530000D02*
G01*
X259265000Y-122530000D01*
X259265000Y-122080000D01*
X261015000Y-122080000D01*
X261015000Y-122530000D01*
G37*
G36*
X253815000Y-121880000D02*
G01*
X252065000Y-121880000D01*
X252065000Y-121430000D01*
X253815000Y-121430000D01*
X253815000Y-121880000D01*
G37*
G36*
X261015000Y-121880000D02*
G01*
X259265000Y-121880000D01*
X259265000Y-121430000D01*
X261015000Y-121430000D01*
X261015000Y-121880000D01*
G37*
G36*
X230524762Y-119900469D02*
G01*
X230535883Y-119902118D01*
X230566065Y-119902118D01*
X230571957Y-119902698D01*
X230662303Y-119920669D01*
X230665138Y-119921529D01*
X230665142Y-119921530D01*
X230665146Y-119921532D01*
X230667978Y-119922391D01*
X230753084Y-119957642D01*
X230755694Y-119959037D01*
X230755698Y-119959039D01*
X230755702Y-119959042D01*
X230758310Y-119960436D01*
X230834904Y-120011615D01*
X230837189Y-120013490D01*
X230837197Y-120013495D01*
X230837204Y-120013502D01*
X230839487Y-120015375D01*
X230904625Y-120080513D01*
X230906498Y-120082796D01*
X230906505Y-120082803D01*
X230906510Y-120082811D01*
X230908385Y-120085096D01*
X230959564Y-120161690D01*
X230960958Y-120164298D01*
X230960961Y-120164302D01*
X230960963Y-120164306D01*
X230962358Y-120166916D01*
X230997609Y-120252022D01*
X230999331Y-120257697D01*
X231017302Y-120348043D01*
X231017882Y-120353935D01*
X231017882Y-120384117D01*
X231019531Y-120395238D01*
X231020290Y-120402944D01*
X231020290Y-120897056D01*
X231019531Y-120904762D01*
X231017882Y-120915883D01*
X231017882Y-120946065D01*
X231017302Y-120951957D01*
X230999331Y-121042303D01*
X230997609Y-121047978D01*
X230962358Y-121133084D01*
X230960963Y-121135694D01*
X230960961Y-121135698D01*
X230960958Y-121135702D01*
X230959564Y-121138310D01*
X230908385Y-121214904D01*
X230906510Y-121217189D01*
X230906505Y-121217197D01*
X230906498Y-121217204D01*
X230904625Y-121219487D01*
X230839487Y-121284625D01*
X230837204Y-121286498D01*
X230837197Y-121286505D01*
X230837189Y-121286510D01*
X230834904Y-121288385D01*
X230758310Y-121339564D01*
X230755702Y-121340958D01*
X230755698Y-121340961D01*
X230755694Y-121340963D01*
X230753084Y-121342358D01*
X230667978Y-121377609D01*
X230665146Y-121378468D01*
X230665142Y-121378470D01*
X230665138Y-121378471D01*
X230662303Y-121379331D01*
X230571957Y-121397302D01*
X230566065Y-121397882D01*
X230535883Y-121397882D01*
X230524762Y-121399531D01*
X230517056Y-121400290D01*
X230022944Y-121400290D01*
X230020001Y-121400000D01*
X230020000Y-121400000D01*
X230020000Y-121399999D01*
X230019710Y-121397056D01*
X230019710Y-119902944D01*
X230020000Y-119900001D01*
X230020000Y-119900000D01*
X230020001Y-119900000D01*
X230022944Y-119899710D01*
X230517056Y-119899710D01*
X230524762Y-119900469D01*
G37*
G36*
X229719999Y-119900000D02*
G01*
X229720000Y-119900000D01*
X229720000Y-119900001D01*
X229720290Y-119902944D01*
X229720290Y-121397056D01*
X229720000Y-121399999D01*
X229720000Y-121400000D01*
X229719999Y-121400000D01*
X229717056Y-121400290D01*
X229222944Y-121400290D01*
X229215238Y-121399531D01*
X229204117Y-121397882D01*
X229173935Y-121397882D01*
X229168043Y-121397302D01*
X229077697Y-121379331D01*
X229074862Y-121378471D01*
X229074858Y-121378470D01*
X229074854Y-121378468D01*
X229072022Y-121377609D01*
X228986916Y-121342358D01*
X228984306Y-121340963D01*
X228984302Y-121340961D01*
X228984298Y-121340958D01*
X228981690Y-121339564D01*
X228905096Y-121288385D01*
X228902811Y-121286510D01*
X228902803Y-121286505D01*
X228902796Y-121286498D01*
X228900513Y-121284625D01*
X228835375Y-121219487D01*
X228833502Y-121217204D01*
X228833495Y-121217197D01*
X228833490Y-121217189D01*
X228831615Y-121214904D01*
X228780436Y-121138310D01*
X228779042Y-121135702D01*
X228779039Y-121135698D01*
X228779037Y-121135694D01*
X228777642Y-121133084D01*
X228742391Y-121047978D01*
X228740669Y-121042303D01*
X228722698Y-120951957D01*
X228722118Y-120946065D01*
X228722118Y-120915883D01*
X228720469Y-120904762D01*
X228720000Y-120900000D01*
X228719710Y-120897056D01*
X228719710Y-120402944D01*
X228720469Y-120395238D01*
X228722118Y-120384117D01*
X228722118Y-120353935D01*
X228722698Y-120348043D01*
X228740669Y-120257697D01*
X228742391Y-120252022D01*
X228777642Y-120166916D01*
X228779037Y-120164306D01*
X228779039Y-120164302D01*
X228779042Y-120164298D01*
X228780436Y-120161690D01*
X228831615Y-120085096D01*
X228833490Y-120082811D01*
X228833495Y-120082803D01*
X228833502Y-120082796D01*
X228835375Y-120080513D01*
X228900513Y-120015375D01*
X228902796Y-120013502D01*
X228902803Y-120013495D01*
X228902811Y-120013490D01*
X228905096Y-120011615D01*
X228981690Y-119960436D01*
X228984298Y-119959042D01*
X228984302Y-119959039D01*
X228984306Y-119959037D01*
X228986916Y-119957642D01*
X229072022Y-119922391D01*
X229074854Y-119921532D01*
X229074858Y-119921530D01*
X229074862Y-119921529D01*
X229077697Y-119920669D01*
X229168043Y-119902698D01*
X229173935Y-119902118D01*
X229204117Y-119902118D01*
X229215238Y-119900469D01*
X229222944Y-119899710D01*
X229717056Y-119899710D01*
X229719999Y-119900000D01*
G37*
G36*
X217326015Y-119954437D02*
G01*
X217366494Y-119966716D01*
X217403802Y-119986658D01*
X217436504Y-120013496D01*
X217463342Y-120046198D01*
X217483284Y-120083506D01*
X217495563Y-120123985D01*
X217500000Y-120169034D01*
X217500000Y-121130966D01*
X217495563Y-121176015D01*
X217483284Y-121216494D01*
X217463342Y-121253802D01*
X217436504Y-121286504D01*
X217403802Y-121313342D01*
X217366494Y-121333284D01*
X217326015Y-121345563D01*
X217280966Y-121350000D01*
X216569034Y-121350000D01*
X216523985Y-121345563D01*
X216483506Y-121333284D01*
X216446198Y-121313342D01*
X216413496Y-121286504D01*
X216386658Y-121253802D01*
X216366716Y-121216494D01*
X216354437Y-121176015D01*
X216350000Y-121130966D01*
X216350000Y-120169034D01*
X216354437Y-120123985D01*
X216366716Y-120083506D01*
X216386658Y-120046198D01*
X216413496Y-120013496D01*
X216446198Y-119986658D01*
X216483506Y-119966716D01*
X216523985Y-119954437D01*
X216569034Y-119950000D01*
X217280966Y-119950000D01*
X217326015Y-119954437D01*
G37*
G36*
X215276015Y-119954437D02*
G01*
X215316494Y-119966716D01*
X215353802Y-119986658D01*
X215386504Y-120013496D01*
X215413342Y-120046198D01*
X215433284Y-120083506D01*
X215445563Y-120123985D01*
X215450000Y-120169034D01*
X215450000Y-121130966D01*
X215445563Y-121176015D01*
X215433284Y-121216494D01*
X215413342Y-121253802D01*
X215386504Y-121286504D01*
X215353802Y-121313342D01*
X215316494Y-121333284D01*
X215276015Y-121345563D01*
X215230966Y-121350000D01*
X214519034Y-121350000D01*
X214473985Y-121345563D01*
X214433506Y-121333284D01*
X214396198Y-121313342D01*
X214363496Y-121286504D01*
X214336658Y-121253802D01*
X214316716Y-121216494D01*
X214304437Y-121176015D01*
X214300000Y-121130966D01*
X214300000Y-120169034D01*
X214304437Y-120123985D01*
X214316716Y-120083506D01*
X214336658Y-120046198D01*
X214363496Y-120013496D01*
X214396198Y-119986658D01*
X214433506Y-119966716D01*
X214473985Y-119954437D01*
X214519034Y-119950000D01*
X215230966Y-119950000D01*
X215276015Y-119954437D01*
G37*
G36*
X261015000Y-121230000D02*
G01*
X259265000Y-121230000D01*
X259265000Y-120780000D01*
X261015000Y-120780000D01*
X261015000Y-121230000D01*
G37*
G36*
X253815000Y-121230000D02*
G01*
X252065000Y-121230000D01*
X252065000Y-120780000D01*
X253815000Y-120780000D01*
X253815000Y-121230000D01*
G37*
G36*
X268970000Y-121015000D02*
G01*
X266970000Y-121015000D01*
X266970000Y-119015000D01*
X268970000Y-119015000D01*
X268970000Y-121015000D01*
G37*
G36*
X261015000Y-120580000D02*
G01*
X259265000Y-120580000D01*
X259265000Y-120130000D01*
X261015000Y-120130000D01*
X261015000Y-120580000D01*
G37*
G36*
X253815000Y-120580000D02*
G01*
X252065000Y-120580000D01*
X252065000Y-120130000D01*
X253815000Y-120130000D01*
X253815000Y-120580000D01*
G37*
G36*
X253815000Y-119930000D02*
G01*
X252065000Y-119930000D01*
X252065000Y-119480000D01*
X253815000Y-119480000D01*
X253815000Y-119930000D01*
G37*
G36*
X261015000Y-119930000D02*
G01*
X259265000Y-119930000D01*
X259265000Y-119480000D01*
X261015000Y-119480000D01*
X261015000Y-119930000D01*
G37*
G36*
X152892000Y-119872000D02*
G01*
X150892000Y-119872000D01*
X150892000Y-117872000D01*
X152892000Y-117872000D01*
X152892000Y-119872000D01*
G37*
G36*
X156956000Y-119872000D02*
G01*
X154956000Y-119872000D01*
X154956000Y-117872000D01*
X156956000Y-117872000D01*
X156956000Y-119872000D01*
G37*
G36*
X161020000Y-119872000D02*
G01*
X159020000Y-119872000D01*
X159020000Y-117872000D01*
X161020000Y-117872000D01*
X161020000Y-119872000D01*
G37*
G36*
X261015000Y-119280000D02*
G01*
X259265000Y-119280000D01*
X259265000Y-118830000D01*
X261015000Y-118830000D01*
X261015000Y-119280000D01*
G37*
G36*
X253815000Y-119280000D02*
G01*
X252065000Y-119280000D01*
X252065000Y-118830000D01*
X253815000Y-118830000D01*
X253815000Y-119280000D01*
G37*
G36*
X181190000Y-118960000D02*
G01*
X179490000Y-118960000D01*
X179490000Y-117260000D01*
X181190000Y-117260000D01*
X181190000Y-118960000D01*
G37*
G36*
X183127936Y-117292665D02*
G01*
X183282626Y-117356739D01*
X183321016Y-117382391D01*
X183421844Y-117449762D01*
X183540238Y-117568156D01*
X183576008Y-117621690D01*
X183633261Y-117707374D01*
X183697335Y-117862064D01*
X183730000Y-118026282D01*
X183730000Y-118193718D01*
X183697335Y-118357936D01*
X183633261Y-118512626D01*
X183586855Y-118582076D01*
X183540238Y-118651844D01*
X183421844Y-118770238D01*
X183352076Y-118816855D01*
X183282626Y-118863261D01*
X183127936Y-118927335D01*
X182963718Y-118960000D01*
X182796282Y-118960000D01*
X182632064Y-118927335D01*
X182477374Y-118863261D01*
X182407924Y-118816855D01*
X182338156Y-118770238D01*
X182219762Y-118651844D01*
X182173145Y-118582076D01*
X182126739Y-118512626D01*
X182062665Y-118357936D01*
X182030000Y-118193718D01*
X182030000Y-118026282D01*
X182062665Y-117862064D01*
X182126739Y-117707374D01*
X182183992Y-117621690D01*
X182219762Y-117568156D01*
X182338156Y-117449762D01*
X182438984Y-117382391D01*
X182477374Y-117356739D01*
X182632064Y-117292665D01*
X182796282Y-117260000D01*
X182963718Y-117260000D01*
X183127936Y-117292665D01*
G37*
G36*
X185667936Y-117292665D02*
G01*
X185822626Y-117356739D01*
X185861016Y-117382391D01*
X185961844Y-117449762D01*
X186080238Y-117568156D01*
X186116008Y-117621690D01*
X186173261Y-117707374D01*
X186237335Y-117862064D01*
X186270000Y-118026282D01*
X186270000Y-118193718D01*
X186237335Y-118357936D01*
X186173261Y-118512626D01*
X186126855Y-118582076D01*
X186080238Y-118651844D01*
X185961844Y-118770238D01*
X185892076Y-118816855D01*
X185822626Y-118863261D01*
X185667936Y-118927335D01*
X185503718Y-118960000D01*
X185336282Y-118960000D01*
X185172064Y-118927335D01*
X185017374Y-118863261D01*
X184947924Y-118816855D01*
X184878156Y-118770238D01*
X184759762Y-118651844D01*
X184713145Y-118582076D01*
X184666739Y-118512626D01*
X184602665Y-118357936D01*
X184570000Y-118193718D01*
X184570000Y-118026282D01*
X184602665Y-117862064D01*
X184666739Y-117707374D01*
X184723992Y-117621690D01*
X184759762Y-117568156D01*
X184878156Y-117449762D01*
X184978984Y-117382391D01*
X185017374Y-117356739D01*
X185172064Y-117292665D01*
X185336282Y-117260000D01*
X185503718Y-117260000D01*
X185667936Y-117292665D01*
G37*
G36*
X188207936Y-117292665D02*
G01*
X188362626Y-117356739D01*
X188401016Y-117382391D01*
X188501844Y-117449762D01*
X188620238Y-117568156D01*
X188656008Y-117621690D01*
X188713261Y-117707374D01*
X188777335Y-117862064D01*
X188810000Y-118026282D01*
X188810000Y-118193718D01*
X188777335Y-118357936D01*
X188713261Y-118512626D01*
X188666855Y-118582076D01*
X188620238Y-118651844D01*
X188501844Y-118770238D01*
X188432076Y-118816855D01*
X188362626Y-118863261D01*
X188207936Y-118927335D01*
X188043718Y-118960000D01*
X187876282Y-118960000D01*
X187712064Y-118927335D01*
X187557374Y-118863261D01*
X187487924Y-118816855D01*
X187418156Y-118770238D01*
X187299762Y-118651844D01*
X187253145Y-118582076D01*
X187206739Y-118512626D01*
X187142665Y-118357936D01*
X187110000Y-118193718D01*
X187110000Y-118026282D01*
X187142665Y-117862064D01*
X187206739Y-117707374D01*
X187263992Y-117621690D01*
X187299762Y-117568156D01*
X187418156Y-117449762D01*
X187518984Y-117382391D01*
X187557374Y-117356739D01*
X187712064Y-117292665D01*
X187876282Y-117260000D01*
X188043718Y-117260000D01*
X188207936Y-117292665D01*
G37*
G36*
X190747936Y-117292665D02*
G01*
X190902626Y-117356739D01*
X190941016Y-117382391D01*
X191041844Y-117449762D01*
X191160238Y-117568156D01*
X191196008Y-117621690D01*
X191253261Y-117707374D01*
X191317335Y-117862064D01*
X191350000Y-118026282D01*
X191350000Y-118193718D01*
X191317335Y-118357936D01*
X191253261Y-118512626D01*
X191206855Y-118582076D01*
X191160238Y-118651844D01*
X191041844Y-118770238D01*
X190972076Y-118816855D01*
X190902626Y-118863261D01*
X190747936Y-118927335D01*
X190583718Y-118960000D01*
X190416282Y-118960000D01*
X190252064Y-118927335D01*
X190097374Y-118863261D01*
X190027924Y-118816855D01*
X189958156Y-118770238D01*
X189839762Y-118651844D01*
X189793145Y-118582076D01*
X189746739Y-118512626D01*
X189682665Y-118357936D01*
X189650000Y-118193718D01*
X189650000Y-118026282D01*
X189682665Y-117862064D01*
X189746739Y-117707374D01*
X189803992Y-117621690D01*
X189839762Y-117568156D01*
X189958156Y-117449762D01*
X190058984Y-117382391D01*
X190097374Y-117356739D01*
X190252064Y-117292665D01*
X190416282Y-117260000D01*
X190583718Y-117260000D01*
X190747936Y-117292665D01*
G37*
G36*
X193287936Y-117292665D02*
G01*
X193442626Y-117356739D01*
X193481016Y-117382391D01*
X193581844Y-117449762D01*
X193700238Y-117568156D01*
X193736008Y-117621690D01*
X193793261Y-117707374D01*
X193857335Y-117862064D01*
X193890000Y-118026282D01*
X193890000Y-118193718D01*
X193857335Y-118357936D01*
X193793261Y-118512626D01*
X193746855Y-118582076D01*
X193700238Y-118651844D01*
X193581844Y-118770238D01*
X193512076Y-118816855D01*
X193442626Y-118863261D01*
X193287936Y-118927335D01*
X193123718Y-118960000D01*
X192956282Y-118960000D01*
X192792064Y-118927335D01*
X192637374Y-118863261D01*
X192567924Y-118816855D01*
X192498156Y-118770238D01*
X192379762Y-118651844D01*
X192333145Y-118582076D01*
X192286739Y-118512626D01*
X192222665Y-118357936D01*
X192190000Y-118193718D01*
X192190000Y-118026282D01*
X192222665Y-117862064D01*
X192286739Y-117707374D01*
X192343992Y-117621690D01*
X192379762Y-117568156D01*
X192498156Y-117449762D01*
X192598984Y-117382391D01*
X192637374Y-117356739D01*
X192792064Y-117292665D01*
X192956282Y-117260000D01*
X193123718Y-117260000D01*
X193287936Y-117292665D01*
G37*
G36*
X229719999Y-117360000D02*
G01*
X229720000Y-117360000D01*
X229720000Y-117360001D01*
X229720290Y-117362944D01*
X229720290Y-118857056D01*
X229720000Y-118859999D01*
X229720000Y-118860000D01*
X229719999Y-118860000D01*
X229717056Y-118860290D01*
X229222944Y-118860290D01*
X229215238Y-118859531D01*
X229204117Y-118857882D01*
X229173935Y-118857882D01*
X229168043Y-118857302D01*
X229077697Y-118839331D01*
X229074862Y-118838471D01*
X229074858Y-118838470D01*
X229074854Y-118838468D01*
X229072022Y-118837609D01*
X228986916Y-118802358D01*
X228984306Y-118800963D01*
X228984302Y-118800961D01*
X228984298Y-118800958D01*
X228981690Y-118799564D01*
X228905096Y-118748385D01*
X228902811Y-118746510D01*
X228902803Y-118746505D01*
X228902796Y-118746498D01*
X228900513Y-118744625D01*
X228835375Y-118679487D01*
X228833502Y-118677204D01*
X228833495Y-118677197D01*
X228833490Y-118677189D01*
X228831615Y-118674904D01*
X228780436Y-118598310D01*
X228779042Y-118595702D01*
X228779039Y-118595698D01*
X228779037Y-118595694D01*
X228777642Y-118593084D01*
X228742391Y-118507978D01*
X228740669Y-118502303D01*
X228722698Y-118411957D01*
X228722118Y-118406065D01*
X228722118Y-118375883D01*
X228720469Y-118364762D01*
X228720000Y-118360000D01*
X228719710Y-118357056D01*
X228719710Y-117862944D01*
X228720469Y-117855238D01*
X228722118Y-117844117D01*
X228722118Y-117813935D01*
X228722698Y-117808043D01*
X228740669Y-117717697D01*
X228742391Y-117712022D01*
X228777642Y-117626916D01*
X228779037Y-117624306D01*
X228779039Y-117624302D01*
X228779042Y-117624298D01*
X228780436Y-117621690D01*
X228831615Y-117545096D01*
X228833490Y-117542811D01*
X228833495Y-117542803D01*
X228833502Y-117542796D01*
X228835375Y-117540513D01*
X228900513Y-117475375D01*
X228902796Y-117473502D01*
X228902803Y-117473495D01*
X228902811Y-117473490D01*
X228905096Y-117471615D01*
X228981690Y-117420436D01*
X228984298Y-117419042D01*
X228984302Y-117419039D01*
X228984306Y-117419037D01*
X228986916Y-117417642D01*
X229072022Y-117382391D01*
X229074854Y-117381532D01*
X229074858Y-117381530D01*
X229074862Y-117381529D01*
X229077697Y-117380669D01*
X229168043Y-117362698D01*
X229173935Y-117362118D01*
X229204117Y-117362118D01*
X229215238Y-117360469D01*
X229222944Y-117359710D01*
X229717056Y-117359710D01*
X229719999Y-117360000D01*
G37*
G36*
X230524762Y-117360469D02*
G01*
X230535883Y-117362118D01*
X230566065Y-117362118D01*
X230571957Y-117362698D01*
X230662303Y-117380669D01*
X230665138Y-117381529D01*
X230665142Y-117381530D01*
X230665146Y-117381532D01*
X230667978Y-117382391D01*
X230753084Y-117417642D01*
X230755694Y-117419037D01*
X230755698Y-117419039D01*
X230755702Y-117419042D01*
X230758310Y-117420436D01*
X230834904Y-117471615D01*
X230837189Y-117473490D01*
X230837197Y-117473495D01*
X230837204Y-117473502D01*
X230839487Y-117475375D01*
X230904625Y-117540513D01*
X230906498Y-117542796D01*
X230906505Y-117542803D01*
X230906510Y-117542811D01*
X230908385Y-117545096D01*
X230959564Y-117621690D01*
X230960958Y-117624298D01*
X230960961Y-117624302D01*
X230960963Y-117624306D01*
X230962358Y-117626916D01*
X230997609Y-117712022D01*
X230999331Y-117717697D01*
X231017302Y-117808043D01*
X231017882Y-117813935D01*
X231017882Y-117844117D01*
X231019531Y-117855238D01*
X231020290Y-117862944D01*
X231020290Y-118357056D01*
X231019531Y-118364762D01*
X231017882Y-118375883D01*
X231017882Y-118406065D01*
X231017302Y-118411957D01*
X230999331Y-118502303D01*
X230997609Y-118507978D01*
X230962358Y-118593084D01*
X230960963Y-118595694D01*
X230960961Y-118595698D01*
X230960958Y-118595702D01*
X230959564Y-118598310D01*
X230908385Y-118674904D01*
X230906510Y-118677189D01*
X230906505Y-118677197D01*
X230906498Y-118677204D01*
X230904625Y-118679487D01*
X230839487Y-118744625D01*
X230837204Y-118746498D01*
X230837197Y-118746505D01*
X230837189Y-118746510D01*
X230834904Y-118748385D01*
X230758310Y-118799564D01*
X230755702Y-118800958D01*
X230755698Y-118800961D01*
X230755694Y-118800963D01*
X230753084Y-118802358D01*
X230667978Y-118837609D01*
X230665146Y-118838468D01*
X230665142Y-118838470D01*
X230665138Y-118838471D01*
X230662303Y-118839331D01*
X230571957Y-118857302D01*
X230566065Y-118857882D01*
X230535883Y-118857882D01*
X230524762Y-118859531D01*
X230517056Y-118860290D01*
X230022944Y-118860290D01*
X230020001Y-118860000D01*
X230020000Y-118860000D01*
X230020000Y-118859999D01*
X230019710Y-118857056D01*
X230019710Y-117362944D01*
X230020000Y-117360001D01*
X230020000Y-117360000D01*
X230020001Y-117360000D01*
X230022944Y-117359710D01*
X230517056Y-117359710D01*
X230524762Y-117360469D01*
G37*
G36*
X215276015Y-117414437D02*
G01*
X215316494Y-117426716D01*
X215353802Y-117446658D01*
X215386504Y-117473496D01*
X215413342Y-117506198D01*
X215433284Y-117543506D01*
X215445563Y-117583985D01*
X215450000Y-117629034D01*
X215450000Y-118590966D01*
X215445563Y-118636015D01*
X215433284Y-118676494D01*
X215413342Y-118713802D01*
X215386504Y-118746504D01*
X215353802Y-118773342D01*
X215316494Y-118793284D01*
X215276015Y-118805563D01*
X215230966Y-118810000D01*
X214519034Y-118810000D01*
X214473985Y-118805563D01*
X214433506Y-118793284D01*
X214396198Y-118773342D01*
X214363496Y-118746504D01*
X214336658Y-118713802D01*
X214316716Y-118676494D01*
X214304437Y-118636015D01*
X214300000Y-118590966D01*
X214300000Y-117629034D01*
X214304437Y-117583985D01*
X214316716Y-117543506D01*
X214336658Y-117506198D01*
X214363496Y-117473496D01*
X214396198Y-117446658D01*
X214433506Y-117426716D01*
X214473985Y-117414437D01*
X214519034Y-117410000D01*
X215230966Y-117410000D01*
X215276015Y-117414437D01*
G37*
G36*
X217326015Y-117414437D02*
G01*
X217366494Y-117426716D01*
X217403802Y-117446658D01*
X217436504Y-117473496D01*
X217463342Y-117506198D01*
X217483284Y-117543506D01*
X217495563Y-117583985D01*
X217500000Y-117629034D01*
X217500000Y-118590966D01*
X217495563Y-118636015D01*
X217483284Y-118676494D01*
X217463342Y-118713802D01*
X217436504Y-118746504D01*
X217403802Y-118773342D01*
X217366494Y-118793284D01*
X217326015Y-118805563D01*
X217280966Y-118810000D01*
X216569034Y-118810000D01*
X216523985Y-118805563D01*
X216483506Y-118793284D01*
X216446198Y-118773342D01*
X216413496Y-118746504D01*
X216386658Y-118713802D01*
X216366716Y-118676494D01*
X216354437Y-118636015D01*
X216350000Y-118590966D01*
X216350000Y-117629034D01*
X216354437Y-117583985D01*
X216366716Y-117543506D01*
X216386658Y-117506198D01*
X216413496Y-117473496D01*
X216446198Y-117446658D01*
X216483506Y-117426716D01*
X216523985Y-117414437D01*
X216569034Y-117410000D01*
X217280966Y-117410000D01*
X217326015Y-117414437D01*
G37*
G36*
X253815000Y-118630000D02*
G01*
X252065000Y-118630000D01*
X252065000Y-118180000D01*
X253815000Y-118180000D01*
X253815000Y-118630000D01*
G37*
G36*
X261015000Y-118630000D02*
G01*
X259265000Y-118630000D01*
X259265000Y-118180000D01*
X261015000Y-118180000D01*
X261015000Y-118630000D01*
G37*
G36*
X261015000Y-117980000D02*
G01*
X259265000Y-117980000D01*
X259265000Y-117530000D01*
X261015000Y-117530000D01*
X261015000Y-117980000D01*
G37*
G36*
X253815000Y-117980000D02*
G01*
X252065000Y-117980000D01*
X252065000Y-117530000D01*
X253815000Y-117530000D01*
X253815000Y-117980000D01*
G37*
G36*
X241030000Y-117840000D02*
G01*
X239030000Y-117840000D01*
X239030000Y-115840000D01*
X241030000Y-115840000D01*
X241030000Y-117840000D01*
G37*
G36*
X245218321Y-115857868D02*
G01*
X245321689Y-115878429D01*
X245503678Y-115953811D01*
X245667463Y-116063249D01*
X245806751Y-116202537D01*
X245916189Y-116366322D01*
X245991571Y-116548311D01*
X246030000Y-116741509D01*
X246030000Y-116938491D01*
X245991571Y-117131689D01*
X245916189Y-117313678D01*
X245806751Y-117477463D01*
X245667463Y-117616751D01*
X245503678Y-117726189D01*
X245321689Y-117801571D01*
X245225090Y-117820786D01*
X245128493Y-117840000D01*
X244931507Y-117840000D01*
X244834910Y-117820786D01*
X244738311Y-117801571D01*
X244556322Y-117726189D01*
X244392537Y-117616751D01*
X244253249Y-117477463D01*
X244143811Y-117313678D01*
X244068429Y-117131689D01*
X244030000Y-116938491D01*
X244030000Y-116741509D01*
X244068429Y-116548311D01*
X244143811Y-116366322D01*
X244253249Y-116202537D01*
X244392537Y-116063249D01*
X244556322Y-115953811D01*
X244738311Y-115878429D01*
X244841679Y-115857868D01*
X244931507Y-115840000D01*
X245128493Y-115840000D01*
X245218321Y-115857868D01*
G37*
G36*
X242718321Y-115857868D02*
G01*
X242821689Y-115878429D01*
X243003678Y-115953811D01*
X243167463Y-116063249D01*
X243306751Y-116202537D01*
X243416189Y-116366322D01*
X243491571Y-116548311D01*
X243530000Y-116741509D01*
X243530000Y-116938491D01*
X243491571Y-117131689D01*
X243416189Y-117313678D01*
X243306751Y-117477463D01*
X243167463Y-117616751D01*
X243003678Y-117726189D01*
X242821689Y-117801571D01*
X242725090Y-117820786D01*
X242628493Y-117840000D01*
X242431507Y-117840000D01*
X242334910Y-117820786D01*
X242238311Y-117801571D01*
X242056322Y-117726189D01*
X241892537Y-117616751D01*
X241753249Y-117477463D01*
X241643811Y-117313678D01*
X241568429Y-117131689D01*
X241530000Y-116938491D01*
X241530000Y-116741509D01*
X241568429Y-116548311D01*
X241643811Y-116366322D01*
X241753249Y-116202537D01*
X241892537Y-116063249D01*
X242056322Y-115953811D01*
X242238311Y-115878429D01*
X242341679Y-115857868D01*
X242431507Y-115840000D01*
X242628493Y-115840000D01*
X242718321Y-115857868D01*
G37*
G36*
X261015000Y-117330000D02*
G01*
X259265000Y-117330000D01*
X259265000Y-116880000D01*
X261015000Y-116880000D01*
X261015000Y-117330000D01*
G37*
G36*
X253815000Y-117330000D02*
G01*
X252065000Y-117330000D01*
X252065000Y-116880000D01*
X253815000Y-116880000D01*
X253815000Y-117330000D01*
G37*
G36*
X261015000Y-116680000D02*
G01*
X259265000Y-116680000D01*
X259265000Y-116230000D01*
X261015000Y-116230000D01*
X261015000Y-116680000D01*
G37*
G36*
X253815000Y-116680000D02*
G01*
X252065000Y-116680000D01*
X252065000Y-116230000D01*
X253815000Y-116230000D01*
X253815000Y-116680000D01*
G37*
G36*
X229719999Y-114820000D02*
G01*
X229720000Y-114820000D01*
X229720000Y-114820001D01*
X229720290Y-114822944D01*
X229720290Y-116317056D01*
X229720000Y-116319999D01*
X229720000Y-116320000D01*
X229719999Y-116320000D01*
X229717056Y-116320290D01*
X229222944Y-116320290D01*
X229215238Y-116319531D01*
X229204117Y-116317882D01*
X229173935Y-116317882D01*
X229168043Y-116317302D01*
X229077697Y-116299331D01*
X229074862Y-116298471D01*
X229074858Y-116298470D01*
X229074854Y-116298468D01*
X229072022Y-116297609D01*
X228986916Y-116262358D01*
X228984306Y-116260963D01*
X228984302Y-116260961D01*
X228984298Y-116260958D01*
X228981690Y-116259564D01*
X228905096Y-116208385D01*
X228902811Y-116206510D01*
X228902803Y-116206505D01*
X228902796Y-116206498D01*
X228900513Y-116204625D01*
X228835375Y-116139487D01*
X228833502Y-116137204D01*
X228833495Y-116137197D01*
X228833490Y-116137189D01*
X228831615Y-116134904D01*
X228780436Y-116058310D01*
X228779042Y-116055702D01*
X228779039Y-116055698D01*
X228779037Y-116055694D01*
X228777642Y-116053084D01*
X228742391Y-115967978D01*
X228740669Y-115962303D01*
X228722698Y-115871957D01*
X228722118Y-115866065D01*
X228722118Y-115835883D01*
X228720469Y-115824762D01*
X228720000Y-115820000D01*
X228719710Y-115817056D01*
X228719710Y-115322944D01*
X228720469Y-115315238D01*
X228722118Y-115304117D01*
X228722118Y-115273935D01*
X228722698Y-115268043D01*
X228740669Y-115177697D01*
X228742391Y-115172022D01*
X228777642Y-115086916D01*
X228779037Y-115084306D01*
X228779039Y-115084302D01*
X228779042Y-115084298D01*
X228780436Y-115081690D01*
X228831615Y-115005096D01*
X228833490Y-115002811D01*
X228833495Y-115002803D01*
X228833502Y-115002796D01*
X228835375Y-115000513D01*
X228900513Y-114935375D01*
X228902796Y-114933502D01*
X228902803Y-114933495D01*
X228902811Y-114933490D01*
X228905096Y-114931615D01*
X228981690Y-114880436D01*
X228984298Y-114879042D01*
X228984302Y-114879039D01*
X228984306Y-114879037D01*
X228986916Y-114877642D01*
X229072022Y-114842391D01*
X229074854Y-114841532D01*
X229074858Y-114841530D01*
X229074862Y-114841529D01*
X229077697Y-114840669D01*
X229168043Y-114822698D01*
X229173935Y-114822118D01*
X229204117Y-114822118D01*
X229215238Y-114820469D01*
X229222944Y-114819710D01*
X229717056Y-114819710D01*
X229719999Y-114820000D01*
G37*
G36*
X230524762Y-114820469D02*
G01*
X230535883Y-114822118D01*
X230566065Y-114822118D01*
X230571957Y-114822698D01*
X230662303Y-114840669D01*
X230665138Y-114841529D01*
X230665142Y-114841530D01*
X230665146Y-114841532D01*
X230667978Y-114842391D01*
X230753084Y-114877642D01*
X230755694Y-114879037D01*
X230755698Y-114879039D01*
X230755702Y-114879042D01*
X230758310Y-114880436D01*
X230834904Y-114931615D01*
X230837189Y-114933490D01*
X230837197Y-114933495D01*
X230837204Y-114933502D01*
X230839487Y-114935375D01*
X230904625Y-115000513D01*
X230906498Y-115002796D01*
X230906505Y-115002803D01*
X230906510Y-115002811D01*
X230908385Y-115005096D01*
X230959564Y-115081690D01*
X230960958Y-115084298D01*
X230960961Y-115084302D01*
X230960963Y-115084306D01*
X230962358Y-115086916D01*
X230997609Y-115172022D01*
X230999331Y-115177697D01*
X231017302Y-115268043D01*
X231017882Y-115273935D01*
X231017882Y-115304117D01*
X231019531Y-115315238D01*
X231020290Y-115322944D01*
X231020290Y-115817056D01*
X231019531Y-115824762D01*
X231017882Y-115835883D01*
X231017882Y-115866065D01*
X231017302Y-115871957D01*
X230999331Y-115962303D01*
X230997609Y-115967978D01*
X230962358Y-116053084D01*
X230960963Y-116055694D01*
X230960961Y-116055698D01*
X230960958Y-116055702D01*
X230959564Y-116058310D01*
X230908385Y-116134904D01*
X230906510Y-116137189D01*
X230906505Y-116137197D01*
X230906498Y-116137204D01*
X230904625Y-116139487D01*
X230839487Y-116204625D01*
X230837204Y-116206498D01*
X230837197Y-116206505D01*
X230837189Y-116206510D01*
X230834904Y-116208385D01*
X230758310Y-116259564D01*
X230755702Y-116260958D01*
X230755698Y-116260961D01*
X230755694Y-116260963D01*
X230753084Y-116262358D01*
X230667978Y-116297609D01*
X230665146Y-116298468D01*
X230665142Y-116298470D01*
X230665138Y-116298471D01*
X230662303Y-116299331D01*
X230571957Y-116317302D01*
X230566065Y-116317882D01*
X230535883Y-116317882D01*
X230524762Y-116319531D01*
X230517056Y-116320290D01*
X230022944Y-116320290D01*
X230020001Y-116320000D01*
X230020000Y-116320000D01*
X230020000Y-116319999D01*
X230019710Y-116317056D01*
X230019710Y-114822944D01*
X230020000Y-114820001D01*
X230020000Y-114820000D01*
X230020001Y-114820000D01*
X230022944Y-114819710D01*
X230517056Y-114819710D01*
X230524762Y-114820469D01*
G37*
G36*
X217326015Y-114874437D02*
G01*
X217366494Y-114886716D01*
X217403802Y-114906658D01*
X217436504Y-114933496D01*
X217463342Y-114966198D01*
X217483284Y-115003506D01*
X217495563Y-115043985D01*
X217500000Y-115089034D01*
X217500000Y-116050966D01*
X217495563Y-116096015D01*
X217483284Y-116136494D01*
X217463342Y-116173802D01*
X217436504Y-116206504D01*
X217403802Y-116233342D01*
X217366494Y-116253284D01*
X217326015Y-116265563D01*
X217280966Y-116270000D01*
X216569034Y-116270000D01*
X216523985Y-116265563D01*
X216483506Y-116253284D01*
X216446198Y-116233342D01*
X216413496Y-116206504D01*
X216386658Y-116173802D01*
X216366716Y-116136494D01*
X216354437Y-116096015D01*
X216350000Y-116050966D01*
X216350000Y-115089034D01*
X216354437Y-115043985D01*
X216366716Y-115003506D01*
X216386658Y-114966198D01*
X216413496Y-114933496D01*
X216446198Y-114906658D01*
X216483506Y-114886716D01*
X216523985Y-114874437D01*
X216569034Y-114870000D01*
X217280966Y-114870000D01*
X217326015Y-114874437D01*
G37*
G36*
X215276015Y-114874437D02*
G01*
X215316494Y-114886716D01*
X215353802Y-114906658D01*
X215386504Y-114933496D01*
X215413342Y-114966198D01*
X215433284Y-115003506D01*
X215445563Y-115043985D01*
X215450000Y-115089034D01*
X215450000Y-116050966D01*
X215445563Y-116096015D01*
X215433284Y-116136494D01*
X215413342Y-116173802D01*
X215386504Y-116206504D01*
X215353802Y-116233342D01*
X215316494Y-116253284D01*
X215276015Y-116265563D01*
X215230966Y-116270000D01*
X214519034Y-116270000D01*
X214473985Y-116265563D01*
X214433506Y-116253284D01*
X214396198Y-116233342D01*
X214363496Y-116206504D01*
X214336658Y-116173802D01*
X214316716Y-116136494D01*
X214304437Y-116096015D01*
X214300000Y-116050966D01*
X214300000Y-115089034D01*
X214304437Y-115043985D01*
X214316716Y-115003506D01*
X214336658Y-114966198D01*
X214363496Y-114933496D01*
X214396198Y-114906658D01*
X214433506Y-114886716D01*
X214473985Y-114874437D01*
X214519034Y-114870000D01*
X215230966Y-114870000D01*
X215276015Y-114874437D01*
G37*
G36*
X222261015Y-114874437D02*
G01*
X222301494Y-114886716D01*
X222338802Y-114906658D01*
X222371504Y-114933496D01*
X222398342Y-114966198D01*
X222418284Y-115003506D01*
X222430563Y-115043985D01*
X222435000Y-115089034D01*
X222435000Y-116050966D01*
X222430563Y-116096015D01*
X222418284Y-116136494D01*
X222398342Y-116173802D01*
X222371504Y-116206504D01*
X222338802Y-116233342D01*
X222301494Y-116253284D01*
X222261015Y-116265563D01*
X222215966Y-116270000D01*
X221504034Y-116270000D01*
X221458985Y-116265563D01*
X221418506Y-116253284D01*
X221381198Y-116233342D01*
X221348496Y-116206504D01*
X221321658Y-116173802D01*
X221301716Y-116136494D01*
X221289437Y-116096015D01*
X221285000Y-116050966D01*
X221285000Y-115089034D01*
X221289437Y-115043985D01*
X221301716Y-115003506D01*
X221321658Y-114966198D01*
X221348496Y-114933496D01*
X221381198Y-114906658D01*
X221418506Y-114886716D01*
X221458985Y-114874437D01*
X221504034Y-114870000D01*
X222215966Y-114870000D01*
X222261015Y-114874437D01*
G37*
G36*
X224311015Y-114874437D02*
G01*
X224351494Y-114886716D01*
X224388802Y-114906658D01*
X224421504Y-114933496D01*
X224448342Y-114966198D01*
X224468284Y-115003506D01*
X224480563Y-115043985D01*
X224485000Y-115089034D01*
X224485000Y-116050966D01*
X224480563Y-116096015D01*
X224468284Y-116136494D01*
X224448342Y-116173802D01*
X224421504Y-116206504D01*
X224388802Y-116233342D01*
X224351494Y-116253284D01*
X224311015Y-116265563D01*
X224265966Y-116270000D01*
X223554034Y-116270000D01*
X223508985Y-116265563D01*
X223468506Y-116253284D01*
X223431198Y-116233342D01*
X223398496Y-116206504D01*
X223371658Y-116173802D01*
X223351716Y-116136494D01*
X223339437Y-116096015D01*
X223335000Y-116050966D01*
X223335000Y-115089034D01*
X223339437Y-115043985D01*
X223351716Y-115003506D01*
X223371658Y-114966198D01*
X223398496Y-114933496D01*
X223431198Y-114906658D01*
X223468506Y-114886716D01*
X223508985Y-114874437D01*
X223554034Y-114870000D01*
X224265966Y-114870000D01*
X224311015Y-114874437D01*
G37*
G36*
X253815000Y-116030000D02*
G01*
X252065000Y-116030000D01*
X252065000Y-115580000D01*
X253815000Y-115580000D01*
X253815000Y-116030000D01*
G37*
G36*
X261015000Y-116030000D02*
G01*
X259265000Y-116030000D01*
X259265000Y-115580000D01*
X261015000Y-115580000D01*
X261015000Y-116030000D01*
G37*
G36*
X263416015Y-114754437D02*
G01*
X263456494Y-114766716D01*
X263493802Y-114786658D01*
X263526504Y-114813496D01*
X263553342Y-114846198D01*
X263573284Y-114883506D01*
X263585563Y-114923985D01*
X263590000Y-114969034D01*
X263590000Y-115680966D01*
X263585563Y-115726015D01*
X263573284Y-115766494D01*
X263553342Y-115803802D01*
X263526504Y-115836504D01*
X263493802Y-115863342D01*
X263456494Y-115883284D01*
X263416015Y-115895563D01*
X263370966Y-115900000D01*
X262409034Y-115900000D01*
X262363985Y-115895563D01*
X262323506Y-115883284D01*
X262286198Y-115863342D01*
X262253496Y-115836504D01*
X262226658Y-115803802D01*
X262206716Y-115766494D01*
X262194437Y-115726015D01*
X262190000Y-115680966D01*
X262190000Y-114969034D01*
X262194437Y-114923985D01*
X262206716Y-114883506D01*
X262226658Y-114846198D01*
X262253496Y-114813496D01*
X262286198Y-114786658D01*
X262323506Y-114766716D01*
X262363985Y-114754437D01*
X262409034Y-114750000D01*
X263370966Y-114750000D01*
X263416015Y-114754437D01*
G37*
G36*
X268820000Y-115785000D02*
G01*
X267120000Y-115785000D01*
X267120000Y-114085000D01*
X268820000Y-114085000D01*
X268820000Y-115785000D01*
G37*
G36*
X253815000Y-115380000D02*
G01*
X252065000Y-115380000D01*
X252065000Y-114930000D01*
X253815000Y-114930000D01*
X253815000Y-115380000D01*
G37*
G36*
X261015000Y-115380000D02*
G01*
X259265000Y-115380000D01*
X259265000Y-114930000D01*
X261015000Y-114930000D01*
X261015000Y-115380000D01*
G37*
G36*
X263416015Y-112704437D02*
G01*
X263456494Y-112716716D01*
X263493802Y-112736658D01*
X263526504Y-112763496D01*
X263553342Y-112796198D01*
X263573284Y-112833506D01*
X263585563Y-112873985D01*
X263590000Y-112919034D01*
X263590000Y-113630966D01*
X263585563Y-113676015D01*
X263573284Y-113716494D01*
X263553342Y-113753802D01*
X263526504Y-113786504D01*
X263493802Y-113813342D01*
X263456494Y-113833284D01*
X263416015Y-113845563D01*
X263370966Y-113850000D01*
X262409034Y-113850000D01*
X262363985Y-113845563D01*
X262323506Y-113833284D01*
X262286198Y-113813342D01*
X262253496Y-113786504D01*
X262226658Y-113753802D01*
X262206716Y-113716494D01*
X262194437Y-113676015D01*
X262190000Y-113630966D01*
X262190000Y-112919034D01*
X262194437Y-112873985D01*
X262206716Y-112833506D01*
X262226658Y-112796198D01*
X262253496Y-112763496D01*
X262286198Y-112736658D01*
X262323506Y-112716716D01*
X262363985Y-112704437D01*
X262409034Y-112700000D01*
X263370966Y-112700000D01*
X263416015Y-112704437D01*
G37*
G36*
X268217936Y-111577665D02*
G01*
X268372626Y-111641739D01*
X268442076Y-111688145D01*
X268511844Y-111734762D01*
X268630238Y-111853156D01*
X268676855Y-111922924D01*
X268723261Y-111992374D01*
X268787335Y-112147064D01*
X268820000Y-112311282D01*
X268820000Y-112478718D01*
X268787335Y-112642936D01*
X268723261Y-112797626D01*
X268676855Y-112867076D01*
X268630238Y-112936844D01*
X268511844Y-113055238D01*
X268442076Y-113101855D01*
X268372626Y-113148261D01*
X268217936Y-113212335D01*
X268053718Y-113245000D01*
X267886282Y-113245000D01*
X267722064Y-113212335D01*
X267567374Y-113148261D01*
X267497924Y-113101855D01*
X267428156Y-113055238D01*
X267309762Y-112936844D01*
X267263145Y-112867076D01*
X267216739Y-112797626D01*
X267152665Y-112642936D01*
X267120000Y-112478718D01*
X267120000Y-112311282D01*
X267152665Y-112147064D01*
X267216739Y-111992374D01*
X267263145Y-111922924D01*
X267309762Y-111853156D01*
X267428156Y-111734762D01*
X267497924Y-111688145D01*
X267567374Y-111641739D01*
X267722064Y-111577665D01*
X267886282Y-111545000D01*
X268053718Y-111545000D01*
X268217936Y-111577665D01*
G37*
G36*
X231750000Y-111570000D02*
G01*
X229750000Y-111570000D01*
X229750000Y-110670000D01*
X231750000Y-110670000D01*
X231750000Y-111570000D01*
G37*
G36*
X214750000Y-111570000D02*
G01*
X212750000Y-111570000D01*
X212750000Y-110670000D01*
X214750000Y-110670000D01*
X214750000Y-111570000D01*
G37*
G36*
X192017936Y-109672665D02*
G01*
X192172626Y-109736739D01*
X192224322Y-109771282D01*
X192311844Y-109829762D01*
X192430238Y-109948156D01*
X192476855Y-110017924D01*
X192523261Y-110087374D01*
X192587335Y-110242064D01*
X192620000Y-110406282D01*
X192620000Y-110573718D01*
X192587335Y-110737936D01*
X192523261Y-110892626D01*
X192491606Y-110940000D01*
X192430238Y-111031844D01*
X192311844Y-111150238D01*
X192242076Y-111196855D01*
X192172626Y-111243261D01*
X192017936Y-111307335D01*
X191853718Y-111340000D01*
X191686282Y-111340000D01*
X191522064Y-111307335D01*
X191367374Y-111243261D01*
X191297924Y-111196855D01*
X191228156Y-111150238D01*
X191109762Y-111031844D01*
X191048394Y-110940000D01*
X191016739Y-110892626D01*
X190952665Y-110737936D01*
X190920000Y-110573718D01*
X190920000Y-110406282D01*
X190952665Y-110242064D01*
X191016739Y-110087374D01*
X191063145Y-110017924D01*
X191109762Y-109948156D01*
X191228156Y-109829762D01*
X191315678Y-109771282D01*
X191367374Y-109736739D01*
X191522064Y-109672665D01*
X191686282Y-109640000D01*
X191853718Y-109640000D01*
X192017936Y-109672665D01*
G37*
G36*
X181857936Y-109672665D02*
G01*
X182012626Y-109736739D01*
X182064322Y-109771282D01*
X182151844Y-109829762D01*
X182270238Y-109948156D01*
X182316855Y-110017924D01*
X182363261Y-110087374D01*
X182427335Y-110242064D01*
X182460000Y-110406282D01*
X182460000Y-110573718D01*
X182427335Y-110737936D01*
X182363261Y-110892626D01*
X182331606Y-110940000D01*
X182270238Y-111031844D01*
X182151844Y-111150238D01*
X182082076Y-111196855D01*
X182012626Y-111243261D01*
X181857936Y-111307335D01*
X181693718Y-111340000D01*
X181526282Y-111340000D01*
X181362064Y-111307335D01*
X181207374Y-111243261D01*
X181137924Y-111196855D01*
X181068156Y-111150238D01*
X180949762Y-111031844D01*
X180888394Y-110940000D01*
X180856739Y-110892626D01*
X180792665Y-110737936D01*
X180760000Y-110573718D01*
X180760000Y-110406282D01*
X180792665Y-110242064D01*
X180856739Y-110087374D01*
X180903145Y-110017924D01*
X180949762Y-109948156D01*
X181068156Y-109829762D01*
X181155678Y-109771282D01*
X181207374Y-109736739D01*
X181362064Y-109672665D01*
X181526282Y-109640000D01*
X181693718Y-109640000D01*
X181857936Y-109672665D01*
G37*
G36*
X184397936Y-109672665D02*
G01*
X184552626Y-109736739D01*
X184604322Y-109771282D01*
X184691844Y-109829762D01*
X184810238Y-109948156D01*
X184856855Y-110017924D01*
X184903261Y-110087374D01*
X184967335Y-110242064D01*
X185000000Y-110406282D01*
X185000000Y-110573718D01*
X184967335Y-110737936D01*
X184903261Y-110892626D01*
X184871606Y-110940000D01*
X184810238Y-111031844D01*
X184691844Y-111150238D01*
X184622076Y-111196855D01*
X184552626Y-111243261D01*
X184397936Y-111307335D01*
X184233718Y-111340000D01*
X184066282Y-111340000D01*
X183902064Y-111307335D01*
X183747374Y-111243261D01*
X183677924Y-111196855D01*
X183608156Y-111150238D01*
X183489762Y-111031844D01*
X183428394Y-110940000D01*
X183396739Y-110892626D01*
X183332665Y-110737936D01*
X183300000Y-110573718D01*
X183300000Y-110406282D01*
X183332665Y-110242064D01*
X183396739Y-110087374D01*
X183443145Y-110017924D01*
X183489762Y-109948156D01*
X183608156Y-109829762D01*
X183695678Y-109771282D01*
X183747374Y-109736739D01*
X183902064Y-109672665D01*
X184066282Y-109640000D01*
X184233718Y-109640000D01*
X184397936Y-109672665D01*
G37*
G36*
X186937936Y-109672665D02*
G01*
X187092626Y-109736739D01*
X187144322Y-109771282D01*
X187231844Y-109829762D01*
X187350238Y-109948156D01*
X187396855Y-110017924D01*
X187443261Y-110087374D01*
X187507335Y-110242064D01*
X187540000Y-110406282D01*
X187540000Y-110573718D01*
X187507335Y-110737936D01*
X187443261Y-110892626D01*
X187411606Y-110940000D01*
X187350238Y-111031844D01*
X187231844Y-111150238D01*
X187162076Y-111196855D01*
X187092626Y-111243261D01*
X186937936Y-111307335D01*
X186773718Y-111340000D01*
X186606282Y-111340000D01*
X186442064Y-111307335D01*
X186287374Y-111243261D01*
X186217924Y-111196855D01*
X186148156Y-111150238D01*
X186029762Y-111031844D01*
X185968394Y-110940000D01*
X185936739Y-110892626D01*
X185872665Y-110737936D01*
X185840000Y-110573718D01*
X185840000Y-110406282D01*
X185872665Y-110242064D01*
X185936739Y-110087374D01*
X185983145Y-110017924D01*
X186029762Y-109948156D01*
X186148156Y-109829762D01*
X186235678Y-109771282D01*
X186287374Y-109736739D01*
X186442064Y-109672665D01*
X186606282Y-109640000D01*
X186773718Y-109640000D01*
X186937936Y-109672665D01*
G37*
G36*
X189477936Y-109672665D02*
G01*
X189632626Y-109736739D01*
X189684322Y-109771282D01*
X189771844Y-109829762D01*
X189890238Y-109948156D01*
X189936855Y-110017924D01*
X189983261Y-110087374D01*
X190047335Y-110242064D01*
X190080000Y-110406282D01*
X190080000Y-110573718D01*
X190047335Y-110737936D01*
X189983261Y-110892626D01*
X189951606Y-110940000D01*
X189890238Y-111031844D01*
X189771844Y-111150238D01*
X189702076Y-111196855D01*
X189632626Y-111243261D01*
X189477936Y-111307335D01*
X189313718Y-111340000D01*
X189146282Y-111340000D01*
X188982064Y-111307335D01*
X188827374Y-111243261D01*
X188757924Y-111196855D01*
X188688156Y-111150238D01*
X188569762Y-111031844D01*
X188508394Y-110940000D01*
X188476739Y-110892626D01*
X188412665Y-110737936D01*
X188380000Y-110573718D01*
X188380000Y-110406282D01*
X188412665Y-110242064D01*
X188476739Y-110087374D01*
X188523145Y-110017924D01*
X188569762Y-109948156D01*
X188688156Y-109829762D01*
X188775678Y-109771282D01*
X188827374Y-109736739D01*
X188982064Y-109672665D01*
X189146282Y-109640000D01*
X189313718Y-109640000D01*
X189477936Y-109672665D01*
G37*
G36*
X249130000Y-110940000D02*
G01*
X247130000Y-110940000D01*
X247130000Y-107740000D01*
X249130000Y-107740000D01*
X249130000Y-110940000D01*
G37*
G36*
X237930000Y-110940000D02*
G01*
X235930000Y-110940000D01*
X235930000Y-107740000D01*
X237930000Y-107740000D01*
X237930000Y-110940000D01*
G37*
G36*
X268217936Y-109037665D02*
G01*
X268372626Y-109101739D01*
X268442076Y-109148145D01*
X268511844Y-109194762D01*
X268630238Y-109313156D01*
X268676855Y-109382924D01*
X268723261Y-109452374D01*
X268787335Y-109607064D01*
X268820000Y-109771282D01*
X268820000Y-109938718D01*
X268787335Y-110102936D01*
X268723261Y-110257626D01*
X268694947Y-110300000D01*
X268630238Y-110396844D01*
X268511844Y-110515238D01*
X268442076Y-110561855D01*
X268372626Y-110608261D01*
X268223573Y-110670000D01*
X268217936Y-110672335D01*
X268053718Y-110705000D01*
X267886282Y-110705000D01*
X267722064Y-110672335D01*
X267716427Y-110670000D01*
X267567374Y-110608261D01*
X267497924Y-110561855D01*
X267428156Y-110515238D01*
X267309762Y-110396844D01*
X267245053Y-110300000D01*
X267216739Y-110257626D01*
X267152665Y-110102936D01*
X267120000Y-109938718D01*
X267120000Y-109771282D01*
X267152665Y-109607064D01*
X267216739Y-109452374D01*
X267263145Y-109382924D01*
X267309762Y-109313156D01*
X267428156Y-109194762D01*
X267497924Y-109148145D01*
X267567374Y-109101739D01*
X267722064Y-109037665D01*
X267886282Y-109005000D01*
X268053718Y-109005000D01*
X268217936Y-109037665D01*
G37*
G36*
X231750000Y-110300000D02*
G01*
X229750000Y-110300000D01*
X229750000Y-109400000D01*
X231750000Y-109400000D01*
X231750000Y-110300000D01*
G37*
G36*
X214750000Y-110300000D02*
G01*
X212750000Y-110300000D01*
X212750000Y-109400000D01*
X214750000Y-109400000D01*
X214750000Y-110300000D01*
G37*
G36*
X87210000Y-110070000D02*
G01*
X85510000Y-110070000D01*
X85510000Y-108370000D01*
X87210000Y-108370000D01*
X87210000Y-110070000D01*
G37*
G36*
X231750000Y-109030000D02*
G01*
X229750000Y-109030000D01*
X229750000Y-108130000D01*
X231750000Y-108130000D01*
X231750000Y-109030000D01*
G37*
G36*
X214750000Y-109030000D02*
G01*
X212750000Y-109030000D01*
X212750000Y-108130000D01*
X214750000Y-108130000D01*
X214750000Y-109030000D01*
G37*
G36*
X192017936Y-107132665D02*
G01*
X192172626Y-107196739D01*
X192224322Y-107231282D01*
X192311844Y-107289762D01*
X192430238Y-107408156D01*
X192465574Y-107461041D01*
X192523261Y-107547374D01*
X192587335Y-107702064D01*
X192620000Y-107866282D01*
X192620000Y-108033718D01*
X192587335Y-108197936D01*
X192523261Y-108352626D01*
X192484255Y-108411001D01*
X192430238Y-108491844D01*
X192311844Y-108610238D01*
X192278071Y-108632804D01*
X192172626Y-108703261D01*
X192017936Y-108767335D01*
X191853718Y-108800000D01*
X191686282Y-108800000D01*
X191522064Y-108767335D01*
X191367374Y-108703261D01*
X191261929Y-108632804D01*
X191228156Y-108610238D01*
X191109762Y-108491844D01*
X191055745Y-108411001D01*
X191016739Y-108352626D01*
X190952665Y-108197936D01*
X190920000Y-108033718D01*
X190920000Y-107866282D01*
X190952665Y-107702064D01*
X191016739Y-107547374D01*
X191074426Y-107461041D01*
X191109762Y-107408156D01*
X191228156Y-107289762D01*
X191315678Y-107231282D01*
X191367374Y-107196739D01*
X191522064Y-107132665D01*
X191686282Y-107100000D01*
X191853718Y-107100000D01*
X192017936Y-107132665D01*
G37*
G36*
X189477936Y-107132665D02*
G01*
X189632626Y-107196739D01*
X189684322Y-107231282D01*
X189771844Y-107289762D01*
X189890238Y-107408156D01*
X189925574Y-107461041D01*
X189983261Y-107547374D01*
X190047335Y-107702064D01*
X190080000Y-107866282D01*
X190080000Y-108033718D01*
X190047335Y-108197936D01*
X189983261Y-108352626D01*
X189944255Y-108411001D01*
X189890238Y-108491844D01*
X189771844Y-108610238D01*
X189738071Y-108632804D01*
X189632626Y-108703261D01*
X189477936Y-108767335D01*
X189313718Y-108800000D01*
X189146282Y-108800000D01*
X188982064Y-108767335D01*
X188827374Y-108703261D01*
X188721929Y-108632804D01*
X188688156Y-108610238D01*
X188569762Y-108491844D01*
X188515745Y-108411001D01*
X188476739Y-108352626D01*
X188412665Y-108197936D01*
X188380000Y-108033718D01*
X188380000Y-107866282D01*
X188412665Y-107702064D01*
X188476739Y-107547374D01*
X188534426Y-107461041D01*
X188569762Y-107408156D01*
X188688156Y-107289762D01*
X188775678Y-107231282D01*
X188827374Y-107196739D01*
X188982064Y-107132665D01*
X189146282Y-107100000D01*
X189313718Y-107100000D01*
X189477936Y-107132665D01*
G37*
G36*
X186937936Y-107132665D02*
G01*
X187092626Y-107196739D01*
X187144322Y-107231282D01*
X187231844Y-107289762D01*
X187350238Y-107408156D01*
X187385574Y-107461041D01*
X187443261Y-107547374D01*
X187507335Y-107702064D01*
X187540000Y-107866282D01*
X187540000Y-108033718D01*
X187507335Y-108197936D01*
X187443261Y-108352626D01*
X187404255Y-108411001D01*
X187350238Y-108491844D01*
X187231844Y-108610238D01*
X187198071Y-108632804D01*
X187092626Y-108703261D01*
X186937936Y-108767335D01*
X186773718Y-108800000D01*
X186606282Y-108800000D01*
X186442064Y-108767335D01*
X186287374Y-108703261D01*
X186181929Y-108632804D01*
X186148156Y-108610238D01*
X186029762Y-108491844D01*
X185975745Y-108411001D01*
X185936739Y-108352626D01*
X185872665Y-108197936D01*
X185840000Y-108033718D01*
X185840000Y-107866282D01*
X185872665Y-107702064D01*
X185936739Y-107547374D01*
X185994426Y-107461041D01*
X186029762Y-107408156D01*
X186148156Y-107289762D01*
X186235678Y-107231282D01*
X186287374Y-107196739D01*
X186442064Y-107132665D01*
X186606282Y-107100000D01*
X186773718Y-107100000D01*
X186937936Y-107132665D01*
G37*
G36*
X184397936Y-107132665D02*
G01*
X184552626Y-107196739D01*
X184604322Y-107231282D01*
X184691844Y-107289762D01*
X184810238Y-107408156D01*
X184845574Y-107461041D01*
X184903261Y-107547374D01*
X184967335Y-107702064D01*
X185000000Y-107866282D01*
X185000000Y-108033718D01*
X184967335Y-108197936D01*
X184903261Y-108352626D01*
X184864255Y-108411001D01*
X184810238Y-108491844D01*
X184691844Y-108610238D01*
X184658071Y-108632804D01*
X184552626Y-108703261D01*
X184397936Y-108767335D01*
X184233718Y-108800000D01*
X184066282Y-108800000D01*
X183902064Y-108767335D01*
X183747374Y-108703261D01*
X183641929Y-108632804D01*
X183608156Y-108610238D01*
X183489762Y-108491844D01*
X183435745Y-108411001D01*
X183396739Y-108352626D01*
X183332665Y-108197936D01*
X183300000Y-108033718D01*
X183300000Y-107866282D01*
X183332665Y-107702064D01*
X183396739Y-107547374D01*
X183454426Y-107461041D01*
X183489762Y-107408156D01*
X183608156Y-107289762D01*
X183695678Y-107231282D01*
X183747374Y-107196739D01*
X183902064Y-107132665D01*
X184066282Y-107100000D01*
X184233718Y-107100000D01*
X184397936Y-107132665D01*
G37*
G36*
X182292804Y-107104275D02*
G01*
X182331706Y-107116075D01*
X182367553Y-107135236D01*
X182398976Y-107161024D01*
X182424764Y-107192447D01*
X182443925Y-107228294D01*
X182455725Y-107267196D01*
X182460000Y-107310595D01*
X182460000Y-108589405D01*
X182455725Y-108632804D01*
X182443925Y-108671706D01*
X182424764Y-108707553D01*
X182398976Y-108738976D01*
X182367553Y-108764764D01*
X182331706Y-108783925D01*
X182292804Y-108795725D01*
X182249405Y-108800000D01*
X180970595Y-108800000D01*
X180927196Y-108795725D01*
X180888294Y-108783925D01*
X180852447Y-108764764D01*
X180821024Y-108738976D01*
X180795236Y-108707553D01*
X180776075Y-108671706D01*
X180764275Y-108632804D01*
X180760000Y-108589405D01*
X180760000Y-107310595D01*
X180764275Y-107267196D01*
X180776075Y-107228294D01*
X180795236Y-107192447D01*
X180821024Y-107161024D01*
X180852447Y-107135236D01*
X180888294Y-107116075D01*
X180927196Y-107104275D01*
X180970595Y-107100000D01*
X182249405Y-107100000D01*
X182292804Y-107104275D01*
G37*
G36*
X206393015Y-107515437D02*
G01*
X206433494Y-107527716D01*
X206470802Y-107547658D01*
X206503504Y-107574496D01*
X206530342Y-107607198D01*
X206550284Y-107644506D01*
X206562563Y-107684985D01*
X206567000Y-107730034D01*
X206567000Y-108441966D01*
X206562563Y-108487015D01*
X206550284Y-108527494D01*
X206530342Y-108564802D01*
X206503504Y-108597504D01*
X206470802Y-108624342D01*
X206433494Y-108644284D01*
X206393015Y-108656563D01*
X206347966Y-108661000D01*
X205386034Y-108661000D01*
X205340985Y-108656563D01*
X205300506Y-108644284D01*
X205263198Y-108624342D01*
X205230496Y-108597504D01*
X205203658Y-108564802D01*
X205183716Y-108527494D01*
X205171437Y-108487015D01*
X205167000Y-108441966D01*
X205167000Y-107730034D01*
X205171437Y-107684985D01*
X205183716Y-107644506D01*
X205203658Y-107607198D01*
X205230496Y-107574496D01*
X205263198Y-107547658D01*
X205300506Y-107527716D01*
X205340985Y-107515437D01*
X205386034Y-107511000D01*
X206347966Y-107511000D01*
X206393015Y-107515437D01*
G37*
G36*
X268217936Y-106497665D02*
G01*
X268372626Y-106561739D01*
X268439709Y-106606563D01*
X268511844Y-106654762D01*
X268630238Y-106773156D01*
X268676855Y-106842924D01*
X268723261Y-106912374D01*
X268787335Y-107067064D01*
X268820000Y-107231282D01*
X268820000Y-107398718D01*
X268787335Y-107562936D01*
X268723261Y-107717626D01*
X268676855Y-107787076D01*
X268630238Y-107856844D01*
X268511844Y-107975238D01*
X268442076Y-108021855D01*
X268372626Y-108068261D01*
X268217936Y-108132335D01*
X268053718Y-108165000D01*
X267886282Y-108165000D01*
X267722064Y-108132335D01*
X267567374Y-108068261D01*
X267497924Y-108021855D01*
X267428156Y-107975238D01*
X267309762Y-107856844D01*
X267263145Y-107787076D01*
X267216739Y-107717626D01*
X267152665Y-107562936D01*
X267120000Y-107398718D01*
X267120000Y-107231282D01*
X267152665Y-107067064D01*
X267216739Y-106912374D01*
X267263145Y-106842924D01*
X267309762Y-106773156D01*
X267428156Y-106654762D01*
X267500291Y-106606563D01*
X267567374Y-106561739D01*
X267722064Y-106497665D01*
X267886282Y-106465000D01*
X268053718Y-106465000D01*
X268217936Y-106497665D01*
G37*
G36*
X231750000Y-107760000D02*
G01*
X229750000Y-107760000D01*
X229750000Y-106860000D01*
X231750000Y-106860000D01*
X231750000Y-107760000D01*
G37*
G36*
X214750000Y-107760000D02*
G01*
X212750000Y-107760000D01*
X212750000Y-106860000D01*
X214750000Y-106860000D01*
X214750000Y-107760000D01*
G37*
G36*
X261110065Y-105809340D02*
G01*
X261149600Y-105821333D01*
X261186041Y-105840811D01*
X261217979Y-105867021D01*
X261244189Y-105898959D01*
X261263667Y-105935400D01*
X261275660Y-105974935D01*
X261280000Y-106019000D01*
X261280000Y-107341000D01*
X261275660Y-107385065D01*
X261263667Y-107424600D01*
X261244189Y-107461041D01*
X261217979Y-107492979D01*
X261186041Y-107519189D01*
X261149600Y-107538667D01*
X261110065Y-107550660D01*
X261066000Y-107555000D01*
X260069000Y-107555000D01*
X260024935Y-107550660D01*
X259985400Y-107538667D01*
X259948959Y-107519189D01*
X259917021Y-107492979D01*
X259890811Y-107461041D01*
X259871333Y-107424600D01*
X259859340Y-107385065D01*
X259855000Y-107341000D01*
X259855000Y-106019000D01*
X259859340Y-105974935D01*
X259871333Y-105935400D01*
X259890811Y-105898959D01*
X259917021Y-105867021D01*
X259948959Y-105840811D01*
X259985400Y-105821333D01*
X260024935Y-105809340D01*
X260069000Y-105805000D01*
X261066000Y-105805000D01*
X261110065Y-105809340D01*
G37*
G36*
X258135065Y-105809340D02*
G01*
X258174600Y-105821333D01*
X258211041Y-105840811D01*
X258242979Y-105867021D01*
X258269189Y-105898959D01*
X258288667Y-105935400D01*
X258300660Y-105974935D01*
X258305000Y-106019000D01*
X258305000Y-107341000D01*
X258300660Y-107385065D01*
X258288667Y-107424600D01*
X258269189Y-107461041D01*
X258242979Y-107492979D01*
X258211041Y-107519189D01*
X258174600Y-107538667D01*
X258135065Y-107550660D01*
X258091000Y-107555000D01*
X257094000Y-107555000D01*
X257049935Y-107550660D01*
X257010400Y-107538667D01*
X256973959Y-107519189D01*
X256942021Y-107492979D01*
X256915811Y-107461041D01*
X256896333Y-107424600D01*
X256884340Y-107385065D01*
X256880000Y-107341000D01*
X256880000Y-106019000D01*
X256884340Y-105974935D01*
X256896333Y-105935400D01*
X256915811Y-105898959D01*
X256942021Y-105867021D01*
X256973959Y-105840811D01*
X257010400Y-105821333D01*
X257049935Y-105809340D01*
X257094000Y-105805000D01*
X258091000Y-105805000D01*
X258135065Y-105809340D01*
G37*
G36*
X86607936Y-105862665D02*
G01*
X86762626Y-105926739D01*
X86832076Y-105973145D01*
X86901844Y-106019762D01*
X87020238Y-106138156D01*
X87049017Y-106181227D01*
X87113261Y-106277374D01*
X87177335Y-106432064D01*
X87210000Y-106596282D01*
X87210000Y-106763718D01*
X87177335Y-106927936D01*
X87113261Y-107082626D01*
X87073499Y-107142133D01*
X87020238Y-107221844D01*
X86901844Y-107340238D01*
X86834755Y-107385065D01*
X86762626Y-107433261D01*
X86618452Y-107492979D01*
X86607936Y-107497335D01*
X86443718Y-107530000D01*
X86276282Y-107530000D01*
X86112064Y-107497335D01*
X86101548Y-107492979D01*
X85957374Y-107433261D01*
X85885245Y-107385065D01*
X85818156Y-107340238D01*
X85699762Y-107221844D01*
X85646501Y-107142133D01*
X85606739Y-107082626D01*
X85542665Y-106927936D01*
X85510000Y-106763718D01*
X85510000Y-106596282D01*
X85542665Y-106432064D01*
X85606739Y-106277374D01*
X85670983Y-106181227D01*
X85699762Y-106138156D01*
X85818156Y-106019762D01*
X85887924Y-105973145D01*
X85957374Y-105926739D01*
X86112064Y-105862665D01*
X86276282Y-105830000D01*
X86443718Y-105830000D01*
X86607936Y-105862665D01*
G37*
G36*
X255426015Y-105984437D02*
G01*
X255466494Y-105996716D01*
X255503802Y-106016658D01*
X255536504Y-106043496D01*
X255563342Y-106076198D01*
X255583284Y-106113506D01*
X255595563Y-106153985D01*
X255600000Y-106199034D01*
X255600000Y-107160966D01*
X255595563Y-107206015D01*
X255583284Y-107246494D01*
X255563342Y-107283802D01*
X255536504Y-107316504D01*
X255503802Y-107343342D01*
X255466494Y-107363284D01*
X255426015Y-107375563D01*
X255380966Y-107380000D01*
X254669034Y-107380000D01*
X254623985Y-107375563D01*
X254583506Y-107363284D01*
X254546198Y-107343342D01*
X254513496Y-107316504D01*
X254486658Y-107283802D01*
X254466716Y-107246494D01*
X254454437Y-107206015D01*
X254450000Y-107160966D01*
X254450000Y-106199034D01*
X254454437Y-106153985D01*
X254466716Y-106113506D01*
X254486658Y-106076198D01*
X254513496Y-106043496D01*
X254546198Y-106016658D01*
X254583506Y-105996716D01*
X254623985Y-105984437D01*
X254669034Y-105980000D01*
X255380966Y-105980000D01*
X255426015Y-105984437D01*
G37*
G36*
X253376015Y-105984437D02*
G01*
X253416494Y-105996716D01*
X253453802Y-106016658D01*
X253486504Y-106043496D01*
X253513342Y-106076198D01*
X253533284Y-106113506D01*
X253545563Y-106153985D01*
X253550000Y-106199034D01*
X253550000Y-107160966D01*
X253545563Y-107206015D01*
X253533284Y-107246494D01*
X253513342Y-107283802D01*
X253486504Y-107316504D01*
X253453802Y-107343342D01*
X253416494Y-107363284D01*
X253376015Y-107375563D01*
X253330966Y-107380000D01*
X252619034Y-107380000D01*
X252573985Y-107375563D01*
X252533506Y-107363284D01*
X252496198Y-107343342D01*
X252463496Y-107316504D01*
X252436658Y-107283802D01*
X252416716Y-107246494D01*
X252404437Y-107206015D01*
X252400000Y-107160966D01*
X252400000Y-106199034D01*
X252404437Y-106153985D01*
X252416716Y-106113506D01*
X252436658Y-106076198D01*
X252463496Y-106043496D01*
X252496198Y-106016658D01*
X252533506Y-105996716D01*
X252573985Y-105984437D01*
X252619034Y-105980000D01*
X253330966Y-105980000D01*
X253376015Y-105984437D01*
G37*
G36*
X206393015Y-105465437D02*
G01*
X206433494Y-105477716D01*
X206470802Y-105497658D01*
X206503504Y-105524496D01*
X206530342Y-105557198D01*
X206550284Y-105594506D01*
X206562563Y-105634985D01*
X206567000Y-105680034D01*
X206567000Y-106391966D01*
X206562563Y-106437015D01*
X206550284Y-106477494D01*
X206530342Y-106514802D01*
X206503504Y-106547504D01*
X206470802Y-106574342D01*
X206433494Y-106594284D01*
X206393015Y-106606563D01*
X206347966Y-106611000D01*
X205386034Y-106611000D01*
X205340985Y-106606563D01*
X205300506Y-106594284D01*
X205263198Y-106574342D01*
X205230496Y-106547504D01*
X205203658Y-106514802D01*
X205183716Y-106477494D01*
X205171437Y-106437015D01*
X205167000Y-106391966D01*
X205167000Y-105680034D01*
X205171437Y-105634985D01*
X205183716Y-105594506D01*
X205203658Y-105557198D01*
X205230496Y-105524496D01*
X205263198Y-105497658D01*
X205300506Y-105477716D01*
X205340985Y-105465437D01*
X205386034Y-105461000D01*
X206347966Y-105461000D01*
X206393015Y-105465437D01*
G37*
G36*
X231750000Y-106490000D02*
G01*
X229750000Y-106490000D01*
X229750000Y-105590000D01*
X231750000Y-105590000D01*
X231750000Y-106490000D01*
G37*
G36*
X214750000Y-106490000D02*
G01*
X212750000Y-106490000D01*
X212750000Y-105590000D01*
X214750000Y-105590000D01*
X214750000Y-106490000D01*
G37*
G36*
X268217936Y-103957665D02*
G01*
X268372626Y-104021739D01*
X268442076Y-104068145D01*
X268511844Y-104114762D01*
X268630238Y-104233156D01*
X268676855Y-104302924D01*
X268723261Y-104372374D01*
X268787335Y-104527064D01*
X268820000Y-104691282D01*
X268820000Y-104858718D01*
X268787335Y-105022936D01*
X268723261Y-105177626D01*
X268694947Y-105220000D01*
X268630238Y-105316844D01*
X268511844Y-105435238D01*
X268448271Y-105477716D01*
X268372626Y-105528261D01*
X268223573Y-105590000D01*
X268217936Y-105592335D01*
X268053718Y-105625000D01*
X267886282Y-105625000D01*
X267722064Y-105592335D01*
X267716427Y-105590000D01*
X267567374Y-105528261D01*
X267491729Y-105477716D01*
X267428156Y-105435238D01*
X267309762Y-105316844D01*
X267245053Y-105220000D01*
X267216739Y-105177626D01*
X267152665Y-105022936D01*
X267120000Y-104858718D01*
X267120000Y-104691282D01*
X267152665Y-104527064D01*
X267216739Y-104372374D01*
X267263145Y-104302924D01*
X267309762Y-104233156D01*
X267428156Y-104114762D01*
X267497924Y-104068145D01*
X267567374Y-104021739D01*
X267722064Y-103957665D01*
X267886282Y-103925000D01*
X268053718Y-103925000D01*
X268217936Y-103957665D01*
G37*
G36*
X214750000Y-105220000D02*
G01*
X212750000Y-105220000D01*
X212750000Y-104320000D01*
X214750000Y-104320000D01*
X214750000Y-105220000D01*
G37*
G36*
X231750000Y-105220000D02*
G01*
X229750000Y-105220000D01*
X229750000Y-104320000D01*
X231750000Y-104320000D01*
X231750000Y-105220000D01*
G37*
G36*
X214750000Y-103950000D02*
G01*
X212750000Y-103950000D01*
X212750000Y-103050000D01*
X214750000Y-103050000D01*
X214750000Y-103950000D01*
G37*
G36*
X231750000Y-103950000D02*
G01*
X229750000Y-103950000D01*
X229750000Y-103050000D01*
X231750000Y-103050000D01*
X231750000Y-103950000D01*
G37*
G36*
X261110065Y-101999340D02*
G01*
X261149600Y-102011333D01*
X261186040Y-102030810D01*
X261217979Y-102057021D01*
X261244189Y-102088959D01*
X261263667Y-102125400D01*
X261275660Y-102164935D01*
X261280000Y-102209000D01*
X261280000Y-103531000D01*
X261275660Y-103575065D01*
X261263667Y-103614600D01*
X261244189Y-103651041D01*
X261217979Y-103682979D01*
X261186041Y-103709189D01*
X261149600Y-103728667D01*
X261110065Y-103740660D01*
X261066000Y-103745000D01*
X260069000Y-103745000D01*
X260024935Y-103740660D01*
X259985400Y-103728667D01*
X259948959Y-103709189D01*
X259917021Y-103682979D01*
X259890811Y-103651041D01*
X259871333Y-103614600D01*
X259859340Y-103575065D01*
X259855000Y-103531000D01*
X259855000Y-102209000D01*
X259859340Y-102164935D01*
X259871333Y-102125400D01*
X259890811Y-102088959D01*
X259917021Y-102057021D01*
X259948960Y-102030810D01*
X259985400Y-102011333D01*
X260024935Y-101999340D01*
X260069000Y-101995000D01*
X261066000Y-101995000D01*
X261110065Y-101999340D01*
G37*
G36*
X258135065Y-101999340D02*
G01*
X258174600Y-102011333D01*
X258211040Y-102030810D01*
X258242979Y-102057021D01*
X258269189Y-102088959D01*
X258288667Y-102125400D01*
X258300660Y-102164935D01*
X258305000Y-102209000D01*
X258305000Y-103531000D01*
X258300660Y-103575065D01*
X258288667Y-103614600D01*
X258269189Y-103651041D01*
X258242979Y-103682979D01*
X258211041Y-103709189D01*
X258174600Y-103728667D01*
X258135065Y-103740660D01*
X258091000Y-103745000D01*
X257094000Y-103745000D01*
X257049935Y-103740660D01*
X257010400Y-103728667D01*
X256973959Y-103709189D01*
X256942021Y-103682979D01*
X256915811Y-103651041D01*
X256896333Y-103614600D01*
X256884340Y-103575065D01*
X256880000Y-103531000D01*
X256880000Y-102209000D01*
X256884340Y-102164935D01*
X256896333Y-102125400D01*
X256915811Y-102088959D01*
X256942021Y-102057021D01*
X256973960Y-102030810D01*
X257010400Y-102011333D01*
X257049935Y-101999340D01*
X257094000Y-101995000D01*
X258091000Y-101995000D01*
X258135065Y-101999340D01*
G37*
G36*
X255426015Y-102174437D02*
G01*
X255466494Y-102186716D01*
X255503802Y-102206658D01*
X255536504Y-102233496D01*
X255563342Y-102266198D01*
X255583284Y-102303506D01*
X255595563Y-102343985D01*
X255600000Y-102389034D01*
X255600000Y-103350966D01*
X255595563Y-103396015D01*
X255583284Y-103436494D01*
X255563342Y-103473802D01*
X255536504Y-103506504D01*
X255503802Y-103533342D01*
X255466494Y-103553284D01*
X255426015Y-103565563D01*
X255380966Y-103570000D01*
X254669034Y-103570000D01*
X254623985Y-103565563D01*
X254583506Y-103553284D01*
X254546198Y-103533342D01*
X254513496Y-103506504D01*
X254486658Y-103473802D01*
X254466716Y-103436494D01*
X254454437Y-103396015D01*
X254450000Y-103350966D01*
X254450000Y-102389034D01*
X254454437Y-102343985D01*
X254466716Y-102303506D01*
X254486658Y-102266198D01*
X254513496Y-102233496D01*
X254546198Y-102206658D01*
X254583506Y-102186716D01*
X254623985Y-102174437D01*
X254669034Y-102170000D01*
X255380966Y-102170000D01*
X255426015Y-102174437D01*
G37*
G36*
X253376015Y-102174437D02*
G01*
X253416494Y-102186716D01*
X253453802Y-102206658D01*
X253486504Y-102233496D01*
X253513342Y-102266198D01*
X253533284Y-102303506D01*
X253545563Y-102343985D01*
X253550000Y-102389034D01*
X253550000Y-103350966D01*
X253545563Y-103396015D01*
X253533284Y-103436494D01*
X253513342Y-103473802D01*
X253486504Y-103506504D01*
X253453802Y-103533342D01*
X253416494Y-103553284D01*
X253376015Y-103565563D01*
X253330966Y-103570000D01*
X252619034Y-103570000D01*
X252573985Y-103565563D01*
X252533506Y-103553284D01*
X252496198Y-103533342D01*
X252463496Y-103506504D01*
X252436658Y-103473802D01*
X252416716Y-103436494D01*
X252404437Y-103396015D01*
X252400000Y-103350966D01*
X252400000Y-102389034D01*
X252404437Y-102343985D01*
X252416716Y-102303506D01*
X252436658Y-102266198D01*
X252463496Y-102233496D01*
X252496198Y-102206658D01*
X252533506Y-102186716D01*
X252573985Y-102174437D01*
X252619034Y-102170000D01*
X253330966Y-102170000D01*
X253376015Y-102174437D01*
G37*
G36*
X240225090Y-101359214D02*
G01*
X240321689Y-101378429D01*
X240503678Y-101453811D01*
X240667463Y-101563249D01*
X240806751Y-101702537D01*
X240916189Y-101866322D01*
X240991571Y-102048311D01*
X240999656Y-102088959D01*
X241030000Y-102241507D01*
X241030000Y-102438493D01*
X241010785Y-102535090D01*
X240991571Y-102631689D01*
X240916189Y-102813678D01*
X240806751Y-102977463D01*
X240667463Y-103116751D01*
X240503678Y-103226189D01*
X240321689Y-103301571D01*
X240229034Y-103320001D01*
X240128493Y-103340000D01*
X239931507Y-103340000D01*
X239830966Y-103320001D01*
X239738311Y-103301571D01*
X239556322Y-103226189D01*
X239392537Y-103116751D01*
X239253249Y-102977463D01*
X239143811Y-102813678D01*
X239068429Y-102631689D01*
X239049215Y-102535090D01*
X239030000Y-102438493D01*
X239030000Y-102241507D01*
X239060344Y-102088959D01*
X239068429Y-102048311D01*
X239143811Y-101866322D01*
X239253249Y-101702537D01*
X239392537Y-101563249D01*
X239556322Y-101453811D01*
X239738311Y-101378429D01*
X239834910Y-101359214D01*
X239931507Y-101340000D01*
X240128493Y-101340000D01*
X240225090Y-101359214D01*
G37*
G36*
X245225090Y-101359214D02*
G01*
X245321689Y-101378429D01*
X245503678Y-101453811D01*
X245667463Y-101563249D01*
X245806751Y-101702537D01*
X245916189Y-101866322D01*
X245991571Y-102048311D01*
X245999656Y-102088959D01*
X246030000Y-102241507D01*
X246030000Y-102438493D01*
X246010785Y-102535090D01*
X245991571Y-102631689D01*
X245916189Y-102813678D01*
X245806751Y-102977463D01*
X245667463Y-103116751D01*
X245503678Y-103226189D01*
X245321689Y-103301571D01*
X245229034Y-103320001D01*
X245128493Y-103340000D01*
X244931507Y-103340000D01*
X244830966Y-103320001D01*
X244738311Y-103301571D01*
X244556322Y-103226189D01*
X244392537Y-103116751D01*
X244253249Y-102977463D01*
X244143811Y-102813678D01*
X244068429Y-102631689D01*
X244049215Y-102535090D01*
X244030000Y-102438493D01*
X244030000Y-102241507D01*
X244060344Y-102088959D01*
X244068429Y-102048311D01*
X244143811Y-101866322D01*
X244253249Y-101702537D01*
X244392537Y-101563249D01*
X244556322Y-101453811D01*
X244738311Y-101378429D01*
X244834910Y-101359214D01*
X244931507Y-101340000D01*
X245128493Y-101340000D01*
X245225090Y-101359214D01*
G37*
G36*
X268217936Y-101417665D02*
G01*
X268372626Y-101481739D01*
X268442076Y-101528145D01*
X268511844Y-101574762D01*
X268630238Y-101693156D01*
X268636507Y-101702539D01*
X268723261Y-101832374D01*
X268787335Y-101987064D01*
X268820000Y-102151282D01*
X268820000Y-102318718D01*
X268787335Y-102482936D01*
X268723261Y-102637626D01*
X268694947Y-102680000D01*
X268630238Y-102776844D01*
X268511844Y-102895238D01*
X268442076Y-102941855D01*
X268372626Y-102988261D01*
X268217936Y-103052335D01*
X268053718Y-103085000D01*
X267886282Y-103085000D01*
X267722064Y-103052335D01*
X267567374Y-102988261D01*
X267497924Y-102941855D01*
X267428156Y-102895238D01*
X267309762Y-102776844D01*
X267245053Y-102680000D01*
X267216739Y-102637626D01*
X267152665Y-102482936D01*
X267120000Y-102318718D01*
X267120000Y-102151282D01*
X267152665Y-101987064D01*
X267216739Y-101832374D01*
X267303493Y-101702539D01*
X267309762Y-101693156D01*
X267428156Y-101574762D01*
X267497924Y-101528145D01*
X267567374Y-101481739D01*
X267722064Y-101417665D01*
X267886282Y-101385000D01*
X268053718Y-101385000D01*
X268217936Y-101417665D01*
G37*
G36*
X214750000Y-102680000D02*
G01*
X212750000Y-102680000D01*
X212750000Y-101780000D01*
X214750000Y-101780000D01*
X214750000Y-102680000D01*
G37*
G36*
X231750000Y-102680000D02*
G01*
X229750000Y-102680000D01*
X229750000Y-101780000D01*
X231750000Y-101780000D01*
X231750000Y-102680000D01*
G37*
G36*
X231750000Y-101410000D02*
G01*
X229750000Y-101410000D01*
X229750000Y-100510000D01*
X231750000Y-100510000D01*
X231750000Y-101410000D01*
G37*
G36*
X214750000Y-101410000D02*
G01*
X212750000Y-101410000D01*
X212750000Y-100510000D01*
X214750000Y-100510000D01*
X214750000Y-101410000D01*
G37*
G36*
X214750000Y-100140000D02*
G01*
X212750000Y-100140000D01*
X212750000Y-99240000D01*
X214750000Y-99240000D01*
X214750000Y-100140000D01*
G37*
G36*
X231750000Y-100140000D02*
G01*
X229750000Y-100140000D01*
X229750000Y-99240000D01*
X231750000Y-99240000D01*
X231750000Y-100140000D01*
G37*
G36*
X181857936Y-98242665D02*
G01*
X182012626Y-98306739D01*
X182082076Y-98353145D01*
X182151844Y-98399762D01*
X182270238Y-98518156D01*
X182316855Y-98587924D01*
X182363261Y-98657374D01*
X182427335Y-98812064D01*
X182460000Y-98976282D01*
X182460000Y-99143718D01*
X182427335Y-99307936D01*
X182363261Y-99462626D01*
X182316855Y-99532076D01*
X182270238Y-99601844D01*
X182151844Y-99720238D01*
X182082076Y-99766855D01*
X182012626Y-99813261D01*
X181857936Y-99877335D01*
X181693718Y-99910000D01*
X181526282Y-99910000D01*
X181362064Y-99877335D01*
X181207374Y-99813261D01*
X181137924Y-99766855D01*
X181068156Y-99720238D01*
X180949762Y-99601844D01*
X180903145Y-99532076D01*
X180856739Y-99462626D01*
X180792665Y-99307936D01*
X180760000Y-99143718D01*
X180760000Y-98976282D01*
X180792665Y-98812064D01*
X180856739Y-98657374D01*
X180903145Y-98587924D01*
X180949762Y-98518156D01*
X181068156Y-98399762D01*
X181137924Y-98353145D01*
X181207374Y-98306739D01*
X181362064Y-98242665D01*
X181526282Y-98210000D01*
X181693718Y-98210000D01*
X181857936Y-98242665D01*
G37*
G36*
X184397936Y-98242665D02*
G01*
X184552626Y-98306739D01*
X184622076Y-98353145D01*
X184691844Y-98399762D01*
X184810238Y-98518156D01*
X184856855Y-98587924D01*
X184903261Y-98657374D01*
X184967335Y-98812064D01*
X185000000Y-98976282D01*
X185000000Y-99143718D01*
X184967335Y-99307936D01*
X184903261Y-99462626D01*
X184856855Y-99532076D01*
X184810238Y-99601844D01*
X184691844Y-99720238D01*
X184622076Y-99766855D01*
X184552626Y-99813261D01*
X184397936Y-99877335D01*
X184233718Y-99910000D01*
X184066282Y-99910000D01*
X183902064Y-99877335D01*
X183747374Y-99813261D01*
X183677924Y-99766855D01*
X183608156Y-99720238D01*
X183489762Y-99601844D01*
X183443145Y-99532076D01*
X183396739Y-99462626D01*
X183332665Y-99307936D01*
X183300000Y-99143718D01*
X183300000Y-98976282D01*
X183332665Y-98812064D01*
X183396739Y-98657374D01*
X183443145Y-98587924D01*
X183489762Y-98518156D01*
X183608156Y-98399762D01*
X183677924Y-98353145D01*
X183747374Y-98306739D01*
X183902064Y-98242665D01*
X184066282Y-98210000D01*
X184233718Y-98210000D01*
X184397936Y-98242665D01*
G37*
G36*
X186937936Y-98242665D02*
G01*
X187092626Y-98306739D01*
X187162076Y-98353145D01*
X187231844Y-98399762D01*
X187350238Y-98518156D01*
X187396855Y-98587924D01*
X187443261Y-98657374D01*
X187507335Y-98812064D01*
X187540000Y-98976282D01*
X187540000Y-99143718D01*
X187507335Y-99307936D01*
X187443261Y-99462626D01*
X187396855Y-99532076D01*
X187350238Y-99601844D01*
X187231844Y-99720238D01*
X187162076Y-99766855D01*
X187092626Y-99813261D01*
X186937936Y-99877335D01*
X186773718Y-99910000D01*
X186606282Y-99910000D01*
X186442064Y-99877335D01*
X186287374Y-99813261D01*
X186217924Y-99766855D01*
X186148156Y-99720238D01*
X186029762Y-99601844D01*
X185983145Y-99532076D01*
X185936739Y-99462626D01*
X185872665Y-99307936D01*
X185840000Y-99143718D01*
X185840000Y-98976282D01*
X185872665Y-98812064D01*
X185936739Y-98657374D01*
X185983145Y-98587924D01*
X186029762Y-98518156D01*
X186148156Y-98399762D01*
X186217924Y-98353145D01*
X186287374Y-98306739D01*
X186442064Y-98242665D01*
X186606282Y-98210000D01*
X186773718Y-98210000D01*
X186937936Y-98242665D01*
G37*
G36*
X170427936Y-98242665D02*
G01*
X170582626Y-98306739D01*
X170652076Y-98353145D01*
X170721844Y-98399762D01*
X170840238Y-98518156D01*
X170886855Y-98587924D01*
X170933261Y-98657374D01*
X170997335Y-98812064D01*
X171030000Y-98976282D01*
X171030000Y-99143718D01*
X170997335Y-99307936D01*
X170933261Y-99462626D01*
X170886855Y-99532076D01*
X170840238Y-99601844D01*
X170721844Y-99720238D01*
X170652076Y-99766855D01*
X170582626Y-99813261D01*
X170427936Y-99877335D01*
X170263718Y-99910000D01*
X170096282Y-99910000D01*
X169932064Y-99877335D01*
X169777374Y-99813261D01*
X169707924Y-99766855D01*
X169638156Y-99720238D01*
X169519762Y-99601844D01*
X169473145Y-99532076D01*
X169426739Y-99462626D01*
X169362665Y-99307936D01*
X169330000Y-99143718D01*
X169330000Y-98976282D01*
X169362665Y-98812064D01*
X169426739Y-98657374D01*
X169473145Y-98587924D01*
X169519762Y-98518156D01*
X169638156Y-98399762D01*
X169707924Y-98353145D01*
X169777374Y-98306739D01*
X169932064Y-98242665D01*
X170096282Y-98210000D01*
X170263718Y-98210000D01*
X170427936Y-98242665D01*
G37*
G36*
X168490000Y-99910000D02*
G01*
X166790000Y-99910000D01*
X166790000Y-98210000D01*
X168490000Y-98210000D01*
X168490000Y-99910000D01*
G37*
G36*
X261800000Y-99140000D02*
G01*
X260900000Y-99140000D01*
X260900000Y-98340000D01*
X261800000Y-98340000D01*
X261800000Y-99140000D01*
G37*
G36*
X196326000Y-99044000D02*
G01*
X194326000Y-99044000D01*
X194326000Y-97044000D01*
X196326000Y-97044000D01*
X196326000Y-99044000D01*
G37*
G36*
X231750000Y-98870000D02*
G01*
X229750000Y-98870000D01*
X229750000Y-97970000D01*
X231750000Y-97970000D01*
X231750000Y-98870000D01*
G37*
G36*
X214750000Y-98870000D02*
G01*
X212750000Y-98870000D01*
X212750000Y-97970000D01*
X214750000Y-97970000D01*
X214750000Y-98870000D01*
G37*
G36*
X266076015Y-97094437D02*
G01*
X266116494Y-97106716D01*
X266153802Y-97126658D01*
X266186504Y-97153496D01*
X266213342Y-97186198D01*
X266233284Y-97223506D01*
X266245563Y-97263985D01*
X266250000Y-97309034D01*
X266250000Y-98270966D01*
X266245563Y-98316015D01*
X266233284Y-98356494D01*
X266213342Y-98393802D01*
X266186504Y-98426504D01*
X266153802Y-98453342D01*
X266116494Y-98473284D01*
X266076015Y-98485563D01*
X266030966Y-98490000D01*
X265319034Y-98490000D01*
X265273985Y-98485563D01*
X265233506Y-98473284D01*
X265196198Y-98453342D01*
X265163496Y-98426504D01*
X265136658Y-98393802D01*
X265116716Y-98356494D01*
X265104437Y-98316015D01*
X265100000Y-98270966D01*
X265100000Y-97309034D01*
X265104437Y-97263985D01*
X265116716Y-97223506D01*
X265136658Y-97186198D01*
X265163496Y-97153496D01*
X265196198Y-97126658D01*
X265233506Y-97106716D01*
X265273985Y-97094437D01*
X265319034Y-97090000D01*
X266030966Y-97090000D01*
X266076015Y-97094437D01*
G37*
G36*
X268126015Y-97094437D02*
G01*
X268166494Y-97106716D01*
X268203802Y-97126658D01*
X268236504Y-97153496D01*
X268263342Y-97186198D01*
X268283284Y-97223506D01*
X268295563Y-97263985D01*
X268300000Y-97309034D01*
X268300000Y-98270966D01*
X268295563Y-98316015D01*
X268283284Y-98356494D01*
X268263342Y-98393802D01*
X268236504Y-98426504D01*
X268203802Y-98453342D01*
X268166494Y-98473284D01*
X268126015Y-98485563D01*
X268080966Y-98490000D01*
X267369034Y-98490000D01*
X267323985Y-98485563D01*
X267283506Y-98473284D01*
X267246198Y-98453342D01*
X267213496Y-98426504D01*
X267186658Y-98393802D01*
X267166716Y-98356494D01*
X267154437Y-98316015D01*
X267150000Y-98270966D01*
X267150000Y-97309034D01*
X267154437Y-97263985D01*
X267166716Y-97223506D01*
X267186658Y-97186198D01*
X267213496Y-97153496D01*
X267246198Y-97126658D01*
X267283506Y-97106716D01*
X267323985Y-97094437D01*
X267369034Y-97090000D01*
X268080966Y-97090000D01*
X268126015Y-97094437D01*
G37*
G36*
X225750000Y-98260000D02*
G01*
X220750000Y-98260000D01*
X220750000Y-93260000D01*
X225750000Y-93260000D01*
X225750000Y-98260000D01*
G37*
G36*
X259800000Y-98190000D02*
G01*
X258900000Y-98190000D01*
X258900000Y-97390000D01*
X259800000Y-97390000D01*
X259800000Y-98190000D01*
G37*
G36*
X214750000Y-97600000D02*
G01*
X212750000Y-97600000D01*
X212750000Y-96700000D01*
X214750000Y-96700000D01*
X214750000Y-97600000D01*
G37*
G36*
X231750000Y-97600000D02*
G01*
X229750000Y-97600000D01*
X229750000Y-96700000D01*
X231750000Y-96700000D01*
X231750000Y-97600000D01*
G37*
G36*
X243273108Y-95523551D02*
G01*
X243304943Y-95533208D01*
X243334287Y-95548893D01*
X243360003Y-95569997D01*
X243381107Y-95595713D01*
X243396792Y-95625057D01*
X243406449Y-95656892D01*
X243410000Y-95692945D01*
X243410000Y-97347055D01*
X243406449Y-97383108D01*
X243396792Y-97414943D01*
X243381107Y-97444287D01*
X243360003Y-97470003D01*
X243334287Y-97491107D01*
X243304943Y-97506792D01*
X243273108Y-97516449D01*
X243237055Y-97520000D01*
X242782945Y-97520000D01*
X242746892Y-97516449D01*
X242715057Y-97506792D01*
X242685713Y-97491107D01*
X242659997Y-97470003D01*
X242638893Y-97444287D01*
X242623208Y-97414943D01*
X242613551Y-97383108D01*
X242610000Y-97347055D01*
X242610000Y-95692945D01*
X242613551Y-95656892D01*
X242623208Y-95625057D01*
X242638893Y-95595713D01*
X242659997Y-95569997D01*
X242685713Y-95548893D01*
X242715057Y-95533208D01*
X242746892Y-95523551D01*
X242782945Y-95520000D01*
X243237055Y-95520000D01*
X243273108Y-95523551D01*
G37*
G36*
X247473108Y-95523551D02*
G01*
X247504943Y-95533208D01*
X247534287Y-95548893D01*
X247560003Y-95569997D01*
X247581107Y-95595713D01*
X247596792Y-95625057D01*
X247606449Y-95656892D01*
X247610000Y-95692945D01*
X247610000Y-97347055D01*
X247606449Y-97383108D01*
X247596792Y-97414943D01*
X247581107Y-97444287D01*
X247560003Y-97470003D01*
X247534287Y-97491107D01*
X247504943Y-97506792D01*
X247473108Y-97516449D01*
X247437055Y-97520000D01*
X246982945Y-97520000D01*
X246946892Y-97516449D01*
X246915057Y-97506792D01*
X246885713Y-97491107D01*
X246859997Y-97470003D01*
X246838893Y-97444287D01*
X246823208Y-97414943D01*
X246813551Y-97383108D01*
X246810000Y-97347055D01*
X246810000Y-95692945D01*
X246813551Y-95656892D01*
X246823208Y-95625057D01*
X246838893Y-95595713D01*
X246859997Y-95569997D01*
X246885713Y-95548893D01*
X246915057Y-95533208D01*
X246946892Y-95523551D01*
X246982945Y-95520000D01*
X247437055Y-95520000D01*
X247473108Y-95523551D01*
G37*
G36*
X250893108Y-95523551D02*
G01*
X250924943Y-95533208D01*
X250954287Y-95548893D01*
X250980003Y-95569997D01*
X251001107Y-95595713D01*
X251016792Y-95625057D01*
X251026449Y-95656892D01*
X251030000Y-95692945D01*
X251030000Y-97347055D01*
X251026449Y-97383108D01*
X251016792Y-97414943D01*
X251001107Y-97444287D01*
X250980003Y-97470003D01*
X250954287Y-97491107D01*
X250924943Y-97506792D01*
X250893108Y-97516449D01*
X250857055Y-97520000D01*
X250402945Y-97520000D01*
X250366892Y-97516449D01*
X250335057Y-97506792D01*
X250305713Y-97491107D01*
X250279997Y-97470003D01*
X250258893Y-97444287D01*
X250243208Y-97414943D01*
X250233551Y-97383108D01*
X250230000Y-97347055D01*
X250230000Y-95692945D01*
X250233551Y-95656892D01*
X250243208Y-95625057D01*
X250258893Y-95595713D01*
X250279997Y-95569997D01*
X250305713Y-95548893D01*
X250335057Y-95533208D01*
X250366892Y-95523551D01*
X250402945Y-95520000D01*
X250857055Y-95520000D01*
X250893108Y-95523551D01*
G37*
G36*
X255093108Y-95523551D02*
G01*
X255124943Y-95533208D01*
X255154287Y-95548893D01*
X255180003Y-95569997D01*
X255201107Y-95595713D01*
X255216792Y-95625057D01*
X255226449Y-95656892D01*
X255230000Y-95692945D01*
X255230000Y-97347055D01*
X255226449Y-97383108D01*
X255216792Y-97414943D01*
X255201107Y-97444287D01*
X255180003Y-97470003D01*
X255154287Y-97491107D01*
X255124943Y-97506792D01*
X255093108Y-97516449D01*
X255057055Y-97520000D01*
X254602945Y-97520000D01*
X254566892Y-97516449D01*
X254535057Y-97506792D01*
X254505713Y-97491107D01*
X254479997Y-97470003D01*
X254458893Y-97444287D01*
X254443208Y-97414943D01*
X254433551Y-97383108D01*
X254430000Y-97347055D01*
X254430000Y-95692945D01*
X254433551Y-95656892D01*
X254443208Y-95625057D01*
X254458893Y-95595713D01*
X254479997Y-95569997D01*
X254505713Y-95548893D01*
X254535057Y-95533208D01*
X254566892Y-95523551D01*
X254602945Y-95520000D01*
X255057055Y-95520000D01*
X255093108Y-95523551D01*
G37*
G36*
X186937936Y-95702665D02*
G01*
X187092626Y-95766739D01*
X187162076Y-95813145D01*
X187231844Y-95859762D01*
X187350238Y-95978156D01*
X187396855Y-96047924D01*
X187443261Y-96117374D01*
X187507335Y-96272064D01*
X187540000Y-96436282D01*
X187540000Y-96603718D01*
X187507335Y-96767936D01*
X187443261Y-96922626D01*
X187396855Y-96992076D01*
X187350238Y-97061844D01*
X187231844Y-97180238D01*
X187162076Y-97226855D01*
X187092626Y-97273261D01*
X186937936Y-97337335D01*
X186773718Y-97370000D01*
X186606282Y-97370000D01*
X186442064Y-97337335D01*
X186287374Y-97273261D01*
X186217924Y-97226855D01*
X186148156Y-97180238D01*
X186029762Y-97061844D01*
X185983145Y-96992076D01*
X185936739Y-96922626D01*
X185872665Y-96767936D01*
X185840000Y-96603718D01*
X185840000Y-96436282D01*
X185872665Y-96272064D01*
X185936739Y-96117374D01*
X185983145Y-96047924D01*
X186029762Y-95978156D01*
X186148156Y-95859762D01*
X186217924Y-95813145D01*
X186287374Y-95766739D01*
X186442064Y-95702665D01*
X186606282Y-95670000D01*
X186773718Y-95670000D01*
X186937936Y-95702665D01*
G37*
G36*
X184397936Y-95702665D02*
G01*
X184552626Y-95766739D01*
X184622076Y-95813145D01*
X184691844Y-95859762D01*
X184810238Y-95978156D01*
X184856855Y-96047924D01*
X184903261Y-96117374D01*
X184967335Y-96272064D01*
X185000000Y-96436282D01*
X185000000Y-96603718D01*
X184967335Y-96767936D01*
X184903261Y-96922626D01*
X184856855Y-96992076D01*
X184810238Y-97061844D01*
X184691844Y-97180238D01*
X184622076Y-97226855D01*
X184552626Y-97273261D01*
X184397936Y-97337335D01*
X184233718Y-97370000D01*
X184066282Y-97370000D01*
X183902064Y-97337335D01*
X183747374Y-97273261D01*
X183677924Y-97226855D01*
X183608156Y-97180238D01*
X183489762Y-97061844D01*
X183443145Y-96992076D01*
X183396739Y-96922626D01*
X183332665Y-96767936D01*
X183300000Y-96603718D01*
X183300000Y-96436282D01*
X183332665Y-96272064D01*
X183396739Y-96117374D01*
X183443145Y-96047924D01*
X183489762Y-95978156D01*
X183608156Y-95859762D01*
X183677924Y-95813145D01*
X183747374Y-95766739D01*
X183902064Y-95702665D01*
X184066282Y-95670000D01*
X184233718Y-95670000D01*
X184397936Y-95702665D01*
G37*
G36*
X182292804Y-95674275D02*
G01*
X182331706Y-95686075D01*
X182367553Y-95705236D01*
X182398976Y-95731024D01*
X182424764Y-95762447D01*
X182443925Y-95798294D01*
X182455725Y-95837196D01*
X182460000Y-95880595D01*
X182460000Y-97159405D01*
X182455725Y-97202804D01*
X182443925Y-97241706D01*
X182424764Y-97277553D01*
X182398976Y-97308976D01*
X182367553Y-97334764D01*
X182331706Y-97353925D01*
X182292804Y-97365725D01*
X182249405Y-97370000D01*
X180970595Y-97370000D01*
X180927196Y-97365725D01*
X180888294Y-97353925D01*
X180852447Y-97334764D01*
X180821024Y-97308976D01*
X180795236Y-97277553D01*
X180776075Y-97241706D01*
X180764275Y-97202804D01*
X180760000Y-97159405D01*
X180760000Y-95880595D01*
X180764275Y-95837196D01*
X180776075Y-95798294D01*
X180795236Y-95762447D01*
X180821024Y-95731024D01*
X180852447Y-95705236D01*
X180888294Y-95686075D01*
X180927196Y-95674275D01*
X180970595Y-95670000D01*
X182249405Y-95670000D01*
X182292804Y-95674275D01*
G37*
G36*
X261800000Y-97240000D02*
G01*
X260900000Y-97240000D01*
X260900000Y-96440000D01*
X261800000Y-96440000D01*
X261800000Y-97240000D01*
G37*
G36*
X231750000Y-96330000D02*
G01*
X229750000Y-96330000D01*
X229750000Y-95430000D01*
X231750000Y-95430000D01*
X231750000Y-96330000D01*
G37*
G36*
X214750000Y-96330000D02*
G01*
X212750000Y-96330000D01*
X212750000Y-95430000D01*
X214750000Y-95430000D01*
X214750000Y-96330000D01*
G37*
G36*
X231750000Y-95060000D02*
G01*
X229750000Y-95060000D01*
X229750000Y-94160000D01*
X231750000Y-94160000D01*
X231750000Y-95060000D01*
G37*
G36*
X214750000Y-95060000D02*
G01*
X212750000Y-95060000D01*
X212750000Y-94160000D01*
X214750000Y-94160000D01*
X214750000Y-95060000D01*
G37*
G36*
X235655065Y-93489340D02*
G01*
X235694600Y-93501333D01*
X235731041Y-93520811D01*
X235762979Y-93547021D01*
X235789189Y-93578959D01*
X235808667Y-93615400D01*
X235820660Y-93654935D01*
X235825000Y-93699000D01*
X235825000Y-94696000D01*
X235820660Y-94740065D01*
X235808667Y-94779600D01*
X235789189Y-94816041D01*
X235762979Y-94847979D01*
X235731041Y-94874189D01*
X235694600Y-94893667D01*
X235655065Y-94905660D01*
X235611000Y-94910000D01*
X234289000Y-94910000D01*
X234244935Y-94905660D01*
X234205400Y-94893667D01*
X234168959Y-94874189D01*
X234137021Y-94847979D01*
X234110811Y-94816041D01*
X234091333Y-94779600D01*
X234079340Y-94740065D01*
X234075000Y-94696000D01*
X234075000Y-93699000D01*
X234079340Y-93654935D01*
X234091333Y-93615400D01*
X234110811Y-93578959D01*
X234137021Y-93547021D01*
X234168959Y-93520811D01*
X234205400Y-93501333D01*
X234244935Y-93489340D01*
X234289000Y-93485000D01*
X235611000Y-93485000D01*
X235655065Y-93489340D01*
G37*
G36*
X238016015Y-93164437D02*
G01*
X238056494Y-93176716D01*
X238093802Y-93196658D01*
X238126504Y-93223496D01*
X238153342Y-93256198D01*
X238173284Y-93293506D01*
X238185563Y-93333985D01*
X238190000Y-93379034D01*
X238190000Y-94090966D01*
X238185563Y-94136015D01*
X238173284Y-94176494D01*
X238153342Y-94213802D01*
X238126504Y-94246504D01*
X238093802Y-94273342D01*
X238056494Y-94293284D01*
X238016015Y-94305563D01*
X237970966Y-94310000D01*
X237009034Y-94310000D01*
X236963985Y-94305563D01*
X236923506Y-94293284D01*
X236886198Y-94273342D01*
X236853496Y-94246504D01*
X236826658Y-94213802D01*
X236806716Y-94176494D01*
X236794437Y-94136015D01*
X236790000Y-94090966D01*
X236790000Y-93379034D01*
X236794437Y-93333985D01*
X236806716Y-93293506D01*
X236826658Y-93256198D01*
X236853496Y-93223496D01*
X236886198Y-93196658D01*
X236923506Y-93176716D01*
X236963985Y-93164437D01*
X237009034Y-93160000D01*
X237970966Y-93160000D01*
X238016015Y-93164437D01*
G37*
G36*
X261800000Y-94060000D02*
G01*
X260900000Y-94060000D01*
X260900000Y-93260000D01*
X261800000Y-93260000D01*
X261800000Y-94060000D01*
G37*
G36*
X214750000Y-93790000D02*
G01*
X212750000Y-93790000D01*
X212750000Y-92890000D01*
X214750000Y-92890000D01*
X214750000Y-93790000D01*
G37*
G36*
X231750000Y-93790000D02*
G01*
X229750000Y-93790000D01*
X229750000Y-92890000D01*
X231750000Y-92890000D01*
X231750000Y-93790000D01*
G37*
G36*
X268126015Y-92014437D02*
G01*
X268166494Y-92026716D01*
X268203802Y-92046658D01*
X268236504Y-92073496D01*
X268263342Y-92106198D01*
X268283284Y-92143506D01*
X268295563Y-92183985D01*
X268300000Y-92229034D01*
X268300000Y-93190966D01*
X268295563Y-93236015D01*
X268283284Y-93276494D01*
X268263342Y-93313802D01*
X268236504Y-93346504D01*
X268203802Y-93373342D01*
X268166494Y-93393284D01*
X268126015Y-93405563D01*
X268080966Y-93410000D01*
X267369034Y-93410000D01*
X267323985Y-93405563D01*
X267283506Y-93393284D01*
X267246198Y-93373342D01*
X267213496Y-93346504D01*
X267186658Y-93313802D01*
X267166716Y-93276494D01*
X267154437Y-93236015D01*
X267150000Y-93190966D01*
X267150000Y-92229034D01*
X267154437Y-92183985D01*
X267166716Y-92143506D01*
X267186658Y-92106198D01*
X267213496Y-92073496D01*
X267246198Y-92046658D01*
X267283506Y-92026716D01*
X267323985Y-92014437D01*
X267369034Y-92010000D01*
X268080966Y-92010000D01*
X268126015Y-92014437D01*
G37*
G36*
X266076015Y-92014437D02*
G01*
X266116494Y-92026716D01*
X266153802Y-92046658D01*
X266186504Y-92073496D01*
X266213342Y-92106198D01*
X266233284Y-92143506D01*
X266245563Y-92183985D01*
X266250000Y-92229034D01*
X266250000Y-93190966D01*
X266245563Y-93236015D01*
X266233284Y-93276494D01*
X266213342Y-93313802D01*
X266186504Y-93346504D01*
X266153802Y-93373342D01*
X266116494Y-93393284D01*
X266076015Y-93405563D01*
X266030966Y-93410000D01*
X265319034Y-93410000D01*
X265273985Y-93405563D01*
X265233506Y-93393284D01*
X265196198Y-93373342D01*
X265163496Y-93346504D01*
X265136658Y-93313802D01*
X265116716Y-93276494D01*
X265104437Y-93236015D01*
X265100000Y-93190966D01*
X265100000Y-92229034D01*
X265104437Y-92183985D01*
X265116716Y-92143506D01*
X265136658Y-92106198D01*
X265163496Y-92073496D01*
X265196198Y-92046658D01*
X265233506Y-92026716D01*
X265273985Y-92014437D01*
X265319034Y-92010000D01*
X266030966Y-92010000D01*
X266076015Y-92014437D01*
G37*
G36*
X259800000Y-93110000D02*
G01*
X258900000Y-93110000D01*
X258900000Y-92310000D01*
X259800000Y-92310000D01*
X259800000Y-93110000D01*
G37*
G36*
X231750000Y-92520000D02*
G01*
X229750000Y-92520000D01*
X229750000Y-91620000D01*
X231750000Y-91620000D01*
X231750000Y-92520000D01*
G37*
G36*
X214750000Y-92520000D02*
G01*
X212750000Y-92520000D01*
X212750000Y-91620000D01*
X214750000Y-91620000D01*
X214750000Y-92520000D01*
G37*
G36*
X254526015Y-91259437D02*
G01*
X254566494Y-91271716D01*
X254603802Y-91291658D01*
X254636504Y-91318496D01*
X254663342Y-91351198D01*
X254683284Y-91388506D01*
X254695563Y-91428985D01*
X254700000Y-91474034D01*
X254700000Y-92185966D01*
X254695563Y-92231015D01*
X254683284Y-92271494D01*
X254663342Y-92308802D01*
X254636504Y-92341504D01*
X254603802Y-92368342D01*
X254566494Y-92388284D01*
X254526015Y-92400563D01*
X254480966Y-92405000D01*
X253519034Y-92405000D01*
X253473985Y-92400563D01*
X253433506Y-92388284D01*
X253396198Y-92368342D01*
X253363496Y-92341504D01*
X253336658Y-92308802D01*
X253316716Y-92271494D01*
X253304437Y-92231015D01*
X253300000Y-92185966D01*
X253300000Y-91474034D01*
X253304437Y-91428985D01*
X253316716Y-91388506D01*
X253336658Y-91351198D01*
X253363496Y-91318496D01*
X253396198Y-91291658D01*
X253433506Y-91271716D01*
X253473985Y-91259437D01*
X253519034Y-91255000D01*
X254480966Y-91255000D01*
X254526015Y-91259437D01*
G37*
G36*
X251986015Y-91259437D02*
G01*
X252026494Y-91271716D01*
X252063802Y-91291658D01*
X252096504Y-91318496D01*
X252123342Y-91351198D01*
X252143284Y-91388506D01*
X252155563Y-91428985D01*
X252160000Y-91474034D01*
X252160000Y-92185966D01*
X252155563Y-92231015D01*
X252143284Y-92271494D01*
X252123342Y-92308802D01*
X252096504Y-92341504D01*
X252063802Y-92368342D01*
X252026494Y-92388284D01*
X251986015Y-92400563D01*
X251940966Y-92405000D01*
X250979034Y-92405000D01*
X250933985Y-92400563D01*
X250893506Y-92388284D01*
X250856198Y-92368342D01*
X250823496Y-92341504D01*
X250796658Y-92308802D01*
X250776716Y-92271494D01*
X250764437Y-92231015D01*
X250760000Y-92185966D01*
X250760000Y-91474034D01*
X250764437Y-91428985D01*
X250776716Y-91388506D01*
X250796658Y-91351198D01*
X250823496Y-91318496D01*
X250856198Y-91291658D01*
X250893506Y-91271716D01*
X250933985Y-91259437D01*
X250979034Y-91255000D01*
X251940966Y-91255000D01*
X251986015Y-91259437D01*
G37*
G36*
X248176015Y-91259437D02*
G01*
X248216494Y-91271716D01*
X248253802Y-91291658D01*
X248286504Y-91318496D01*
X248313342Y-91351198D01*
X248333284Y-91388506D01*
X248345563Y-91428985D01*
X248350000Y-91474034D01*
X248350000Y-92185966D01*
X248345563Y-92231015D01*
X248333284Y-92271494D01*
X248313342Y-92308802D01*
X248286504Y-92341504D01*
X248253802Y-92368342D01*
X248216494Y-92388284D01*
X248176015Y-92400563D01*
X248130966Y-92405000D01*
X247169034Y-92405000D01*
X247123985Y-92400563D01*
X247083506Y-92388284D01*
X247046198Y-92368342D01*
X247013496Y-92341504D01*
X246986658Y-92308802D01*
X246966716Y-92271494D01*
X246954437Y-92231015D01*
X246950000Y-92185966D01*
X246950000Y-91474034D01*
X246954437Y-91428985D01*
X246966716Y-91388506D01*
X246986658Y-91351198D01*
X247013496Y-91318496D01*
X247046198Y-91291658D01*
X247083506Y-91271716D01*
X247123985Y-91259437D01*
X247169034Y-91255000D01*
X248130966Y-91255000D01*
X248176015Y-91259437D01*
G37*
G36*
X238016015Y-91114437D02*
G01*
X238056494Y-91126716D01*
X238093802Y-91146658D01*
X238126504Y-91173496D01*
X238153342Y-91206198D01*
X238173284Y-91243506D01*
X238185563Y-91283985D01*
X238190000Y-91329034D01*
X238190000Y-92040966D01*
X238185563Y-92086015D01*
X238173284Y-92126494D01*
X238153342Y-92163802D01*
X238126504Y-92196504D01*
X238093802Y-92223342D01*
X238056494Y-92243284D01*
X238016015Y-92255563D01*
X237970966Y-92260000D01*
X237009034Y-92260000D01*
X236963985Y-92255563D01*
X236923506Y-92243284D01*
X236886198Y-92223342D01*
X236853496Y-92196504D01*
X236826658Y-92163802D01*
X236806716Y-92126494D01*
X236794437Y-92086015D01*
X236790000Y-92040966D01*
X236790000Y-91329034D01*
X236794437Y-91283985D01*
X236806716Y-91243506D01*
X236826658Y-91206198D01*
X236853496Y-91173496D01*
X236886198Y-91146658D01*
X236923506Y-91126716D01*
X236963985Y-91114437D01*
X237009034Y-91110000D01*
X237970966Y-91110000D01*
X238016015Y-91114437D01*
G37*
G36*
X261800000Y-92160000D02*
G01*
X260900000Y-92160000D01*
X260900000Y-91360000D01*
X261800000Y-91360000D01*
X261800000Y-92160000D01*
G37*
G36*
X235655065Y-90514340D02*
G01*
X235694600Y-90526333D01*
X235731041Y-90545811D01*
X235762979Y-90572021D01*
X235789189Y-90603959D01*
X235808667Y-90640400D01*
X235820660Y-90679935D01*
X235825000Y-90724000D01*
X235825000Y-91721000D01*
X235820660Y-91765065D01*
X235808667Y-91804600D01*
X235789189Y-91841041D01*
X235762979Y-91872979D01*
X235731041Y-91899189D01*
X235694600Y-91918667D01*
X235655065Y-91930660D01*
X235611000Y-91935000D01*
X234289000Y-91935000D01*
X234244935Y-91930660D01*
X234205400Y-91918667D01*
X234168959Y-91899189D01*
X234137021Y-91872979D01*
X234110811Y-91841041D01*
X234091333Y-91804600D01*
X234079340Y-91765065D01*
X234075000Y-91721000D01*
X234075000Y-90724000D01*
X234079340Y-90679935D01*
X234091333Y-90640400D01*
X234110811Y-90603959D01*
X234137021Y-90572021D01*
X234168959Y-90545811D01*
X234205400Y-90526333D01*
X234244935Y-90514340D01*
X234289000Y-90510000D01*
X235611000Y-90510000D01*
X235655065Y-90514340D01*
G37*
G36*
X243570000Y-91805000D02*
G01*
X241570000Y-91805000D01*
X241570000Y-89805000D01*
X243570000Y-89805000D01*
X243570000Y-91805000D01*
G37*
G36*
X205693378Y-87626859D02*
G01*
X206057355Y-87777623D01*
X206384926Y-87996499D01*
X206663501Y-88275074D01*
X206882377Y-88602645D01*
X207033141Y-88966622D01*
X207110000Y-89353017D01*
X207110000Y-89746983D01*
X207033141Y-90133378D01*
X206882377Y-90497355D01*
X206663501Y-90824926D01*
X206384926Y-91103501D01*
X206057355Y-91322377D01*
X205693378Y-91473141D01*
X205306983Y-91550000D01*
X204913017Y-91550000D01*
X204526622Y-91473141D01*
X204162645Y-91322377D01*
X203835074Y-91103501D01*
X203556499Y-90824926D01*
X203337623Y-90497355D01*
X203186859Y-90133378D01*
X203110000Y-89746983D01*
X203110000Y-89353017D01*
X203186859Y-88966622D01*
X203337623Y-88602645D01*
X203556499Y-88275074D01*
X203835074Y-87996499D01*
X204162645Y-87777623D01*
X204526622Y-87626859D01*
X204913017Y-87550000D01*
X205306983Y-87550000D01*
X205693378Y-87626859D01*
G37*
G36*
X121193378Y-87626859D02*
G01*
X121557355Y-87777623D01*
X121884926Y-87996499D01*
X122163501Y-88275074D01*
X122382377Y-88602645D01*
X122533141Y-88966622D01*
X122610000Y-89353017D01*
X122610000Y-89746983D01*
X122533141Y-90133378D01*
X122382377Y-90497355D01*
X122163501Y-90824926D01*
X121884926Y-91103501D01*
X121557355Y-91322377D01*
X121193378Y-91473141D01*
X120806983Y-91550000D01*
X120413017Y-91550000D01*
X120026622Y-91473141D01*
X119662645Y-91322377D01*
X119335074Y-91103501D01*
X119056499Y-90824926D01*
X118837623Y-90497355D01*
X118686859Y-90133378D01*
X118610000Y-89746983D01*
X118610000Y-89353017D01*
X118686859Y-88966622D01*
X118837623Y-88602645D01*
X119056499Y-88275074D01*
X119335074Y-87996499D01*
X119662645Y-87777623D01*
X120026622Y-87626859D01*
X120413017Y-87550000D01*
X120806983Y-87550000D01*
X121193378Y-87626859D01*
G37*
G36*
X231750000Y-91250000D02*
G01*
X229750000Y-91250000D01*
X229750000Y-90350000D01*
X231750000Y-90350000D01*
X231750000Y-91250000D01*
G37*
G36*
X214750000Y-91250000D02*
G01*
X212750000Y-91250000D01*
X212750000Y-90350000D01*
X214750000Y-90350000D01*
X214750000Y-91250000D01*
G37*
G36*
X175271015Y-89474437D02*
G01*
X175311494Y-89486716D01*
X175348802Y-89506658D01*
X175381504Y-89533496D01*
X175408342Y-89566198D01*
X175428284Y-89603506D01*
X175440563Y-89643985D01*
X175445000Y-89689034D01*
X175445000Y-90650966D01*
X175440563Y-90696015D01*
X175428284Y-90736494D01*
X175408342Y-90773802D01*
X175381504Y-90806504D01*
X175348802Y-90833342D01*
X175311494Y-90853284D01*
X175271015Y-90865563D01*
X175225966Y-90870000D01*
X174514034Y-90870000D01*
X174468985Y-90865563D01*
X174428506Y-90853284D01*
X174391198Y-90833342D01*
X174358496Y-90806504D01*
X174331658Y-90773802D01*
X174311716Y-90736494D01*
X174299437Y-90696015D01*
X174295000Y-90650966D01*
X174295000Y-89689034D01*
X174299437Y-89643985D01*
X174311716Y-89603506D01*
X174331658Y-89566198D01*
X174358496Y-89533496D01*
X174391198Y-89506658D01*
X174428506Y-89486716D01*
X174468985Y-89474437D01*
X174514034Y-89470000D01*
X175225966Y-89470000D01*
X175271015Y-89474437D01*
G37*
G36*
X157001015Y-89474437D02*
G01*
X157041494Y-89486716D01*
X157078802Y-89506658D01*
X157111504Y-89533496D01*
X157138342Y-89566198D01*
X157158284Y-89603506D01*
X157170563Y-89643985D01*
X157175000Y-89689034D01*
X157175000Y-90650966D01*
X157170563Y-90696015D01*
X157158284Y-90736494D01*
X157138342Y-90773802D01*
X157111504Y-90806504D01*
X157078802Y-90833342D01*
X157041494Y-90853284D01*
X157001015Y-90865563D01*
X156955966Y-90870000D01*
X156244034Y-90870000D01*
X156198985Y-90865563D01*
X156158506Y-90853284D01*
X156121198Y-90833342D01*
X156088496Y-90806504D01*
X156061658Y-90773802D01*
X156041716Y-90736494D01*
X156029437Y-90696015D01*
X156025000Y-90650966D01*
X156025000Y-89689034D01*
X156029437Y-89643985D01*
X156041716Y-89603506D01*
X156061658Y-89566198D01*
X156088496Y-89533496D01*
X156121198Y-89506658D01*
X156158506Y-89486716D01*
X156198985Y-89474437D01*
X156244034Y-89470000D01*
X156955966Y-89470000D01*
X157001015Y-89474437D01*
G37*
G36*
X154951015Y-89474437D02*
G01*
X154991494Y-89486716D01*
X155028802Y-89506658D01*
X155061504Y-89533496D01*
X155088342Y-89566198D01*
X155108284Y-89603506D01*
X155120563Y-89643985D01*
X155125000Y-89689034D01*
X155125000Y-90650966D01*
X155120563Y-90696015D01*
X155108284Y-90736494D01*
X155088342Y-90773802D01*
X155061504Y-90806504D01*
X155028802Y-90833342D01*
X154991494Y-90853284D01*
X154951015Y-90865563D01*
X154905966Y-90870000D01*
X154194034Y-90870000D01*
X154148985Y-90865563D01*
X154108506Y-90853284D01*
X154071198Y-90833342D01*
X154038496Y-90806504D01*
X154011658Y-90773802D01*
X153991716Y-90736494D01*
X153979437Y-90696015D01*
X153975000Y-90650966D01*
X153975000Y-89689034D01*
X153979437Y-89643985D01*
X153991716Y-89603506D01*
X154011658Y-89566198D01*
X154038496Y-89533496D01*
X154071198Y-89506658D01*
X154108506Y-89486716D01*
X154148985Y-89474437D01*
X154194034Y-89470000D01*
X154905966Y-89470000D01*
X154951015Y-89474437D01*
G37*
G36*
X135411015Y-89474437D02*
G01*
X135451494Y-89486716D01*
X135488802Y-89506658D01*
X135521504Y-89533496D01*
X135548342Y-89566198D01*
X135568284Y-89603506D01*
X135580563Y-89643985D01*
X135585000Y-89689034D01*
X135585000Y-90650966D01*
X135580563Y-90696015D01*
X135568284Y-90736494D01*
X135548342Y-90773802D01*
X135521504Y-90806504D01*
X135488802Y-90833342D01*
X135451494Y-90853284D01*
X135411015Y-90865563D01*
X135365966Y-90870000D01*
X134654034Y-90870000D01*
X134608985Y-90865563D01*
X134568506Y-90853284D01*
X134531198Y-90833342D01*
X134498496Y-90806504D01*
X134471658Y-90773802D01*
X134451716Y-90736494D01*
X134439437Y-90696015D01*
X134435000Y-90650966D01*
X134435000Y-89689034D01*
X134439437Y-89643985D01*
X134451716Y-89603506D01*
X134471658Y-89566198D01*
X134498496Y-89533496D01*
X134531198Y-89506658D01*
X134568506Y-89486716D01*
X134608985Y-89474437D01*
X134654034Y-89470000D01*
X135365966Y-89470000D01*
X135411015Y-89474437D01*
G37*
G36*
X133361015Y-89474437D02*
G01*
X133401494Y-89486716D01*
X133438802Y-89506658D01*
X133471504Y-89533496D01*
X133498342Y-89566198D01*
X133518284Y-89603506D01*
X133530563Y-89643985D01*
X133535000Y-89689034D01*
X133535000Y-90650966D01*
X133530563Y-90696015D01*
X133518284Y-90736494D01*
X133498342Y-90773802D01*
X133471504Y-90806504D01*
X133438802Y-90833342D01*
X133401494Y-90853284D01*
X133361015Y-90865563D01*
X133315966Y-90870000D01*
X132604034Y-90870000D01*
X132558985Y-90865563D01*
X132518506Y-90853284D01*
X132481198Y-90833342D01*
X132448496Y-90806504D01*
X132421658Y-90773802D01*
X132401716Y-90736494D01*
X132389437Y-90696015D01*
X132385000Y-90650966D01*
X132385000Y-89689034D01*
X132389437Y-89643985D01*
X132401716Y-89603506D01*
X132421658Y-89566198D01*
X132448496Y-89533496D01*
X132481198Y-89506658D01*
X132518506Y-89486716D01*
X132558985Y-89474437D01*
X132604034Y-89470000D01*
X133315966Y-89470000D01*
X133361015Y-89474437D01*
G37*
G36*
X113186015Y-89474437D02*
G01*
X113226494Y-89486716D01*
X113263802Y-89506658D01*
X113296504Y-89533496D01*
X113323342Y-89566198D01*
X113343284Y-89603506D01*
X113355563Y-89643985D01*
X113360000Y-89689034D01*
X113360000Y-90650966D01*
X113355563Y-90696015D01*
X113343284Y-90736494D01*
X113323342Y-90773802D01*
X113296504Y-90806504D01*
X113263802Y-90833342D01*
X113226494Y-90853284D01*
X113186015Y-90865563D01*
X113140966Y-90870000D01*
X112429034Y-90870000D01*
X112383985Y-90865563D01*
X112343506Y-90853284D01*
X112306198Y-90833342D01*
X112273496Y-90806504D01*
X112246658Y-90773802D01*
X112226716Y-90736494D01*
X112214437Y-90696015D01*
X112210000Y-90650966D01*
X112210000Y-89689034D01*
X112214437Y-89643985D01*
X112226716Y-89603506D01*
X112246658Y-89566198D01*
X112273496Y-89533496D01*
X112306198Y-89506658D01*
X112343506Y-89486716D01*
X112383985Y-89474437D01*
X112429034Y-89470000D01*
X113140966Y-89470000D01*
X113186015Y-89474437D01*
G37*
G36*
X111136015Y-89474437D02*
G01*
X111176494Y-89486716D01*
X111213802Y-89506658D01*
X111246504Y-89533496D01*
X111273342Y-89566198D01*
X111293284Y-89603506D01*
X111305563Y-89643985D01*
X111310000Y-89689034D01*
X111310000Y-90650966D01*
X111305563Y-90696015D01*
X111293284Y-90736494D01*
X111273342Y-90773802D01*
X111246504Y-90806504D01*
X111213802Y-90833342D01*
X111176494Y-90853284D01*
X111136015Y-90865563D01*
X111090966Y-90870000D01*
X110379034Y-90870000D01*
X110333985Y-90865563D01*
X110293506Y-90853284D01*
X110256198Y-90833342D01*
X110223496Y-90806504D01*
X110196658Y-90773802D01*
X110176716Y-90736494D01*
X110164437Y-90696015D01*
X110160000Y-90650966D01*
X110160000Y-89689034D01*
X110164437Y-89643985D01*
X110176716Y-89603506D01*
X110196658Y-89566198D01*
X110223496Y-89533496D01*
X110256198Y-89506658D01*
X110293506Y-89486716D01*
X110333985Y-89474437D01*
X110379034Y-89470000D01*
X111090966Y-89470000D01*
X111136015Y-89474437D01*
G37*
G36*
X94771015Y-89474437D02*
G01*
X94811494Y-89486716D01*
X94848802Y-89506658D01*
X94881504Y-89533496D01*
X94908342Y-89566198D01*
X94928284Y-89603506D01*
X94940563Y-89643985D01*
X94945000Y-89689034D01*
X94945000Y-90650966D01*
X94940563Y-90696015D01*
X94928284Y-90736494D01*
X94908342Y-90773802D01*
X94881504Y-90806504D01*
X94848802Y-90833342D01*
X94811494Y-90853284D01*
X94771015Y-90865563D01*
X94725966Y-90870000D01*
X94014034Y-90870000D01*
X93968985Y-90865563D01*
X93928506Y-90853284D01*
X93891198Y-90833342D01*
X93858496Y-90806504D01*
X93831658Y-90773802D01*
X93811716Y-90736494D01*
X93799437Y-90696015D01*
X93795000Y-90650966D01*
X93795000Y-89689034D01*
X93799437Y-89643985D01*
X93811716Y-89603506D01*
X93831658Y-89566198D01*
X93858496Y-89533496D01*
X93891198Y-89506658D01*
X93928506Y-89486716D01*
X93968985Y-89474437D01*
X94014034Y-89470000D01*
X94725966Y-89470000D01*
X94771015Y-89474437D01*
G37*
G36*
X92721015Y-89474437D02*
G01*
X92761494Y-89486716D01*
X92798802Y-89506658D01*
X92831504Y-89533496D01*
X92858342Y-89566198D01*
X92878284Y-89603506D01*
X92890563Y-89643985D01*
X92895000Y-89689034D01*
X92895000Y-90650966D01*
X92890563Y-90696015D01*
X92878284Y-90736494D01*
X92858342Y-90773802D01*
X92831504Y-90806504D01*
X92798802Y-90833342D01*
X92761494Y-90853284D01*
X92721015Y-90865563D01*
X92675966Y-90870000D01*
X91964034Y-90870000D01*
X91918985Y-90865563D01*
X91878506Y-90853284D01*
X91841198Y-90833342D01*
X91808496Y-90806504D01*
X91781658Y-90773802D01*
X91761716Y-90736494D01*
X91749437Y-90696015D01*
X91745000Y-90650966D01*
X91745000Y-89689034D01*
X91749437Y-89643985D01*
X91761716Y-89603506D01*
X91781658Y-89566198D01*
X91808496Y-89533496D01*
X91841198Y-89506658D01*
X91878506Y-89486716D01*
X91918985Y-89474437D01*
X91964034Y-89470000D01*
X92675966Y-89470000D01*
X92721015Y-89474437D01*
G37*
G36*
X177321015Y-89474437D02*
G01*
X177361494Y-89486716D01*
X177398802Y-89506658D01*
X177431504Y-89533496D01*
X177458342Y-89566198D01*
X177478284Y-89603506D01*
X177490563Y-89643985D01*
X177495000Y-89689034D01*
X177495000Y-90650966D01*
X177490563Y-90696015D01*
X177478284Y-90736494D01*
X177458342Y-90773802D01*
X177431504Y-90806504D01*
X177398802Y-90833342D01*
X177361494Y-90853284D01*
X177321015Y-90865563D01*
X177275966Y-90870000D01*
X176564034Y-90870000D01*
X176518985Y-90865563D01*
X176478506Y-90853284D01*
X176441198Y-90833342D01*
X176408496Y-90806504D01*
X176381658Y-90773802D01*
X176361716Y-90736494D01*
X176349437Y-90696015D01*
X176345000Y-90650966D01*
X176345000Y-89689034D01*
X176349437Y-89643985D01*
X176361716Y-89603506D01*
X176381658Y-89566198D01*
X176408496Y-89533496D01*
X176441198Y-89506658D01*
X176478506Y-89486716D01*
X176518985Y-89474437D01*
X176564034Y-89470000D01*
X177275966Y-89470000D01*
X177321015Y-89474437D01*
G37*
G36*
X196226015Y-89474437D02*
G01*
X196266494Y-89486716D01*
X196303802Y-89506658D01*
X196336504Y-89533496D01*
X196363342Y-89566198D01*
X196383284Y-89603506D01*
X196395563Y-89643985D01*
X196400000Y-89689034D01*
X196400000Y-90650966D01*
X196395563Y-90696015D01*
X196383284Y-90736494D01*
X196363342Y-90773802D01*
X196336504Y-90806504D01*
X196303802Y-90833342D01*
X196266494Y-90853284D01*
X196226015Y-90865563D01*
X196180966Y-90870000D01*
X195469034Y-90870000D01*
X195423985Y-90865563D01*
X195383506Y-90853284D01*
X195346198Y-90833342D01*
X195313496Y-90806504D01*
X195286658Y-90773802D01*
X195266716Y-90736494D01*
X195254437Y-90696015D01*
X195250000Y-90650966D01*
X195250000Y-89689034D01*
X195254437Y-89643985D01*
X195266716Y-89603506D01*
X195286658Y-89566198D01*
X195313496Y-89533496D01*
X195346198Y-89506658D01*
X195383506Y-89486716D01*
X195423985Y-89474437D01*
X195469034Y-89470000D01*
X196180966Y-89470000D01*
X196226015Y-89474437D01*
G37*
G36*
X198276015Y-89474437D02*
G01*
X198316494Y-89486716D01*
X198353802Y-89506658D01*
X198386504Y-89533496D01*
X198413342Y-89566198D01*
X198433284Y-89603506D01*
X198445563Y-89643985D01*
X198450000Y-89689034D01*
X198450000Y-90650966D01*
X198445563Y-90696015D01*
X198433284Y-90736494D01*
X198413342Y-90773802D01*
X198386504Y-90806504D01*
X198353802Y-90833342D01*
X198316494Y-90853284D01*
X198276015Y-90865563D01*
X198230966Y-90870000D01*
X197519034Y-90870000D01*
X197473985Y-90865563D01*
X197433506Y-90853284D01*
X197396198Y-90833342D01*
X197363496Y-90806504D01*
X197336658Y-90773802D01*
X197316716Y-90736494D01*
X197304437Y-90696015D01*
X197300000Y-90650966D01*
X197300000Y-89689034D01*
X197304437Y-89643985D01*
X197316716Y-89603506D01*
X197336658Y-89566198D01*
X197363496Y-89533496D01*
X197396198Y-89506658D01*
X197433506Y-89486716D01*
X197473985Y-89474437D01*
X197519034Y-89470000D01*
X198230966Y-89470000D01*
X198276015Y-89474437D01*
G37*
G36*
X248176015Y-89209437D02*
G01*
X248216494Y-89221716D01*
X248253802Y-89241658D01*
X248286504Y-89268496D01*
X248313342Y-89301198D01*
X248333284Y-89338506D01*
X248345563Y-89378985D01*
X248350000Y-89424034D01*
X248350000Y-90135966D01*
X248345563Y-90181015D01*
X248333284Y-90221494D01*
X248313342Y-90258802D01*
X248286504Y-90291504D01*
X248253802Y-90318342D01*
X248216494Y-90338284D01*
X248176015Y-90350563D01*
X248130966Y-90355000D01*
X247169034Y-90355000D01*
X247123985Y-90350563D01*
X247083506Y-90338284D01*
X247046198Y-90318342D01*
X247013496Y-90291504D01*
X246986658Y-90258802D01*
X246966716Y-90221494D01*
X246954437Y-90181015D01*
X246950000Y-90135966D01*
X246950000Y-89424034D01*
X246954437Y-89378985D01*
X246966716Y-89338506D01*
X246986658Y-89301198D01*
X247013496Y-89268496D01*
X247046198Y-89241658D01*
X247083506Y-89221716D01*
X247123985Y-89209437D01*
X247169034Y-89205000D01*
X248130966Y-89205000D01*
X248176015Y-89209437D01*
G37*
G36*
X251986015Y-89209437D02*
G01*
X252026494Y-89221716D01*
X252063802Y-89241658D01*
X252096504Y-89268496D01*
X252123342Y-89301198D01*
X252143284Y-89338506D01*
X252155563Y-89378985D01*
X252160000Y-89424034D01*
X252160000Y-90135966D01*
X252155563Y-90181015D01*
X252143284Y-90221494D01*
X252123342Y-90258802D01*
X252096504Y-90291504D01*
X252063802Y-90318342D01*
X252026494Y-90338284D01*
X251986015Y-90350563D01*
X251940966Y-90355000D01*
X250979034Y-90355000D01*
X250933985Y-90350563D01*
X250893506Y-90338284D01*
X250856198Y-90318342D01*
X250823496Y-90291504D01*
X250796658Y-90258802D01*
X250776716Y-90221494D01*
X250764437Y-90181015D01*
X250760000Y-90135966D01*
X250760000Y-89424034D01*
X250764437Y-89378985D01*
X250776716Y-89338506D01*
X250796658Y-89301198D01*
X250823496Y-89268496D01*
X250856198Y-89241658D01*
X250893506Y-89221716D01*
X250933985Y-89209437D01*
X250979034Y-89205000D01*
X251940966Y-89205000D01*
X251986015Y-89209437D01*
G37*
G36*
X254526015Y-89209437D02*
G01*
X254566494Y-89221716D01*
X254603802Y-89241658D01*
X254636504Y-89268496D01*
X254663342Y-89301198D01*
X254683284Y-89338506D01*
X254695563Y-89378985D01*
X254700000Y-89424034D01*
X254700000Y-90135966D01*
X254695563Y-90181015D01*
X254683284Y-90221494D01*
X254663342Y-90258802D01*
X254636504Y-90291504D01*
X254603802Y-90318342D01*
X254566494Y-90338284D01*
X254526015Y-90350563D01*
X254480966Y-90355000D01*
X253519034Y-90355000D01*
X253473985Y-90350563D01*
X253433506Y-90338284D01*
X253396198Y-90318342D01*
X253363496Y-90291504D01*
X253336658Y-90258802D01*
X253316716Y-90221494D01*
X253304437Y-90181015D01*
X253300000Y-90135966D01*
X253300000Y-89424034D01*
X253304437Y-89378985D01*
X253316716Y-89338506D01*
X253336658Y-89301198D01*
X253363496Y-89268496D01*
X253396198Y-89241658D01*
X253433506Y-89221716D01*
X253473985Y-89209437D01*
X253519034Y-89205000D01*
X254480966Y-89205000D01*
X254526015Y-89209437D01*
G37*
G36*
X214750000Y-89980000D02*
G01*
X212750000Y-89980000D01*
X212750000Y-89080000D01*
X214750000Y-89080000D01*
X214750000Y-89980000D01*
G37*
G36*
X231750000Y-89980000D02*
G01*
X229750000Y-89980000D01*
X229750000Y-89080000D01*
X231750000Y-89080000D01*
X231750000Y-89980000D01*
G37*
G36*
X214750000Y-88710000D02*
G01*
X212750000Y-88710000D01*
X212750000Y-87810000D01*
X214750000Y-87810000D01*
X214750000Y-88710000D01*
G37*
G36*
X231750000Y-88710000D02*
G01*
X229750000Y-88710000D01*
X229750000Y-87810000D01*
X231750000Y-87810000D01*
X231750000Y-88710000D01*
G37*
G36*
X255796015Y-86179437D02*
G01*
X255836494Y-86191716D01*
X255873802Y-86211658D01*
X255906504Y-86238496D01*
X255933342Y-86271198D01*
X255953284Y-86308506D01*
X255965563Y-86348985D01*
X255970000Y-86394034D01*
X255970000Y-87105966D01*
X255965563Y-87151015D01*
X255953284Y-87191494D01*
X255933342Y-87228802D01*
X255906504Y-87261504D01*
X255873802Y-87288342D01*
X255836494Y-87308284D01*
X255796015Y-87320563D01*
X255750966Y-87325000D01*
X254789034Y-87325000D01*
X254743985Y-87320563D01*
X254703506Y-87308284D01*
X254666198Y-87288342D01*
X254633496Y-87261504D01*
X254606658Y-87228802D01*
X254586716Y-87191494D01*
X254574437Y-87151015D01*
X254570000Y-87105966D01*
X254570000Y-86394034D01*
X254574437Y-86348985D01*
X254586716Y-86308506D01*
X254606658Y-86271198D01*
X254633496Y-86238496D01*
X254666198Y-86211658D01*
X254703506Y-86191716D01*
X254743985Y-86179437D01*
X254789034Y-86175000D01*
X255750966Y-86175000D01*
X255796015Y-86179437D01*
G37*
G36*
X246906015Y-86179437D02*
G01*
X246946494Y-86191716D01*
X246983802Y-86211658D01*
X247016504Y-86238496D01*
X247043342Y-86271198D01*
X247063284Y-86308506D01*
X247075563Y-86348985D01*
X247080000Y-86394034D01*
X247080000Y-87105966D01*
X247075563Y-87151015D01*
X247063284Y-87191494D01*
X247043342Y-87228802D01*
X247016504Y-87261504D01*
X246983802Y-87288342D01*
X246946494Y-87308284D01*
X246906015Y-87320563D01*
X246860966Y-87325000D01*
X245899034Y-87325000D01*
X245853985Y-87320563D01*
X245813506Y-87308284D01*
X245776198Y-87288342D01*
X245743496Y-87261504D01*
X245716658Y-87228802D01*
X245696716Y-87191494D01*
X245684437Y-87151015D01*
X245680000Y-87105966D01*
X245680000Y-86394034D01*
X245684437Y-86348985D01*
X245696716Y-86308506D01*
X245716658Y-86271198D01*
X245743496Y-86238496D01*
X245776198Y-86211658D01*
X245813506Y-86191716D01*
X245853985Y-86179437D01*
X245899034Y-86175000D01*
X246860966Y-86175000D01*
X246906015Y-86179437D01*
G37*
G36*
X110060000Y-87190000D02*
G01*
X108560000Y-87190000D01*
X108560000Y-86190000D01*
X110060000Y-86190000D01*
X110060000Y-87190000D01*
G37*
G36*
X114960000Y-87190000D02*
G01*
X113460000Y-87190000D01*
X113460000Y-86190000D01*
X114960000Y-86190000D01*
X114960000Y-87190000D01*
G37*
G36*
X132285000Y-87190000D02*
G01*
X130785000Y-87190000D01*
X130785000Y-86190000D01*
X132285000Y-86190000D01*
X132285000Y-87190000D01*
G37*
G36*
X137185000Y-87190000D02*
G01*
X135685000Y-87190000D01*
X135685000Y-86190000D01*
X137185000Y-86190000D01*
X137185000Y-87190000D01*
G37*
G36*
X259920000Y-87190000D02*
G01*
X258420000Y-87190000D01*
X258420000Y-86190000D01*
X259920000Y-86190000D01*
X259920000Y-87190000D01*
G37*
G36*
X153875000Y-87190000D02*
G01*
X152375000Y-87190000D01*
X152375000Y-86190000D01*
X153875000Y-86190000D01*
X153875000Y-87190000D01*
G37*
G36*
X264820000Y-87190000D02*
G01*
X263320000Y-87190000D01*
X263320000Y-86190000D01*
X264820000Y-86190000D01*
X264820000Y-87190000D01*
G37*
G36*
X158775000Y-87190000D02*
G01*
X157275000Y-87190000D01*
X157275000Y-86190000D01*
X158775000Y-86190000D01*
X158775000Y-87190000D01*
G37*
G36*
X238330000Y-87190000D02*
G01*
X236830000Y-87190000D01*
X236830000Y-86190000D01*
X238330000Y-86190000D01*
X238330000Y-87190000D01*
G37*
G36*
X174195000Y-87190000D02*
G01*
X172695000Y-87190000D01*
X172695000Y-86190000D01*
X174195000Y-86190000D01*
X174195000Y-87190000D01*
G37*
G36*
X243230000Y-87190000D02*
G01*
X241730000Y-87190000D01*
X241730000Y-86190000D01*
X243230000Y-86190000D01*
X243230000Y-87190000D01*
G37*
G36*
X179095000Y-87190000D02*
G01*
X177595000Y-87190000D01*
X177595000Y-86190000D01*
X179095000Y-86190000D01*
X179095000Y-87190000D01*
G37*
G36*
X195150000Y-87190000D02*
G01*
X193650000Y-87190000D01*
X193650000Y-86190000D01*
X195150000Y-86190000D01*
X195150000Y-87190000D01*
G37*
G36*
X200050000Y-87190000D02*
G01*
X198550000Y-87190000D01*
X198550000Y-86190000D01*
X200050000Y-86190000D01*
X200050000Y-87190000D01*
G37*
G36*
X91645000Y-87190000D02*
G01*
X90145000Y-87190000D01*
X90145000Y-86190000D01*
X91645000Y-86190000D01*
X91645000Y-87190000D01*
G37*
G36*
X96545000Y-87190000D02*
G01*
X95045000Y-87190000D01*
X95045000Y-86190000D01*
X96545000Y-86190000D01*
X96545000Y-87190000D01*
G37*
G36*
X246906015Y-84129437D02*
G01*
X246946494Y-84141716D01*
X246983802Y-84161658D01*
X247016504Y-84188496D01*
X247043342Y-84221198D01*
X247063284Y-84258506D01*
X247075563Y-84298985D01*
X247080000Y-84344034D01*
X247080000Y-85055966D01*
X247075563Y-85101015D01*
X247063284Y-85141494D01*
X247043342Y-85178802D01*
X247016504Y-85211504D01*
X246983802Y-85238342D01*
X246946494Y-85258284D01*
X246906015Y-85270563D01*
X246860966Y-85275000D01*
X245899034Y-85275000D01*
X245853985Y-85270563D01*
X245813506Y-85258284D01*
X245776198Y-85238342D01*
X245743496Y-85211504D01*
X245716658Y-85178802D01*
X245696716Y-85141494D01*
X245684437Y-85101015D01*
X245680000Y-85055966D01*
X245680000Y-84344034D01*
X245684437Y-84298985D01*
X245696716Y-84258506D01*
X245716658Y-84221198D01*
X245743496Y-84188496D01*
X245776198Y-84161658D01*
X245813506Y-84141716D01*
X245853985Y-84129437D01*
X245899034Y-84125000D01*
X246860966Y-84125000D01*
X246906015Y-84129437D01*
G37*
G36*
X255796015Y-84129437D02*
G01*
X255836494Y-84141716D01*
X255873802Y-84161658D01*
X255906504Y-84188496D01*
X255933342Y-84221198D01*
X255953284Y-84258506D01*
X255965563Y-84298985D01*
X255970000Y-84344034D01*
X255970000Y-85055966D01*
X255965563Y-85101015D01*
X255953284Y-85141494D01*
X255933342Y-85178802D01*
X255906504Y-85211504D01*
X255873802Y-85238342D01*
X255836494Y-85258284D01*
X255796015Y-85270563D01*
X255750966Y-85275000D01*
X254789034Y-85275000D01*
X254743985Y-85270563D01*
X254703506Y-85258284D01*
X254666198Y-85238342D01*
X254633496Y-85211504D01*
X254606658Y-85178802D01*
X254586716Y-85141494D01*
X254574437Y-85101015D01*
X254570000Y-85055966D01*
X254570000Y-84344034D01*
X254574437Y-84298985D01*
X254586716Y-84258506D01*
X254606658Y-84221198D01*
X254633496Y-84188496D01*
X254666198Y-84161658D01*
X254703506Y-84141716D01*
X254743985Y-84129437D01*
X254789034Y-84125000D01*
X255750966Y-84125000D01*
X255796015Y-84129437D01*
G37*
G36*
X268917145Y-81615744D02*
G01*
X269071703Y-81646487D01*
X269362884Y-81767098D01*
X269624941Y-81942199D01*
X269847801Y-82165059D01*
X270022902Y-82427116D01*
X270143513Y-82718297D01*
X270205000Y-83027414D01*
X270205000Y-83342586D01*
X270143513Y-83651703D01*
X270022902Y-83942884D01*
X269847801Y-84204941D01*
X269624941Y-84427801D01*
X269362884Y-84602902D01*
X269071703Y-84723513D01*
X268917145Y-84754256D01*
X268762588Y-84785000D01*
X268447412Y-84785000D01*
X268292855Y-84754256D01*
X268138297Y-84723513D01*
X267847116Y-84602902D01*
X267585059Y-84427801D01*
X267362199Y-84204941D01*
X267187098Y-83942884D01*
X267066487Y-83651703D01*
X267005000Y-83342586D01*
X267005000Y-83027414D01*
X267066487Y-82718297D01*
X267187098Y-82427116D01*
X267362199Y-82165059D01*
X267585059Y-81942199D01*
X267847116Y-81767098D01*
X268138297Y-81646487D01*
X268292856Y-81615743D01*
X268447412Y-81585000D01*
X268762588Y-81585000D01*
X268917145Y-81615744D01*
G37*
G36*
X84767145Y-81615744D02*
G01*
X84921703Y-81646487D01*
X85212884Y-81767098D01*
X85474941Y-81942199D01*
X85697801Y-82165059D01*
X85872902Y-82427116D01*
X85993513Y-82718297D01*
X86055000Y-83027414D01*
X86055000Y-83342586D01*
X85993513Y-83651703D01*
X85872902Y-83942884D01*
X85697801Y-84204941D01*
X85474941Y-84427801D01*
X85212884Y-84602902D01*
X84921703Y-84723513D01*
X84767145Y-84754256D01*
X84612588Y-84785000D01*
X84297412Y-84785000D01*
X84142855Y-84754256D01*
X83988297Y-84723513D01*
X83697116Y-84602902D01*
X83435059Y-84427801D01*
X83212199Y-84204941D01*
X83037098Y-83942884D01*
X82916487Y-83651703D01*
X82855000Y-83342586D01*
X82855000Y-83027414D01*
X82916487Y-82718297D01*
X83037098Y-82427116D01*
X83212199Y-82165059D01*
X83435059Y-81942199D01*
X83697116Y-81767098D01*
X83988297Y-81646487D01*
X84142855Y-81615744D01*
X84297412Y-81585000D01*
X84612588Y-81585000D01*
X84767145Y-81615744D01*
G37*
G36*
X195150000Y-83990000D02*
G01*
X193650000Y-83990000D01*
X193650000Y-82990000D01*
X195150000Y-82990000D01*
X195150000Y-83990000D01*
G37*
G36*
X200050000Y-83990000D02*
G01*
X198550000Y-83990000D01*
X198550000Y-82990000D01*
X200050000Y-82990000D01*
X200050000Y-83990000D01*
G37*
G36*
X96545000Y-83990000D02*
G01*
X95045000Y-83990000D01*
X95045000Y-82990000D01*
X96545000Y-82990000D01*
X96545000Y-83990000D01*
G37*
G36*
X91645000Y-83990000D02*
G01*
X90145000Y-83990000D01*
X90145000Y-82990000D01*
X91645000Y-82990000D01*
X91645000Y-83990000D01*
G37*
G36*
X114960000Y-83990000D02*
G01*
X113460000Y-83990000D01*
X113460000Y-82990000D01*
X114960000Y-82990000D01*
X114960000Y-83990000D01*
G37*
G36*
X110060000Y-83990000D02*
G01*
X108560000Y-83990000D01*
X108560000Y-82990000D01*
X110060000Y-82990000D01*
X110060000Y-83990000D01*
G37*
G36*
X137185000Y-83990000D02*
G01*
X135685000Y-83990000D01*
X135685000Y-82990000D01*
X137185000Y-82990000D01*
X137185000Y-83990000D01*
G37*
G36*
X132285000Y-83990000D02*
G01*
X130785000Y-83990000D01*
X130785000Y-82990000D01*
X132285000Y-82990000D01*
X132285000Y-83990000D01*
G37*
G36*
X158775000Y-83990000D02*
G01*
X157275000Y-83990000D01*
X157275000Y-82990000D01*
X158775000Y-82990000D01*
X158775000Y-83990000D01*
G37*
G36*
X153875000Y-83990000D02*
G01*
X152375000Y-83990000D01*
X152375000Y-82990000D01*
X153875000Y-82990000D01*
X153875000Y-83990000D01*
G37*
G36*
X179095000Y-83990000D02*
G01*
X177595000Y-83990000D01*
X177595000Y-82990000D01*
X179095000Y-82990000D01*
X179095000Y-83990000D01*
G37*
G36*
X174195000Y-83990000D02*
G01*
X172695000Y-83990000D01*
X172695000Y-82990000D01*
X174195000Y-82990000D01*
X174195000Y-83990000D01*
G37*
G36*
X243230000Y-83990000D02*
G01*
X241730000Y-83990000D01*
X241730000Y-82990000D01*
X243230000Y-82990000D01*
X243230000Y-83990000D01*
G37*
G36*
X238330000Y-83990000D02*
G01*
X236830000Y-83990000D01*
X236830000Y-82990000D01*
X238330000Y-82990000D01*
X238330000Y-83990000D01*
G37*
G36*
X264820000Y-83990000D02*
G01*
X263320000Y-83990000D01*
X263320000Y-82990000D01*
X264820000Y-82990000D01*
X264820000Y-83990000D01*
G37*
G36*
X259920000Y-83990000D02*
G01*
X258420000Y-83990000D01*
X258420000Y-82990000D01*
X259920000Y-82990000D01*
X259920000Y-83990000D01*
G37*
M02*
