%TF.GenerationSoftware,KiCad,Pcbnew,(5.1.6-0-10_14)*%
%TF.CreationDate,2020-10-26T15:40:05+01:00*%
%TF.ProjectId,GenericEPaperRemote,47656e65-7269-4634-9550-617065725265,rev?*%
%TF.SameCoordinates,Original*%
%TF.FileFunction,Legend,Top*%
%TF.FilePolarity,Positive*%
%FSLAX46Y46*%
G04 Gerber Fmt 4.6, Leading zero omitted, Abs format (unit mm)*
G04 Created by KiCad (PCBNEW (5.1.6-0-10_14)) date 2020-10-26 15:40:05*
%MOMM*%
%LPD*%
G01*
G04 APERTURE LIST*
%ADD10C,0.050000*%
%ADD11C,0.152400*%
%ADD12C,0.304800*%
%ADD13C,0.150000*%
%ADD14C,0.081600*%
%ADD15C,0.120000*%
%ADD16C,0.100000*%
G04 APERTURE END LIST*
D10*
X259310476Y-84009895D02*
X259310476Y-84590466D01*
X259286666Y-84706580D01*
X259239047Y-84783990D01*
X259167619Y-84822695D01*
X259120000Y-84822695D01*
X259786666Y-84822695D02*
X259548571Y-84822695D01*
X259548571Y-84009895D01*
X260239047Y-84745285D02*
X260215238Y-84783990D01*
X260143809Y-84822695D01*
X260096190Y-84822695D01*
X260024761Y-84783990D01*
X259977142Y-84706580D01*
X259953333Y-84629171D01*
X259929523Y-84474352D01*
X259929523Y-84358238D01*
X259953333Y-84203419D01*
X259977142Y-84126009D01*
X260024761Y-84048600D01*
X260096190Y-84009895D01*
X260143809Y-84009895D01*
X260215238Y-84048600D01*
X260239047Y-84087304D01*
X260596190Y-84009895D02*
X260596190Y-84590466D01*
X260572380Y-84706580D01*
X260524761Y-84783990D01*
X260453333Y-84822695D01*
X260405714Y-84822695D01*
X261072380Y-84822695D02*
X260834285Y-84822695D01*
X260834285Y-84009895D01*
X261524761Y-84745285D02*
X261500952Y-84783990D01*
X261429523Y-84822695D01*
X261381904Y-84822695D01*
X261310476Y-84783990D01*
X261262857Y-84706580D01*
X261239047Y-84629171D01*
X261215238Y-84474352D01*
X261215238Y-84358238D01*
X261239047Y-84203419D01*
X261262857Y-84126009D01*
X261310476Y-84048600D01*
X261381904Y-84009895D01*
X261429523Y-84009895D01*
X261500952Y-84048600D01*
X261524761Y-84087304D01*
X261881904Y-84009895D02*
X261881904Y-84590466D01*
X261858095Y-84706580D01*
X261810476Y-84783990D01*
X261739047Y-84822695D01*
X261691428Y-84822695D01*
X262358095Y-84822695D02*
X262120000Y-84822695D01*
X262120000Y-84009895D01*
X262810476Y-84745285D02*
X262786666Y-84783990D01*
X262715238Y-84822695D01*
X262667619Y-84822695D01*
X262596190Y-84783990D01*
X262548571Y-84706580D01*
X262524761Y-84629171D01*
X262500952Y-84474352D01*
X262500952Y-84358238D01*
X262524761Y-84203419D01*
X262548571Y-84126009D01*
X262596190Y-84048600D01*
X262667619Y-84009895D01*
X262715238Y-84009895D01*
X262786666Y-84048600D01*
X262810476Y-84087304D01*
X263167619Y-84009895D02*
X263167619Y-84590466D01*
X263143809Y-84706580D01*
X263096190Y-84783990D01*
X263024761Y-84822695D01*
X262977142Y-84822695D01*
X263643809Y-84822695D02*
X263405714Y-84822695D01*
X263405714Y-84009895D01*
X264096190Y-84745285D02*
X264072380Y-84783990D01*
X264000952Y-84822695D01*
X263953333Y-84822695D01*
X263881904Y-84783990D01*
X263834285Y-84706580D01*
X263810476Y-84629171D01*
X263786666Y-84474352D01*
X263786666Y-84358238D01*
X263810476Y-84203419D01*
X263834285Y-84126009D01*
X263881904Y-84048600D01*
X263953333Y-84009895D01*
X264000952Y-84009895D01*
X264072380Y-84048600D01*
X264096190Y-84087304D01*
D11*
X222233187Y-134420428D02*
X222233187Y-135078409D01*
X222194482Y-135155819D01*
X222155778Y-135194523D01*
X222078368Y-135233228D01*
X221962254Y-135233228D01*
X221884844Y-135194523D01*
X222233187Y-134923590D02*
X222155778Y-134962295D01*
X222000959Y-134962295D01*
X221923549Y-134923590D01*
X221884844Y-134884885D01*
X221846140Y-134807476D01*
X221846140Y-134575247D01*
X221884844Y-134497838D01*
X221923549Y-134459133D01*
X222000959Y-134420428D01*
X222155778Y-134420428D01*
X222233187Y-134459133D01*
X222929873Y-134923590D02*
X222852463Y-134962295D01*
X222697644Y-134962295D01*
X222620235Y-134923590D01*
X222581530Y-134846180D01*
X222581530Y-134536542D01*
X222620235Y-134459133D01*
X222697644Y-134420428D01*
X222852463Y-134420428D01*
X222929873Y-134459133D01*
X222968578Y-134536542D01*
X222968578Y-134613952D01*
X222581530Y-134691361D01*
X223316920Y-134420428D02*
X223316920Y-134962295D01*
X223316920Y-134497838D02*
X223355625Y-134459133D01*
X223433035Y-134420428D01*
X223549149Y-134420428D01*
X223626559Y-134459133D01*
X223665263Y-134536542D01*
X223665263Y-134962295D01*
X224361949Y-134923590D02*
X224284540Y-134962295D01*
X224129720Y-134962295D01*
X224052311Y-134923590D01*
X224013606Y-134846180D01*
X224013606Y-134536542D01*
X224052311Y-134459133D01*
X224129720Y-134420428D01*
X224284540Y-134420428D01*
X224361949Y-134459133D01*
X224400654Y-134536542D01*
X224400654Y-134613952D01*
X224013606Y-134691361D01*
X224748997Y-134962295D02*
X224748997Y-134420428D01*
X224748997Y-134575247D02*
X224787701Y-134497838D01*
X224826406Y-134459133D01*
X224903816Y-134420428D01*
X224981225Y-134420428D01*
X225252159Y-134962295D02*
X225252159Y-134420428D01*
X225252159Y-134149495D02*
X225213454Y-134188200D01*
X225252159Y-134226904D01*
X225290863Y-134188200D01*
X225252159Y-134149495D01*
X225252159Y-134226904D01*
X225987549Y-134923590D02*
X225910140Y-134962295D01*
X225755320Y-134962295D01*
X225677911Y-134923590D01*
X225639206Y-134884885D01*
X225600501Y-134807476D01*
X225600501Y-134575247D01*
X225639206Y-134497838D01*
X225677911Y-134459133D01*
X225755320Y-134420428D01*
X225910140Y-134420428D01*
X225987549Y-134459133D01*
X226955168Y-134536542D02*
X227226101Y-134536542D01*
X227342216Y-134962295D02*
X226955168Y-134962295D01*
X226955168Y-134149495D01*
X227342216Y-134149495D01*
X227651854Y-134923590D02*
X227767968Y-134962295D01*
X227961492Y-134962295D01*
X228038901Y-134923590D01*
X228077606Y-134884885D01*
X228116311Y-134807476D01*
X228116311Y-134730066D01*
X228077606Y-134652657D01*
X228038901Y-134613952D01*
X227961492Y-134575247D01*
X227806673Y-134536542D01*
X227729263Y-134497838D01*
X227690559Y-134459133D01*
X227651854Y-134381723D01*
X227651854Y-134304314D01*
X227690559Y-134226904D01*
X227729263Y-134188200D01*
X227806673Y-134149495D01*
X228000197Y-134149495D01*
X228116311Y-134188200D01*
X228464654Y-134962295D02*
X228464654Y-134149495D01*
X228774292Y-134149495D01*
X228851701Y-134188200D01*
X228890406Y-134226904D01*
X228929111Y-134304314D01*
X228929111Y-134420428D01*
X228890406Y-134497838D01*
X228851701Y-134536542D01*
X228774292Y-134575247D01*
X228464654Y-134575247D01*
X229200044Y-134149495D02*
X229703206Y-134149495D01*
X229432273Y-134459133D01*
X229548387Y-134459133D01*
X229625797Y-134497838D01*
X229664501Y-134536542D01*
X229703206Y-134613952D01*
X229703206Y-134807476D01*
X229664501Y-134884885D01*
X229625797Y-134923590D01*
X229548387Y-134962295D01*
X229316159Y-134962295D01*
X229238749Y-134923590D01*
X229200044Y-134884885D01*
X230012844Y-134226904D02*
X230051549Y-134188200D01*
X230128959Y-134149495D01*
X230322482Y-134149495D01*
X230399892Y-134188200D01*
X230438597Y-134226904D01*
X230477301Y-134304314D01*
X230477301Y-134381723D01*
X230438597Y-134497838D01*
X229974140Y-134962295D01*
X230477301Y-134962295D01*
X231909378Y-134962295D02*
X231638444Y-134575247D01*
X231444920Y-134962295D02*
X231444920Y-134149495D01*
X231754559Y-134149495D01*
X231831968Y-134188200D01*
X231870673Y-134226904D01*
X231909378Y-134304314D01*
X231909378Y-134420428D01*
X231870673Y-134497838D01*
X231831968Y-134536542D01*
X231754559Y-134575247D01*
X231444920Y-134575247D01*
X232567359Y-134923590D02*
X232489949Y-134962295D01*
X232335130Y-134962295D01*
X232257720Y-134923590D01*
X232219016Y-134846180D01*
X232219016Y-134536542D01*
X232257720Y-134459133D01*
X232335130Y-134420428D01*
X232489949Y-134420428D01*
X232567359Y-134459133D01*
X232606063Y-134536542D01*
X232606063Y-134613952D01*
X232219016Y-134691361D01*
X232954406Y-134962295D02*
X232954406Y-134420428D01*
X232954406Y-134497838D02*
X232993111Y-134459133D01*
X233070520Y-134420428D01*
X233186635Y-134420428D01*
X233264044Y-134459133D01*
X233302749Y-134536542D01*
X233302749Y-134962295D01*
X233302749Y-134536542D02*
X233341454Y-134459133D01*
X233418863Y-134420428D01*
X233534978Y-134420428D01*
X233612387Y-134459133D01*
X233651092Y-134536542D01*
X233651092Y-134962295D01*
X234154254Y-134962295D02*
X234076844Y-134923590D01*
X234038140Y-134884885D01*
X233999435Y-134807476D01*
X233999435Y-134575247D01*
X234038140Y-134497838D01*
X234076844Y-134459133D01*
X234154254Y-134420428D01*
X234270368Y-134420428D01*
X234347778Y-134459133D01*
X234386482Y-134497838D01*
X234425187Y-134575247D01*
X234425187Y-134807476D01*
X234386482Y-134884885D01*
X234347778Y-134923590D01*
X234270368Y-134962295D01*
X234154254Y-134962295D01*
X234657416Y-134420428D02*
X234967054Y-134420428D01*
X234773530Y-134149495D02*
X234773530Y-134846180D01*
X234812235Y-134923590D01*
X234889644Y-134962295D01*
X234967054Y-134962295D01*
X235547625Y-134923590D02*
X235470216Y-134962295D01*
X235315397Y-134962295D01*
X235237987Y-134923590D01*
X235199282Y-134846180D01*
X235199282Y-134536542D01*
X235237987Y-134459133D01*
X235315397Y-134420428D01*
X235470216Y-134420428D01*
X235547625Y-134459133D01*
X235586330Y-134536542D01*
X235586330Y-134613952D01*
X235199282Y-134691361D01*
X236476540Y-134420428D02*
X236670063Y-134962295D01*
X236863587Y-134420428D01*
X237328044Y-134149495D02*
X237405454Y-134149495D01*
X237482863Y-134188200D01*
X237521568Y-134226904D01*
X237560273Y-134304314D01*
X237598978Y-134459133D01*
X237598978Y-134652657D01*
X237560273Y-134807476D01*
X237521568Y-134884885D01*
X237482863Y-134923590D01*
X237405454Y-134962295D01*
X237328044Y-134962295D01*
X237250635Y-134923590D01*
X237211930Y-134884885D01*
X237173225Y-134807476D01*
X237134520Y-134652657D01*
X237134520Y-134459133D01*
X237173225Y-134304314D01*
X237211930Y-134226904D01*
X237250635Y-134188200D01*
X237328044Y-134149495D01*
X237947320Y-134884885D02*
X237986025Y-134923590D01*
X237947320Y-134962295D01*
X237908616Y-134923590D01*
X237947320Y-134884885D01*
X237947320Y-134962295D01*
X238721416Y-134149495D02*
X238334368Y-134149495D01*
X238295663Y-134536542D01*
X238334368Y-134497838D01*
X238411778Y-134459133D01*
X238605301Y-134459133D01*
X238682711Y-134497838D01*
X238721416Y-134536542D01*
X238760120Y-134613952D01*
X238760120Y-134807476D01*
X238721416Y-134884885D01*
X238682711Y-134923590D01*
X238605301Y-134962295D01*
X238411778Y-134962295D01*
X238334368Y-134923590D01*
X238295663Y-134884885D01*
X225639206Y-136256485D02*
X225600501Y-136295190D01*
X225484387Y-136333895D01*
X225406978Y-136333895D01*
X225290863Y-136295190D01*
X225213454Y-136217780D01*
X225174749Y-136140371D01*
X225136044Y-135985552D01*
X225136044Y-135869438D01*
X225174749Y-135714619D01*
X225213454Y-135637209D01*
X225290863Y-135559800D01*
X225406978Y-135521095D01*
X225484387Y-135521095D01*
X225600501Y-135559800D01*
X225639206Y-135598504D01*
X226103663Y-136333895D02*
X226026254Y-136295190D01*
X225987549Y-136256485D01*
X225948844Y-136179076D01*
X225948844Y-135946847D01*
X225987549Y-135869438D01*
X226026254Y-135830733D01*
X226103663Y-135792028D01*
X226219778Y-135792028D01*
X226297187Y-135830733D01*
X226335892Y-135869438D01*
X226374597Y-135946847D01*
X226374597Y-136179076D01*
X226335892Y-136256485D01*
X226297187Y-136295190D01*
X226219778Y-136333895D01*
X226103663Y-136333895D01*
X227071282Y-136333895D02*
X227071282Y-135521095D01*
X227071282Y-136295190D02*
X226993873Y-136333895D01*
X226839054Y-136333895D01*
X226761644Y-136295190D01*
X226722940Y-136256485D01*
X226684235Y-136179076D01*
X226684235Y-135946847D01*
X226722940Y-135869438D01*
X226761644Y-135830733D01*
X226839054Y-135792028D01*
X226993873Y-135792028D01*
X227071282Y-135830733D01*
X227458330Y-136333895D02*
X227458330Y-135792028D01*
X227458330Y-135521095D02*
X227419625Y-135559800D01*
X227458330Y-135598504D01*
X227497035Y-135559800D01*
X227458330Y-135521095D01*
X227458330Y-135598504D01*
X227845378Y-135792028D02*
X227845378Y-136333895D01*
X227845378Y-135869438D02*
X227884082Y-135830733D01*
X227961492Y-135792028D01*
X228077606Y-135792028D01*
X228155016Y-135830733D01*
X228193720Y-135908142D01*
X228193720Y-136333895D01*
X228929111Y-135792028D02*
X228929111Y-136450009D01*
X228890406Y-136527419D01*
X228851701Y-136566123D01*
X228774292Y-136604828D01*
X228658178Y-136604828D01*
X228580768Y-136566123D01*
X228929111Y-136295190D02*
X228851701Y-136333895D01*
X228696882Y-136333895D01*
X228619473Y-136295190D01*
X228580768Y-136256485D01*
X228542063Y-136179076D01*
X228542063Y-135946847D01*
X228580768Y-135869438D01*
X228619473Y-135830733D01*
X228696882Y-135792028D01*
X228851701Y-135792028D01*
X228929111Y-135830733D01*
X229200044Y-135792028D02*
X229509682Y-135792028D01*
X229316159Y-136333895D02*
X229316159Y-135637209D01*
X229354863Y-135559800D01*
X229432273Y-135521095D01*
X229509682Y-135521095D01*
X229780616Y-136333895D02*
X229780616Y-135792028D01*
X229780616Y-135946847D02*
X229819320Y-135869438D01*
X229858025Y-135830733D01*
X229935435Y-135792028D01*
X230012844Y-135792028D01*
X230632120Y-136333895D02*
X230632120Y-135908142D01*
X230593416Y-135830733D01*
X230516006Y-135792028D01*
X230361187Y-135792028D01*
X230283778Y-135830733D01*
X230632120Y-136295190D02*
X230554711Y-136333895D01*
X230361187Y-136333895D01*
X230283778Y-136295190D01*
X230245073Y-136217780D01*
X230245073Y-136140371D01*
X230283778Y-136062961D01*
X230361187Y-136024257D01*
X230554711Y-136024257D01*
X230632120Y-135985552D01*
X231367511Y-135792028D02*
X231367511Y-136450009D01*
X231328806Y-136527419D01*
X231290101Y-136566123D01*
X231212692Y-136604828D01*
X231096578Y-136604828D01*
X231019168Y-136566123D01*
X231367511Y-136295190D02*
X231290101Y-136333895D01*
X231135282Y-136333895D01*
X231057873Y-136295190D01*
X231019168Y-136256485D01*
X230980463Y-136179076D01*
X230980463Y-135946847D01*
X231019168Y-135869438D01*
X231057873Y-135830733D01*
X231135282Y-135792028D01*
X231290101Y-135792028D01*
X231367511Y-135830733D01*
X231754559Y-136333895D02*
X231754559Y-135792028D01*
X231754559Y-135869438D02*
X231793263Y-135830733D01*
X231870673Y-135792028D01*
X231986787Y-135792028D01*
X232064197Y-135830733D01*
X232102901Y-135908142D01*
X232102901Y-136333895D01*
X232102901Y-135908142D02*
X232141606Y-135830733D01*
X232219016Y-135792028D01*
X232335130Y-135792028D01*
X232412540Y-135830733D01*
X232451244Y-135908142D01*
X232451244Y-136333895D01*
X233147930Y-136295190D02*
X233070520Y-136333895D01*
X232915701Y-136333895D01*
X232838292Y-136295190D01*
X232799587Y-136217780D01*
X232799587Y-135908142D01*
X232838292Y-135830733D01*
X232915701Y-135792028D01*
X233070520Y-135792028D01*
X233147930Y-135830733D01*
X233186635Y-135908142D01*
X233186635Y-135985552D01*
X232799587Y-136062961D01*
X233534978Y-135792028D02*
X233534978Y-136333895D01*
X233534978Y-135869438D02*
X233573682Y-135830733D01*
X233651092Y-135792028D01*
X233767206Y-135792028D01*
X233844616Y-135830733D01*
X233883320Y-135908142D01*
X233883320Y-136333895D01*
X234154254Y-135792028D02*
X234463892Y-135792028D01*
X234270368Y-135521095D02*
X234270368Y-136217780D01*
X234309073Y-136295190D01*
X234386482Y-136333895D01*
X234463892Y-136333895D01*
X234696120Y-136295190D02*
X234773530Y-136333895D01*
X234928349Y-136333895D01*
X235005759Y-136295190D01*
X235044463Y-136217780D01*
X235044463Y-136179076D01*
X235005759Y-136101666D01*
X234928349Y-136062961D01*
X234812235Y-136062961D01*
X234734825Y-136024257D01*
X234696120Y-135946847D01*
X234696120Y-135908142D01*
X234734825Y-135830733D01*
X234812235Y-135792028D01*
X234928349Y-135792028D01*
X235005759Y-135830733D01*
X235973378Y-135598504D02*
X236012082Y-135559800D01*
X236089492Y-135521095D01*
X236283016Y-135521095D01*
X236360425Y-135559800D01*
X236399130Y-135598504D01*
X236437835Y-135675914D01*
X236437835Y-135753323D01*
X236399130Y-135869438D01*
X235934673Y-136333895D01*
X236437835Y-136333895D01*
X236940997Y-135521095D02*
X237018406Y-135521095D01*
X237095816Y-135559800D01*
X237134520Y-135598504D01*
X237173225Y-135675914D01*
X237211930Y-135830733D01*
X237211930Y-136024257D01*
X237173225Y-136179076D01*
X237134520Y-136256485D01*
X237095816Y-136295190D01*
X237018406Y-136333895D01*
X236940997Y-136333895D01*
X236863587Y-136295190D01*
X236824882Y-136256485D01*
X236786178Y-136179076D01*
X236747473Y-136024257D01*
X236747473Y-135830733D01*
X236786178Y-135675914D01*
X236824882Y-135598504D01*
X236863587Y-135559800D01*
X236940997Y-135521095D01*
X237521568Y-135598504D02*
X237560273Y-135559800D01*
X237637682Y-135521095D01*
X237831206Y-135521095D01*
X237908616Y-135559800D01*
X237947320Y-135598504D01*
X237986025Y-135675914D01*
X237986025Y-135753323D01*
X237947320Y-135869438D01*
X237482863Y-136333895D01*
X237986025Y-136333895D01*
X238489187Y-135521095D02*
X238566597Y-135521095D01*
X238644006Y-135559800D01*
X238682711Y-135598504D01*
X238721416Y-135675914D01*
X238760120Y-135830733D01*
X238760120Y-136024257D01*
X238721416Y-136179076D01*
X238682711Y-136256485D01*
X238644006Y-136295190D01*
X238566597Y-136333895D01*
X238489187Y-136333895D01*
X238411778Y-136295190D01*
X238373073Y-136256485D01*
X238334368Y-136179076D01*
X238295663Y-136024257D01*
X238295663Y-135830733D01*
X238334368Y-135675914D01*
X238373073Y-135598504D01*
X238411778Y-135559800D01*
X238489187Y-135521095D01*
X231754559Y-137666790D02*
X231870673Y-137705495D01*
X232064197Y-137705495D01*
X232141606Y-137666790D01*
X232180311Y-137628085D01*
X232219016Y-137550676D01*
X232219016Y-137473266D01*
X232180311Y-137395857D01*
X232141606Y-137357152D01*
X232064197Y-137318447D01*
X231909378Y-137279742D01*
X231831968Y-137241038D01*
X231793263Y-137202333D01*
X231754559Y-137124923D01*
X231754559Y-137047514D01*
X231793263Y-136970104D01*
X231831968Y-136931400D01*
X231909378Y-136892695D01*
X232102901Y-136892695D01*
X232219016Y-136931400D01*
X232451244Y-137163628D02*
X232760882Y-137163628D01*
X232567359Y-136892695D02*
X232567359Y-137589380D01*
X232606063Y-137666790D01*
X232683473Y-137705495D01*
X232760882Y-137705495D01*
X233341454Y-137666790D02*
X233264044Y-137705495D01*
X233109225Y-137705495D01*
X233031816Y-137666790D01*
X232993111Y-137589380D01*
X232993111Y-137279742D01*
X233031816Y-137202333D01*
X233109225Y-137163628D01*
X233264044Y-137163628D01*
X233341454Y-137202333D01*
X233380159Y-137279742D01*
X233380159Y-137357152D01*
X232993111Y-137434561D01*
X233612387Y-137163628D02*
X233922025Y-137163628D01*
X233728501Y-137705495D02*
X233728501Y-137008809D01*
X233767206Y-136931400D01*
X233844616Y-136892695D01*
X233922025Y-136892695D01*
X234541301Y-137705495D02*
X234541301Y-137279742D01*
X234502597Y-137202333D01*
X234425187Y-137163628D01*
X234270368Y-137163628D01*
X234192959Y-137202333D01*
X234541301Y-137666790D02*
X234463892Y-137705495D01*
X234270368Y-137705495D01*
X234192959Y-137666790D01*
X234154254Y-137589380D01*
X234154254Y-137511971D01*
X234192959Y-137434561D01*
X234270368Y-137395857D01*
X234463892Y-137395857D01*
X234541301Y-137357152D01*
X234928349Y-137163628D02*
X234928349Y-137705495D01*
X234928349Y-137241038D02*
X234967054Y-137202333D01*
X235044463Y-137163628D01*
X235160578Y-137163628D01*
X235237987Y-137202333D01*
X235276692Y-137279742D01*
X235276692Y-137705495D01*
X236283016Y-137705495D02*
X236283016Y-136892695D01*
X236553949Y-137473266D01*
X236824882Y-136892695D01*
X236824882Y-137705495D01*
X237560273Y-137705495D02*
X237560273Y-137279742D01*
X237521568Y-137202333D01*
X237444159Y-137163628D01*
X237289340Y-137163628D01*
X237211930Y-137202333D01*
X237560273Y-137666790D02*
X237482863Y-137705495D01*
X237289340Y-137705495D01*
X237211930Y-137666790D01*
X237173225Y-137589380D01*
X237173225Y-137511971D01*
X237211930Y-137434561D01*
X237289340Y-137395857D01*
X237482863Y-137395857D01*
X237560273Y-137357152D01*
X237947320Y-137705495D02*
X237947320Y-137163628D01*
X237947320Y-137318447D02*
X237986025Y-137241038D01*
X238024730Y-137202333D01*
X238102140Y-137163628D01*
X238179549Y-137163628D01*
X238373073Y-137705495D02*
X238798825Y-137163628D01*
X238373073Y-137163628D02*
X238798825Y-137705495D01*
X224284540Y-139038390D02*
X224361949Y-139077095D01*
X224516768Y-139077095D01*
X224594178Y-139038390D01*
X224632882Y-138960980D01*
X224632882Y-138922276D01*
X224594178Y-138844866D01*
X224516768Y-138806161D01*
X224400654Y-138806161D01*
X224323244Y-138767457D01*
X224284540Y-138690047D01*
X224284540Y-138651342D01*
X224323244Y-138573933D01*
X224400654Y-138535228D01*
X224516768Y-138535228D01*
X224594178Y-138573933D01*
X224865111Y-138535228D02*
X225174749Y-138535228D01*
X224981225Y-138264295D02*
X224981225Y-138960980D01*
X225019930Y-139038390D01*
X225097340Y-139077095D01*
X225174749Y-139077095D01*
X225755320Y-139038390D02*
X225677911Y-139077095D01*
X225523092Y-139077095D01*
X225445682Y-139038390D01*
X225406978Y-138960980D01*
X225406978Y-138651342D01*
X225445682Y-138573933D01*
X225523092Y-138535228D01*
X225677911Y-138535228D01*
X225755320Y-138573933D01*
X225794025Y-138651342D01*
X225794025Y-138728752D01*
X225406978Y-138806161D01*
X226026254Y-138535228D02*
X226335892Y-138535228D01*
X226142368Y-139077095D02*
X226142368Y-138380409D01*
X226181073Y-138303000D01*
X226258482Y-138264295D01*
X226335892Y-138264295D01*
X226955168Y-139077095D02*
X226955168Y-138651342D01*
X226916463Y-138573933D01*
X226839054Y-138535228D01*
X226684235Y-138535228D01*
X226606825Y-138573933D01*
X226955168Y-139038390D02*
X226877759Y-139077095D01*
X226684235Y-139077095D01*
X226606825Y-139038390D01*
X226568120Y-138960980D01*
X226568120Y-138883571D01*
X226606825Y-138806161D01*
X226684235Y-138767457D01*
X226877759Y-138767457D01*
X226955168Y-138728752D01*
X227342216Y-138535228D02*
X227342216Y-139077095D01*
X227342216Y-138612638D02*
X227380920Y-138573933D01*
X227458330Y-138535228D01*
X227574444Y-138535228D01*
X227651854Y-138573933D01*
X227690559Y-138651342D01*
X227690559Y-139077095D01*
X228580768Y-138690047D02*
X228542063Y-138651342D01*
X228464654Y-138612638D01*
X228387244Y-138612638D01*
X228309835Y-138651342D01*
X228271130Y-138690047D01*
X228232425Y-138767457D01*
X228232425Y-138844866D01*
X228271130Y-138922276D01*
X228309835Y-138960980D01*
X228387244Y-138999685D01*
X228464654Y-138999685D01*
X228542063Y-138960980D01*
X228580768Y-138922276D01*
X228580768Y-138612638D02*
X228580768Y-138922276D01*
X228619473Y-138960980D01*
X228658178Y-138960980D01*
X228735587Y-138922276D01*
X228774292Y-138844866D01*
X228774292Y-138651342D01*
X228696882Y-138535228D01*
X228580768Y-138457819D01*
X228425949Y-138419114D01*
X228271130Y-138457819D01*
X228155016Y-138535228D01*
X228077606Y-138651342D01*
X228038901Y-138806161D01*
X228077606Y-138960980D01*
X228155016Y-139077095D01*
X228271130Y-139154504D01*
X228425949Y-139193209D01*
X228580768Y-139154504D01*
X228696882Y-139077095D01*
X229122635Y-139077095D02*
X229122635Y-138535228D01*
X229122635Y-138612638D02*
X229161340Y-138573933D01*
X229238749Y-138535228D01*
X229354863Y-138535228D01*
X229432273Y-138573933D01*
X229470978Y-138651342D01*
X229470978Y-139077095D01*
X229470978Y-138651342D02*
X229509682Y-138573933D01*
X229587092Y-138535228D01*
X229703206Y-138535228D01*
X229780616Y-138573933D01*
X229819320Y-138651342D01*
X229819320Y-139077095D01*
X230554711Y-139077095D02*
X230554711Y-138651342D01*
X230516006Y-138573933D01*
X230438597Y-138535228D01*
X230283778Y-138535228D01*
X230206368Y-138573933D01*
X230554711Y-139038390D02*
X230477301Y-139077095D01*
X230283778Y-139077095D01*
X230206368Y-139038390D01*
X230167663Y-138960980D01*
X230167663Y-138883571D01*
X230206368Y-138806161D01*
X230283778Y-138767457D01*
X230477301Y-138767457D01*
X230554711Y-138728752D01*
X230941759Y-139077095D02*
X230941759Y-138535228D01*
X230941759Y-138690047D02*
X230980463Y-138612638D01*
X231019168Y-138573933D01*
X231096578Y-138535228D01*
X231173987Y-138535228D01*
X231367511Y-139077095D02*
X231793263Y-138535228D01*
X231367511Y-138535228D02*
X231793263Y-139077095D01*
X232102901Y-138767457D02*
X232722178Y-138767457D01*
X233109225Y-139077095D02*
X233109225Y-138535228D01*
X233109225Y-138612638D02*
X233147930Y-138573933D01*
X233225340Y-138535228D01*
X233341454Y-138535228D01*
X233418863Y-138573933D01*
X233457568Y-138651342D01*
X233457568Y-139077095D01*
X233457568Y-138651342D02*
X233496273Y-138573933D01*
X233573682Y-138535228D01*
X233689797Y-138535228D01*
X233767206Y-138573933D01*
X233805911Y-138651342D01*
X233805911Y-139077095D01*
X234502597Y-139038390D02*
X234425187Y-139077095D01*
X234270368Y-139077095D01*
X234192959Y-139038390D01*
X234154254Y-138960980D01*
X234154254Y-138651342D01*
X234192959Y-138573933D01*
X234270368Y-138535228D01*
X234425187Y-138535228D01*
X234502597Y-138573933D01*
X234541301Y-138651342D01*
X234541301Y-138728752D01*
X234154254Y-138806161D01*
X234889644Y-139077095D02*
X234889644Y-138535228D01*
X234889644Y-138690047D02*
X234928349Y-138612638D01*
X234967054Y-138573933D01*
X235044463Y-138535228D01*
X235121873Y-138535228D01*
X235276692Y-138535228D02*
X235586330Y-138535228D01*
X235392806Y-138264295D02*
X235392806Y-138960980D01*
X235431511Y-139038390D01*
X235508920Y-139077095D01*
X235586330Y-139077095D01*
X236166901Y-139038390D02*
X236089492Y-139077095D01*
X235934673Y-139077095D01*
X235857263Y-139038390D01*
X235818559Y-138960980D01*
X235818559Y-138651342D01*
X235857263Y-138573933D01*
X235934673Y-138535228D01*
X236089492Y-138535228D01*
X236166901Y-138573933D01*
X236205606Y-138651342D01*
X236205606Y-138728752D01*
X235818559Y-138806161D01*
X236553949Y-138535228D02*
X236553949Y-139077095D01*
X236553949Y-138612638D02*
X236592654Y-138573933D01*
X236670063Y-138535228D01*
X236786178Y-138535228D01*
X236863587Y-138573933D01*
X236902292Y-138651342D01*
X236902292Y-139077095D01*
X237289340Y-138999685D02*
X237328044Y-139038390D01*
X237289340Y-139077095D01*
X237250635Y-139038390D01*
X237289340Y-138999685D01*
X237289340Y-139077095D01*
X238024730Y-139077095D02*
X238024730Y-138264295D01*
X238024730Y-139038390D02*
X237947320Y-139077095D01*
X237792501Y-139077095D01*
X237715092Y-139038390D01*
X237676387Y-138999685D01*
X237637682Y-138922276D01*
X237637682Y-138690047D01*
X237676387Y-138612638D01*
X237715092Y-138573933D01*
X237792501Y-138535228D01*
X237947320Y-138535228D01*
X238024730Y-138573933D01*
X238721416Y-139038390D02*
X238644006Y-139077095D01*
X238489187Y-139077095D01*
X238411778Y-139038390D01*
X238373073Y-138960980D01*
X238373073Y-138651342D01*
X238411778Y-138573933D01*
X238489187Y-138535228D01*
X238644006Y-138535228D01*
X238721416Y-138573933D01*
X238760120Y-138651342D01*
X238760120Y-138728752D01*
X238373073Y-138806161D01*
X160387695Y-115410342D02*
X159574895Y-115410342D01*
X159574895Y-114868476D02*
X159574895Y-114713657D01*
X159613600Y-114636247D01*
X159691009Y-114558838D01*
X159845828Y-114520133D01*
X160116761Y-114520133D01*
X160271580Y-114558838D01*
X160348990Y-114636247D01*
X160387695Y-114713657D01*
X160387695Y-114868476D01*
X160348990Y-114945885D01*
X160271580Y-115023295D01*
X160116761Y-115062000D01*
X159845828Y-115062000D01*
X159691009Y-115023295D01*
X159613600Y-114945885D01*
X159574895Y-114868476D01*
X160348990Y-113591219D02*
X160387695Y-113475104D01*
X160387695Y-113281580D01*
X160348990Y-113204171D01*
X160310285Y-113165466D01*
X160232876Y-113126761D01*
X160155466Y-113126761D01*
X160078057Y-113165466D01*
X160039352Y-113204171D01*
X160000647Y-113281580D01*
X159961942Y-113436400D01*
X159923238Y-113513809D01*
X159884533Y-113552514D01*
X159807123Y-113591219D01*
X159729714Y-113591219D01*
X159652304Y-113552514D01*
X159613600Y-113513809D01*
X159574895Y-113436400D01*
X159574895Y-113242876D01*
X159613600Y-113126761D01*
X160348990Y-112468780D02*
X160387695Y-112546190D01*
X160387695Y-112701009D01*
X160348990Y-112778419D01*
X160271580Y-112817123D01*
X159961942Y-112817123D01*
X159884533Y-112778419D01*
X159845828Y-112701009D01*
X159845828Y-112546190D01*
X159884533Y-112468780D01*
X159961942Y-112430076D01*
X160039352Y-112430076D01*
X160116761Y-112817123D01*
X160387695Y-111965619D02*
X160348990Y-112043028D01*
X160271580Y-112081733D01*
X159574895Y-112081733D01*
X159652304Y-111075409D02*
X159613600Y-111036704D01*
X159574895Y-110959295D01*
X159574895Y-110765771D01*
X159613600Y-110688361D01*
X159652304Y-110649657D01*
X159729714Y-110610952D01*
X159807123Y-110610952D01*
X159923238Y-110649657D01*
X160387695Y-111114114D01*
X160387695Y-110610952D01*
X156323695Y-115410342D02*
X155510895Y-115410342D01*
X155510895Y-114868476D02*
X155510895Y-114713657D01*
X155549600Y-114636247D01*
X155627009Y-114558838D01*
X155781828Y-114520133D01*
X156052761Y-114520133D01*
X156207580Y-114558838D01*
X156284990Y-114636247D01*
X156323695Y-114713657D01*
X156323695Y-114868476D01*
X156284990Y-114945885D01*
X156207580Y-115023295D01*
X156052761Y-115062000D01*
X155781828Y-115062000D01*
X155627009Y-115023295D01*
X155549600Y-114945885D01*
X155510895Y-114868476D01*
X156284990Y-113591219D02*
X156323695Y-113475104D01*
X156323695Y-113281580D01*
X156284990Y-113204171D01*
X156246285Y-113165466D01*
X156168876Y-113126761D01*
X156091466Y-113126761D01*
X156014057Y-113165466D01*
X155975352Y-113204171D01*
X155936647Y-113281580D01*
X155897942Y-113436400D01*
X155859238Y-113513809D01*
X155820533Y-113552514D01*
X155743123Y-113591219D01*
X155665714Y-113591219D01*
X155588304Y-113552514D01*
X155549600Y-113513809D01*
X155510895Y-113436400D01*
X155510895Y-113242876D01*
X155549600Y-113126761D01*
X156284990Y-112468780D02*
X156323695Y-112546190D01*
X156323695Y-112701009D01*
X156284990Y-112778419D01*
X156207580Y-112817123D01*
X155897942Y-112817123D01*
X155820533Y-112778419D01*
X155781828Y-112701009D01*
X155781828Y-112546190D01*
X155820533Y-112468780D01*
X155897942Y-112430076D01*
X155975352Y-112430076D01*
X156052761Y-112817123D01*
X156323695Y-111965619D02*
X156284990Y-112043028D01*
X156207580Y-112081733D01*
X155510895Y-112081733D01*
X156323695Y-110610952D02*
X156323695Y-111075409D01*
X156323695Y-110843180D02*
X155510895Y-110843180D01*
X155627009Y-110920590D01*
X155704419Y-110998000D01*
X155743123Y-111075409D01*
X152259695Y-115410342D02*
X151446895Y-115410342D01*
X151446895Y-114868476D02*
X151446895Y-114713657D01*
X151485600Y-114636247D01*
X151563009Y-114558838D01*
X151717828Y-114520133D01*
X151988761Y-114520133D01*
X152143580Y-114558838D01*
X152220990Y-114636247D01*
X152259695Y-114713657D01*
X152259695Y-114868476D01*
X152220990Y-114945885D01*
X152143580Y-115023295D01*
X151988761Y-115062000D01*
X151717828Y-115062000D01*
X151563009Y-115023295D01*
X151485600Y-114945885D01*
X151446895Y-114868476D01*
X152220990Y-113591219D02*
X152259695Y-113475104D01*
X152259695Y-113281580D01*
X152220990Y-113204171D01*
X152182285Y-113165466D01*
X152104876Y-113126761D01*
X152027466Y-113126761D01*
X151950057Y-113165466D01*
X151911352Y-113204171D01*
X151872647Y-113281580D01*
X151833942Y-113436400D01*
X151795238Y-113513809D01*
X151756533Y-113552514D01*
X151679123Y-113591219D01*
X151601714Y-113591219D01*
X151524304Y-113552514D01*
X151485600Y-113513809D01*
X151446895Y-113436400D01*
X151446895Y-113242876D01*
X151485600Y-113126761D01*
X152220990Y-112468780D02*
X152259695Y-112546190D01*
X152259695Y-112701009D01*
X152220990Y-112778419D01*
X152143580Y-112817123D01*
X151833942Y-112817123D01*
X151756533Y-112778419D01*
X151717828Y-112701009D01*
X151717828Y-112546190D01*
X151756533Y-112468780D01*
X151833942Y-112430076D01*
X151911352Y-112430076D01*
X151988761Y-112817123D01*
X152259695Y-111965619D02*
X152220990Y-112043028D01*
X152143580Y-112081733D01*
X151446895Y-112081733D01*
X151446895Y-110881885D02*
X151446895Y-110804476D01*
X151485600Y-110727066D01*
X151524304Y-110688361D01*
X151601714Y-110649657D01*
X151756533Y-110610952D01*
X151950057Y-110610952D01*
X152104876Y-110649657D01*
X152182285Y-110688361D01*
X152220990Y-110727066D01*
X152259695Y-110804476D01*
X152259695Y-110881885D01*
X152220990Y-110959295D01*
X152182285Y-110998000D01*
X152104876Y-111036704D01*
X151950057Y-111075409D01*
X151756533Y-111075409D01*
X151601714Y-111036704D01*
X151524304Y-110998000D01*
X151485600Y-110959295D01*
X151446895Y-110881885D01*
X191953847Y-100348142D02*
X192069961Y-100386847D01*
X192108666Y-100425552D01*
X192147371Y-100502961D01*
X192147371Y-100619076D01*
X192108666Y-100696485D01*
X192069961Y-100735190D01*
X191992552Y-100773895D01*
X191682914Y-100773895D01*
X191682914Y-99961095D01*
X191953847Y-99961095D01*
X192031257Y-99999800D01*
X192069961Y-100038504D01*
X192108666Y-100115914D01*
X192108666Y-100193323D01*
X192069961Y-100270733D01*
X192031257Y-100309438D01*
X191953847Y-100348142D01*
X191682914Y-100348142D01*
X192611828Y-100773895D02*
X192534419Y-100735190D01*
X192495714Y-100696485D01*
X192457009Y-100619076D01*
X192457009Y-100386847D01*
X192495714Y-100309438D01*
X192534419Y-100270733D01*
X192611828Y-100232028D01*
X192727942Y-100232028D01*
X192805352Y-100270733D01*
X192844057Y-100309438D01*
X192882761Y-100386847D01*
X192882761Y-100619076D01*
X192844057Y-100696485D01*
X192805352Y-100735190D01*
X192727942Y-100773895D01*
X192611828Y-100773895D01*
X193347219Y-100773895D02*
X193269809Y-100735190D01*
X193231104Y-100696485D01*
X193192400Y-100619076D01*
X193192400Y-100386847D01*
X193231104Y-100309438D01*
X193269809Y-100270733D01*
X193347219Y-100232028D01*
X193463333Y-100232028D01*
X193540742Y-100270733D01*
X193579447Y-100309438D01*
X193618152Y-100386847D01*
X193618152Y-100619076D01*
X193579447Y-100696485D01*
X193540742Y-100735190D01*
X193463333Y-100773895D01*
X193347219Y-100773895D01*
X193850380Y-100232028D02*
X194160019Y-100232028D01*
X193966495Y-99961095D02*
X193966495Y-100657780D01*
X194005200Y-100735190D01*
X194082609Y-100773895D01*
X194160019Y-100773895D01*
X195437276Y-100773895D02*
X195050228Y-100773895D01*
X195050228Y-99961095D01*
X196056552Y-100773895D02*
X196056552Y-100348142D01*
X196017847Y-100270733D01*
X195940438Y-100232028D01*
X195785619Y-100232028D01*
X195708209Y-100270733D01*
X196056552Y-100735190D02*
X195979142Y-100773895D01*
X195785619Y-100773895D01*
X195708209Y-100735190D01*
X195669504Y-100657780D01*
X195669504Y-100580371D01*
X195708209Y-100502961D01*
X195785619Y-100464257D01*
X195979142Y-100464257D01*
X196056552Y-100425552D01*
X196327485Y-100232028D02*
X196637123Y-100232028D01*
X196443600Y-99961095D02*
X196443600Y-100657780D01*
X196482304Y-100735190D01*
X196559714Y-100773895D01*
X196637123Y-100773895D01*
X197256400Y-100735190D02*
X197178990Y-100773895D01*
X197024171Y-100773895D01*
X196946761Y-100735190D01*
X196908057Y-100696485D01*
X196869352Y-100619076D01*
X196869352Y-100386847D01*
X196908057Y-100309438D01*
X196946761Y-100270733D01*
X197024171Y-100232028D01*
X197178990Y-100232028D01*
X197256400Y-100270733D01*
X197604742Y-100773895D02*
X197604742Y-99961095D01*
X197953085Y-100773895D02*
X197953085Y-100348142D01*
X197914380Y-100270733D01*
X197836971Y-100232028D01*
X197720857Y-100232028D01*
X197643447Y-100270733D01*
X197604742Y-100309438D01*
X193695561Y-102145495D02*
X193695561Y-101332695D01*
X194237428Y-101332695D02*
X194392247Y-101332695D01*
X194469657Y-101371400D01*
X194547066Y-101448809D01*
X194585771Y-101603628D01*
X194585771Y-101874561D01*
X194547066Y-102029380D01*
X194469657Y-102106790D01*
X194392247Y-102145495D01*
X194237428Y-102145495D01*
X194160019Y-102106790D01*
X194082609Y-102029380D01*
X194043904Y-101874561D01*
X194043904Y-101603628D01*
X194082609Y-101448809D01*
X194160019Y-101371400D01*
X194237428Y-101332695D01*
X195708209Y-101332695D02*
X195785619Y-101332695D01*
X195863028Y-101371400D01*
X195901733Y-101410104D01*
X195940438Y-101487514D01*
X195979142Y-101642333D01*
X195979142Y-101835857D01*
X195940438Y-101990676D01*
X195901733Y-102068085D01*
X195863028Y-102106790D01*
X195785619Y-102145495D01*
X195708209Y-102145495D01*
X195630800Y-102106790D01*
X195592095Y-102068085D01*
X195553390Y-101990676D01*
X195514685Y-101835857D01*
X195514685Y-101642333D01*
X195553390Y-101487514D01*
X195592095Y-101410104D01*
X195630800Y-101371400D01*
X195708209Y-101332695D01*
X245780076Y-89934142D02*
X246051009Y-89934142D01*
X246167123Y-90359895D02*
X245780076Y-90359895D01*
X245780076Y-89547095D01*
X246167123Y-89547095D01*
X246515466Y-90359895D02*
X246515466Y-89547095D01*
X246979923Y-90359895D01*
X246979923Y-89547095D01*
X244638285Y-91305742D02*
X244909219Y-91305742D01*
X245025333Y-91731495D02*
X244638285Y-91731495D01*
X244638285Y-90918695D01*
X245025333Y-90918695D01*
X245334971Y-91692790D02*
X245451085Y-91731495D01*
X245644609Y-91731495D01*
X245722019Y-91692790D01*
X245760723Y-91654085D01*
X245799428Y-91576676D01*
X245799428Y-91499266D01*
X245760723Y-91421857D01*
X245722019Y-91383152D01*
X245644609Y-91344447D01*
X245489790Y-91305742D01*
X245412380Y-91267038D01*
X245373676Y-91228333D01*
X245334971Y-91150923D01*
X245334971Y-91073514D01*
X245373676Y-90996104D01*
X245412380Y-90957400D01*
X245489790Y-90918695D01*
X245683314Y-90918695D01*
X245799428Y-90957400D01*
X246147771Y-91731495D02*
X246147771Y-90918695D01*
X246457409Y-90918695D01*
X246534819Y-90957400D01*
X246573523Y-90996104D01*
X246612228Y-91073514D01*
X246612228Y-91189628D01*
X246573523Y-91267038D01*
X246534819Y-91305742D01*
X246457409Y-91344447D01*
X246147771Y-91344447D01*
X246883161Y-90918695D02*
X247386323Y-90918695D01*
X247115390Y-91228333D01*
X247231504Y-91228333D01*
X247308914Y-91267038D01*
X247347619Y-91305742D01*
X247386323Y-91383152D01*
X247386323Y-91576676D01*
X247347619Y-91654085D01*
X247308914Y-91692790D01*
X247231504Y-91731495D01*
X246999276Y-91731495D01*
X246921866Y-91692790D01*
X246883161Y-91654085D01*
X247695961Y-90996104D02*
X247734666Y-90957400D01*
X247812076Y-90918695D01*
X248005600Y-90918695D01*
X248083009Y-90957400D01*
X248121714Y-90996104D01*
X248160419Y-91073514D01*
X248160419Y-91150923D01*
X248121714Y-91267038D01*
X247657257Y-91731495D01*
X248160419Y-91731495D01*
X262391676Y-119773095D02*
X262894838Y-119773095D01*
X262623904Y-120082733D01*
X262740019Y-120082733D01*
X262817428Y-120121438D01*
X262856133Y-120160142D01*
X262894838Y-120237552D01*
X262894838Y-120431076D01*
X262856133Y-120508485D01*
X262817428Y-120547190D01*
X262740019Y-120585895D01*
X262507790Y-120585895D01*
X262430380Y-120547190D01*
X262391676Y-120508485D01*
X263127066Y-119773095D02*
X263398000Y-120585895D01*
X263668933Y-119773095D01*
X263862457Y-119773095D02*
X264365619Y-119773095D01*
X264094685Y-120082733D01*
X264210800Y-120082733D01*
X264288209Y-120121438D01*
X264326914Y-120160142D01*
X264365619Y-120237552D01*
X264365619Y-120431076D01*
X264326914Y-120508485D01*
X264288209Y-120547190D01*
X264210800Y-120585895D01*
X263978571Y-120585895D01*
X263901161Y-120547190D01*
X263862457Y-120508485D01*
X262043333Y-121531742D02*
X261772400Y-121531742D01*
X261772400Y-121957495D02*
X261772400Y-121144695D01*
X262159447Y-121144695D01*
X262352971Y-121144695D02*
X262817428Y-121144695D01*
X262585200Y-121957495D02*
X262585200Y-121144695D01*
X263049657Y-121222104D02*
X263088361Y-121183400D01*
X263165771Y-121144695D01*
X263359295Y-121144695D01*
X263436704Y-121183400D01*
X263475409Y-121222104D01*
X263514114Y-121299514D01*
X263514114Y-121376923D01*
X263475409Y-121493038D01*
X263010952Y-121957495D01*
X263514114Y-121957495D01*
X263785047Y-121144695D02*
X264288209Y-121144695D01*
X264017276Y-121454333D01*
X264133390Y-121454333D01*
X264210800Y-121493038D01*
X264249504Y-121531742D01*
X264288209Y-121609152D01*
X264288209Y-121802676D01*
X264249504Y-121880085D01*
X264210800Y-121918790D01*
X264133390Y-121957495D01*
X263901161Y-121957495D01*
X263823752Y-121918790D01*
X263785047Y-121880085D01*
X264597847Y-121222104D02*
X264636552Y-121183400D01*
X264713961Y-121144695D01*
X264907485Y-121144695D01*
X264984895Y-121183400D01*
X265023600Y-121222104D01*
X265062304Y-121299514D01*
X265062304Y-121376923D01*
X265023600Y-121493038D01*
X264559142Y-121957495D01*
X265062304Y-121957495D01*
X201990476Y-133622142D02*
X202106590Y-133660847D01*
X202145295Y-133699552D01*
X202184000Y-133776961D01*
X202184000Y-133893076D01*
X202145295Y-133970485D01*
X202106590Y-134009190D01*
X202029180Y-134047895D01*
X201719542Y-134047895D01*
X201719542Y-133235095D01*
X201990476Y-133235095D01*
X202067885Y-133273800D01*
X202106590Y-133312504D01*
X202145295Y-133389914D01*
X202145295Y-133467323D01*
X202106590Y-133544733D01*
X202067885Y-133583438D01*
X201990476Y-133622142D01*
X201719542Y-133622142D01*
X202919390Y-134047895D02*
X202532342Y-134047895D01*
X202532342Y-133235095D01*
X204196647Y-134047895D02*
X203809600Y-134047895D01*
X203809600Y-133235095D01*
X204815923Y-134047895D02*
X204815923Y-133622142D01*
X204777219Y-133544733D01*
X204699809Y-133506028D01*
X204544990Y-133506028D01*
X204467580Y-133544733D01*
X204815923Y-134009190D02*
X204738514Y-134047895D01*
X204544990Y-134047895D01*
X204467580Y-134009190D01*
X204428876Y-133931780D01*
X204428876Y-133854371D01*
X204467580Y-133776961D01*
X204544990Y-133738257D01*
X204738514Y-133738257D01*
X204815923Y-133699552D01*
X205086857Y-133506028D02*
X205396495Y-133506028D01*
X205202971Y-133235095D02*
X205202971Y-133931780D01*
X205241676Y-134009190D01*
X205319085Y-134047895D01*
X205396495Y-134047895D01*
X206015771Y-134009190D02*
X205938361Y-134047895D01*
X205783542Y-134047895D01*
X205706133Y-134009190D01*
X205667428Y-133970485D01*
X205628723Y-133893076D01*
X205628723Y-133660847D01*
X205667428Y-133583438D01*
X205706133Y-133544733D01*
X205783542Y-133506028D01*
X205938361Y-133506028D01*
X206015771Y-133544733D01*
X206364114Y-134047895D02*
X206364114Y-133235095D01*
X206712457Y-134047895D02*
X206712457Y-133622142D01*
X206673752Y-133544733D01*
X206596342Y-133506028D01*
X206480228Y-133506028D01*
X206402819Y-133544733D01*
X206364114Y-133583438D01*
X203403200Y-135419495D02*
X203403200Y-134606695D01*
X203945066Y-134606695D02*
X204099885Y-134606695D01*
X204177295Y-134645400D01*
X204254704Y-134722809D01*
X204293409Y-134877628D01*
X204293409Y-135148561D01*
X204254704Y-135303380D01*
X204177295Y-135380790D01*
X204099885Y-135419495D01*
X203945066Y-135419495D01*
X203867657Y-135380790D01*
X203790247Y-135303380D01*
X203751542Y-135148561D01*
X203751542Y-134877628D01*
X203790247Y-134722809D01*
X203867657Y-134645400D01*
X203945066Y-134606695D01*
X204796571Y-134606695D02*
X204873980Y-134606695D01*
X204951390Y-134645400D01*
X204990095Y-134684104D01*
X205028800Y-134761514D01*
X205067504Y-134916333D01*
X205067504Y-135109857D01*
X205028800Y-135264676D01*
X204990095Y-135342085D01*
X204951390Y-135380790D01*
X204873980Y-135419495D01*
X204796571Y-135419495D01*
X204719161Y-135380790D01*
X204680457Y-135342085D01*
X204641752Y-135264676D01*
X204603047Y-135109857D01*
X204603047Y-134916333D01*
X204641752Y-134761514D01*
X204680457Y-134684104D01*
X204719161Y-134645400D01*
X204796571Y-134606695D01*
X208652533Y-134479695D02*
X208381600Y-134092647D01*
X208188076Y-134479695D02*
X208188076Y-133666895D01*
X208497714Y-133666895D01*
X208575123Y-133705600D01*
X208613828Y-133744304D01*
X208652533Y-133821714D01*
X208652533Y-133937828D01*
X208613828Y-134015238D01*
X208575123Y-134053942D01*
X208497714Y-134092647D01*
X208188076Y-134092647D01*
X208923466Y-133666895D02*
X209465333Y-134479695D01*
X209465333Y-133666895D02*
X208923466Y-134479695D01*
X212740723Y-133666895D02*
X213205180Y-133666895D01*
X212972952Y-134479695D02*
X212972952Y-133666895D01*
X213398704Y-133666895D02*
X213940571Y-134479695D01*
X213940571Y-133666895D02*
X213398704Y-134479695D01*
X216925676Y-133666895D02*
X217428838Y-133666895D01*
X217157904Y-133976533D01*
X217274019Y-133976533D01*
X217351428Y-134015238D01*
X217390133Y-134053942D01*
X217428838Y-134131352D01*
X217428838Y-134324876D01*
X217390133Y-134402285D01*
X217351428Y-134440990D01*
X217274019Y-134479695D01*
X217041790Y-134479695D01*
X216964380Y-134440990D01*
X216925676Y-134402285D01*
X217661066Y-133666895D02*
X217932000Y-134479695D01*
X218202933Y-133666895D01*
X218396457Y-133666895D02*
X218899619Y-133666895D01*
X218628685Y-133976533D01*
X218744800Y-133976533D01*
X218822209Y-134015238D01*
X218860914Y-134053942D01*
X218899619Y-134131352D01*
X218899619Y-134324876D01*
X218860914Y-134402285D01*
X218822209Y-134440990D01*
X218744800Y-134479695D01*
X218512571Y-134479695D01*
X218435161Y-134440990D01*
X218396457Y-134402285D01*
X240448495Y-134424057D02*
X241067771Y-134424057D01*
X240758133Y-134733695D02*
X240758133Y-134114419D01*
X241841866Y-133920895D02*
X241454819Y-133920895D01*
X241416114Y-134307942D01*
X241454819Y-134269238D01*
X241532228Y-134230533D01*
X241725752Y-134230533D01*
X241803161Y-134269238D01*
X241841866Y-134307942D01*
X241880571Y-134385352D01*
X241880571Y-134578876D01*
X241841866Y-134656285D01*
X241803161Y-134694990D01*
X241725752Y-134733695D01*
X241532228Y-134733695D01*
X241454819Y-134694990D01*
X241416114Y-134656285D01*
X242112800Y-133920895D02*
X242383733Y-134733695D01*
X242654666Y-133920895D01*
X243544876Y-134733695D02*
X243544876Y-133920895D01*
X243931923Y-134191828D02*
X243931923Y-134733695D01*
X243931923Y-134269238D02*
X243970628Y-134230533D01*
X244048038Y-134191828D01*
X244164152Y-134191828D01*
X244241561Y-134230533D01*
X244280266Y-134307942D01*
X244280266Y-134733695D01*
X244667314Y-134191828D02*
X244667314Y-135004628D01*
X244667314Y-134230533D02*
X244744723Y-134191828D01*
X244899542Y-134191828D01*
X244976952Y-134230533D01*
X245015657Y-134269238D01*
X245054361Y-134346647D01*
X245054361Y-134578876D01*
X245015657Y-134656285D01*
X244976952Y-134694990D01*
X244899542Y-134733695D01*
X244744723Y-134733695D01*
X244667314Y-134694990D01*
X245751047Y-134191828D02*
X245751047Y-134733695D01*
X245402704Y-134191828D02*
X245402704Y-134617580D01*
X245441409Y-134694990D01*
X245518819Y-134733695D01*
X245634933Y-134733695D01*
X245712342Y-134694990D01*
X245751047Y-134656285D01*
X246021980Y-134191828D02*
X246331619Y-134191828D01*
X246138095Y-133920895D02*
X246138095Y-134617580D01*
X246176800Y-134694990D01*
X246254209Y-134733695D01*
X246331619Y-134733695D01*
D12*
X82767714Y-103378000D02*
X83493428Y-103378000D01*
X82622571Y-103813428D02*
X83130571Y-102289428D01*
X83638571Y-103813428D01*
X84146571Y-102289428D02*
X84146571Y-103523142D01*
X84219142Y-103668285D01*
X84291714Y-103740857D01*
X84436857Y-103813428D01*
X84727142Y-103813428D01*
X84872285Y-103740857D01*
X84944857Y-103668285D01*
X85017428Y-103523142D01*
X85017428Y-102289428D01*
X85598000Y-102289428D02*
X86614000Y-103813428D01*
X86614000Y-102289428D02*
X85598000Y-103813428D01*
X88283142Y-103740857D02*
X88500857Y-103813428D01*
X88863714Y-103813428D01*
X89008857Y-103740857D01*
X89081428Y-103668285D01*
X89154000Y-103523142D01*
X89154000Y-103378000D01*
X89081428Y-103232857D01*
X89008857Y-103160285D01*
X88863714Y-103087714D01*
X88573428Y-103015142D01*
X88428285Y-102942571D01*
X88355714Y-102870000D01*
X88283142Y-102724857D01*
X88283142Y-102579714D01*
X88355714Y-102434571D01*
X88428285Y-102362000D01*
X88573428Y-102289428D01*
X88936285Y-102289428D01*
X89154000Y-102362000D01*
X89662000Y-102797428D02*
X89952285Y-103813428D01*
X90242571Y-103087714D01*
X90532857Y-103813428D01*
X90823142Y-102797428D01*
X91403714Y-103813428D02*
X91403714Y-102797428D01*
X91403714Y-102289428D02*
X91331142Y-102362000D01*
X91403714Y-102434571D01*
X91476285Y-102362000D01*
X91403714Y-102289428D01*
X91403714Y-102434571D01*
X91911714Y-102797428D02*
X92492285Y-102797428D01*
X92129428Y-102289428D02*
X92129428Y-103595714D01*
X92202000Y-103740857D01*
X92347142Y-103813428D01*
X92492285Y-103813428D01*
X93653428Y-103740857D02*
X93508285Y-103813428D01*
X93218000Y-103813428D01*
X93072857Y-103740857D01*
X93000285Y-103668285D01*
X92927714Y-103523142D01*
X92927714Y-103087714D01*
X93000285Y-102942571D01*
X93072857Y-102870000D01*
X93218000Y-102797428D01*
X93508285Y-102797428D01*
X93653428Y-102870000D01*
X94306571Y-103813428D02*
X94306571Y-102289428D01*
X94959714Y-103813428D02*
X94959714Y-103015142D01*
X94887142Y-102870000D01*
X94742000Y-102797428D01*
X94524285Y-102797428D01*
X94379142Y-102870000D01*
X94306571Y-102942571D01*
X156572857Y-97136857D02*
X156790571Y-97209428D01*
X157153428Y-97209428D01*
X157298571Y-97136857D01*
X157371142Y-97064285D01*
X157443714Y-96919142D01*
X157443714Y-96774000D01*
X157371142Y-96628857D01*
X157298571Y-96556285D01*
X157153428Y-96483714D01*
X156863142Y-96411142D01*
X156718000Y-96338571D01*
X156645428Y-96266000D01*
X156572857Y-96120857D01*
X156572857Y-95975714D01*
X156645428Y-95830571D01*
X156718000Y-95758000D01*
X156863142Y-95685428D01*
X157226000Y-95685428D01*
X157443714Y-95758000D01*
X158096857Y-96193428D02*
X158096857Y-97717428D01*
X158096857Y-96266000D02*
X158242000Y-96193428D01*
X158532285Y-96193428D01*
X158677428Y-96266000D01*
X158750000Y-96338571D01*
X158822571Y-96483714D01*
X158822571Y-96919142D01*
X158750000Y-97064285D01*
X158677428Y-97136857D01*
X158532285Y-97209428D01*
X158242000Y-97209428D01*
X158096857Y-97136857D01*
X160056285Y-97136857D02*
X159911142Y-97209428D01*
X159620857Y-97209428D01*
X159475714Y-97136857D01*
X159403142Y-96991714D01*
X159403142Y-96411142D01*
X159475714Y-96266000D01*
X159620857Y-96193428D01*
X159911142Y-96193428D01*
X160056285Y-96266000D01*
X160128857Y-96411142D01*
X160128857Y-96556285D01*
X159403142Y-96701428D01*
X161435142Y-97209428D02*
X161435142Y-96411142D01*
X161362571Y-96266000D01*
X161217428Y-96193428D01*
X160927142Y-96193428D01*
X160782000Y-96266000D01*
X161435142Y-97136857D02*
X161290000Y-97209428D01*
X160927142Y-97209428D01*
X160782000Y-97136857D01*
X160709428Y-96991714D01*
X160709428Y-96846571D01*
X160782000Y-96701428D01*
X160927142Y-96628857D01*
X161290000Y-96628857D01*
X161435142Y-96556285D01*
X162160857Y-97209428D02*
X162160857Y-95685428D01*
X162306000Y-96628857D02*
X162741428Y-97209428D01*
X162741428Y-96193428D02*
X162160857Y-96774000D01*
X163975142Y-97136857D02*
X163830000Y-97209428D01*
X163539714Y-97209428D01*
X163394571Y-97136857D01*
X163322000Y-96991714D01*
X163322000Y-96411142D01*
X163394571Y-96266000D01*
X163539714Y-96193428D01*
X163830000Y-96193428D01*
X163975142Y-96266000D01*
X164047714Y-96411142D01*
X164047714Y-96556285D01*
X163322000Y-96701428D01*
X164700857Y-97209428D02*
X164700857Y-96193428D01*
X164700857Y-96483714D02*
X164773428Y-96338571D01*
X164846000Y-96266000D01*
X164991142Y-96193428D01*
X165136285Y-96193428D01*
D13*
X257050228Y-109220000D02*
G75*
G03*
X257050228Y-109220000I-14480228J0D01*
G01*
D14*
%TO.C,LOGO1*%
X259525532Y-111047725D02*
X259525532Y-110537092D01*
X258961944Y-110399940D02*
X259080000Y-110490000D01*
X258976268Y-110379972D02*
X258961944Y-110399940D01*
X259067636Y-110315300D02*
X258976268Y-110379972D01*
X259177656Y-110290780D02*
X259067636Y-110315300D01*
X259214336Y-110290780D02*
X259177656Y-110290780D01*
X259245800Y-110290780D02*
X259214336Y-110290780D01*
X259340632Y-110303152D02*
X259245800Y-110290780D01*
X259438944Y-110344600D02*
X259340632Y-110303152D01*
X259502743Y-110420772D02*
X259438944Y-110344600D01*
X259525532Y-110508012D02*
X259502743Y-110420772D01*
X263702864Y-106579848D02*
X263702864Y-106579848D01*
X263702864Y-106062488D02*
X263702864Y-106579848D01*
X263109944Y-105952248D02*
X263702864Y-106062488D01*
X263099064Y-105949848D02*
X263109944Y-105952248D01*
X263021424Y-105910808D02*
X263099064Y-105949848D01*
X263015344Y-105905808D02*
X263021424Y-105910808D01*
X263009704Y-105900808D02*
X263015344Y-105905808D01*
X262962824Y-105837648D02*
X263009704Y-105900808D01*
X262959104Y-105828968D02*
X262962824Y-105837648D01*
X262749064Y-105339168D02*
X262959104Y-105828968D01*
X262745784Y-105331768D02*
X262749064Y-105339168D01*
X262731904Y-105263448D02*
X262745784Y-105331768D01*
X262731904Y-105256968D02*
X262731904Y-105263448D01*
X262732144Y-105247608D02*
X262731904Y-105256968D01*
X262759704Y-105152328D02*
X262732144Y-105247608D01*
X262766624Y-105142128D02*
X262759704Y-105152328D01*
X263112784Y-104637768D02*
X262766624Y-105142128D01*
X262746904Y-104271888D02*
X263112784Y-104637768D01*
X262232144Y-104625168D02*
X262746904Y-104271888D01*
X262221264Y-104632128D02*
X262232144Y-104625168D01*
X262125584Y-104659488D02*
X262221264Y-104632128D01*
X262116464Y-104659888D02*
X262125584Y-104659488D01*
X262110184Y-104659728D02*
X262116464Y-104659888D01*
X262044424Y-104646888D02*
X262110184Y-104659728D01*
X262037024Y-104643848D02*
X262044424Y-104646888D01*
X261563943Y-104450048D02*
X262037024Y-104643848D01*
X261554624Y-104446408D02*
X261563943Y-104450048D01*
X261488864Y-104399048D02*
X261554624Y-104446408D01*
X261483864Y-104393608D02*
X261488864Y-104399048D01*
X261478663Y-104387328D02*
X261483864Y-104393608D01*
X261438944Y-104309008D02*
X261478663Y-104387328D01*
X261436772Y-104298168D02*
X261438944Y-104309008D01*
X261322188Y-103681848D02*
X261436772Y-104298168D01*
X260804828Y-103681848D02*
X261322188Y-103681848D01*
X260690028Y-104298608D02*
X260804828Y-103681848D01*
X260687640Y-104309208D02*
X260690028Y-104298608D01*
X260648144Y-104387328D02*
X260687640Y-104309208D01*
X260643152Y-104393448D02*
X260648144Y-104387328D01*
X260638160Y-104398848D02*
X260643152Y-104393448D01*
X260572840Y-104446168D02*
X260638160Y-104398848D01*
X260563728Y-104449848D02*
X260572840Y-104446168D01*
X260090632Y-104643448D02*
X260563728Y-104449848D01*
X260083040Y-104646448D02*
X260090632Y-104643448D01*
X260016416Y-104659488D02*
X260083040Y-104646448D01*
X260010340Y-104659728D02*
X260016416Y-104659488D01*
X260001008Y-104659488D02*
X260010340Y-104659728D01*
X259905308Y-104631968D02*
X260001008Y-104659488D01*
X259894672Y-104625008D02*
X259905308Y-104631968D01*
X259380136Y-104271888D02*
X259894672Y-104625008D01*
X259014244Y-104637768D02*
X259380136Y-104271888D01*
X259360816Y-105142568D02*
X259014244Y-104637768D01*
X259367544Y-105152968D02*
X259360816Y-105142568D01*
X259394672Y-105247768D02*
X259367544Y-105152968D01*
X259394888Y-105256968D02*
X259394672Y-105247768D01*
X259394672Y-105263448D02*
X259394888Y-105256968D01*
X259380136Y-105333968D02*
X259394672Y-105263448D01*
X259376660Y-105341768D02*
X259380136Y-105333968D01*
X259167896Y-105828768D02*
X259376660Y-105341768D01*
X259164200Y-105837448D02*
X259167896Y-105828768D01*
X259117112Y-105900808D02*
X259164200Y-105837448D01*
X259111684Y-105905808D02*
X259117112Y-105900808D01*
X259105612Y-105910808D02*
X259111684Y-105905808D01*
X259027484Y-105949848D02*
X259105612Y-105910808D01*
X259016852Y-105952008D02*
X259027484Y-105949848D01*
X258424184Y-106062488D02*
X259016852Y-105952008D01*
X258424184Y-106579848D02*
X258424184Y-106062488D01*
X258999708Y-106686808D02*
X258424184Y-106579848D01*
X259010556Y-106689008D02*
X258999708Y-106686808D01*
X259089984Y-106729368D02*
X259010556Y-106689008D01*
X259096280Y-106734808D02*
X259089984Y-106729368D01*
X259101700Y-106739768D02*
X259096280Y-106734808D01*
X259148360Y-106805328D02*
X259101700Y-106739768D01*
X259151836Y-106814648D02*
X259148360Y-106805328D01*
X259359300Y-107332876D02*
X259151836Y-106814648D01*
X259362340Y-107340260D02*
X259359300Y-107332876D01*
X259375356Y-107406884D02*
X259362340Y-107340260D01*
X259375572Y-107412960D02*
X259375356Y-107406884D01*
X259375356Y-107422288D02*
X259375572Y-107412960D01*
X259347580Y-107517996D02*
X259375356Y-107422288D01*
X259340632Y-107528628D02*
X259347580Y-107517996D01*
X259014244Y-108004540D02*
X259340632Y-107528628D01*
X259380136Y-108370424D02*
X259014244Y-108004540D01*
X259845844Y-108050760D02*
X259380136Y-108370424D01*
X259856044Y-108043816D02*
X259845844Y-108050760D01*
X259949580Y-108016472D02*
X259856044Y-108043816D01*
X259958688Y-108016472D02*
X259949580Y-108016472D01*
X259965852Y-108016472D02*
X259958688Y-108016472D01*
X260045060Y-108035356D02*
X259965852Y-108016472D01*
X260053744Y-108040128D02*
X260045060Y-108035356D01*
X260174616Y-108104800D02*
X260053744Y-108040128D01*
X260580652Y-107123680D02*
X260174616Y-108104800D01*
X260578052Y-107121728D02*
X260580652Y-107123680D01*
X260555044Y-107103496D02*
X260578052Y-107121728D01*
X260552872Y-107101544D02*
X260555044Y-107103496D01*
X260506000Y-107070728D02*
X260552872Y-107101544D01*
X260381000Y-106955928D02*
X260506000Y-107070728D01*
X260248840Y-106772768D02*
X260381000Y-106955928D01*
X260163768Y-106559888D02*
X260248840Y-106772768D01*
X260133824Y-106383648D02*
X260163768Y-106559888D01*
X260133824Y-106325048D02*
X260133824Y-106383648D01*
X260133824Y-106234568D02*
X260133824Y-106325048D01*
X260206956Y-105963088D02*
X260133824Y-106234568D01*
X260406172Y-105667728D02*
X260206956Y-105963088D01*
X260701528Y-105468488D02*
X260406172Y-105667728D01*
X260973012Y-105395408D02*
X260701528Y-105468488D01*
X261063508Y-105395408D02*
X260973012Y-105395408D01*
X261153784Y-105395408D02*
X261063508Y-105395408D01*
X261425272Y-105468488D02*
X261153784Y-105395408D01*
X261720624Y-105667728D02*
X261425272Y-105468488D01*
X261919864Y-105963088D02*
X261720624Y-105667728D01*
X261993184Y-106234568D02*
X261919864Y-105963088D01*
X261993184Y-106325048D02*
X261993184Y-106234568D01*
X261993184Y-106383648D02*
X261993184Y-106325048D01*
X261963024Y-106559888D02*
X261993184Y-106383648D01*
X261877944Y-106772768D02*
X261963024Y-106559888D01*
X261745784Y-106955928D02*
X261877944Y-106772768D01*
X261620784Y-107070728D02*
X261745784Y-106955928D01*
X261574144Y-107101544D02*
X261620784Y-107070728D01*
X261571744Y-107103496D02*
X261574144Y-107101544D01*
X261548743Y-107121728D02*
X261571744Y-107103496D01*
X261546384Y-107123680D02*
X261548743Y-107121728D01*
X261952384Y-108104800D02*
X261546384Y-107123680D01*
X262073264Y-108040128D02*
X261952384Y-108104800D01*
X262081744Y-108035356D02*
X262073264Y-108040128D01*
X262160504Y-108016472D02*
X262081744Y-108035356D01*
X262168104Y-108016472D02*
X262160504Y-108016472D01*
X262177024Y-108016472D02*
X262168104Y-108016472D01*
X262270744Y-108043816D02*
X262177024Y-108016472D01*
X262280944Y-108050544D02*
X262270744Y-108043816D01*
X262746904Y-108370424D02*
X262280944Y-108050544D01*
X263112784Y-108004540D02*
X262746904Y-108370424D01*
X262786384Y-107528844D02*
X263112784Y-108004540D01*
X262779224Y-107518212D02*
X262786384Y-107528844D01*
X262751664Y-107422288D02*
X262779224Y-107518212D01*
X262751464Y-107412960D02*
X262751664Y-107422288D01*
X262751464Y-107406884D02*
X262751464Y-107412960D01*
X262764264Y-107340476D02*
X262751464Y-107406884D01*
X262767704Y-107332876D02*
X262764264Y-107340476D01*
X262974744Y-106815528D02*
X262767704Y-107332876D01*
X262978224Y-106806208D02*
X262974744Y-106815528D01*
X263024864Y-106740008D02*
X262978224Y-106806208D01*
X263030504Y-106735008D02*
X263024864Y-106740008D01*
X263036584Y-106729568D02*
X263030504Y-106735008D01*
X263115784Y-106689008D02*
X263036584Y-106729568D01*
X263126864Y-106687048D02*
X263115784Y-106689008D01*
X263702864Y-106579848D02*
X263126864Y-106687048D01*
X263822624Y-105915328D02*
X263822624Y-105915328D01*
X263826744Y-105916008D02*
X263822624Y-105915328D01*
X263852784Y-105942688D02*
X263826744Y-105916008D01*
X263852784Y-105952008D02*
X263852784Y-105942688D01*
X263852784Y-106656888D02*
X263852784Y-105952008D01*
X263852784Y-106665768D02*
X263852784Y-106656888D01*
X263826504Y-106692688D02*
X263852784Y-106665768D01*
X263822424Y-106693568D02*
X263826504Y-106692688D01*
X263154224Y-106817888D02*
X263822424Y-106693568D01*
X263149904Y-106818568D02*
X263154224Y-106817888D01*
X263115784Y-106848928D02*
X263149904Y-106818568D01*
X263114504Y-106853048D02*
X263115784Y-106848928D01*
X262905944Y-107374112D02*
X263114504Y-106853048D01*
X262904024Y-107377800D02*
X262905944Y-107374112D01*
X262907464Y-107423596D02*
X262904024Y-107377800D01*
X262909864Y-107427284D02*
X262907464Y-107423596D01*
X263289424Y-107980232D02*
X262909864Y-107427284D01*
X263291784Y-107983704D02*
X263289424Y-107980232D01*
X263288144Y-108024504D02*
X263291784Y-107983704D01*
X263285064Y-108027544D02*
X263288144Y-108024504D01*
X262786584Y-108526024D02*
X263285064Y-108027544D01*
X262783544Y-108528844D02*
X262786584Y-108526024D01*
X262742744Y-108532752D02*
X262783544Y-108528844D01*
X262739304Y-108530360D02*
X262742744Y-108532752D01*
X262195904Y-108157532D02*
X262739304Y-108530360D01*
X262192424Y-108155144D02*
X262195904Y-108157532D01*
X262147504Y-108153628D02*
X262192424Y-108155144D01*
X262143824Y-108155796D02*
X262147504Y-108153628D01*
X261904224Y-108283616D02*
X262143824Y-108155796D01*
X261900304Y-108285572D02*
X261904224Y-108283616D01*
X261866464Y-108273200D02*
X261900304Y-108285572D01*
X261864944Y-108269296D02*
X261866464Y-108273200D01*
X261371016Y-107075500D02*
X261864944Y-108269296D01*
X261369284Y-107071596D02*
X261371016Y-107075500D01*
X261381868Y-107033168D02*
X261369284Y-107071596D01*
X261385556Y-107031008D02*
X261381868Y-107033168D01*
X261445452Y-106994128D02*
X261385556Y-107031008D01*
X261448056Y-106992368D02*
X261445452Y-106994128D01*
X261480184Y-106967848D02*
X261448056Y-106992368D01*
X261483224Y-106965248D02*
X261480184Y-106967848D01*
X261523144Y-106939648D02*
X261483224Y-106965248D01*
X261630584Y-106842848D02*
X261523144Y-106939648D01*
X261744064Y-106688128D02*
X261630584Y-106842848D01*
X261817184Y-106507808D02*
X261744064Y-106688128D01*
X261843024Y-106358048D02*
X261817184Y-106507808D01*
X261843024Y-106308368D02*
X261843024Y-106358048D01*
X261843024Y-106269088D02*
X261843024Y-106308368D01*
X261827184Y-106151248D02*
X261843024Y-106269088D01*
X261781624Y-106004768D02*
X261827184Y-106151248D01*
X261709784Y-105872368D02*
X261781624Y-106004768D01*
X261614704Y-105757128D02*
X261709784Y-105872368D01*
X261499263Y-105661888D02*
X261614704Y-105757128D01*
X261366896Y-105590048D02*
X261499263Y-105661888D01*
X261220412Y-105544448D02*
X261366896Y-105590048D01*
X261102572Y-105528848D02*
X261220412Y-105544448D01*
X261063508Y-105528848D02*
X261102572Y-105528848D01*
X261024012Y-105528848D02*
X261063508Y-105528848D01*
X260906172Y-105544448D02*
X261024012Y-105528848D01*
X260759908Y-105590048D02*
X260906172Y-105544448D01*
X260627528Y-105661888D02*
X260759908Y-105590048D01*
X260512080Y-105757128D02*
X260627528Y-105661888D01*
X260416808Y-105872368D02*
X260512080Y-105757128D01*
X260344980Y-106004768D02*
X260416808Y-105872368D01*
X260299616Y-106151248D02*
X260344980Y-106004768D01*
X260283780Y-106269088D02*
X260299616Y-106151248D01*
X260283780Y-106308368D02*
X260283780Y-106269088D01*
X260283780Y-106358048D02*
X260283780Y-106308368D01*
X260309600Y-106507808D02*
X260283780Y-106358048D01*
X260382516Y-106688128D02*
X260309600Y-106507808D01*
X260496016Y-106842848D02*
X260382516Y-106688128D01*
X260603440Y-106939448D02*
X260496016Y-106842848D01*
X260643588Y-106965248D02*
X260603440Y-106939448D01*
X260646408Y-106967848D02*
X260643588Y-106965248D01*
X260678744Y-106992368D02*
X260646408Y-106967848D01*
X260681560Y-106994128D02*
X260678744Y-106992368D01*
X260741460Y-107031008D02*
X260681560Y-106994128D01*
X260744932Y-107033168D02*
X260741460Y-107031008D01*
X260757516Y-107071596D02*
X260744932Y-107033168D01*
X260756000Y-107075500D02*
X260757516Y-107071596D01*
X260262080Y-108269080D02*
X260756000Y-107075500D01*
X260260340Y-108272984D02*
X260262080Y-108269080D01*
X260226268Y-108285572D02*
X260260340Y-108272984D01*
X260222580Y-108283616D02*
X260226268Y-108285572D01*
X259982996Y-108155796D02*
X260222580Y-108283616D01*
X259979308Y-108153628D02*
X259982996Y-108155796D01*
X259934384Y-108155144D02*
X259979308Y-108153628D01*
X259930912Y-108157532D02*
X259934384Y-108155144D01*
X259387728Y-108530360D02*
X259930912Y-108157532D01*
X259384040Y-108532752D02*
X259387728Y-108530360D01*
X259343240Y-108528844D02*
X259384040Y-108532752D01*
X259340416Y-108526024D02*
X259343240Y-108528844D01*
X258841940Y-108027544D02*
X259340416Y-108526024D01*
X258838900Y-108024504D02*
X258841940Y-108027544D01*
X258834996Y-107983704D02*
X258838900Y-108024504D01*
X258837380Y-107980232D02*
X258834996Y-107983704D01*
X259216940Y-107427068D02*
X258837380Y-107980232D01*
X259219324Y-107423596D02*
X259216940Y-107427068D01*
X259222580Y-107377584D02*
X259219324Y-107423596D01*
X259220844Y-107373896D02*
X259222580Y-107377584D01*
X259012296Y-106852848D02*
X259220844Y-107373896D01*
X259010988Y-106848728D02*
X259012296Y-106852848D01*
X258976700Y-106818328D02*
X259010988Y-106848728D01*
X258972580Y-106817688D02*
X258976700Y-106818328D01*
X258304612Y-106693568D02*
X258972580Y-106817688D01*
X258300272Y-106692688D02*
X258304612Y-106693568D01*
X258274228Y-106666008D02*
X258300272Y-106692688D01*
X258274228Y-106656888D02*
X258274228Y-106666008D01*
X258274228Y-105952008D02*
X258274228Y-106656888D01*
X258274228Y-105942888D02*
X258274228Y-105952008D01*
X258300272Y-105916008D02*
X258274228Y-105942888D01*
X258304612Y-105915328D02*
X258300272Y-105916008D01*
X258989508Y-105787968D02*
X258304612Y-105915328D01*
X258993628Y-105787088D02*
X258989508Y-105787968D01*
X259028352Y-105756928D02*
X258993628Y-105787088D01*
X259029872Y-105753008D02*
X259028352Y-105756928D01*
X259239940Y-105263208D02*
X259029872Y-105753008D01*
X259241896Y-105259328D02*
X259239940Y-105263208D01*
X259239072Y-105213728D02*
X259241896Y-105259328D01*
X259236684Y-105210288D02*
X259239072Y-105213728D01*
X258837596Y-104628688D02*
X259236684Y-105210288D01*
X258834996Y-104625008D02*
X258837596Y-104628688D01*
X258838900Y-104584168D02*
X258834996Y-104625008D01*
X258841940Y-104581328D02*
X258838900Y-104584168D01*
X259340416Y-104082888D02*
X258841940Y-104581328D01*
X259343240Y-104079848D02*
X259340416Y-104082888D01*
X259384040Y-104075968D02*
X259343240Y-104079848D01*
X259387728Y-104078568D02*
X259384040Y-104075968D01*
X259979524Y-104484568D02*
X259387728Y-104078568D01*
X259982996Y-104486968D02*
X259979524Y-104484568D01*
X260029008Y-104490248D02*
X259982996Y-104486968D01*
X260032912Y-104488488D02*
X260029008Y-104490248D01*
X260507732Y-104294048D02*
X260032912Y-104488488D01*
X260511644Y-104292728D02*
X260507732Y-104294048D01*
X260541808Y-104258208D02*
X260511644Y-104292728D01*
X260542672Y-104254128D02*
X260541808Y-104258208D01*
X260674616Y-103545568D02*
X260542672Y-104254128D01*
X260675272Y-103541208D02*
X260674616Y-103545568D01*
X260701960Y-103515168D02*
X260675272Y-103541208D01*
X260711080Y-103515168D02*
X260701960Y-103515168D01*
X261415940Y-103515168D02*
X260711080Y-103515168D01*
X261424840Y-103515168D02*
X261415940Y-103515168D01*
X261451744Y-103541208D02*
X261424840Y-103515168D01*
X261452616Y-103545568D02*
X261451744Y-103541208D01*
X261584344Y-104254128D02*
X261452616Y-103545568D01*
X261584984Y-104258208D02*
X261584344Y-104254128D01*
X261615384Y-104292728D02*
X261584984Y-104258208D01*
X261619503Y-104294048D02*
X261615384Y-104292728D01*
X262094304Y-104488488D02*
X261619503Y-104294048D01*
X262098024Y-104490248D02*
X262094304Y-104488488D01*
X262143824Y-104486968D02*
X262098024Y-104490248D01*
X262147504Y-104484568D02*
X262143824Y-104486968D01*
X262739304Y-104078568D02*
X262147504Y-104484568D01*
X262742744Y-104075968D02*
X262739304Y-104078568D01*
X262783544Y-104079848D02*
X262742744Y-104075968D01*
X262786584Y-104082888D02*
X262783544Y-104079848D01*
X263285064Y-104581328D02*
X262786584Y-104082888D01*
X263288144Y-104584168D02*
X263285064Y-104581328D01*
X263291784Y-104625008D02*
X263288144Y-104584168D01*
X263289424Y-104628688D02*
X263291784Y-104625008D01*
X262890344Y-105210288D02*
X263289424Y-104628688D01*
X262887944Y-105213728D02*
X262890344Y-105210288D01*
X262885104Y-105259328D02*
X262887944Y-105213728D01*
X262887064Y-105263208D02*
X262885104Y-105259328D01*
X263096904Y-105753008D02*
X262887064Y-105263208D01*
X263098224Y-105756928D02*
X263096904Y-105753008D01*
X263133184Y-105787088D02*
X263098224Y-105756928D01*
X263137504Y-105787968D02*
X263133184Y-105787088D01*
X263822624Y-105915328D02*
X263137504Y-105787968D01*
X258219980Y-111047725D02*
X258219980Y-111047725D01*
X258370368Y-111047725D02*
X258219980Y-111047725D01*
X258370368Y-110602196D02*
X258370368Y-111047725D01*
X258370368Y-110572464D02*
X258370368Y-110602196D01*
X258412684Y-110483272D02*
X258370368Y-110572464D01*
X258492760Y-110441172D02*
X258412684Y-110483272D01*
X258519456Y-110441172D02*
X258492760Y-110441172D01*
X258545712Y-110441172D02*
X258519456Y-110441172D01*
X258624708Y-110483272D02*
X258545712Y-110441172D01*
X258667024Y-110572464D02*
X258624708Y-110483272D01*
X258667024Y-110602196D02*
X258667024Y-110572464D01*
X258667024Y-111047725D02*
X258667024Y-110602196D01*
X258817416Y-111047725D02*
X258667024Y-111047725D01*
X258817416Y-110550328D02*
X258817416Y-111047725D01*
X258817416Y-110522116D02*
X258817416Y-110550328D01*
X258794844Y-110438132D02*
X258817416Y-110522116D01*
X258736468Y-110356752D02*
X258794844Y-110438132D01*
X258656172Y-110307272D02*
X258736468Y-110356752D01*
X258589984Y-110290780D02*
X258656172Y-110307272D01*
X258568068Y-110290780D02*
X258589984Y-110290780D01*
X258540508Y-110290780D02*
X258568068Y-110290780D01*
X258458040Y-110312916D02*
X258540508Y-110290780D01*
X258382732Y-110364568D02*
X258458040Y-110312916D01*
X258370368Y-110379324D02*
X258382732Y-110364568D01*
X258371016Y-109786440D02*
X258370368Y-110379324D01*
X258384908Y-109799676D02*
X258371016Y-109786440D01*
X258459780Y-109850460D02*
X258384908Y-109799676D01*
X258538116Y-109874984D02*
X258459780Y-109850460D01*
X258564380Y-109874984D02*
X258538116Y-109874984D01*
X258593888Y-109874984D02*
X258564380Y-109874984D01*
X258682868Y-109847204D02*
X258593888Y-109874984D01*
X258754260Y-109791432D02*
X258682868Y-109847204D01*
X258765116Y-109777544D02*
X258754260Y-109791432D01*
X258772496Y-109767996D02*
X258765116Y-109777544D01*
X258790724Y-109736312D02*
X258772496Y-109767996D01*
X258807000Y-109683796D02*
X258790724Y-109736312D01*
X258815460Y-109606968D02*
X258807000Y-109683796D01*
X258818068Y-109521252D02*
X258815460Y-109606968D01*
X258818068Y-109492824D02*
X258818068Y-109521252D01*
X258818068Y-109463956D02*
X258818068Y-109492824D01*
X258815460Y-109377584D02*
X258818068Y-109463956D01*
X258807000Y-109300112D02*
X258815460Y-109377584D01*
X258790724Y-109247376D02*
X258807000Y-109300112D01*
X258772280Y-109215696D02*
X258790724Y-109247376D01*
X258765116Y-109206360D02*
X258772280Y-109215696D01*
X258754260Y-109192256D02*
X258765116Y-109206360D01*
X258682868Y-109136484D02*
X258754260Y-109192256D01*
X258593888Y-109108924D02*
X258682868Y-109136484D01*
X258564380Y-109108924D02*
X258593888Y-109108924D01*
X258537252Y-109108924D02*
X258564380Y-109108924D01*
X258456524Y-109133012D02*
X258537252Y-109108924D01*
X258382732Y-109183140D02*
X258456524Y-109133012D01*
X258371016Y-109196160D02*
X258382732Y-109183140D01*
X258371016Y-109117824D02*
X258371016Y-109196160D01*
X258219980Y-109117824D02*
X258371016Y-109117824D01*
X258219980Y-111047725D02*
X258219980Y-109117824D01*
X258518588Y-109724372D02*
X258518588Y-109724372D01*
X258497972Y-109724372D02*
X258518588Y-109724372D01*
X258436340Y-109703324D02*
X258497972Y-109724372D01*
X258392068Y-109648852D02*
X258436340Y-109703324D01*
X258374272Y-109574200D02*
X258392068Y-109648852D01*
X258371016Y-109513000D02*
X258374272Y-109574200D01*
X258371016Y-109492600D02*
X258371016Y-109513000D01*
X258371016Y-109471768D02*
X258371016Y-109492600D01*
X258374272Y-109409924D02*
X258371016Y-109471768D01*
X258392068Y-109335052D02*
X258374272Y-109409924D01*
X258436340Y-109280580D02*
X258392068Y-109335052D01*
X258497972Y-109259528D02*
X258436340Y-109280580D01*
X258518588Y-109259528D02*
X258497972Y-109259528D01*
X258539200Y-109259528D02*
X258518588Y-109259528D01*
X258601484Y-109279496D02*
X258539200Y-109259528D01*
X258646188Y-109332228D02*
X258601484Y-109279496D01*
X258664200Y-109406884D02*
X258646188Y-109332228D01*
X258667672Y-109471116D02*
X258664200Y-109406884D01*
X258667672Y-109492600D02*
X258667672Y-109471116D01*
X258667672Y-109513656D02*
X258667672Y-109492600D01*
X258664200Y-109577240D02*
X258667672Y-109513656D01*
X258646188Y-109651672D02*
X258664200Y-109577240D01*
X258601484Y-109704188D02*
X258646188Y-109651672D01*
X258539200Y-109724372D02*
X258601484Y-109704188D01*
X258518588Y-109724372D02*
X258539200Y-109724372D01*
X264185464Y-109424896D02*
X264185464Y-109424896D01*
X264501224Y-109424896D02*
X264185464Y-109424896D01*
X264499904Y-109396468D02*
X264501224Y-109424896D01*
X264453664Y-109295124D02*
X264499904Y-109396468D01*
X264371024Y-109250632D02*
X264453664Y-109295124D01*
X264343464Y-109250632D02*
X264371024Y-109250632D01*
X264315464Y-109250632D02*
X264343464Y-109250632D01*
X264232144Y-109295124D02*
X264315464Y-109250632D01*
X264186144Y-109396468D02*
X264232144Y-109295124D01*
X264185464Y-109424896D02*
X264186144Y-109396468D01*
X264651864Y-109548812D02*
X264651864Y-109548812D01*
X264185464Y-109548812D02*
X264651864Y-109548812D01*
X264185464Y-109583316D02*
X264185464Y-109548812D01*
X264236024Y-109686828D02*
X264185464Y-109583316D01*
X264331944Y-109733272D02*
X264236024Y-109686828D01*
X264364064Y-109733272D02*
X264331944Y-109733272D01*
X264385584Y-109733272D02*
X264364064Y-109733272D01*
X264450664Y-109714172D02*
X264385584Y-109733272D01*
X264516624Y-109672288D02*
X264450664Y-109714172D01*
X264527704Y-109661004D02*
X264516624Y-109672288D01*
X264637064Y-109753888D02*
X264527704Y-109661004D01*
X264618624Y-109775156D02*
X264637064Y-109753888D01*
X264511864Y-109846332D02*
X264618624Y-109775156D01*
X264403144Y-109874768D02*
X264511864Y-109846332D01*
X264366904Y-109874768D02*
X264403144Y-109874768D01*
X264337584Y-109874768D02*
X264366904Y-109874768D01*
X264250144Y-109858272D02*
X264337584Y-109874768D01*
X264143144Y-109799460D02*
X264250144Y-109858272D01*
X264065024Y-109682924D02*
X264143144Y-109799460D01*
X264034864Y-109541212D02*
X264065024Y-109682924D01*
X264034864Y-109494124D02*
X264034864Y-109541212D01*
X264034864Y-109448332D02*
X264034864Y-109494124D01*
X264062624Y-109311176D02*
X264034864Y-109448332D01*
X264134704Y-109192472D02*
X264062624Y-109311176D01*
X264234064Y-109128240D02*
X264134704Y-109192472D01*
X264316144Y-109108924D02*
X264234064Y-109128240D01*
X264343464Y-109108924D02*
X264316144Y-109108924D01*
X264372744Y-109108924D02*
X264343464Y-109108924D01*
X264461304Y-109131056D02*
X264372744Y-109108924D01*
X264559424Y-109194212D02*
X264461304Y-109131056D01*
X264626704Y-109293816D02*
X264559424Y-109194212D01*
X264651864Y-109392128D02*
X264626704Y-109293816D01*
X264651864Y-109424896D02*
X264651864Y-109392128D01*
X264651864Y-109548812D02*
X264651864Y-109424896D01*
X263886024Y-109646252D02*
X263886024Y-109646252D01*
X263996704Y-109744988D02*
X263886024Y-109646252D01*
X263980424Y-109763656D02*
X263996704Y-109744988D01*
X263880584Y-109838088D02*
X263980424Y-109763656D01*
X263765944Y-109874768D02*
X263880584Y-109838088D01*
X263728024Y-109874768D02*
X263765944Y-109874768D01*
X263696504Y-109874768D02*
X263728024Y-109874768D01*
X263602144Y-109853276D02*
X263696504Y-109874768D01*
X263493624Y-109786004D02*
X263602144Y-109853276D01*
X263417464Y-109667300D02*
X263493624Y-109786004D01*
X263388784Y-109536224D02*
X263417464Y-109667300D01*
X263388784Y-109492600D02*
X263388784Y-109536224D01*
X263388784Y-109448552D02*
X263388784Y-109492600D01*
X263417464Y-109316824D02*
X263388784Y-109448552D01*
X263493624Y-109197684D02*
X263417464Y-109316824D01*
X263602144Y-109130188D02*
X263493624Y-109197684D01*
X263696504Y-109108924D02*
X263602144Y-109130188D01*
X263728024Y-109108924D02*
X263696504Y-109108924D01*
X263765944Y-109108924D02*
X263728024Y-109108924D01*
X263880584Y-109145600D02*
X263765944Y-109108924D01*
X263980424Y-109220032D02*
X263880584Y-109145600D01*
X263996704Y-109238912D02*
X263980424Y-109220032D01*
X263886024Y-109337656D02*
X263996704Y-109238912D01*
X263876664Y-109326156D02*
X263886024Y-109337656D01*
X263819344Y-109281232D02*
X263876664Y-109326156D01*
X263755344Y-109259528D02*
X263819344Y-109281232D01*
X263734064Y-109259528D02*
X263755344Y-109259528D01*
X263713464Y-109259528D02*
X263734064Y-109259528D01*
X263651864Y-109272768D02*
X263713464Y-109259528D01*
X263590624Y-109314432D02*
X263651864Y-109272768D01*
X263552224Y-109386916D02*
X263590624Y-109314432D01*
X263539184Y-109466128D02*
X263552224Y-109386916D01*
X263539184Y-109492600D02*
X263539184Y-109466128D01*
X263539184Y-109518644D02*
X263539184Y-109492600D01*
X263552464Y-109597204D02*
X263539184Y-109518644D01*
X263590624Y-109669252D02*
X263552464Y-109597204D01*
X263651864Y-109710916D02*
X263590624Y-109669252D01*
X263713464Y-109724372D02*
X263651864Y-109710916D01*
X263734064Y-109724372D02*
X263713464Y-109724372D01*
X263755344Y-109724372D02*
X263734064Y-109724372D01*
X263819344Y-109702240D02*
X263755344Y-109724372D01*
X263876664Y-109657532D02*
X263819344Y-109702240D01*
X263886024Y-109646252D02*
X263876664Y-109657532D01*
X262901824Y-109865868D02*
X262901824Y-109865868D01*
X262901824Y-109117824D02*
X262901824Y-109865868D01*
X263052464Y-109117824D02*
X262901824Y-109117824D01*
X263052464Y-109197460D02*
X263052464Y-109117824D01*
X263055464Y-109197460D02*
X263052464Y-109197460D01*
X263067184Y-109182704D02*
X263055464Y-109197460D01*
X263140584Y-109131056D02*
X263067184Y-109182704D01*
X263222584Y-109108924D02*
X263140584Y-109131056D01*
X263250144Y-109108924D02*
X263222584Y-109108924D01*
X263286424Y-109108924D02*
X263250144Y-109108924D01*
X263395144Y-109157532D02*
X263286424Y-109108924D01*
X263406624Y-109166432D02*
X263395144Y-109157532D01*
X263297464Y-109296424D02*
X263406624Y-109166432D01*
X263288584Y-109289696D02*
X263297464Y-109296424D01*
X263223224Y-109259528D02*
X263288584Y-109289696D01*
X263198504Y-109259528D02*
X263223224Y-109259528D01*
X263173304Y-109259528D02*
X263198504Y-109259528D01*
X263097784Y-109296640D02*
X263173304Y-109259528D01*
X263052464Y-109386052D02*
X263097784Y-109296640D01*
X263052464Y-109415996D02*
X263052464Y-109386052D01*
X263052464Y-109865868D02*
X263052464Y-109415996D01*
X262901824Y-109865868D02*
X263052464Y-109865868D01*
X262139264Y-109615216D02*
X262139264Y-109615216D01*
X262139264Y-109117824D02*
X262139264Y-109615216D01*
X262289864Y-109117824D02*
X262139264Y-109117824D01*
X262289864Y-109563568D02*
X262289864Y-109117824D01*
X262289864Y-109593076D02*
X262289864Y-109563568D01*
X262332184Y-109682056D02*
X262289864Y-109593076D01*
X262412024Y-109724372D02*
X262332184Y-109682056D01*
X262438744Y-109724372D02*
X262412024Y-109724372D01*
X262464984Y-109724372D02*
X262438744Y-109724372D01*
X262543984Y-109682056D02*
X262464984Y-109724372D01*
X262586304Y-109593076D02*
X262543984Y-109682056D01*
X262586304Y-109563568D02*
X262586304Y-109593076D01*
X262586304Y-109117824D02*
X262586304Y-109563568D01*
X262736904Y-109117824D02*
X262586304Y-109117824D01*
X262736904Y-109866084D02*
X262736904Y-109117824D01*
X262586304Y-109866084D02*
X262736904Y-109866084D01*
X262586304Y-109786224D02*
X262586304Y-109866084D01*
X262583464Y-109786224D02*
X262586304Y-109786224D01*
X262571544Y-109800980D02*
X262583464Y-109786224D01*
X262498184Y-109852628D02*
X262571544Y-109800980D01*
X262417024Y-109874768D02*
X262498184Y-109852628D01*
X262390104Y-109874768D02*
X262417024Y-109874768D01*
X262367744Y-109874768D02*
X262390104Y-109874768D01*
X262300904Y-109858056D02*
X262367744Y-109874768D01*
X262220424Y-109808572D02*
X262300904Y-109858056D01*
X262161824Y-109727196D02*
X262220424Y-109808572D01*
X262139264Y-109643212D02*
X262161824Y-109727196D01*
X262139264Y-109615216D02*
X262139264Y-109643212D01*
X261860184Y-109492600D02*
X261860184Y-109492600D01*
X261860184Y-109463740D02*
X261860184Y-109492600D01*
X261852144Y-109377368D02*
X261860184Y-109463740D01*
X261830424Y-109323984D02*
X261852144Y-109377368D01*
X261823504Y-109314216D02*
X261830424Y-109323984D01*
X261817864Y-109306404D02*
X261823504Y-109314216D01*
X261774024Y-109275156D02*
X261817864Y-109306404D01*
X261720184Y-109259528D02*
X261774024Y-109275156D01*
X261702384Y-109259528D02*
X261720184Y-109259528D01*
X261684384Y-109259528D02*
X261702384Y-109259528D01*
X261630783Y-109275156D02*
X261684384Y-109259528D01*
X261586944Y-109306404D02*
X261630783Y-109275156D01*
X261581504Y-109314216D02*
X261586944Y-109306404D01*
X261574344Y-109323984D02*
X261581504Y-109314216D01*
X261552224Y-109377152D02*
X261574344Y-109323984D01*
X261544423Y-109462656D02*
X261552224Y-109377152D01*
X261544423Y-109491300D02*
X261544423Y-109462656D01*
X261544423Y-109519944D02*
X261544423Y-109491300D01*
X261552224Y-109606532D02*
X261544423Y-109519944D01*
X261574344Y-109659704D02*
X261552224Y-109606532D01*
X261581504Y-109669684D02*
X261574344Y-109659704D01*
X261586944Y-109677284D02*
X261581504Y-109669684D01*
X261630783Y-109708532D02*
X261586944Y-109677284D01*
X261684384Y-109724372D02*
X261630783Y-109708532D01*
X261702384Y-109724372D02*
X261684384Y-109724372D01*
X261720184Y-109724372D02*
X261702384Y-109724372D01*
X261774024Y-109708532D02*
X261720184Y-109724372D01*
X261817864Y-109677284D02*
X261774024Y-109708532D01*
X261823504Y-109669684D02*
X261817864Y-109677284D01*
X261830424Y-109659704D02*
X261823504Y-109669684D01*
X261852144Y-109606532D02*
X261830424Y-109659704D01*
X261860184Y-109521032D02*
X261852144Y-109606532D01*
X261860184Y-109492600D02*
X261860184Y-109521032D01*
X261394024Y-109491300D02*
X261394024Y-109491300D01*
X261394024Y-109446160D02*
X261394024Y-109491300D01*
X261412900Y-109311396D02*
X261394024Y-109446160D01*
X261460644Y-109220684D02*
X261412900Y-109311396D01*
X261475184Y-109204844D02*
X261460644Y-109220684D01*
X261485384Y-109193340D02*
X261475184Y-109204844D01*
X261560464Y-109139740D02*
X261485384Y-109193340D01*
X261666823Y-109108924D02*
X261560464Y-109139740D01*
X261702384Y-109108924D02*
X261666823Y-109108924D01*
X261737784Y-109108924D02*
X261702384Y-109108924D01*
X261844104Y-109139740D02*
X261737784Y-109108924D01*
X261919184Y-109193340D02*
X261844104Y-109139740D01*
X261929624Y-109204844D02*
X261919184Y-109193340D01*
X261943944Y-109220684D02*
X261929624Y-109204844D01*
X261991664Y-109311396D02*
X261943944Y-109220684D01*
X262010784Y-109446160D02*
X261991664Y-109311396D01*
X262010784Y-109491300D02*
X262010784Y-109446160D01*
X262010784Y-109536440D02*
X262010784Y-109491300D01*
X261991664Y-109672072D02*
X262010784Y-109536440D01*
X261943944Y-109763000D02*
X261991664Y-109672072D01*
X261929624Y-109779060D02*
X261943944Y-109763000D01*
X261919184Y-109790344D02*
X261929624Y-109779060D01*
X261844104Y-109843952D02*
X261919184Y-109790344D01*
X261737784Y-109874768D02*
X261844104Y-109843952D01*
X261702384Y-109874768D02*
X261737784Y-109874768D01*
X261666823Y-109874768D02*
X261702384Y-109874768D01*
X261560464Y-109843952D02*
X261666823Y-109874768D01*
X261485384Y-109790344D02*
X261560464Y-109843952D01*
X261475184Y-109779060D02*
X261485384Y-109790344D01*
X261460644Y-109763000D02*
X261475184Y-109779060D01*
X261412900Y-109672072D02*
X261460644Y-109763000D01*
X261394024Y-109536440D02*
X261412900Y-109672072D01*
X261394024Y-109491300D02*
X261394024Y-109536440D01*
X260669412Y-109740652D02*
X260669412Y-109740652D01*
X260774228Y-109637352D02*
X260669412Y-109740652D01*
X260790288Y-109653196D02*
X260774228Y-109637352D01*
X260878828Y-109708968D02*
X260790288Y-109653196D01*
X260977356Y-109733272D02*
X260878828Y-109708968D01*
X261010340Y-109733272D02*
X260977356Y-109733272D01*
X261036600Y-109733272D02*
X261010340Y-109733272D01*
X261116028Y-109708968D02*
X261036600Y-109733272D01*
X261157912Y-109655144D02*
X261116028Y-109708968D01*
X261157912Y-109637352D02*
X261157912Y-109655144D01*
X261157912Y-109623460D02*
X261157912Y-109637352D01*
X261131436Y-109582012D02*
X261157912Y-109623460D01*
X261079136Y-109564652D02*
X261131436Y-109582012D01*
X261066328Y-109563568D02*
X261079136Y-109564652D01*
X260933516Y-109551852D02*
X261066328Y-109563568D01*
X260911600Y-109549896D02*
X260933516Y-109551852D01*
X260847360Y-109532100D02*
X260911600Y-109549896D01*
X260779224Y-109489784D02*
X260847360Y-109532100D01*
X260734084Y-109425112D02*
X260779224Y-109489784D01*
X260718024Y-109360656D02*
X260734084Y-109425112D01*
X260718024Y-109339172D02*
X260718024Y-109360656D01*
X260718024Y-109314000D02*
X260718024Y-109339172D01*
X260739288Y-109239128D02*
X260718024Y-109314000D01*
X260798100Y-109167084D02*
X260739288Y-109239128D01*
X260886644Y-109123676D02*
X260798100Y-109167084D01*
X260969324Y-109109140D02*
X260886644Y-109123676D01*
X260996884Y-109109140D02*
X260969324Y-109109140D01*
X261038984Y-109109140D02*
X260996884Y-109109140D01*
X261165288Y-109136700D02*
X261038984Y-109109140D01*
X261272280Y-109195296D02*
X261165288Y-109136700D01*
X261290724Y-109210916D02*
X261272280Y-109195296D01*
X261197840Y-109320080D02*
X261290724Y-109210916D01*
X261183084Y-109309660D02*
X261197840Y-109320080D01*
X261105612Y-109269728D02*
X261183084Y-109309660D01*
X261024228Y-109250632D02*
X261105612Y-109269728D01*
X260997100Y-109250632D02*
X261024228Y-109250632D01*
X260971928Y-109250632D02*
X260997100Y-109250632D01*
X260896840Y-109276240D02*
X260971928Y-109250632D01*
X260868628Y-109324416D02*
X260896840Y-109276240D01*
X260868628Y-109340696D02*
X260868628Y-109324416D01*
X260868628Y-109351976D02*
X260868628Y-109340696D01*
X260889680Y-109386052D02*
X260868628Y-109351976D01*
X260948708Y-109410140D02*
X260889680Y-109386052D01*
X260967588Y-109411656D02*
X260948708Y-109410140D01*
X261091508Y-109420340D02*
X260967588Y-109411656D01*
X261116460Y-109421856D02*
X261091508Y-109420340D01*
X261190680Y-109442904D02*
X261116460Y-109421856D01*
X261257952Y-109491516D02*
X261190680Y-109442904D01*
X261296144Y-109560528D02*
X261257952Y-109491516D01*
X261308300Y-109623680D02*
X261296144Y-109560528D01*
X261308300Y-109644728D02*
X261308300Y-109623680D01*
X261308300Y-109669032D02*
X261308300Y-109644728D01*
X261284212Y-109742168D02*
X261308300Y-109669032D01*
X261218672Y-109814432D02*
X261284212Y-109742168D01*
X261120368Y-109859356D02*
X261218672Y-109814432D01*
X261029008Y-109874984D02*
X261120368Y-109859356D01*
X260998624Y-109874984D02*
X261029008Y-109874984D01*
X260955000Y-109874984D02*
X260998624Y-109874984D01*
X260824580Y-109841344D02*
X260955000Y-109874984D01*
X260693284Y-109763000D02*
X260824580Y-109841344D01*
X260669412Y-109740652D02*
X260693284Y-109763000D01*
X259664856Y-109865868D02*
X259664856Y-109865868D01*
X259664856Y-109117824D02*
X259664856Y-109865868D01*
X259815244Y-109117824D02*
X259664856Y-109117824D01*
X259815244Y-109197460D02*
X259815244Y-109117824D01*
X259818284Y-109197460D02*
X259815244Y-109197460D01*
X259830000Y-109182704D02*
X259818284Y-109197460D01*
X259903568Y-109131056D02*
X259830000Y-109182704D01*
X259985600Y-109108924D02*
X259903568Y-109131056D01*
X260013160Y-109108924D02*
X259985600Y-109108924D01*
X260035080Y-109108924D02*
X260013160Y-109108924D01*
X260101268Y-109125632D02*
X260035080Y-109108924D01*
X260181344Y-109175112D02*
X260101268Y-109125632D01*
X260239724Y-109256488D02*
X260181344Y-109175112D01*
X260262512Y-109340476D02*
X260239724Y-109256488D01*
X260262512Y-109368688D02*
X260262512Y-109340476D01*
X260262512Y-109865868D02*
X260262512Y-109368688D01*
X260111900Y-109865868D02*
X260262512Y-109865868D01*
X260111900Y-109420340D02*
X260111900Y-109865868D01*
X260111900Y-109390604D02*
X260111900Y-109420340D01*
X260069584Y-109301628D02*
X260111900Y-109390604D01*
X259990588Y-109259528D02*
X260069584Y-109301628D01*
X259964332Y-109259528D02*
X259990588Y-109259528D01*
X259937640Y-109259528D02*
X259964332Y-109259528D01*
X259857560Y-109301628D02*
X259937640Y-109259528D01*
X259815244Y-109390604D02*
X259857560Y-109301628D01*
X259815244Y-109420340D02*
X259815244Y-109390604D01*
X259815244Y-109865868D02*
X259815244Y-109420340D01*
X259664856Y-109865868D02*
X259815244Y-109865868D01*
X259070016Y-109424896D02*
X259070016Y-109424896D01*
X259385988Y-109424896D02*
X259070016Y-109424896D01*
X259384688Y-109396468D02*
X259385988Y-109424896D01*
X259338468Y-109295124D02*
X259384688Y-109396468D01*
X259255568Y-109250632D02*
X259338468Y-109295124D01*
X259228008Y-109250632D02*
X259255568Y-109250632D01*
X259200228Y-109250632D02*
X259228008Y-109250632D01*
X259116896Y-109295124D02*
X259200228Y-109250632D01*
X259070672Y-109396468D02*
X259116896Y-109295124D01*
X259070016Y-109424896D02*
X259070672Y-109396468D01*
X259536384Y-109548812D02*
X259536384Y-109548812D01*
X259070016Y-109548812D02*
X259536384Y-109548812D01*
X259070016Y-109583316D02*
X259070016Y-109548812D01*
X259120584Y-109686828D02*
X259070016Y-109583316D01*
X259216508Y-109733272D02*
X259120584Y-109686828D01*
X259248624Y-109733272D02*
X259216508Y-109733272D01*
X259270324Y-109733272D02*
X259248624Y-109733272D01*
X259335428Y-109714172D02*
X259270324Y-109733272D01*
X259401400Y-109672288D02*
X259335428Y-109714172D01*
X259412468Y-109661004D02*
X259401400Y-109672288D01*
X259521624Y-109753888D02*
X259412468Y-109661004D01*
X259503180Y-109775156D02*
X259521624Y-109753888D01*
X259396408Y-109846332D02*
X259503180Y-109775156D01*
X259287684Y-109874768D02*
X259396408Y-109846332D01*
X259251660Y-109874768D02*
X259287684Y-109874768D01*
X259222360Y-109874768D02*
X259251660Y-109874768D01*
X259134908Y-109858272D02*
X259222360Y-109874768D01*
X259027916Y-109799460D02*
X259134908Y-109858272D01*
X258949796Y-109682924D02*
X259027916Y-109799460D01*
X258919628Y-109541212D02*
X258949796Y-109682924D01*
X258919628Y-109494124D02*
X258919628Y-109541212D01*
X258919628Y-109448332D02*
X258919628Y-109494124D01*
X258947408Y-109311176D02*
X258919628Y-109448332D01*
X259019456Y-109192472D02*
X258947408Y-109311176D01*
X259118628Y-109128240D02*
X259019456Y-109192472D01*
X259200660Y-109108924D02*
X259118628Y-109128240D01*
X259228008Y-109108924D02*
X259200660Y-109108924D01*
X259257300Y-109108924D02*
X259228008Y-109108924D01*
X259345844Y-109131056D02*
X259257300Y-109108924D01*
X259444152Y-109194212D02*
X259345844Y-109131056D01*
X259511423Y-109293816D02*
X259444152Y-109194212D01*
X259536384Y-109392128D02*
X259511423Y-109293816D01*
X259536384Y-109424896D02*
X259536384Y-109392128D01*
X259536384Y-109548812D02*
X259536384Y-109424896D01*
X257941548Y-109492600D02*
X257941548Y-109492600D01*
X257941548Y-109463740D02*
X257941548Y-109492600D01*
X257933516Y-109377368D02*
X257941548Y-109463740D01*
X257911600Y-109323984D02*
X257933516Y-109377368D01*
X257904656Y-109314216D02*
X257911600Y-109323984D01*
X257899012Y-109306404D02*
X257904656Y-109314216D01*
X257855175Y-109275156D02*
X257899012Y-109306404D01*
X257801355Y-109259528D02*
X257855175Y-109275156D01*
X257783560Y-109259528D02*
X257801355Y-109259528D01*
X257765548Y-109259528D02*
X257783560Y-109259528D01*
X257711946Y-109275156D02*
X257765548Y-109259528D01*
X257668109Y-109306404D02*
X257711946Y-109275156D01*
X257662684Y-109314216D02*
X257668109Y-109306404D01*
X257655522Y-109323984D02*
X257662684Y-109314216D01*
X257633604Y-109377152D02*
X257655522Y-109323984D01*
X257625791Y-109462656D02*
X257633604Y-109377152D01*
X257625791Y-109491300D02*
X257625791Y-109462656D01*
X257625791Y-109519944D02*
X257625791Y-109491300D01*
X257633604Y-109606532D02*
X257625791Y-109519944D01*
X257655522Y-109659704D02*
X257633604Y-109606532D01*
X257662684Y-109669684D02*
X257655522Y-109659704D01*
X257668109Y-109677284D02*
X257662684Y-109669684D01*
X257711946Y-109708532D02*
X257668109Y-109677284D01*
X257765548Y-109724372D02*
X257711946Y-109708532D01*
X257783560Y-109724372D02*
X257765548Y-109724372D01*
X257801355Y-109724372D02*
X257783560Y-109724372D01*
X257855175Y-109708532D02*
X257801355Y-109724372D01*
X257899012Y-109677284D02*
X257855175Y-109708532D01*
X257904656Y-109669684D02*
X257899012Y-109677284D01*
X257911600Y-109659704D02*
X257904656Y-109669684D01*
X257933516Y-109606532D02*
X257911600Y-109659704D01*
X257941548Y-109521032D02*
X257933516Y-109606532D01*
X257941548Y-109492600D02*
X257941548Y-109521032D01*
X257475184Y-109491300D02*
X257475184Y-109491300D01*
X257475184Y-109446160D02*
X257475184Y-109491300D01*
X257494064Y-109311396D02*
X257475184Y-109446160D01*
X257541807Y-109220684D02*
X257494064Y-109311396D01*
X257556347Y-109204844D02*
X257541807Y-109220684D01*
X257566546Y-109193340D02*
X257556347Y-109204844D01*
X257641633Y-109139740D02*
X257566546Y-109193340D01*
X257747970Y-109108924D02*
X257641633Y-109139740D01*
X257783560Y-109108924D02*
X257747970Y-109108924D01*
X257818934Y-109108924D02*
X257783560Y-109108924D01*
X257925272Y-109139740D02*
X257818934Y-109108924D01*
X258000356Y-109193340D02*
X257925272Y-109139740D01*
X258010776Y-109204844D02*
X258000356Y-109193340D01*
X258025096Y-109220684D02*
X258010776Y-109204844D01*
X258072840Y-109311396D02*
X258025096Y-109220684D01*
X258091940Y-109446160D02*
X258072840Y-109311396D01*
X258091940Y-109491300D02*
X258091940Y-109446160D01*
X258091940Y-109536440D02*
X258091940Y-109491300D01*
X258072840Y-109672072D02*
X258091940Y-109536440D01*
X258025096Y-109763000D02*
X258072840Y-109672072D01*
X258010776Y-109779060D02*
X258025096Y-109763000D01*
X258000356Y-109790344D02*
X258010776Y-109779060D01*
X257925272Y-109843952D02*
X258000356Y-109790344D01*
X257818934Y-109874768D02*
X257925272Y-109843952D01*
X257783560Y-109874768D02*
X257818934Y-109874768D01*
X257747970Y-109874768D02*
X257783560Y-109874768D01*
X257641633Y-109843952D02*
X257747970Y-109874768D01*
X257566546Y-109790344D02*
X257641633Y-109843952D01*
X257556347Y-109779060D02*
X257566546Y-109790344D01*
X257541807Y-109763000D02*
X257556347Y-109779060D01*
X257494064Y-109672072D02*
X257541807Y-109763000D01*
X257475184Y-109536440D02*
X257494064Y-109672072D01*
X257475184Y-109491300D02*
X257475184Y-109536440D01*
X263373424Y-110606536D02*
X263373424Y-110606536D01*
X263689184Y-110606536D02*
X263373424Y-110606536D01*
X263688064Y-110578108D02*
X263689184Y-110606536D01*
X263641864Y-110476760D02*
X263688064Y-110578108D01*
X263558944Y-110432272D02*
X263641864Y-110476760D01*
X263531424Y-110432272D02*
X263558944Y-110432272D01*
X263503624Y-110432272D02*
X263531424Y-110432272D01*
X263420304Y-110476760D02*
X263503624Y-110432272D01*
X263374064Y-110578108D02*
X263420304Y-110476760D01*
X263373424Y-110606536D02*
X263374064Y-110578108D01*
X263839784Y-110730451D02*
X263839784Y-110730451D01*
X263373424Y-110730451D02*
X263839784Y-110730451D01*
X263373424Y-110764956D02*
X263373424Y-110730451D01*
X263423944Y-110868471D02*
X263373424Y-110764956D01*
X263519904Y-110914912D02*
X263423944Y-110868471D01*
X263552024Y-110914912D02*
X263519904Y-110914912D01*
X263573704Y-110914912D02*
X263552024Y-110914912D01*
X263638784Y-110895815D02*
X263573704Y-110914912D01*
X263704784Y-110853932D02*
X263638784Y-110895815D01*
X263715864Y-110842647D02*
X263704784Y-110853932D01*
X263825024Y-110935529D02*
X263715864Y-110842647D01*
X263806584Y-110956796D02*
X263825024Y-110935529D01*
X263699784Y-111027977D02*
X263806584Y-110956796D01*
X263591064Y-111056623D02*
X263699784Y-111027977D01*
X263555064Y-111056623D02*
X263591064Y-111056623D01*
X263525744Y-111056623D02*
X263555064Y-111056623D01*
X263438304Y-111040130D02*
X263525744Y-111056623D01*
X263331304Y-110981102D02*
X263438304Y-111040130D01*
X263253184Y-110864565D02*
X263331304Y-110981102D01*
X263223024Y-110722855D02*
X263253184Y-110864565D01*
X263223024Y-110675763D02*
X263223024Y-110722855D01*
X263223024Y-110629972D02*
X263223024Y-110675763D01*
X263250784Y-110492824D02*
X263223024Y-110629972D01*
X263322864Y-110374112D02*
X263250784Y-110492824D01*
X263422024Y-110309876D02*
X263322864Y-110374112D01*
X263504064Y-110290780D02*
X263422024Y-110309876D01*
X263531424Y-110290780D02*
X263504064Y-110290780D01*
X263560704Y-110290780D02*
X263531424Y-110290780D01*
X263649224Y-110312916D02*
X263560704Y-110290780D01*
X263747304Y-110376068D02*
X263649224Y-110312916D01*
X263814584Y-110475460D02*
X263747304Y-110376068D01*
X263839784Y-110573548D02*
X263814584Y-110475460D01*
X263839784Y-110606320D02*
X263839784Y-110573548D01*
X263839784Y-110730451D02*
X263839784Y-110606320D01*
X262715424Y-111047725D02*
X262715424Y-111047725D01*
X262715424Y-110299680D02*
X262715424Y-111047725D01*
X262866024Y-110299680D02*
X262715424Y-110299680D01*
X262866024Y-110379324D02*
X262866024Y-110299680D01*
X262869064Y-110379324D02*
X262866024Y-110379324D01*
X262880784Y-110364568D02*
X262869064Y-110379324D01*
X262954144Y-110312916D02*
X262880784Y-110364568D01*
X263036184Y-110290780D02*
X262954144Y-110312916D01*
X263063744Y-110290780D02*
X263036184Y-110290780D01*
X263099944Y-110290780D02*
X263063744Y-110290780D01*
X263208704Y-110339388D02*
X263099944Y-110290780D01*
X263220184Y-110348288D02*
X263208704Y-110339388D01*
X263111024Y-110478060D02*
X263220184Y-110348288D01*
X263102144Y-110471332D02*
X263111024Y-110478060D01*
X263036784Y-110441172D02*
X263102144Y-110471332D01*
X263012064Y-110441172D02*
X263036784Y-110441172D01*
X262986904Y-110441172D02*
X263012064Y-110441172D01*
X262911384Y-110478280D02*
X262986904Y-110441172D01*
X262866024Y-110567688D02*
X262911384Y-110478280D01*
X262866024Y-110597636D02*
X262866024Y-110567688D01*
X262866024Y-111047725D02*
X262866024Y-110597636D01*
X262715424Y-111047725D02*
X262866024Y-111047725D01*
X262399664Y-110784921D02*
X262399664Y-110784921D01*
X262399664Y-110730451D02*
X262399664Y-110784921D01*
X262219544Y-110730451D02*
X262399664Y-110730451D01*
X262195024Y-110730451D02*
X262219544Y-110730451D01*
X262121464Y-110754974D02*
X262195024Y-110730451D01*
X262089784Y-110804018D02*
X262121464Y-110754974D01*
X262089784Y-110820511D02*
X262089784Y-110804018D01*
X262089784Y-110837004D02*
X262089784Y-110820511D01*
X262122304Y-110886483D02*
X262089784Y-110837004D01*
X262204144Y-110914912D02*
X262122304Y-110886483D01*
X262231464Y-110914912D02*
X262204144Y-110914912D01*
X262251224Y-110914912D02*
X262231464Y-110914912D01*
X262310464Y-110911006D02*
X262251224Y-110914912D01*
X262362544Y-110893645D02*
X262310464Y-110911006D01*
X262390984Y-110854366D02*
X262362544Y-110893645D01*
X262399664Y-110802282D02*
X262390984Y-110854366D01*
X262399664Y-110784921D02*
X262399664Y-110802282D01*
X262399664Y-111047725D02*
X262399664Y-111047725D01*
X262399664Y-110981318D02*
X262399664Y-111047725D01*
X262396624Y-110981318D02*
X262399664Y-110981318D01*
X262388824Y-110994122D02*
X262396624Y-110981318D01*
X262330864Y-111038176D02*
X262388824Y-110994122D01*
X262241664Y-111056623D02*
X262330864Y-111038176D01*
X262212144Y-111056623D02*
X262241664Y-111056623D01*
X262184184Y-111056623D02*
X262212144Y-111056623D01*
X262100384Y-111039044D02*
X262184184Y-111056623D01*
X262017504Y-110990867D02*
X262100384Y-111039044D01*
X261965864Y-110918168D02*
X262017504Y-110990867D01*
X261948064Y-110850460D02*
X261965864Y-110918168D01*
X261948064Y-110827890D02*
X261948064Y-110850460D01*
X261948064Y-110806622D02*
X261948064Y-110827890D01*
X261963464Y-110742821D02*
X261948064Y-110806622D01*
X262009464Y-110672291D02*
X261963464Y-110742821D01*
X262085664Y-110624112D02*
X262009464Y-110672291D01*
X262165064Y-110606536D02*
X262085664Y-110624112D01*
X262191544Y-110606536D02*
X262165064Y-110606536D01*
X262399664Y-110606536D02*
X262191544Y-110606536D01*
X262399664Y-110528192D02*
X262399664Y-110606536D01*
X262399664Y-110509528D02*
X262399664Y-110528192D01*
X262363224Y-110453540D02*
X262399664Y-110509528D01*
X262275304Y-110432272D02*
X262363224Y-110453540D01*
X262246024Y-110432272D02*
X262275304Y-110432272D01*
X262223464Y-110432272D02*
X262246024Y-110432272D01*
X262155744Y-110444860D02*
X262223464Y-110432272D01*
X262111024Y-110479152D02*
X262155744Y-110444860D01*
X262104504Y-110490000D02*
X262111024Y-110479152D01*
X261986464Y-110399940D02*
X262104504Y-110490000D01*
X262000784Y-110379972D02*
X261986464Y-110399940D01*
X262092144Y-110315300D02*
X262000784Y-110379972D01*
X262202184Y-110290780D02*
X262092144Y-110315300D01*
X262238864Y-110290780D02*
X262202184Y-110290780D01*
X262270304Y-110290780D02*
X262238864Y-110290780D01*
X262365144Y-110303152D02*
X262270304Y-110290780D01*
X262463464Y-110344600D02*
X262365144Y-110303152D01*
X262527264Y-110420772D02*
X262463464Y-110344600D01*
X262550064Y-110508012D02*
X262527264Y-110420772D01*
X262550064Y-110537092D02*
X262550064Y-110508012D01*
X262550064Y-111047725D02*
X262550064Y-110537092D01*
X262399664Y-111047725D02*
X262550064Y-111047725D01*
X261564384Y-111047725D02*
X261564384Y-111047725D01*
X261408128Y-110523852D02*
X261564384Y-111047725D01*
X261405088Y-110523852D02*
X261408128Y-110523852D01*
X261248624Y-111047725D02*
X261405088Y-110523852D01*
X261115812Y-111047725D02*
X261248624Y-111047725D01*
X260876880Y-110299680D02*
X261115812Y-111047725D01*
X261036168Y-110299680D02*
X260876880Y-110299680D01*
X261179396Y-110823332D02*
X261036168Y-110299680D01*
X261182216Y-110823332D02*
X261179396Y-110823332D01*
X261351924Y-110299680D02*
X261182216Y-110823332D01*
X261461080Y-110299680D02*
X261351924Y-110299680D01*
X261630783Y-110823332D02*
X261461080Y-110299680D01*
X261633824Y-110823332D02*
X261630783Y-110823332D01*
X261776824Y-110299680D02*
X261633824Y-110823332D01*
X261936344Y-110299680D02*
X261776824Y-110299680D01*
X261697424Y-111047725D02*
X261936344Y-110299680D01*
X261564384Y-111047725D02*
X261697424Y-111047725D01*
X260498188Y-110441172D02*
X260498188Y-110441172D01*
X260477356Y-110441172D02*
X260498188Y-110441172D01*
X260415072Y-110461132D02*
X260477356Y-110441172D01*
X260370368Y-110513656D02*
X260415072Y-110461132D01*
X260352356Y-110588088D02*
X260370368Y-110513656D01*
X260349100Y-110651676D02*
X260352356Y-110588088D01*
X260349100Y-110672942D02*
X260349100Y-110651676D01*
X260349100Y-110694210D02*
X260349100Y-110672942D01*
X260352356Y-110758446D02*
X260349100Y-110694210D01*
X260370368Y-110833098D02*
X260352356Y-110758446D01*
X260415072Y-110885832D02*
X260370368Y-110833098D01*
X260477356Y-110906015D02*
X260415072Y-110885832D01*
X260498188Y-110906015D02*
X260477356Y-110906015D01*
X260518588Y-110906015D02*
X260498188Y-110906015D01*
X260580216Y-110884747D02*
X260518588Y-110906015D01*
X260624488Y-110830277D02*
X260580216Y-110884747D01*
X260642284Y-110755407D02*
X260624488Y-110830277D01*
X260645756Y-110693558D02*
X260642284Y-110755407D01*
X260645756Y-110672942D02*
X260645756Y-110693558D01*
X260645756Y-110652324D02*
X260645756Y-110672942D01*
X260642284Y-110591128D02*
X260645756Y-110652324D01*
X260624488Y-110516692D02*
X260642284Y-110591128D01*
X260580216Y-110462224D02*
X260624488Y-110516692D01*
X260518588Y-110441172D02*
X260580216Y-110462224D01*
X260498188Y-110441172D02*
X260518588Y-110441172D01*
X260645756Y-111047725D02*
X260645756Y-111047725D01*
X260645756Y-110969600D02*
X260645756Y-111047725D01*
X260633824Y-110982404D02*
X260645756Y-110969600D01*
X260560036Y-111032317D02*
X260633824Y-110982404D01*
X260479308Y-111056623D02*
X260560036Y-111032317D01*
X260452396Y-111056623D02*
X260479308Y-111056623D01*
X260422668Y-111056623D02*
X260452396Y-111056623D01*
X260333908Y-111028845D02*
X260422668Y-111056623D01*
X260262512Y-110973072D02*
X260333908Y-111028845D01*
X260251880Y-110959183D02*
X260262512Y-110973072D01*
X260244284Y-110949634D02*
X260251880Y-110959183D01*
X260226052Y-110917951D02*
X260244284Y-110949634D01*
X260209560Y-110865216D02*
X260226052Y-110917951D01*
X260201096Y-110787960D02*
X260209560Y-110865216D01*
X260198708Y-110701588D02*
X260201096Y-110787960D01*
X260198708Y-110672942D02*
X260198708Y-110701588D01*
X260198708Y-110644296D02*
X260198708Y-110672942D01*
X260201096Y-110558576D02*
X260198708Y-110644296D01*
X260209560Y-110481752D02*
X260201096Y-110558576D01*
X260226052Y-110429232D02*
X260209560Y-110481752D01*
X260244500Y-110397552D02*
X260226052Y-110429232D01*
X260251880Y-110388216D02*
X260244500Y-110397552D01*
X260262512Y-110374112D02*
X260251880Y-110388216D01*
X260333908Y-110318340D02*
X260262512Y-110374112D01*
X260422668Y-110290780D02*
X260333908Y-110318340D01*
X260452396Y-110290780D02*
X260422668Y-110290780D01*
X260478440Y-110290780D02*
X260452396Y-110290780D01*
X260556784Y-110315084D02*
X260478440Y-110290780D01*
X260631652Y-110365868D02*
X260556784Y-110315084D01*
X260645756Y-110379324D02*
X260631652Y-110365868D01*
X260645756Y-109996944D02*
X260645756Y-110379324D01*
X260796368Y-109996944D02*
X260645756Y-109996944D01*
X260796368Y-111047725D02*
X260796368Y-109996944D01*
X260645756Y-111047725D02*
X260796368Y-111047725D01*
X259690896Y-111047725D02*
X259690896Y-111047725D01*
X259690896Y-110299680D02*
X259690896Y-111047725D01*
X259841508Y-110299680D02*
X259690896Y-110299680D01*
X259841508Y-110379324D02*
X259841508Y-110299680D01*
X259844324Y-110379324D02*
X259841508Y-110379324D01*
X259856044Y-110364568D02*
X259844324Y-110379324D01*
X259929612Y-110312916D02*
X259856044Y-110364568D01*
X260011644Y-110290780D02*
X259929612Y-110312916D01*
X260039200Y-110290780D02*
X260011644Y-110290780D01*
X260075444Y-110290780D02*
X260039200Y-110290780D01*
X260184168Y-110339388D02*
X260075444Y-110290780D01*
X260195672Y-110348288D02*
X260184168Y-110339388D01*
X260086512Y-110478060D02*
X260195672Y-110348288D01*
X260077616Y-110471332D02*
X260086512Y-110478060D01*
X260012296Y-110441172D02*
X260077616Y-110471332D01*
X259987556Y-110441172D02*
X260012296Y-110441172D01*
X259962380Y-110441172D02*
X259987556Y-110441172D01*
X259886860Y-110478280D02*
X259962380Y-110441172D01*
X259841508Y-110567688D02*
X259886860Y-110478280D01*
X259841508Y-110597636D02*
X259841508Y-110567688D01*
X259841508Y-111047725D02*
X259841508Y-110597636D01*
X259690896Y-111047725D02*
X259841508Y-111047725D01*
X259375140Y-110784921D02*
X259375140Y-110784921D01*
X259375140Y-110730451D02*
X259375140Y-110784921D01*
X259195016Y-110730451D02*
X259375140Y-110730451D01*
X259170496Y-110730451D02*
X259195016Y-110730451D01*
X259096928Y-110754974D02*
X259170496Y-110730451D01*
X259065244Y-110804018D02*
X259096928Y-110754974D01*
X259065244Y-110820511D02*
X259065244Y-110804018D01*
X259065244Y-110837004D02*
X259065244Y-110820511D01*
X259097796Y-110886483D02*
X259065244Y-110837004D01*
X259179612Y-110914912D02*
X259097796Y-110886483D01*
X259206956Y-110914912D02*
X259179612Y-110914912D01*
X259226700Y-110914912D02*
X259206956Y-110914912D01*
X259285952Y-110911006D02*
X259226700Y-110914912D01*
X259337812Y-110893645D02*
X259285952Y-110911006D01*
X259366460Y-110854366D02*
X259337812Y-110893645D01*
X259375140Y-110802282D02*
X259366460Y-110854366D01*
X259375140Y-110784921D02*
X259375140Y-110802282D01*
X259375140Y-111047725D02*
X259375140Y-111047725D01*
X259375140Y-110981318D02*
X259375140Y-111047725D01*
X259372100Y-110981318D02*
X259375140Y-110981318D01*
X259364288Y-110994122D02*
X259372100Y-110981318D01*
X259306344Y-111038176D02*
X259364288Y-110994122D01*
X259217156Y-111056623D02*
X259306344Y-111038176D01*
X259187640Y-111056623D02*
X259217156Y-111056623D01*
X259159644Y-111056623D02*
X259187640Y-111056623D01*
X259075880Y-111039044D02*
X259159644Y-111056623D01*
X258992980Y-110990867D02*
X259075880Y-111039044D01*
X258941328Y-110918168D02*
X258992980Y-110990867D01*
X258923532Y-110850460D02*
X258941328Y-110918168D01*
X258923532Y-110827890D02*
X258923532Y-110850460D01*
X258923532Y-110806622D02*
X258923532Y-110827890D01*
X258938944Y-110742821D02*
X258923532Y-110806622D01*
X258984952Y-110672291D02*
X258938944Y-110742821D01*
X259061124Y-110624112D02*
X258984952Y-110672291D01*
X259140552Y-110606536D02*
X259061124Y-110624112D01*
X259167024Y-110606536D02*
X259140552Y-110606536D01*
X259375140Y-110606536D02*
X259167024Y-110606536D01*
X259375140Y-110528192D02*
X259375140Y-110606536D01*
X259375140Y-110509528D02*
X259375140Y-110528192D01*
X259375140Y-111047725D02*
X259525532Y-111047725D01*
X259338684Y-110453540D02*
X259375140Y-110509528D01*
X259250788Y-110432272D02*
X259338684Y-110453540D01*
X259221496Y-110432272D02*
X259250788Y-110432272D01*
X259525532Y-110537092D02*
X259525532Y-110508012D01*
X259198924Y-110432272D02*
X259221496Y-110432272D01*
X259131216Y-110444860D02*
X259198924Y-110432272D01*
X259086512Y-110479152D02*
X259131216Y-110444860D01*
X259080000Y-110490000D02*
X259086512Y-110479152D01*
D15*
%TO.C,TP12*%
X150692000Y-117672000D02*
X153092000Y-117672000D01*
X153092000Y-117672000D02*
X153092000Y-120072000D01*
X153092000Y-120072000D02*
X150692000Y-120072000D01*
X150692000Y-120072000D02*
X150692000Y-117672000D01*
%TO.C,TP11*%
X154756000Y-117672000D02*
X157156000Y-117672000D01*
X157156000Y-117672000D02*
X157156000Y-120072000D01*
X157156000Y-120072000D02*
X154756000Y-120072000D01*
X154756000Y-120072000D02*
X154756000Y-117672000D01*
%TO.C,TP10*%
X158820000Y-117672000D02*
X161220000Y-117672000D01*
X161220000Y-117672000D02*
X161220000Y-120072000D01*
X161220000Y-120072000D02*
X158820000Y-120072000D01*
X158820000Y-120072000D02*
X158820000Y-117672000D01*
%TO.C,TP9*%
X194126000Y-96844000D02*
X196526000Y-96844000D01*
X196526000Y-96844000D02*
X196526000Y-99244000D01*
X196526000Y-99244000D02*
X194126000Y-99244000D01*
X194126000Y-99244000D02*
X194126000Y-96844000D01*
%TO.C,Disp1*%
X118110000Y-86900000D02*
X207610000Y-86900000D01*
X118110000Y-119900000D02*
X118110000Y-86900000D01*
X207610000Y-125200000D02*
X118110000Y-125200000D01*
X207610000Y-86900000D02*
X207610000Y-119900000D01*
X118110000Y-86900000D02*
X118110000Y-86900000D01*
X118110000Y-119900000D02*
X118110000Y-125200000D01*
X207610000Y-119900000D02*
X207610000Y-125200000D01*
%TO.C,TP8*%
X216605000Y-132645000D02*
X216605000Y-130245000D01*
X219005000Y-132645000D02*
X216605000Y-132645000D01*
X219005000Y-130245000D02*
X219005000Y-132645000D01*
X216605000Y-130245000D02*
X219005000Y-130245000D01*
%TO.C,TP7*%
X242386000Y-133026000D02*
X242386000Y-130626000D01*
X244786000Y-133026000D02*
X242386000Y-133026000D01*
X244786000Y-130626000D02*
X244786000Y-133026000D01*
X242386000Y-130626000D02*
X244786000Y-130626000D01*
%TO.C,TP5*%
X266770000Y-121215000D02*
X266770000Y-118815000D01*
X269170000Y-121215000D02*
X266770000Y-121215000D01*
X269170000Y-118815000D02*
X269170000Y-121215000D01*
X266770000Y-118815000D02*
X269170000Y-118815000D01*
%TO.C,TP4*%
X212160000Y-132645000D02*
X212160000Y-130245000D01*
X214560000Y-132645000D02*
X212160000Y-132645000D01*
X214560000Y-130245000D02*
X214560000Y-132645000D01*
X212160000Y-130245000D02*
X214560000Y-130245000D01*
%TO.C,TP3*%
X207715000Y-132645000D02*
X207715000Y-130245000D01*
X210115000Y-132645000D02*
X207715000Y-132645000D01*
X210115000Y-130245000D02*
X210115000Y-132645000D01*
X207715000Y-130245000D02*
X210115000Y-130245000D01*
%TO.C,TP2*%
X203270000Y-132645000D02*
X203270000Y-130245000D01*
X205670000Y-132645000D02*
X203270000Y-132645000D01*
X205670000Y-130245000D02*
X205670000Y-132645000D01*
X203270000Y-130245000D02*
X205670000Y-130245000D01*
%TO.C,TP1*%
X241370000Y-92005000D02*
X241370000Y-89605000D01*
X243770000Y-92005000D02*
X241370000Y-92005000D01*
X243770000Y-89605000D02*
X243770000Y-92005000D01*
X241370000Y-89605000D02*
X243770000Y-89605000D01*
%TO.C,SW14*%
X87690000Y-105350000D02*
X85030000Y-105350000D01*
X87690000Y-107950000D02*
X87690000Y-105350000D01*
X85030000Y-107950000D02*
X85030000Y-105350000D01*
X87690000Y-107950000D02*
X85030000Y-107950000D01*
X87690000Y-109220000D02*
X87690000Y-110550000D01*
X87690000Y-110550000D02*
X86360000Y-110550000D01*
%TO.C,D30*%
X93470000Y-112070000D02*
X93470000Y-111140000D01*
X93470000Y-108910000D02*
X93470000Y-109840000D01*
X93470000Y-108910000D02*
X91310000Y-108910000D01*
X93470000Y-112070000D02*
X92010000Y-112070000D01*
%TO.C,J1*%
X142940000Y-113020000D02*
X142940000Y-96340000D01*
X136720000Y-95640000D02*
X136720000Y-96920000D01*
X135120000Y-95640000D02*
X136720000Y-95640000D01*
X135120000Y-94620000D02*
X135120000Y-95640000D01*
X139370000Y-94620000D02*
X135120000Y-94620000D01*
X136720000Y-112440000D02*
X133830000Y-112440000D01*
X136720000Y-113720000D02*
X136720000Y-112440000D01*
X135120000Y-113720000D02*
X136720000Y-113720000D01*
X135120000Y-114740000D02*
X135120000Y-113720000D01*
X139370000Y-114740000D02*
X135120000Y-114740000D01*
D16*
%TO.C,SW10*%
X259055000Y-130415000D02*
X258680000Y-130415000D01*
X259055000Y-130040000D02*
X259055000Y-130415000D01*
X252805000Y-130415000D02*
X252805000Y-130015000D01*
X253205000Y-130415000D02*
X252805000Y-130415000D01*
X259055000Y-124165000D02*
X258555000Y-124165000D01*
X259055000Y-124715000D02*
X259055000Y-124165000D01*
X252505000Y-124265000D02*
X250855000Y-124265000D01*
X252505000Y-124490000D02*
X252505000Y-124265000D01*
X252805000Y-124490000D02*
X252505000Y-124490000D01*
X253155000Y-124165000D02*
X252805000Y-124490000D01*
X253155000Y-124165000D02*
X253455000Y-124165000D01*
%TO.C,SW9*%
X232255000Y-130415000D02*
X231880000Y-130415000D01*
X232255000Y-130040000D02*
X232255000Y-130415000D01*
X226005000Y-130415000D02*
X226005000Y-130015000D01*
X226405000Y-130415000D02*
X226005000Y-130415000D01*
X232255000Y-124165000D02*
X231755000Y-124165000D01*
X232255000Y-124715000D02*
X232255000Y-124165000D01*
X225705000Y-124265000D02*
X224055000Y-124265000D01*
X225705000Y-124490000D02*
X225705000Y-124265000D01*
X226005000Y-124490000D02*
X225705000Y-124490000D01*
X226355000Y-124165000D02*
X226005000Y-124490000D01*
X226355000Y-124165000D02*
X226655000Y-124165000D01*
%TO.C,SW8*%
X193625000Y-136475000D02*
X193250000Y-136475000D01*
X193625000Y-136100000D02*
X193625000Y-136475000D01*
X187375000Y-136475000D02*
X187375000Y-136075000D01*
X187775000Y-136475000D02*
X187375000Y-136475000D01*
X193625000Y-130225000D02*
X193125000Y-130225000D01*
X193625000Y-130775000D02*
X193625000Y-130225000D01*
X187075000Y-130325000D02*
X185425000Y-130325000D01*
X187075000Y-130550000D02*
X187075000Y-130325000D01*
X187375000Y-130550000D02*
X187075000Y-130550000D01*
X187725000Y-130225000D02*
X187375000Y-130550000D01*
X187725000Y-130225000D02*
X188025000Y-130225000D01*
%TO.C,SW7*%
X179020000Y-136475000D02*
X178645000Y-136475000D01*
X179020000Y-136100000D02*
X179020000Y-136475000D01*
X172770000Y-136475000D02*
X172770000Y-136075000D01*
X173170000Y-136475000D02*
X172770000Y-136475000D01*
X179020000Y-130225000D02*
X178520000Y-130225000D01*
X179020000Y-130775000D02*
X179020000Y-130225000D01*
X172470000Y-130325000D02*
X170820000Y-130325000D01*
X172470000Y-130550000D02*
X172470000Y-130325000D01*
X172770000Y-130550000D02*
X172470000Y-130550000D01*
X173120000Y-130225000D02*
X172770000Y-130550000D01*
X173120000Y-130225000D02*
X173420000Y-130225000D01*
%TO.C,SW6*%
X164415000Y-136475000D02*
X164040000Y-136475000D01*
X164415000Y-136100000D02*
X164415000Y-136475000D01*
X158165000Y-136475000D02*
X158165000Y-136075000D01*
X158565000Y-136475000D02*
X158165000Y-136475000D01*
X164415000Y-130225000D02*
X163915000Y-130225000D01*
X164415000Y-130775000D02*
X164415000Y-130225000D01*
X157865000Y-130325000D02*
X156215000Y-130325000D01*
X157865000Y-130550000D02*
X157865000Y-130325000D01*
X158165000Y-130550000D02*
X157865000Y-130550000D01*
X158515000Y-130225000D02*
X158165000Y-130550000D01*
X158515000Y-130225000D02*
X158815000Y-130225000D01*
%TO.C,SW5*%
X149810000Y-136475000D02*
X149435000Y-136475000D01*
X149810000Y-136100000D02*
X149810000Y-136475000D01*
X143560000Y-136475000D02*
X143560000Y-136075000D01*
X143960000Y-136475000D02*
X143560000Y-136475000D01*
X149810000Y-130225000D02*
X149310000Y-130225000D01*
X149810000Y-130775000D02*
X149810000Y-130225000D01*
X143260000Y-130325000D02*
X141610000Y-130325000D01*
X143260000Y-130550000D02*
X143260000Y-130325000D01*
X143560000Y-130550000D02*
X143260000Y-130550000D01*
X143910000Y-130225000D02*
X143560000Y-130550000D01*
X143910000Y-130225000D02*
X144210000Y-130225000D01*
%TO.C,SW4*%
X135205000Y-136475000D02*
X134830000Y-136475000D01*
X135205000Y-136100000D02*
X135205000Y-136475000D01*
X128955000Y-136475000D02*
X128955000Y-136075000D01*
X129355000Y-136475000D02*
X128955000Y-136475000D01*
X135205000Y-130225000D02*
X134705000Y-130225000D01*
X135205000Y-130775000D02*
X135205000Y-130225000D01*
X128655000Y-130325000D02*
X127005000Y-130325000D01*
X128655000Y-130550000D02*
X128655000Y-130325000D01*
X128955000Y-130550000D02*
X128655000Y-130550000D01*
X129305000Y-130225000D02*
X128955000Y-130550000D01*
X129305000Y-130225000D02*
X129605000Y-130225000D01*
%TO.C,SW3*%
X106735000Y-136475000D02*
X106360000Y-136475000D01*
X106735000Y-136100000D02*
X106735000Y-136475000D01*
X100485000Y-136475000D02*
X100485000Y-136075000D01*
X100885000Y-136475000D02*
X100485000Y-136475000D01*
X106735000Y-130225000D02*
X106235000Y-130225000D01*
X106735000Y-130775000D02*
X106735000Y-130225000D01*
X100185000Y-130325000D02*
X98535000Y-130325000D01*
X100185000Y-130550000D02*
X100185000Y-130325000D01*
X100485000Y-130550000D02*
X100185000Y-130550000D01*
X100835000Y-130225000D02*
X100485000Y-130550000D01*
X100835000Y-130225000D02*
X101135000Y-130225000D01*
%TO.C,SW2*%
X106735000Y-124065000D02*
X106360000Y-124065000D01*
X106735000Y-123690000D02*
X106735000Y-124065000D01*
X100485000Y-124065000D02*
X100485000Y-123665000D01*
X100885000Y-124065000D02*
X100485000Y-124065000D01*
X106735000Y-117815000D02*
X106235000Y-117815000D01*
X106735000Y-118365000D02*
X106735000Y-117815000D01*
X100185000Y-117915000D02*
X98535000Y-117915000D01*
X100185000Y-118140000D02*
X100185000Y-117915000D01*
X100485000Y-118140000D02*
X100185000Y-118140000D01*
X100835000Y-117815000D02*
X100485000Y-118140000D01*
X100835000Y-117815000D02*
X101135000Y-117815000D01*
%TO.C,SW1*%
X106735000Y-103745000D02*
X106360000Y-103745000D01*
X106735000Y-103370000D02*
X106735000Y-103745000D01*
X100485000Y-103745000D02*
X100485000Y-103345000D01*
X100885000Y-103745000D02*
X100485000Y-103745000D01*
X106735000Y-97495000D02*
X106235000Y-97495000D01*
X106735000Y-98045000D02*
X106735000Y-97495000D01*
X100185000Y-97595000D02*
X98535000Y-97595000D01*
X100185000Y-97820000D02*
X100185000Y-97595000D01*
X100485000Y-97820000D02*
X100185000Y-97820000D01*
X100835000Y-97495000D02*
X100485000Y-97820000D01*
X100835000Y-97495000D02*
X101135000Y-97495000D01*
D15*
%TO.C,SW11*%
X242530000Y-109840000D02*
X242530000Y-108840000D01*
X242030000Y-109340000D02*
X243030000Y-109340000D01*
X246030000Y-103240000D02*
X248430000Y-103240000D01*
X241230000Y-103240000D02*
X243830000Y-103240000D01*
X236630000Y-103240000D02*
X239030000Y-103240000D01*
X238430000Y-116540000D02*
X238730000Y-116840000D01*
X238430000Y-117140000D02*
X238430000Y-116540000D01*
X238730000Y-116840000D02*
X238430000Y-117140000D01*
X236630000Y-115440000D02*
X248430000Y-115440000D01*
X236630000Y-111340000D02*
X236630000Y-115440000D01*
X248430000Y-111340000D02*
X248430000Y-115440000D01*
X248430000Y-103240000D02*
X248430000Y-107340000D01*
X236630000Y-107340000D02*
X236630000Y-103240000D01*
X245530000Y-109340000D02*
G75*
G03*
X245530000Y-109340000I-3000000J0D01*
G01*
%TO.C,J2*%
X166310000Y-97620000D02*
X171510000Y-97620000D01*
X171510000Y-97620000D02*
X171510000Y-94960000D01*
X171510000Y-94960000D02*
X166310000Y-94960000D01*
X166310000Y-94960000D02*
X166310000Y-97620000D01*
X167260000Y-94960000D02*
X167260000Y-88960000D01*
X167260000Y-88960000D02*
X168020000Y-88960000D01*
X168020000Y-88960000D02*
X168020000Y-94960000D01*
X167320000Y-94960000D02*
X167320000Y-88960000D01*
X167440000Y-94960000D02*
X167440000Y-88960000D01*
X167560000Y-94960000D02*
X167560000Y-88960000D01*
X167680000Y-94960000D02*
X167680000Y-88960000D01*
X167800000Y-94960000D02*
X167800000Y-88960000D01*
X167920000Y-94960000D02*
X167920000Y-88960000D01*
X167260000Y-97950000D02*
X167260000Y-97620000D01*
X168020000Y-97950000D02*
X168020000Y-97620000D01*
X168910000Y-97620000D02*
X168910000Y-94960000D01*
X169800000Y-94960000D02*
X169800000Y-88960000D01*
X169800000Y-88960000D02*
X170560000Y-88960000D01*
X170560000Y-88960000D02*
X170560000Y-94960000D01*
X169800000Y-98017071D02*
X169800000Y-97620000D01*
X170560000Y-98017071D02*
X170560000Y-97620000D01*
X167640000Y-100330000D02*
X166370000Y-100330000D01*
X166370000Y-100330000D02*
X166370000Y-99060000D01*
%TO.C,D21*%
X107094000Y-87420000D02*
X114394000Y-87420000D01*
X107094000Y-92920000D02*
X114394000Y-92920000D01*
X114394000Y-92920000D02*
X114394000Y-91770000D01*
%TO.C,D20*%
X96934000Y-87420000D02*
X104234000Y-87420000D01*
X96934000Y-92920000D02*
X104234000Y-92920000D01*
X104234000Y-92920000D02*
X104234000Y-91770000D01*
%TO.C,D19*%
X86774000Y-87420000D02*
X94074000Y-87420000D01*
X86774000Y-92920000D02*
X94074000Y-92920000D01*
X94074000Y-92920000D02*
X94074000Y-91770000D01*
%TO.C,D18*%
X226220000Y-96310000D02*
X233520000Y-96310000D01*
X226220000Y-101810000D02*
X233520000Y-101810000D01*
X233520000Y-101810000D02*
X233520000Y-100660000D01*
%TO.C,D17*%
X251620000Y-96310000D02*
X258920000Y-96310000D01*
X251620000Y-101810000D02*
X258920000Y-101810000D01*
X258920000Y-101810000D02*
X258920000Y-100660000D01*
%TO.C,D11*%
X254760000Y-110800000D02*
X254760000Y-109870000D01*
X254760000Y-107640000D02*
X254760000Y-108570000D01*
X254760000Y-107640000D02*
X252600000Y-107640000D01*
X254760000Y-110800000D02*
X253300000Y-110800000D01*
%TO.C,D10*%
X247140000Y-128580000D02*
X247140000Y-127650000D01*
X247140000Y-125420000D02*
X247140000Y-126350000D01*
X247140000Y-125420000D02*
X244980000Y-125420000D01*
X247140000Y-128580000D02*
X245680000Y-128580000D01*
%TO.C,D9*%
X239520000Y-128580000D02*
X239520000Y-127650000D01*
X239520000Y-125420000D02*
X239520000Y-126350000D01*
X239520000Y-125420000D02*
X237360000Y-125420000D01*
X239520000Y-128580000D02*
X238060000Y-128580000D01*
%TO.C,D8*%
X192080000Y-126240000D02*
X191150000Y-126240000D01*
X188920000Y-126240000D02*
X189850000Y-126240000D01*
X188920000Y-126240000D02*
X188920000Y-128400000D01*
X192080000Y-126240000D02*
X192080000Y-127700000D01*
%TO.C,D7*%
X176840000Y-126240000D02*
X175910000Y-126240000D01*
X173680000Y-126240000D02*
X174610000Y-126240000D01*
X173680000Y-126240000D02*
X173680000Y-128400000D01*
X176840000Y-126240000D02*
X176840000Y-127700000D01*
%TO.C,D6*%
X162870000Y-126240000D02*
X161940000Y-126240000D01*
X159710000Y-126240000D02*
X160640000Y-126240000D01*
X159710000Y-126240000D02*
X159710000Y-128400000D01*
X162870000Y-126240000D02*
X162870000Y-127700000D01*
%TO.C,D5*%
X147630000Y-126240000D02*
X146700000Y-126240000D01*
X144470000Y-126240000D02*
X145400000Y-126240000D01*
X144470000Y-126240000D02*
X144470000Y-128400000D01*
X147630000Y-126240000D02*
X147630000Y-127700000D01*
%TO.C,D4*%
X133660000Y-126240000D02*
X132730000Y-126240000D01*
X130500000Y-126240000D02*
X131430000Y-126240000D01*
X130500000Y-126240000D02*
X130500000Y-128400000D01*
X133660000Y-126240000D02*
X133660000Y-127700000D01*
%TO.C,D3*%
X113790000Y-133660000D02*
X113790000Y-132730000D01*
X113790000Y-130500000D02*
X113790000Y-131430000D01*
X113790000Y-130500000D02*
X111630000Y-130500000D01*
X113790000Y-133660000D02*
X112330000Y-133660000D01*
%TO.C,D2*%
X113790000Y-120960000D02*
X113790000Y-120030000D01*
X113790000Y-117800000D02*
X113790000Y-118730000D01*
X113790000Y-117800000D02*
X111630000Y-117800000D01*
X113790000Y-120960000D02*
X112330000Y-120960000D01*
%TO.C,D1*%
X113790000Y-100640000D02*
X113790000Y-99710000D01*
X113790000Y-97480000D02*
X113790000Y-98410000D01*
X113790000Y-97480000D02*
X111630000Y-97480000D01*
X113790000Y-100640000D02*
X112330000Y-100640000D01*
%TO.C,C13*%
X112006748Y-84888000D02*
X112529252Y-84888000D01*
X112006748Y-86308000D02*
X112529252Y-86308000D01*
%TO.C,C12*%
X101846748Y-84888000D02*
X102369252Y-84888000D01*
X101846748Y-86308000D02*
X102369252Y-86308000D01*
%TO.C,C11*%
X91686748Y-84888000D02*
X92209252Y-84888000D01*
X91686748Y-86308000D02*
X92209252Y-86308000D01*
%TO.C,C10*%
X253738748Y-93270000D02*
X254261252Y-93270000D01*
X253738748Y-94690000D02*
X254261252Y-94690000D01*
%TO.C,C9*%
X228338748Y-93270000D02*
X228861252Y-93270000D01*
X228338748Y-94690000D02*
X228861252Y-94690000D01*
%TO.C,C4*%
X128884000Y-96614064D02*
X128884000Y-95409936D01*
X130704000Y-96614064D02*
X130704000Y-95409936D01*
%TO.C,LOGO1*%
D13*
X265787142Y-112791190D02*
X265834761Y-112838809D01*
X265882380Y-112981666D01*
X265882380Y-113076904D01*
X265834761Y-113219761D01*
X265739523Y-113315000D01*
X265644285Y-113362619D01*
X265453809Y-113410238D01*
X265310952Y-113410238D01*
X265120476Y-113362619D01*
X265025238Y-113315000D01*
X264930000Y-113219761D01*
X264882380Y-113076904D01*
X264882380Y-112981666D01*
X264930000Y-112838809D01*
X264977619Y-112791190D01*
X265882380Y-112219761D02*
X265834761Y-112315000D01*
X265787142Y-112362619D01*
X265691904Y-112410238D01*
X265406190Y-112410238D01*
X265310952Y-112362619D01*
X265263333Y-112315000D01*
X265215714Y-112219761D01*
X265215714Y-112076904D01*
X265263333Y-111981666D01*
X265310952Y-111934047D01*
X265406190Y-111886428D01*
X265691904Y-111886428D01*
X265787142Y-111934047D01*
X265834761Y-111981666D01*
X265882380Y-112076904D01*
X265882380Y-112219761D01*
X265882380Y-111029285D02*
X264882380Y-111029285D01*
X265834761Y-111029285D02*
X265882380Y-111124523D01*
X265882380Y-111315000D01*
X265834761Y-111410238D01*
X265787142Y-111457857D01*
X265691904Y-111505476D01*
X265406190Y-111505476D01*
X265310952Y-111457857D01*
X265263333Y-111410238D01*
X265215714Y-111315000D01*
X265215714Y-111124523D01*
X265263333Y-111029285D01*
X265882380Y-110553095D02*
X265215714Y-110553095D01*
X264882380Y-110553095D02*
X264930000Y-110600714D01*
X264977619Y-110553095D01*
X264930000Y-110505476D01*
X264882380Y-110553095D01*
X264977619Y-110553095D01*
X265215714Y-110076904D02*
X265882380Y-110076904D01*
X265310952Y-110076904D02*
X265263333Y-110029285D01*
X265215714Y-109934047D01*
X265215714Y-109791190D01*
X265263333Y-109695952D01*
X265358571Y-109648333D01*
X265882380Y-109648333D01*
X265215714Y-108743571D02*
X266025238Y-108743571D01*
X266120476Y-108791190D01*
X266168095Y-108838809D01*
X266215714Y-108934047D01*
X266215714Y-109076904D01*
X266168095Y-109172142D01*
X265834761Y-108743571D02*
X265882380Y-108838809D01*
X265882380Y-109029285D01*
X265834761Y-109124523D01*
X265787142Y-109172142D01*
X265691904Y-109219761D01*
X265406190Y-109219761D01*
X265310952Y-109172142D01*
X265263333Y-109124523D01*
X265215714Y-109029285D01*
X265215714Y-108838809D01*
X265263333Y-108743571D01*
X265215714Y-108410238D02*
X265215714Y-108029285D01*
X265882380Y-108267380D02*
X265025238Y-108267380D01*
X264930000Y-108219761D01*
X264882380Y-108124523D01*
X264882380Y-108029285D01*
X265882380Y-107695952D02*
X265215714Y-107695952D01*
X265406190Y-107695952D02*
X265310952Y-107648333D01*
X265263333Y-107600714D01*
X265215714Y-107505476D01*
X265215714Y-107410238D01*
X265882380Y-106648333D02*
X265358571Y-106648333D01*
X265263333Y-106695952D01*
X265215714Y-106791190D01*
X265215714Y-106981666D01*
X265263333Y-107076904D01*
X265834761Y-106648333D02*
X265882380Y-106743571D01*
X265882380Y-106981666D01*
X265834761Y-107076904D01*
X265739523Y-107124523D01*
X265644285Y-107124523D01*
X265549047Y-107076904D01*
X265501428Y-106981666D01*
X265501428Y-106743571D01*
X265453809Y-106648333D01*
X265215714Y-105743571D02*
X266025238Y-105743571D01*
X266120476Y-105791190D01*
X266168095Y-105838809D01*
X266215714Y-105934047D01*
X266215714Y-106076904D01*
X266168095Y-106172142D01*
X265834761Y-105743571D02*
X265882380Y-105838809D01*
X265882380Y-106029285D01*
X265834761Y-106124523D01*
X265787142Y-106172142D01*
X265691904Y-106219761D01*
X265406190Y-106219761D01*
X265310952Y-106172142D01*
X265263333Y-106124523D01*
X265215714Y-106029285D01*
X265215714Y-105838809D01*
X265263333Y-105743571D01*
X265882380Y-105267380D02*
X265215714Y-105267380D01*
X265310952Y-105267380D02*
X265263333Y-105219761D01*
X265215714Y-105124523D01*
X265215714Y-104981666D01*
X265263333Y-104886428D01*
X265358571Y-104838809D01*
X265882380Y-104838809D01*
X265358571Y-104838809D02*
X265263333Y-104791190D01*
X265215714Y-104695952D01*
X265215714Y-104553095D01*
X265263333Y-104457857D01*
X265358571Y-104410238D01*
X265882380Y-104410238D01*
X265834761Y-103553095D02*
X265882380Y-103648333D01*
X265882380Y-103838809D01*
X265834761Y-103934047D01*
X265739523Y-103981666D01*
X265358571Y-103981666D01*
X265263333Y-103934047D01*
X265215714Y-103838809D01*
X265215714Y-103648333D01*
X265263333Y-103553095D01*
X265358571Y-103505476D01*
X265453809Y-103505476D01*
X265549047Y-103981666D01*
X265215714Y-103076904D02*
X265882380Y-103076904D01*
X265310952Y-103076904D02*
X265263333Y-103029285D01*
X265215714Y-102934047D01*
X265215714Y-102791190D01*
X265263333Y-102695952D01*
X265358571Y-102648333D01*
X265882380Y-102648333D01*
X265215714Y-102315000D02*
X265215714Y-101934047D01*
X264882380Y-102172142D02*
X265739523Y-102172142D01*
X265834761Y-102124523D01*
X265882380Y-102029285D01*
X265882380Y-101934047D01*
X265834761Y-101648333D02*
X265882380Y-101553095D01*
X265882380Y-101362619D01*
X265834761Y-101267380D01*
X265739523Y-101219761D01*
X265691904Y-101219761D01*
X265596666Y-101267380D01*
X265549047Y-101362619D01*
X265549047Y-101505476D01*
X265501428Y-101600714D01*
X265406190Y-101648333D01*
X265358571Y-101648333D01*
X265263333Y-101600714D01*
X265215714Y-101505476D01*
X265215714Y-101362619D01*
X265263333Y-101267380D01*
%TO.C,TP12*%
X150153904Y-116326380D02*
X150725333Y-116326380D01*
X150439619Y-117326380D02*
X150439619Y-116326380D01*
X151058666Y-117326380D02*
X151058666Y-116326380D01*
X151439619Y-116326380D01*
X151534857Y-116374000D01*
X151582476Y-116421619D01*
X151630095Y-116516857D01*
X151630095Y-116659714D01*
X151582476Y-116754952D01*
X151534857Y-116802571D01*
X151439619Y-116850190D01*
X151058666Y-116850190D01*
X152582476Y-117326380D02*
X152011047Y-117326380D01*
X152296761Y-117326380D02*
X152296761Y-116326380D01*
X152201523Y-116469238D01*
X152106285Y-116564476D01*
X152011047Y-116612095D01*
X152963428Y-116421619D02*
X153011047Y-116374000D01*
X153106285Y-116326380D01*
X153344380Y-116326380D01*
X153439619Y-116374000D01*
X153487238Y-116421619D01*
X153534857Y-116516857D01*
X153534857Y-116612095D01*
X153487238Y-116754952D01*
X152915809Y-117326380D01*
X153534857Y-117326380D01*
%TO.C,TP11*%
X154217904Y-116326380D02*
X154789333Y-116326380D01*
X154503619Y-117326380D02*
X154503619Y-116326380D01*
X155122666Y-117326380D02*
X155122666Y-116326380D01*
X155503619Y-116326380D01*
X155598857Y-116374000D01*
X155646476Y-116421619D01*
X155694095Y-116516857D01*
X155694095Y-116659714D01*
X155646476Y-116754952D01*
X155598857Y-116802571D01*
X155503619Y-116850190D01*
X155122666Y-116850190D01*
X156646476Y-117326380D02*
X156075047Y-117326380D01*
X156360761Y-117326380D02*
X156360761Y-116326380D01*
X156265523Y-116469238D01*
X156170285Y-116564476D01*
X156075047Y-116612095D01*
X157598857Y-117326380D02*
X157027428Y-117326380D01*
X157313142Y-117326380D02*
X157313142Y-116326380D01*
X157217904Y-116469238D01*
X157122666Y-116564476D01*
X157027428Y-116612095D01*
%TO.C,TP10*%
X158281904Y-116326380D02*
X158853333Y-116326380D01*
X158567619Y-117326380D02*
X158567619Y-116326380D01*
X159186666Y-117326380D02*
X159186666Y-116326380D01*
X159567619Y-116326380D01*
X159662857Y-116374000D01*
X159710476Y-116421619D01*
X159758095Y-116516857D01*
X159758095Y-116659714D01*
X159710476Y-116754952D01*
X159662857Y-116802571D01*
X159567619Y-116850190D01*
X159186666Y-116850190D01*
X160710476Y-117326380D02*
X160139047Y-117326380D01*
X160424761Y-117326380D02*
X160424761Y-116326380D01*
X160329523Y-116469238D01*
X160234285Y-116564476D01*
X160139047Y-116612095D01*
X161329523Y-116326380D02*
X161424761Y-116326380D01*
X161520000Y-116374000D01*
X161567619Y-116421619D01*
X161615238Y-116516857D01*
X161662857Y-116707333D01*
X161662857Y-116945428D01*
X161615238Y-117135904D01*
X161567619Y-117231142D01*
X161520000Y-117278761D01*
X161424761Y-117326380D01*
X161329523Y-117326380D01*
X161234285Y-117278761D01*
X161186666Y-117231142D01*
X161139047Y-117135904D01*
X161091428Y-116945428D01*
X161091428Y-116707333D01*
X161139047Y-116516857D01*
X161186666Y-116421619D01*
X161234285Y-116374000D01*
X161329523Y-116326380D01*
%TO.C,TP9*%
X194064095Y-95498380D02*
X194635523Y-95498380D01*
X194349809Y-96498380D02*
X194349809Y-95498380D01*
X194968857Y-96498380D02*
X194968857Y-95498380D01*
X195349809Y-95498380D01*
X195445047Y-95546000D01*
X195492666Y-95593619D01*
X195540285Y-95688857D01*
X195540285Y-95831714D01*
X195492666Y-95926952D01*
X195445047Y-95974571D01*
X195349809Y-96022190D01*
X194968857Y-96022190D01*
X196016476Y-96498380D02*
X196206952Y-96498380D01*
X196302190Y-96450761D01*
X196349809Y-96403142D01*
X196445047Y-96260285D01*
X196492666Y-96069809D01*
X196492666Y-95688857D01*
X196445047Y-95593619D01*
X196397428Y-95546000D01*
X196302190Y-95498380D01*
X196111714Y-95498380D01*
X196016476Y-95546000D01*
X195968857Y-95593619D01*
X195921238Y-95688857D01*
X195921238Y-95926952D01*
X195968857Y-96022190D01*
X196016476Y-96069809D01*
X196111714Y-96117428D01*
X196302190Y-96117428D01*
X196397428Y-96069809D01*
X196445047Y-96022190D01*
X196492666Y-95926952D01*
%TO.C,Disp1*%
X119236666Y-85912380D02*
X119236666Y-84912380D01*
X119474761Y-84912380D01*
X119617619Y-84960000D01*
X119712857Y-85055238D01*
X119760476Y-85150476D01*
X119808095Y-85340952D01*
X119808095Y-85483809D01*
X119760476Y-85674285D01*
X119712857Y-85769523D01*
X119617619Y-85864761D01*
X119474761Y-85912380D01*
X119236666Y-85912380D01*
X120236666Y-85912380D02*
X120236666Y-85245714D01*
X120236666Y-84912380D02*
X120189047Y-84960000D01*
X120236666Y-85007619D01*
X120284285Y-84960000D01*
X120236666Y-84912380D01*
X120236666Y-85007619D01*
X120665238Y-85864761D02*
X120760476Y-85912380D01*
X120950952Y-85912380D01*
X121046190Y-85864761D01*
X121093809Y-85769523D01*
X121093809Y-85721904D01*
X121046190Y-85626666D01*
X120950952Y-85579047D01*
X120808095Y-85579047D01*
X120712857Y-85531428D01*
X120665238Y-85436190D01*
X120665238Y-85388571D01*
X120712857Y-85293333D01*
X120808095Y-85245714D01*
X120950952Y-85245714D01*
X121046190Y-85293333D01*
X121522380Y-85245714D02*
X121522380Y-86245714D01*
X121522380Y-85293333D02*
X121617619Y-85245714D01*
X121808095Y-85245714D01*
X121903333Y-85293333D01*
X121950952Y-85340952D01*
X121998571Y-85436190D01*
X121998571Y-85721904D01*
X121950952Y-85817142D01*
X121903333Y-85864761D01*
X121808095Y-85912380D01*
X121617619Y-85912380D01*
X121522380Y-85864761D01*
X122950952Y-85912380D02*
X122379523Y-85912380D01*
X122665238Y-85912380D02*
X122665238Y-84912380D01*
X122570000Y-85055238D01*
X122474761Y-85150476D01*
X122379523Y-85198095D01*
%TO.C,TP8*%
X216543095Y-128899380D02*
X217114523Y-128899380D01*
X216828809Y-129899380D02*
X216828809Y-128899380D01*
X217447857Y-129899380D02*
X217447857Y-128899380D01*
X217828809Y-128899380D01*
X217924047Y-128947000D01*
X217971666Y-128994619D01*
X218019285Y-129089857D01*
X218019285Y-129232714D01*
X217971666Y-129327952D01*
X217924047Y-129375571D01*
X217828809Y-129423190D01*
X217447857Y-129423190D01*
X218590714Y-129327952D02*
X218495476Y-129280333D01*
X218447857Y-129232714D01*
X218400238Y-129137476D01*
X218400238Y-129089857D01*
X218447857Y-128994619D01*
X218495476Y-128947000D01*
X218590714Y-128899380D01*
X218781190Y-128899380D01*
X218876428Y-128947000D01*
X218924047Y-128994619D01*
X218971666Y-129089857D01*
X218971666Y-129137476D01*
X218924047Y-129232714D01*
X218876428Y-129280333D01*
X218781190Y-129327952D01*
X218590714Y-129327952D01*
X218495476Y-129375571D01*
X218447857Y-129423190D01*
X218400238Y-129518428D01*
X218400238Y-129708904D01*
X218447857Y-129804142D01*
X218495476Y-129851761D01*
X218590714Y-129899380D01*
X218781190Y-129899380D01*
X218876428Y-129851761D01*
X218924047Y-129804142D01*
X218971666Y-129708904D01*
X218971666Y-129518428D01*
X218924047Y-129423190D01*
X218876428Y-129375571D01*
X218781190Y-129327952D01*
%TO.C,TP7*%
X242324095Y-129280380D02*
X242895523Y-129280380D01*
X242609809Y-130280380D02*
X242609809Y-129280380D01*
X243228857Y-130280380D02*
X243228857Y-129280380D01*
X243609809Y-129280380D01*
X243705047Y-129328000D01*
X243752666Y-129375619D01*
X243800285Y-129470857D01*
X243800285Y-129613714D01*
X243752666Y-129708952D01*
X243705047Y-129756571D01*
X243609809Y-129804190D01*
X243228857Y-129804190D01*
X244133619Y-129280380D02*
X244800285Y-129280380D01*
X244371714Y-130280380D01*
%TO.C,TP5*%
X266708095Y-117469380D02*
X267279523Y-117469380D01*
X266993809Y-118469380D02*
X266993809Y-117469380D01*
X267612857Y-118469380D02*
X267612857Y-117469380D01*
X267993809Y-117469380D01*
X268089047Y-117517000D01*
X268136666Y-117564619D01*
X268184285Y-117659857D01*
X268184285Y-117802714D01*
X268136666Y-117897952D01*
X268089047Y-117945571D01*
X267993809Y-117993190D01*
X267612857Y-117993190D01*
X269089047Y-117469380D02*
X268612857Y-117469380D01*
X268565238Y-117945571D01*
X268612857Y-117897952D01*
X268708095Y-117850333D01*
X268946190Y-117850333D01*
X269041428Y-117897952D01*
X269089047Y-117945571D01*
X269136666Y-118040809D01*
X269136666Y-118278904D01*
X269089047Y-118374142D01*
X269041428Y-118421761D01*
X268946190Y-118469380D01*
X268708095Y-118469380D01*
X268612857Y-118421761D01*
X268565238Y-118374142D01*
%TO.C,TP4*%
X212098095Y-128899380D02*
X212669523Y-128899380D01*
X212383809Y-129899380D02*
X212383809Y-128899380D01*
X213002857Y-129899380D02*
X213002857Y-128899380D01*
X213383809Y-128899380D01*
X213479047Y-128947000D01*
X213526666Y-128994619D01*
X213574285Y-129089857D01*
X213574285Y-129232714D01*
X213526666Y-129327952D01*
X213479047Y-129375571D01*
X213383809Y-129423190D01*
X213002857Y-129423190D01*
X214431428Y-129232714D02*
X214431428Y-129899380D01*
X214193333Y-128851761D02*
X213955238Y-129566047D01*
X214574285Y-129566047D01*
%TO.C,TP3*%
X207653095Y-128899380D02*
X208224523Y-128899380D01*
X207938809Y-129899380D02*
X207938809Y-128899380D01*
X208557857Y-129899380D02*
X208557857Y-128899380D01*
X208938809Y-128899380D01*
X209034047Y-128947000D01*
X209081666Y-128994619D01*
X209129285Y-129089857D01*
X209129285Y-129232714D01*
X209081666Y-129327952D01*
X209034047Y-129375571D01*
X208938809Y-129423190D01*
X208557857Y-129423190D01*
X209462619Y-128899380D02*
X210081666Y-128899380D01*
X209748333Y-129280333D01*
X209891190Y-129280333D01*
X209986428Y-129327952D01*
X210034047Y-129375571D01*
X210081666Y-129470809D01*
X210081666Y-129708904D01*
X210034047Y-129804142D01*
X209986428Y-129851761D01*
X209891190Y-129899380D01*
X209605476Y-129899380D01*
X209510238Y-129851761D01*
X209462619Y-129804142D01*
%TO.C,TP2*%
X203208095Y-128899380D02*
X203779523Y-128899380D01*
X203493809Y-129899380D02*
X203493809Y-128899380D01*
X204112857Y-129899380D02*
X204112857Y-128899380D01*
X204493809Y-128899380D01*
X204589047Y-128947000D01*
X204636666Y-128994619D01*
X204684285Y-129089857D01*
X204684285Y-129232714D01*
X204636666Y-129327952D01*
X204589047Y-129375571D01*
X204493809Y-129423190D01*
X204112857Y-129423190D01*
X205065238Y-128994619D02*
X205112857Y-128947000D01*
X205208095Y-128899380D01*
X205446190Y-128899380D01*
X205541428Y-128947000D01*
X205589047Y-128994619D01*
X205636666Y-129089857D01*
X205636666Y-129185095D01*
X205589047Y-129327952D01*
X205017619Y-129899380D01*
X205636666Y-129899380D01*
%TO.C,TP1*%
X241308095Y-88259380D02*
X241879523Y-88259380D01*
X241593809Y-89259380D02*
X241593809Y-88259380D01*
X242212857Y-89259380D02*
X242212857Y-88259380D01*
X242593809Y-88259380D01*
X242689047Y-88307000D01*
X242736666Y-88354619D01*
X242784285Y-88449857D01*
X242784285Y-88592714D01*
X242736666Y-88687952D01*
X242689047Y-88735571D01*
X242593809Y-88783190D01*
X242212857Y-88783190D01*
X243736666Y-89259380D02*
X243165238Y-89259380D01*
X243450952Y-89259380D02*
X243450952Y-88259380D01*
X243355714Y-88402238D01*
X243260476Y-88497476D01*
X243165238Y-88545095D01*
%TO.C,SW14*%
X84550476Y-111954761D02*
X84693333Y-112002380D01*
X84931428Y-112002380D01*
X85026666Y-111954761D01*
X85074285Y-111907142D01*
X85121904Y-111811904D01*
X85121904Y-111716666D01*
X85074285Y-111621428D01*
X85026666Y-111573809D01*
X84931428Y-111526190D01*
X84740952Y-111478571D01*
X84645714Y-111430952D01*
X84598095Y-111383333D01*
X84550476Y-111288095D01*
X84550476Y-111192857D01*
X84598095Y-111097619D01*
X84645714Y-111050000D01*
X84740952Y-111002380D01*
X84979047Y-111002380D01*
X85121904Y-111050000D01*
X85455238Y-111002380D02*
X85693333Y-112002380D01*
X85883809Y-111288095D01*
X86074285Y-112002380D01*
X86312380Y-111002380D01*
X87217142Y-112002380D02*
X86645714Y-112002380D01*
X86931428Y-112002380D02*
X86931428Y-111002380D01*
X86836190Y-111145238D01*
X86740952Y-111240476D01*
X86645714Y-111288095D01*
X88074285Y-111335714D02*
X88074285Y-112002380D01*
X87836190Y-110954761D02*
X87598095Y-111669047D01*
X88217142Y-111669047D01*
%TO.C,D30*%
X91495714Y-108442380D02*
X91495714Y-107442380D01*
X91733809Y-107442380D01*
X91876666Y-107490000D01*
X91971904Y-107585238D01*
X92019523Y-107680476D01*
X92067142Y-107870952D01*
X92067142Y-108013809D01*
X92019523Y-108204285D01*
X91971904Y-108299523D01*
X91876666Y-108394761D01*
X91733809Y-108442380D01*
X91495714Y-108442380D01*
X92400476Y-107442380D02*
X93019523Y-107442380D01*
X92686190Y-107823333D01*
X92829047Y-107823333D01*
X92924285Y-107870952D01*
X92971904Y-107918571D01*
X93019523Y-108013809D01*
X93019523Y-108251904D01*
X92971904Y-108347142D01*
X92924285Y-108394761D01*
X92829047Y-108442380D01*
X92543333Y-108442380D01*
X92448095Y-108394761D01*
X92400476Y-108347142D01*
X93638571Y-107442380D02*
X93733809Y-107442380D01*
X93829047Y-107490000D01*
X93876666Y-107537619D01*
X93924285Y-107632857D01*
X93971904Y-107823333D01*
X93971904Y-108061428D01*
X93924285Y-108251904D01*
X93876666Y-108347142D01*
X93829047Y-108394761D01*
X93733809Y-108442380D01*
X93638571Y-108442380D01*
X93543333Y-108394761D01*
X93495714Y-108347142D01*
X93448095Y-108251904D01*
X93400476Y-108061428D01*
X93400476Y-107823333D01*
X93448095Y-107632857D01*
X93495714Y-107537619D01*
X93543333Y-107490000D01*
X93638571Y-107442380D01*
%TO.C,J1*%
X132082380Y-105013333D02*
X132796666Y-105013333D01*
X132939523Y-105060952D01*
X133034761Y-105156190D01*
X133082380Y-105299047D01*
X133082380Y-105394285D01*
X133082380Y-104013333D02*
X133082380Y-104584761D01*
X133082380Y-104299047D02*
X132082380Y-104299047D01*
X132225238Y-104394285D01*
X132320476Y-104489523D01*
X132368095Y-104584761D01*
%TO.C,SW10*%
X254090476Y-123004761D02*
X254233333Y-123052380D01*
X254471428Y-123052380D01*
X254566666Y-123004761D01*
X254614285Y-122957142D01*
X254661904Y-122861904D01*
X254661904Y-122766666D01*
X254614285Y-122671428D01*
X254566666Y-122623809D01*
X254471428Y-122576190D01*
X254280952Y-122528571D01*
X254185714Y-122480952D01*
X254138095Y-122433333D01*
X254090476Y-122338095D01*
X254090476Y-122242857D01*
X254138095Y-122147619D01*
X254185714Y-122100000D01*
X254280952Y-122052380D01*
X254519047Y-122052380D01*
X254661904Y-122100000D01*
X254995238Y-122052380D02*
X255233333Y-123052380D01*
X255423809Y-122338095D01*
X255614285Y-123052380D01*
X255852380Y-122052380D01*
X256757142Y-123052380D02*
X256185714Y-123052380D01*
X256471428Y-123052380D02*
X256471428Y-122052380D01*
X256376190Y-122195238D01*
X256280952Y-122290476D01*
X256185714Y-122338095D01*
X257376190Y-122052380D02*
X257471428Y-122052380D01*
X257566666Y-122100000D01*
X257614285Y-122147619D01*
X257661904Y-122242857D01*
X257709523Y-122433333D01*
X257709523Y-122671428D01*
X257661904Y-122861904D01*
X257614285Y-122957142D01*
X257566666Y-123004761D01*
X257471428Y-123052380D01*
X257376190Y-123052380D01*
X257280952Y-123004761D01*
X257233333Y-122957142D01*
X257185714Y-122861904D01*
X257138095Y-122671428D01*
X257138095Y-122433333D01*
X257185714Y-122242857D01*
X257233333Y-122147619D01*
X257280952Y-122100000D01*
X257376190Y-122052380D01*
%TO.C,SW9*%
X227766666Y-123004761D02*
X227909523Y-123052380D01*
X228147619Y-123052380D01*
X228242857Y-123004761D01*
X228290476Y-122957142D01*
X228338095Y-122861904D01*
X228338095Y-122766666D01*
X228290476Y-122671428D01*
X228242857Y-122623809D01*
X228147619Y-122576190D01*
X227957142Y-122528571D01*
X227861904Y-122480952D01*
X227814285Y-122433333D01*
X227766666Y-122338095D01*
X227766666Y-122242857D01*
X227814285Y-122147619D01*
X227861904Y-122100000D01*
X227957142Y-122052380D01*
X228195238Y-122052380D01*
X228338095Y-122100000D01*
X228671428Y-122052380D02*
X228909523Y-123052380D01*
X229100000Y-122338095D01*
X229290476Y-123052380D01*
X229528571Y-122052380D01*
X229957142Y-123052380D02*
X230147619Y-123052380D01*
X230242857Y-123004761D01*
X230290476Y-122957142D01*
X230385714Y-122814285D01*
X230433333Y-122623809D01*
X230433333Y-122242857D01*
X230385714Y-122147619D01*
X230338095Y-122100000D01*
X230242857Y-122052380D01*
X230052380Y-122052380D01*
X229957142Y-122100000D01*
X229909523Y-122147619D01*
X229861904Y-122242857D01*
X229861904Y-122480952D01*
X229909523Y-122576190D01*
X229957142Y-122623809D01*
X230052380Y-122671428D01*
X230242857Y-122671428D01*
X230338095Y-122623809D01*
X230385714Y-122576190D01*
X230433333Y-122480952D01*
%TO.C,SW8*%
X189166666Y-138834761D02*
X189309523Y-138882380D01*
X189547619Y-138882380D01*
X189642857Y-138834761D01*
X189690476Y-138787142D01*
X189738095Y-138691904D01*
X189738095Y-138596666D01*
X189690476Y-138501428D01*
X189642857Y-138453809D01*
X189547619Y-138406190D01*
X189357142Y-138358571D01*
X189261904Y-138310952D01*
X189214285Y-138263333D01*
X189166666Y-138168095D01*
X189166666Y-138072857D01*
X189214285Y-137977619D01*
X189261904Y-137930000D01*
X189357142Y-137882380D01*
X189595238Y-137882380D01*
X189738095Y-137930000D01*
X190071428Y-137882380D02*
X190309523Y-138882380D01*
X190500000Y-138168095D01*
X190690476Y-138882380D01*
X190928571Y-137882380D01*
X191452380Y-138310952D02*
X191357142Y-138263333D01*
X191309523Y-138215714D01*
X191261904Y-138120476D01*
X191261904Y-138072857D01*
X191309523Y-137977619D01*
X191357142Y-137930000D01*
X191452380Y-137882380D01*
X191642857Y-137882380D01*
X191738095Y-137930000D01*
X191785714Y-137977619D01*
X191833333Y-138072857D01*
X191833333Y-138120476D01*
X191785714Y-138215714D01*
X191738095Y-138263333D01*
X191642857Y-138310952D01*
X191452380Y-138310952D01*
X191357142Y-138358571D01*
X191309523Y-138406190D01*
X191261904Y-138501428D01*
X191261904Y-138691904D01*
X191309523Y-138787142D01*
X191357142Y-138834761D01*
X191452380Y-138882380D01*
X191642857Y-138882380D01*
X191738095Y-138834761D01*
X191785714Y-138787142D01*
X191833333Y-138691904D01*
X191833333Y-138501428D01*
X191785714Y-138406190D01*
X191738095Y-138358571D01*
X191642857Y-138310952D01*
%TO.C,SW7*%
X174531666Y-138834761D02*
X174674523Y-138882380D01*
X174912619Y-138882380D01*
X175007857Y-138834761D01*
X175055476Y-138787142D01*
X175103095Y-138691904D01*
X175103095Y-138596666D01*
X175055476Y-138501428D01*
X175007857Y-138453809D01*
X174912619Y-138406190D01*
X174722142Y-138358571D01*
X174626904Y-138310952D01*
X174579285Y-138263333D01*
X174531666Y-138168095D01*
X174531666Y-138072857D01*
X174579285Y-137977619D01*
X174626904Y-137930000D01*
X174722142Y-137882380D01*
X174960238Y-137882380D01*
X175103095Y-137930000D01*
X175436428Y-137882380D02*
X175674523Y-138882380D01*
X175865000Y-138168095D01*
X176055476Y-138882380D01*
X176293571Y-137882380D01*
X176579285Y-137882380D02*
X177245952Y-137882380D01*
X176817380Y-138882380D01*
%TO.C,SW6*%
X159926666Y-138834761D02*
X160069523Y-138882380D01*
X160307619Y-138882380D01*
X160402857Y-138834761D01*
X160450476Y-138787142D01*
X160498095Y-138691904D01*
X160498095Y-138596666D01*
X160450476Y-138501428D01*
X160402857Y-138453809D01*
X160307619Y-138406190D01*
X160117142Y-138358571D01*
X160021904Y-138310952D01*
X159974285Y-138263333D01*
X159926666Y-138168095D01*
X159926666Y-138072857D01*
X159974285Y-137977619D01*
X160021904Y-137930000D01*
X160117142Y-137882380D01*
X160355238Y-137882380D01*
X160498095Y-137930000D01*
X160831428Y-137882380D02*
X161069523Y-138882380D01*
X161260000Y-138168095D01*
X161450476Y-138882380D01*
X161688571Y-137882380D01*
X162498095Y-137882380D02*
X162307619Y-137882380D01*
X162212380Y-137930000D01*
X162164761Y-137977619D01*
X162069523Y-138120476D01*
X162021904Y-138310952D01*
X162021904Y-138691904D01*
X162069523Y-138787142D01*
X162117142Y-138834761D01*
X162212380Y-138882380D01*
X162402857Y-138882380D01*
X162498095Y-138834761D01*
X162545714Y-138787142D01*
X162593333Y-138691904D01*
X162593333Y-138453809D01*
X162545714Y-138358571D01*
X162498095Y-138310952D01*
X162402857Y-138263333D01*
X162212380Y-138263333D01*
X162117142Y-138310952D01*
X162069523Y-138358571D01*
X162021904Y-138453809D01*
%TO.C,SW5*%
X145321666Y-138834761D02*
X145464523Y-138882380D01*
X145702619Y-138882380D01*
X145797857Y-138834761D01*
X145845476Y-138787142D01*
X145893095Y-138691904D01*
X145893095Y-138596666D01*
X145845476Y-138501428D01*
X145797857Y-138453809D01*
X145702619Y-138406190D01*
X145512142Y-138358571D01*
X145416904Y-138310952D01*
X145369285Y-138263333D01*
X145321666Y-138168095D01*
X145321666Y-138072857D01*
X145369285Y-137977619D01*
X145416904Y-137930000D01*
X145512142Y-137882380D01*
X145750238Y-137882380D01*
X145893095Y-137930000D01*
X146226428Y-137882380D02*
X146464523Y-138882380D01*
X146655000Y-138168095D01*
X146845476Y-138882380D01*
X147083571Y-137882380D01*
X147940714Y-137882380D02*
X147464523Y-137882380D01*
X147416904Y-138358571D01*
X147464523Y-138310952D01*
X147559761Y-138263333D01*
X147797857Y-138263333D01*
X147893095Y-138310952D01*
X147940714Y-138358571D01*
X147988333Y-138453809D01*
X147988333Y-138691904D01*
X147940714Y-138787142D01*
X147893095Y-138834761D01*
X147797857Y-138882380D01*
X147559761Y-138882380D01*
X147464523Y-138834761D01*
X147416904Y-138787142D01*
%TO.C,SW4*%
X130746666Y-138834761D02*
X130889523Y-138882380D01*
X131127619Y-138882380D01*
X131222857Y-138834761D01*
X131270476Y-138787142D01*
X131318095Y-138691904D01*
X131318095Y-138596666D01*
X131270476Y-138501428D01*
X131222857Y-138453809D01*
X131127619Y-138406190D01*
X130937142Y-138358571D01*
X130841904Y-138310952D01*
X130794285Y-138263333D01*
X130746666Y-138168095D01*
X130746666Y-138072857D01*
X130794285Y-137977619D01*
X130841904Y-137930000D01*
X130937142Y-137882380D01*
X131175238Y-137882380D01*
X131318095Y-137930000D01*
X131651428Y-137882380D02*
X131889523Y-138882380D01*
X132080000Y-138168095D01*
X132270476Y-138882380D01*
X132508571Y-137882380D01*
X133318095Y-138215714D02*
X133318095Y-138882380D01*
X133080000Y-137834761D02*
X132841904Y-138549047D01*
X133460952Y-138549047D01*
%TO.C,SW3*%
X102246666Y-129064761D02*
X102389523Y-129112380D01*
X102627619Y-129112380D01*
X102722857Y-129064761D01*
X102770476Y-129017142D01*
X102818095Y-128921904D01*
X102818095Y-128826666D01*
X102770476Y-128731428D01*
X102722857Y-128683809D01*
X102627619Y-128636190D01*
X102437142Y-128588571D01*
X102341904Y-128540952D01*
X102294285Y-128493333D01*
X102246666Y-128398095D01*
X102246666Y-128302857D01*
X102294285Y-128207619D01*
X102341904Y-128160000D01*
X102437142Y-128112380D01*
X102675238Y-128112380D01*
X102818095Y-128160000D01*
X103151428Y-128112380D02*
X103389523Y-129112380D01*
X103580000Y-128398095D01*
X103770476Y-129112380D01*
X104008571Y-128112380D01*
X104294285Y-128112380D02*
X104913333Y-128112380D01*
X104580000Y-128493333D01*
X104722857Y-128493333D01*
X104818095Y-128540952D01*
X104865714Y-128588571D01*
X104913333Y-128683809D01*
X104913333Y-128921904D01*
X104865714Y-129017142D01*
X104818095Y-129064761D01*
X104722857Y-129112380D01*
X104437142Y-129112380D01*
X104341904Y-129064761D01*
X104294285Y-129017142D01*
%TO.C,SW2*%
X102246666Y-116654761D02*
X102389523Y-116702380D01*
X102627619Y-116702380D01*
X102722857Y-116654761D01*
X102770476Y-116607142D01*
X102818095Y-116511904D01*
X102818095Y-116416666D01*
X102770476Y-116321428D01*
X102722857Y-116273809D01*
X102627619Y-116226190D01*
X102437142Y-116178571D01*
X102341904Y-116130952D01*
X102294285Y-116083333D01*
X102246666Y-115988095D01*
X102246666Y-115892857D01*
X102294285Y-115797619D01*
X102341904Y-115750000D01*
X102437142Y-115702380D01*
X102675238Y-115702380D01*
X102818095Y-115750000D01*
X103151428Y-115702380D02*
X103389523Y-116702380D01*
X103580000Y-115988095D01*
X103770476Y-116702380D01*
X104008571Y-115702380D01*
X104341904Y-115797619D02*
X104389523Y-115750000D01*
X104484761Y-115702380D01*
X104722857Y-115702380D01*
X104818095Y-115750000D01*
X104865714Y-115797619D01*
X104913333Y-115892857D01*
X104913333Y-115988095D01*
X104865714Y-116130952D01*
X104294285Y-116702380D01*
X104913333Y-116702380D01*
%TO.C,SW1*%
X102246666Y-96334761D02*
X102389523Y-96382380D01*
X102627619Y-96382380D01*
X102722857Y-96334761D01*
X102770476Y-96287142D01*
X102818095Y-96191904D01*
X102818095Y-96096666D01*
X102770476Y-96001428D01*
X102722857Y-95953809D01*
X102627619Y-95906190D01*
X102437142Y-95858571D01*
X102341904Y-95810952D01*
X102294285Y-95763333D01*
X102246666Y-95668095D01*
X102246666Y-95572857D01*
X102294285Y-95477619D01*
X102341904Y-95430000D01*
X102437142Y-95382380D01*
X102675238Y-95382380D01*
X102818095Y-95430000D01*
X103151428Y-95382380D02*
X103389523Y-96382380D01*
X103580000Y-95668095D01*
X103770476Y-96382380D01*
X104008571Y-95382380D01*
X104913333Y-96382380D02*
X104341904Y-96382380D01*
X104627619Y-96382380D02*
X104627619Y-95382380D01*
X104532380Y-95525238D01*
X104437142Y-95620476D01*
X104341904Y-95668095D01*
%TO.C,SW11*%
X235734761Y-115849523D02*
X235782380Y-115706666D01*
X235782380Y-115468571D01*
X235734761Y-115373333D01*
X235687142Y-115325714D01*
X235591904Y-115278095D01*
X235496666Y-115278095D01*
X235401428Y-115325714D01*
X235353809Y-115373333D01*
X235306190Y-115468571D01*
X235258571Y-115659047D01*
X235210952Y-115754285D01*
X235163333Y-115801904D01*
X235068095Y-115849523D01*
X234972857Y-115849523D01*
X234877619Y-115801904D01*
X234830000Y-115754285D01*
X234782380Y-115659047D01*
X234782380Y-115420952D01*
X234830000Y-115278095D01*
X234782380Y-114944761D02*
X235782380Y-114706666D01*
X235068095Y-114516190D01*
X235782380Y-114325714D01*
X234782380Y-114087619D01*
X235782380Y-113182857D02*
X235782380Y-113754285D01*
X235782380Y-113468571D02*
X234782380Y-113468571D01*
X234925238Y-113563809D01*
X235020476Y-113659047D01*
X235068095Y-113754285D01*
X235782380Y-112230476D02*
X235782380Y-112801904D01*
X235782380Y-112516190D02*
X234782380Y-112516190D01*
X234925238Y-112611428D01*
X235020476Y-112706666D01*
X235068095Y-112801904D01*
%TO.C,J2*%
X164822380Y-95008333D02*
X165536666Y-95008333D01*
X165679523Y-95055952D01*
X165774761Y-95151190D01*
X165822380Y-95294047D01*
X165822380Y-95389285D01*
X164917619Y-94579761D02*
X164870000Y-94532142D01*
X164822380Y-94436904D01*
X164822380Y-94198809D01*
X164870000Y-94103571D01*
X164917619Y-94055952D01*
X165012857Y-94008333D01*
X165108095Y-94008333D01*
X165250952Y-94055952D01*
X165822380Y-94627380D01*
X165822380Y-94008333D01*
%TO.C,D21*%
X109529714Y-87122380D02*
X109529714Y-86122380D01*
X109767809Y-86122380D01*
X109910666Y-86170000D01*
X110005904Y-86265238D01*
X110053523Y-86360476D01*
X110101142Y-86550952D01*
X110101142Y-86693809D01*
X110053523Y-86884285D01*
X110005904Y-86979523D01*
X109910666Y-87074761D01*
X109767809Y-87122380D01*
X109529714Y-87122380D01*
X110482095Y-86217619D02*
X110529714Y-86170000D01*
X110624952Y-86122380D01*
X110863047Y-86122380D01*
X110958285Y-86170000D01*
X111005904Y-86217619D01*
X111053523Y-86312857D01*
X111053523Y-86408095D01*
X111005904Y-86550952D01*
X110434476Y-87122380D01*
X111053523Y-87122380D01*
X112005904Y-87122380D02*
X111434476Y-87122380D01*
X111720190Y-87122380D02*
X111720190Y-86122380D01*
X111624952Y-86265238D01*
X111529714Y-86360476D01*
X111434476Y-86408095D01*
X106879714Y-89022380D02*
X106308285Y-89022380D01*
X106594000Y-89022380D02*
X106594000Y-88022380D01*
X106498761Y-88165238D01*
X106403523Y-88260476D01*
X106308285Y-88308095D01*
%TO.C,D20*%
X99369714Y-87122380D02*
X99369714Y-86122380D01*
X99607809Y-86122380D01*
X99750666Y-86170000D01*
X99845904Y-86265238D01*
X99893523Y-86360476D01*
X99941142Y-86550952D01*
X99941142Y-86693809D01*
X99893523Y-86884285D01*
X99845904Y-86979523D01*
X99750666Y-87074761D01*
X99607809Y-87122380D01*
X99369714Y-87122380D01*
X100322095Y-86217619D02*
X100369714Y-86170000D01*
X100464952Y-86122380D01*
X100703047Y-86122380D01*
X100798285Y-86170000D01*
X100845904Y-86217619D01*
X100893523Y-86312857D01*
X100893523Y-86408095D01*
X100845904Y-86550952D01*
X100274476Y-87122380D01*
X100893523Y-87122380D01*
X101512571Y-86122380D02*
X101607809Y-86122380D01*
X101703047Y-86170000D01*
X101750666Y-86217619D01*
X101798285Y-86312857D01*
X101845904Y-86503333D01*
X101845904Y-86741428D01*
X101798285Y-86931904D01*
X101750666Y-87027142D01*
X101703047Y-87074761D01*
X101607809Y-87122380D01*
X101512571Y-87122380D01*
X101417333Y-87074761D01*
X101369714Y-87027142D01*
X101322095Y-86931904D01*
X101274476Y-86741428D01*
X101274476Y-86503333D01*
X101322095Y-86312857D01*
X101369714Y-86217619D01*
X101417333Y-86170000D01*
X101512571Y-86122380D01*
X96719714Y-89022380D02*
X96148285Y-89022380D01*
X96434000Y-89022380D02*
X96434000Y-88022380D01*
X96338761Y-88165238D01*
X96243523Y-88260476D01*
X96148285Y-88308095D01*
%TO.C,D19*%
X89209714Y-87122380D02*
X89209714Y-86122380D01*
X89447809Y-86122380D01*
X89590666Y-86170000D01*
X89685904Y-86265238D01*
X89733523Y-86360476D01*
X89781142Y-86550952D01*
X89781142Y-86693809D01*
X89733523Y-86884285D01*
X89685904Y-86979523D01*
X89590666Y-87074761D01*
X89447809Y-87122380D01*
X89209714Y-87122380D01*
X90733523Y-87122380D02*
X90162095Y-87122380D01*
X90447809Y-87122380D02*
X90447809Y-86122380D01*
X90352571Y-86265238D01*
X90257333Y-86360476D01*
X90162095Y-86408095D01*
X91209714Y-87122380D02*
X91400190Y-87122380D01*
X91495428Y-87074761D01*
X91543047Y-87027142D01*
X91638285Y-86884285D01*
X91685904Y-86693809D01*
X91685904Y-86312857D01*
X91638285Y-86217619D01*
X91590666Y-86170000D01*
X91495428Y-86122380D01*
X91304952Y-86122380D01*
X91209714Y-86170000D01*
X91162095Y-86217619D01*
X91114476Y-86312857D01*
X91114476Y-86550952D01*
X91162095Y-86646190D01*
X91209714Y-86693809D01*
X91304952Y-86741428D01*
X91495428Y-86741428D01*
X91590666Y-86693809D01*
X91638285Y-86646190D01*
X91685904Y-86550952D01*
X86559714Y-89022380D02*
X85988285Y-89022380D01*
X86274000Y-89022380D02*
X86274000Y-88022380D01*
X86178761Y-88165238D01*
X86083523Y-88260476D01*
X85988285Y-88308095D01*
%TO.C,D18*%
X228655714Y-96012380D02*
X228655714Y-95012380D01*
X228893809Y-95012380D01*
X229036666Y-95060000D01*
X229131904Y-95155238D01*
X229179523Y-95250476D01*
X229227142Y-95440952D01*
X229227142Y-95583809D01*
X229179523Y-95774285D01*
X229131904Y-95869523D01*
X229036666Y-95964761D01*
X228893809Y-96012380D01*
X228655714Y-96012380D01*
X230179523Y-96012380D02*
X229608095Y-96012380D01*
X229893809Y-96012380D02*
X229893809Y-95012380D01*
X229798571Y-95155238D01*
X229703333Y-95250476D01*
X229608095Y-95298095D01*
X230750952Y-95440952D02*
X230655714Y-95393333D01*
X230608095Y-95345714D01*
X230560476Y-95250476D01*
X230560476Y-95202857D01*
X230608095Y-95107619D01*
X230655714Y-95060000D01*
X230750952Y-95012380D01*
X230941428Y-95012380D01*
X231036666Y-95060000D01*
X231084285Y-95107619D01*
X231131904Y-95202857D01*
X231131904Y-95250476D01*
X231084285Y-95345714D01*
X231036666Y-95393333D01*
X230941428Y-95440952D01*
X230750952Y-95440952D01*
X230655714Y-95488571D01*
X230608095Y-95536190D01*
X230560476Y-95631428D01*
X230560476Y-95821904D01*
X230608095Y-95917142D01*
X230655714Y-95964761D01*
X230750952Y-96012380D01*
X230941428Y-96012380D01*
X231036666Y-95964761D01*
X231084285Y-95917142D01*
X231131904Y-95821904D01*
X231131904Y-95631428D01*
X231084285Y-95536190D01*
X231036666Y-95488571D01*
X230941428Y-95440952D01*
X226005714Y-97912380D02*
X225434285Y-97912380D01*
X225720000Y-97912380D02*
X225720000Y-96912380D01*
X225624761Y-97055238D01*
X225529523Y-97150476D01*
X225434285Y-97198095D01*
%TO.C,D17*%
X254055714Y-96012380D02*
X254055714Y-95012380D01*
X254293809Y-95012380D01*
X254436666Y-95060000D01*
X254531904Y-95155238D01*
X254579523Y-95250476D01*
X254627142Y-95440952D01*
X254627142Y-95583809D01*
X254579523Y-95774285D01*
X254531904Y-95869523D01*
X254436666Y-95964761D01*
X254293809Y-96012380D01*
X254055714Y-96012380D01*
X255579523Y-96012380D02*
X255008095Y-96012380D01*
X255293809Y-96012380D02*
X255293809Y-95012380D01*
X255198571Y-95155238D01*
X255103333Y-95250476D01*
X255008095Y-95298095D01*
X255912857Y-95012380D02*
X256579523Y-95012380D01*
X256150952Y-96012380D01*
X251405714Y-97912380D02*
X250834285Y-97912380D01*
X251120000Y-97912380D02*
X251120000Y-96912380D01*
X251024761Y-97055238D01*
X250929523Y-97150476D01*
X250834285Y-97198095D01*
%TO.C,D11*%
X252785714Y-107172380D02*
X252785714Y-106172380D01*
X253023809Y-106172380D01*
X253166666Y-106220000D01*
X253261904Y-106315238D01*
X253309523Y-106410476D01*
X253357142Y-106600952D01*
X253357142Y-106743809D01*
X253309523Y-106934285D01*
X253261904Y-107029523D01*
X253166666Y-107124761D01*
X253023809Y-107172380D01*
X252785714Y-107172380D01*
X254309523Y-107172380D02*
X253738095Y-107172380D01*
X254023809Y-107172380D02*
X254023809Y-106172380D01*
X253928571Y-106315238D01*
X253833333Y-106410476D01*
X253738095Y-106458095D01*
X255261904Y-107172380D02*
X254690476Y-107172380D01*
X254976190Y-107172380D02*
X254976190Y-106172380D01*
X254880952Y-106315238D01*
X254785714Y-106410476D01*
X254690476Y-106458095D01*
%TO.C,D10*%
X245165714Y-124952380D02*
X245165714Y-123952380D01*
X245403809Y-123952380D01*
X245546666Y-124000000D01*
X245641904Y-124095238D01*
X245689523Y-124190476D01*
X245737142Y-124380952D01*
X245737142Y-124523809D01*
X245689523Y-124714285D01*
X245641904Y-124809523D01*
X245546666Y-124904761D01*
X245403809Y-124952380D01*
X245165714Y-124952380D01*
X246689523Y-124952380D02*
X246118095Y-124952380D01*
X246403809Y-124952380D02*
X246403809Y-123952380D01*
X246308571Y-124095238D01*
X246213333Y-124190476D01*
X246118095Y-124238095D01*
X247308571Y-123952380D02*
X247403809Y-123952380D01*
X247499047Y-124000000D01*
X247546666Y-124047619D01*
X247594285Y-124142857D01*
X247641904Y-124333333D01*
X247641904Y-124571428D01*
X247594285Y-124761904D01*
X247546666Y-124857142D01*
X247499047Y-124904761D01*
X247403809Y-124952380D01*
X247308571Y-124952380D01*
X247213333Y-124904761D01*
X247165714Y-124857142D01*
X247118095Y-124761904D01*
X247070476Y-124571428D01*
X247070476Y-124333333D01*
X247118095Y-124142857D01*
X247165714Y-124047619D01*
X247213333Y-124000000D01*
X247308571Y-123952380D01*
%TO.C,D9*%
X238021904Y-124952380D02*
X238021904Y-123952380D01*
X238260000Y-123952380D01*
X238402857Y-124000000D01*
X238498095Y-124095238D01*
X238545714Y-124190476D01*
X238593333Y-124380952D01*
X238593333Y-124523809D01*
X238545714Y-124714285D01*
X238498095Y-124809523D01*
X238402857Y-124904761D01*
X238260000Y-124952380D01*
X238021904Y-124952380D01*
X239069523Y-124952380D02*
X239260000Y-124952380D01*
X239355238Y-124904761D01*
X239402857Y-124857142D01*
X239498095Y-124714285D01*
X239545714Y-124523809D01*
X239545714Y-124142857D01*
X239498095Y-124047619D01*
X239450476Y-124000000D01*
X239355238Y-123952380D01*
X239164761Y-123952380D01*
X239069523Y-124000000D01*
X239021904Y-124047619D01*
X238974285Y-124142857D01*
X238974285Y-124380952D01*
X239021904Y-124476190D01*
X239069523Y-124523809D01*
X239164761Y-124571428D01*
X239355238Y-124571428D01*
X239450476Y-124523809D01*
X239498095Y-124476190D01*
X239545714Y-124380952D01*
%TO.C,D8*%
X188452380Y-127738095D02*
X187452380Y-127738095D01*
X187452380Y-127500000D01*
X187500000Y-127357142D01*
X187595238Y-127261904D01*
X187690476Y-127214285D01*
X187880952Y-127166666D01*
X188023809Y-127166666D01*
X188214285Y-127214285D01*
X188309523Y-127261904D01*
X188404761Y-127357142D01*
X188452380Y-127500000D01*
X188452380Y-127738095D01*
X187880952Y-126595238D02*
X187833333Y-126690476D01*
X187785714Y-126738095D01*
X187690476Y-126785714D01*
X187642857Y-126785714D01*
X187547619Y-126738095D01*
X187500000Y-126690476D01*
X187452380Y-126595238D01*
X187452380Y-126404761D01*
X187500000Y-126309523D01*
X187547619Y-126261904D01*
X187642857Y-126214285D01*
X187690476Y-126214285D01*
X187785714Y-126261904D01*
X187833333Y-126309523D01*
X187880952Y-126404761D01*
X187880952Y-126595238D01*
X187928571Y-126690476D01*
X187976190Y-126738095D01*
X188071428Y-126785714D01*
X188261904Y-126785714D01*
X188357142Y-126738095D01*
X188404761Y-126690476D01*
X188452380Y-126595238D01*
X188452380Y-126404761D01*
X188404761Y-126309523D01*
X188357142Y-126261904D01*
X188261904Y-126214285D01*
X188071428Y-126214285D01*
X187976190Y-126261904D01*
X187928571Y-126309523D01*
X187880952Y-126404761D01*
%TO.C,D7*%
X173212380Y-127738095D02*
X172212380Y-127738095D01*
X172212380Y-127500000D01*
X172260000Y-127357142D01*
X172355238Y-127261904D01*
X172450476Y-127214285D01*
X172640952Y-127166666D01*
X172783809Y-127166666D01*
X172974285Y-127214285D01*
X173069523Y-127261904D01*
X173164761Y-127357142D01*
X173212380Y-127500000D01*
X173212380Y-127738095D01*
X172212380Y-126833333D02*
X172212380Y-126166666D01*
X173212380Y-126595238D01*
%TO.C,D6*%
X159242380Y-127738095D02*
X158242380Y-127738095D01*
X158242380Y-127500000D01*
X158290000Y-127357142D01*
X158385238Y-127261904D01*
X158480476Y-127214285D01*
X158670952Y-127166666D01*
X158813809Y-127166666D01*
X159004285Y-127214285D01*
X159099523Y-127261904D01*
X159194761Y-127357142D01*
X159242380Y-127500000D01*
X159242380Y-127738095D01*
X158242380Y-126309523D02*
X158242380Y-126500000D01*
X158290000Y-126595238D01*
X158337619Y-126642857D01*
X158480476Y-126738095D01*
X158670952Y-126785714D01*
X159051904Y-126785714D01*
X159147142Y-126738095D01*
X159194761Y-126690476D01*
X159242380Y-126595238D01*
X159242380Y-126404761D01*
X159194761Y-126309523D01*
X159147142Y-126261904D01*
X159051904Y-126214285D01*
X158813809Y-126214285D01*
X158718571Y-126261904D01*
X158670952Y-126309523D01*
X158623333Y-126404761D01*
X158623333Y-126595238D01*
X158670952Y-126690476D01*
X158718571Y-126738095D01*
X158813809Y-126785714D01*
%TO.C,D5*%
X144002380Y-127738095D02*
X143002380Y-127738095D01*
X143002380Y-127500000D01*
X143050000Y-127357142D01*
X143145238Y-127261904D01*
X143240476Y-127214285D01*
X143430952Y-127166666D01*
X143573809Y-127166666D01*
X143764285Y-127214285D01*
X143859523Y-127261904D01*
X143954761Y-127357142D01*
X144002380Y-127500000D01*
X144002380Y-127738095D01*
X143002380Y-126261904D02*
X143002380Y-126738095D01*
X143478571Y-126785714D01*
X143430952Y-126738095D01*
X143383333Y-126642857D01*
X143383333Y-126404761D01*
X143430952Y-126309523D01*
X143478571Y-126261904D01*
X143573809Y-126214285D01*
X143811904Y-126214285D01*
X143907142Y-126261904D01*
X143954761Y-126309523D01*
X144002380Y-126404761D01*
X144002380Y-126642857D01*
X143954761Y-126738095D01*
X143907142Y-126785714D01*
%TO.C,D4*%
X130032380Y-127738095D02*
X129032380Y-127738095D01*
X129032380Y-127500000D01*
X129080000Y-127357142D01*
X129175238Y-127261904D01*
X129270476Y-127214285D01*
X129460952Y-127166666D01*
X129603809Y-127166666D01*
X129794285Y-127214285D01*
X129889523Y-127261904D01*
X129984761Y-127357142D01*
X130032380Y-127500000D01*
X130032380Y-127738095D01*
X129365714Y-126309523D02*
X130032380Y-126309523D01*
X128984761Y-126547619D02*
X129699047Y-126785714D01*
X129699047Y-126166666D01*
%TO.C,D3*%
X112291904Y-130032380D02*
X112291904Y-129032380D01*
X112530000Y-129032380D01*
X112672857Y-129080000D01*
X112768095Y-129175238D01*
X112815714Y-129270476D01*
X112863333Y-129460952D01*
X112863333Y-129603809D01*
X112815714Y-129794285D01*
X112768095Y-129889523D01*
X112672857Y-129984761D01*
X112530000Y-130032380D01*
X112291904Y-130032380D01*
X113196666Y-129032380D02*
X113815714Y-129032380D01*
X113482380Y-129413333D01*
X113625238Y-129413333D01*
X113720476Y-129460952D01*
X113768095Y-129508571D01*
X113815714Y-129603809D01*
X113815714Y-129841904D01*
X113768095Y-129937142D01*
X113720476Y-129984761D01*
X113625238Y-130032380D01*
X113339523Y-130032380D01*
X113244285Y-129984761D01*
X113196666Y-129937142D01*
%TO.C,D2*%
X112291904Y-117332380D02*
X112291904Y-116332380D01*
X112530000Y-116332380D01*
X112672857Y-116380000D01*
X112768095Y-116475238D01*
X112815714Y-116570476D01*
X112863333Y-116760952D01*
X112863333Y-116903809D01*
X112815714Y-117094285D01*
X112768095Y-117189523D01*
X112672857Y-117284761D01*
X112530000Y-117332380D01*
X112291904Y-117332380D01*
X113244285Y-116427619D02*
X113291904Y-116380000D01*
X113387142Y-116332380D01*
X113625238Y-116332380D01*
X113720476Y-116380000D01*
X113768095Y-116427619D01*
X113815714Y-116522857D01*
X113815714Y-116618095D01*
X113768095Y-116760952D01*
X113196666Y-117332380D01*
X113815714Y-117332380D01*
%TO.C,D1*%
X112291904Y-97012380D02*
X112291904Y-96012380D01*
X112530000Y-96012380D01*
X112672857Y-96060000D01*
X112768095Y-96155238D01*
X112815714Y-96250476D01*
X112863333Y-96440952D01*
X112863333Y-96583809D01*
X112815714Y-96774285D01*
X112768095Y-96869523D01*
X112672857Y-96964761D01*
X112530000Y-97012380D01*
X112291904Y-97012380D01*
X113815714Y-97012380D02*
X113244285Y-97012380D01*
X113530000Y-97012380D02*
X113530000Y-96012380D01*
X113434761Y-96155238D01*
X113339523Y-96250476D01*
X113244285Y-96298095D01*
%TO.C,C13*%
X111625142Y-84305142D02*
X111577523Y-84352761D01*
X111434666Y-84400380D01*
X111339428Y-84400380D01*
X111196571Y-84352761D01*
X111101333Y-84257523D01*
X111053714Y-84162285D01*
X111006095Y-83971809D01*
X111006095Y-83828952D01*
X111053714Y-83638476D01*
X111101333Y-83543238D01*
X111196571Y-83448000D01*
X111339428Y-83400380D01*
X111434666Y-83400380D01*
X111577523Y-83448000D01*
X111625142Y-83495619D01*
X112577523Y-84400380D02*
X112006095Y-84400380D01*
X112291809Y-84400380D02*
X112291809Y-83400380D01*
X112196571Y-83543238D01*
X112101333Y-83638476D01*
X112006095Y-83686095D01*
X112910857Y-83400380D02*
X113529904Y-83400380D01*
X113196571Y-83781333D01*
X113339428Y-83781333D01*
X113434666Y-83828952D01*
X113482285Y-83876571D01*
X113529904Y-83971809D01*
X113529904Y-84209904D01*
X113482285Y-84305142D01*
X113434666Y-84352761D01*
X113339428Y-84400380D01*
X113053714Y-84400380D01*
X112958476Y-84352761D01*
X112910857Y-84305142D01*
%TO.C,C12*%
X101465142Y-84305142D02*
X101417523Y-84352761D01*
X101274666Y-84400380D01*
X101179428Y-84400380D01*
X101036571Y-84352761D01*
X100941333Y-84257523D01*
X100893714Y-84162285D01*
X100846095Y-83971809D01*
X100846095Y-83828952D01*
X100893714Y-83638476D01*
X100941333Y-83543238D01*
X101036571Y-83448000D01*
X101179428Y-83400380D01*
X101274666Y-83400380D01*
X101417523Y-83448000D01*
X101465142Y-83495619D01*
X102417523Y-84400380D02*
X101846095Y-84400380D01*
X102131809Y-84400380D02*
X102131809Y-83400380D01*
X102036571Y-83543238D01*
X101941333Y-83638476D01*
X101846095Y-83686095D01*
X102798476Y-83495619D02*
X102846095Y-83448000D01*
X102941333Y-83400380D01*
X103179428Y-83400380D01*
X103274666Y-83448000D01*
X103322285Y-83495619D01*
X103369904Y-83590857D01*
X103369904Y-83686095D01*
X103322285Y-83828952D01*
X102750857Y-84400380D01*
X103369904Y-84400380D01*
%TO.C,C11*%
X91305142Y-84305142D02*
X91257523Y-84352761D01*
X91114666Y-84400380D01*
X91019428Y-84400380D01*
X90876571Y-84352761D01*
X90781333Y-84257523D01*
X90733714Y-84162285D01*
X90686095Y-83971809D01*
X90686095Y-83828952D01*
X90733714Y-83638476D01*
X90781333Y-83543238D01*
X90876571Y-83448000D01*
X91019428Y-83400380D01*
X91114666Y-83400380D01*
X91257523Y-83448000D01*
X91305142Y-83495619D01*
X92257523Y-84400380D02*
X91686095Y-84400380D01*
X91971809Y-84400380D02*
X91971809Y-83400380D01*
X91876571Y-83543238D01*
X91781333Y-83638476D01*
X91686095Y-83686095D01*
X93209904Y-84400380D02*
X92638476Y-84400380D01*
X92924190Y-84400380D02*
X92924190Y-83400380D01*
X92828952Y-83543238D01*
X92733714Y-83638476D01*
X92638476Y-83686095D01*
%TO.C,C10*%
X253357142Y-92687142D02*
X253309523Y-92734761D01*
X253166666Y-92782380D01*
X253071428Y-92782380D01*
X252928571Y-92734761D01*
X252833333Y-92639523D01*
X252785714Y-92544285D01*
X252738095Y-92353809D01*
X252738095Y-92210952D01*
X252785714Y-92020476D01*
X252833333Y-91925238D01*
X252928571Y-91830000D01*
X253071428Y-91782380D01*
X253166666Y-91782380D01*
X253309523Y-91830000D01*
X253357142Y-91877619D01*
X254309523Y-92782380D02*
X253738095Y-92782380D01*
X254023809Y-92782380D02*
X254023809Y-91782380D01*
X253928571Y-91925238D01*
X253833333Y-92020476D01*
X253738095Y-92068095D01*
X254928571Y-91782380D02*
X255023809Y-91782380D01*
X255119047Y-91830000D01*
X255166666Y-91877619D01*
X255214285Y-91972857D01*
X255261904Y-92163333D01*
X255261904Y-92401428D01*
X255214285Y-92591904D01*
X255166666Y-92687142D01*
X255119047Y-92734761D01*
X255023809Y-92782380D01*
X254928571Y-92782380D01*
X254833333Y-92734761D01*
X254785714Y-92687142D01*
X254738095Y-92591904D01*
X254690476Y-92401428D01*
X254690476Y-92163333D01*
X254738095Y-91972857D01*
X254785714Y-91877619D01*
X254833333Y-91830000D01*
X254928571Y-91782380D01*
%TO.C,C9*%
X228433333Y-92687142D02*
X228385714Y-92734761D01*
X228242857Y-92782380D01*
X228147619Y-92782380D01*
X228004761Y-92734761D01*
X227909523Y-92639523D01*
X227861904Y-92544285D01*
X227814285Y-92353809D01*
X227814285Y-92210952D01*
X227861904Y-92020476D01*
X227909523Y-91925238D01*
X228004761Y-91830000D01*
X228147619Y-91782380D01*
X228242857Y-91782380D01*
X228385714Y-91830000D01*
X228433333Y-91877619D01*
X228909523Y-92782380D02*
X229100000Y-92782380D01*
X229195238Y-92734761D01*
X229242857Y-92687142D01*
X229338095Y-92544285D01*
X229385714Y-92353809D01*
X229385714Y-91972857D01*
X229338095Y-91877619D01*
X229290476Y-91830000D01*
X229195238Y-91782380D01*
X229004761Y-91782380D01*
X228909523Y-91830000D01*
X228861904Y-91877619D01*
X228814285Y-91972857D01*
X228814285Y-92210952D01*
X228861904Y-92306190D01*
X228909523Y-92353809D01*
X229004761Y-92401428D01*
X229195238Y-92401428D01*
X229290476Y-92353809D01*
X229338095Y-92306190D01*
X229385714Y-92210952D01*
%TO.C,C4*%
X128331142Y-96178666D02*
X128378761Y-96226285D01*
X128426380Y-96369142D01*
X128426380Y-96464380D01*
X128378761Y-96607238D01*
X128283523Y-96702476D01*
X128188285Y-96750095D01*
X127997809Y-96797714D01*
X127854952Y-96797714D01*
X127664476Y-96750095D01*
X127569238Y-96702476D01*
X127474000Y-96607238D01*
X127426380Y-96464380D01*
X127426380Y-96369142D01*
X127474000Y-96226285D01*
X127521619Y-96178666D01*
X127759714Y-95321523D02*
X128426380Y-95321523D01*
X127378761Y-95559619D02*
X128093047Y-95797714D01*
X128093047Y-95178666D01*
%TD*%
M02*
