%TF.GenerationSoftware,KiCad,Pcbnew,(5.1.6-0-10_14)*%
%TF.CreationDate,2020-10-26T15:40:05+01:00*%
%TF.ProjectId,GenericEPaperRemote,47656e65-7269-4634-9550-617065725265,rev?*%
%TF.SameCoordinates,Original*%
%TF.FileFunction,Paste,Bot*%
%TF.FilePolarity,Positive*%
%FSLAX46Y46*%
G04 Gerber Fmt 4.6, Leading zero omitted, Abs format (unit mm)*
G04 Created by KiCad (PCBNEW (5.1.6-0-10_14)) date 2020-10-26 15:40:05*
%MOMM*%
%LPD*%
G01*
G04 APERTURE LIST*
%ADD10C,0.010000*%
%ADD11R,3.500000X2.300000*%
%ADD12R,2.000000X0.900000*%
%ADD13R,1.900000X1.000000*%
%ADD14R,1.900000X1.800000*%
%ADD15R,1.300000X1.650000*%
%ADD16R,1.550000X1.425000*%
%ADD17R,1.380000X0.450000*%
%ADD18R,0.450000X1.500000*%
%ADD19R,2.000000X1.500000*%
%ADD20R,2.000000X3.800000*%
%ADD21R,1.750000X0.450000*%
%ADD22R,0.900000X0.800000*%
%ADD23R,1.500000X1.000000*%
G04 APERTURE END LIST*
D10*
%TO.C,U1*%
G36*
X224830000Y-94180000D02*
G01*
X221670000Y-94180000D01*
X221670000Y-97340000D01*
X224830000Y-97340000D01*
X224830000Y-94180000D01*
G37*
X224830000Y-94180000D02*
X221670000Y-94180000D01*
X221670000Y-97340000D01*
X224830000Y-97340000D01*
X224830000Y-94180000D01*
%TD*%
D11*
%TO.C,D13*%
X253906000Y-130683000D03*
X248506000Y-130683000D03*
%TD*%
%TO.C,D12*%
X98392000Y-127254000D03*
X103792000Y-127254000D03*
%TD*%
D12*
%TO.C,U1*%
X230750000Y-88260000D03*
X230750000Y-89530000D03*
X230750000Y-90800000D03*
X230750000Y-92070000D03*
X230750000Y-93340000D03*
X230750000Y-94610000D03*
X230750000Y-95880000D03*
X230750000Y-97150000D03*
X230750000Y-98420000D03*
X230750000Y-99690000D03*
X230750000Y-100960000D03*
X230750000Y-102230000D03*
X230750000Y-103500000D03*
X230750000Y-104770000D03*
X230750000Y-106040000D03*
X230750000Y-107310000D03*
X230750000Y-108580000D03*
X230750000Y-109850000D03*
X230750000Y-111120000D03*
X213750000Y-111120000D03*
X213750000Y-109850000D03*
X213750000Y-108580000D03*
X213750000Y-107310000D03*
X213750000Y-106040000D03*
X213750000Y-104770000D03*
X213750000Y-103500000D03*
X213750000Y-102230000D03*
X213750000Y-100960000D03*
X213750000Y-99690000D03*
X213750000Y-98420000D03*
X213750000Y-97150000D03*
X213750000Y-95880000D03*
X213750000Y-94610000D03*
X213750000Y-93340000D03*
X213750000Y-92070000D03*
X213750000Y-90800000D03*
X213750000Y-89530000D03*
X213750000Y-88260000D03*
%TD*%
%TO.C,SW13*%
G36*
G01*
X247610000Y-95720000D02*
X247610000Y-97320000D01*
G75*
G02*
X247410000Y-97520000I-200000J0D01*
G01*
X247010000Y-97520000D01*
G75*
G02*
X246810000Y-97320000I0J200000D01*
G01*
X246810000Y-95720000D01*
G75*
G02*
X247010000Y-95520000I200000J0D01*
G01*
X247410000Y-95520000D01*
G75*
G02*
X247610000Y-95720000I0J-200000D01*
G01*
G37*
G36*
G01*
X243410000Y-95720000D02*
X243410000Y-97320000D01*
G75*
G02*
X243210000Y-97520000I-200000J0D01*
G01*
X242810000Y-97520000D01*
G75*
G02*
X242610000Y-97320000I0J200000D01*
G01*
X242610000Y-95720000D01*
G75*
G02*
X242810000Y-95520000I200000J0D01*
G01*
X243210000Y-95520000D01*
G75*
G02*
X243410000Y-95720000I0J-200000D01*
G01*
G37*
%TD*%
%TO.C,SW12*%
G36*
G01*
X255230000Y-95720000D02*
X255230000Y-97320000D01*
G75*
G02*
X255030000Y-97520000I-200000J0D01*
G01*
X254630000Y-97520000D01*
G75*
G02*
X254430000Y-97320000I0J200000D01*
G01*
X254430000Y-95720000D01*
G75*
G02*
X254630000Y-95520000I200000J0D01*
G01*
X255030000Y-95520000D01*
G75*
G02*
X255230000Y-95720000I0J-200000D01*
G01*
G37*
G36*
G01*
X251030000Y-95720000D02*
X251030000Y-97320000D01*
G75*
G02*
X250830000Y-97520000I-200000J0D01*
G01*
X250430000Y-97520000D01*
G75*
G02*
X250230000Y-97320000I0J200000D01*
G01*
X250230000Y-95720000D01*
G75*
G02*
X250430000Y-95520000I200000J0D01*
G01*
X250830000Y-95520000D01*
G75*
G02*
X251030000Y-95720000I0J-200000D01*
G01*
G37*
%TD*%
D13*
%TO.C,USB3*%
X269170000Y-129820000D03*
D14*
X269170000Y-127120000D03*
D15*
X269170000Y-131645000D03*
X269170000Y-124895000D03*
D16*
X266595000Y-130757500D03*
X266595000Y-125782500D03*
D17*
X266510000Y-129570000D03*
X266510000Y-128920000D03*
X266510000Y-128270000D03*
X266510000Y-127620000D03*
X266510000Y-126970000D03*
%TD*%
D18*
%TO.C,USB1*%
X255300000Y-136335000D03*
X252700000Y-136335000D03*
X254650000Y-136335000D03*
X253350000Y-136335000D03*
X254000000Y-136335000D03*
%TD*%
D19*
%TO.C,U3*%
X234290000Y-127240000D03*
X234290000Y-131840000D03*
X234290000Y-129540000D03*
D20*
X227990000Y-129540000D03*
%TD*%
D21*
%TO.C,U2*%
X260140000Y-123605000D03*
X260140000Y-122955000D03*
X260140000Y-122305000D03*
X260140000Y-121655000D03*
X260140000Y-121005000D03*
X260140000Y-120355000D03*
X260140000Y-119705000D03*
X260140000Y-119055000D03*
X260140000Y-118405000D03*
X260140000Y-117755000D03*
X260140000Y-117105000D03*
X260140000Y-116455000D03*
X260140000Y-115805000D03*
X260140000Y-115155000D03*
X252940000Y-115155000D03*
X252940000Y-115805000D03*
X252940000Y-116455000D03*
X252940000Y-117105000D03*
X252940000Y-117755000D03*
X252940000Y-118405000D03*
X252940000Y-119055000D03*
X252940000Y-119705000D03*
X252940000Y-120355000D03*
X252940000Y-121005000D03*
X252940000Y-121655000D03*
X252940000Y-122305000D03*
X252940000Y-122955000D03*
X252940000Y-123605000D03*
%TD*%
%TO.C,R13*%
G36*
G01*
X223335000Y-116020001D02*
X223335000Y-115119999D01*
G75*
G02*
X223584999Y-114870000I249999J0D01*
G01*
X224235001Y-114870000D01*
G75*
G02*
X224485000Y-115119999I0J-249999D01*
G01*
X224485000Y-116020001D01*
G75*
G02*
X224235001Y-116270000I-249999J0D01*
G01*
X223584999Y-116270000D01*
G75*
G02*
X223335000Y-116020001I0J249999D01*
G01*
G37*
G36*
G01*
X221285000Y-116020001D02*
X221285000Y-115119999D01*
G75*
G02*
X221534999Y-114870000I249999J0D01*
G01*
X222185001Y-114870000D01*
G75*
G02*
X222435000Y-115119999I0J-249999D01*
G01*
X222435000Y-116020001D01*
G75*
G02*
X222185001Y-116270000I-249999J0D01*
G01*
X221534999Y-116270000D01*
G75*
G02*
X221285000Y-116020001I0J249999D01*
G01*
G37*
%TD*%
%TO.C,R12*%
G36*
G01*
X266250000Y-92259999D02*
X266250000Y-93160001D01*
G75*
G02*
X266000001Y-93410000I-249999J0D01*
G01*
X265349999Y-93410000D01*
G75*
G02*
X265100000Y-93160001I0J249999D01*
G01*
X265100000Y-92259999D01*
G75*
G02*
X265349999Y-92010000I249999J0D01*
G01*
X266000001Y-92010000D01*
G75*
G02*
X266250000Y-92259999I0J-249999D01*
G01*
G37*
G36*
G01*
X268300000Y-92259999D02*
X268300000Y-93160001D01*
G75*
G02*
X268050001Y-93410000I-249999J0D01*
G01*
X267399999Y-93410000D01*
G75*
G02*
X267150000Y-93160001I0J249999D01*
G01*
X267150000Y-92259999D01*
G75*
G02*
X267399999Y-92010000I249999J0D01*
G01*
X268050001Y-92010000D01*
G75*
G02*
X268300000Y-92259999I0J-249999D01*
G01*
G37*
%TD*%
%TO.C,R11*%
G36*
G01*
X266250000Y-97339999D02*
X266250000Y-98240001D01*
G75*
G02*
X266000001Y-98490000I-249999J0D01*
G01*
X265349999Y-98490000D01*
G75*
G02*
X265100000Y-98240001I0J249999D01*
G01*
X265100000Y-97339999D01*
G75*
G02*
X265349999Y-97090000I249999J0D01*
G01*
X266000001Y-97090000D01*
G75*
G02*
X266250000Y-97339999I0J-249999D01*
G01*
G37*
G36*
G01*
X268300000Y-97339999D02*
X268300000Y-98240001D01*
G75*
G02*
X268050001Y-98490000I-249999J0D01*
G01*
X267399999Y-98490000D01*
G75*
G02*
X267150000Y-98240001I0J249999D01*
G01*
X267150000Y-97339999D01*
G75*
G02*
X267399999Y-97090000I249999J0D01*
G01*
X268050001Y-97090000D01*
G75*
G02*
X268300000Y-97339999I0J-249999D01*
G01*
G37*
%TD*%
%TO.C,R10*%
G36*
G01*
X239210000Y-136340001D02*
X239210000Y-135439999D01*
G75*
G02*
X239459999Y-135190000I249999J0D01*
G01*
X240110001Y-135190000D01*
G75*
G02*
X240360000Y-135439999I0J-249999D01*
G01*
X240360000Y-136340001D01*
G75*
G02*
X240110001Y-136590000I-249999J0D01*
G01*
X239459999Y-136590000D01*
G75*
G02*
X239210000Y-136340001I0J249999D01*
G01*
G37*
G36*
G01*
X237160000Y-136340001D02*
X237160000Y-135439999D01*
G75*
G02*
X237409999Y-135190000I249999J0D01*
G01*
X238060001Y-135190000D01*
G75*
G02*
X238310000Y-135439999I0J-249999D01*
G01*
X238310000Y-136340001D01*
G75*
G02*
X238060001Y-136590000I-249999J0D01*
G01*
X237409999Y-136590000D01*
G75*
G02*
X237160000Y-136340001I0J249999D01*
G01*
G37*
%TD*%
%TO.C,R9*%
G36*
G01*
X253550000Y-106229999D02*
X253550000Y-107130001D01*
G75*
G02*
X253300001Y-107380000I-249999J0D01*
G01*
X252649999Y-107380000D01*
G75*
G02*
X252400000Y-107130001I0J249999D01*
G01*
X252400000Y-106229999D01*
G75*
G02*
X252649999Y-105980000I249999J0D01*
G01*
X253300001Y-105980000D01*
G75*
G02*
X253550000Y-106229999I0J-249999D01*
G01*
G37*
G36*
G01*
X255600000Y-106229999D02*
X255600000Y-107130001D01*
G75*
G02*
X255350001Y-107380000I-249999J0D01*
G01*
X254699999Y-107380000D01*
G75*
G02*
X254450000Y-107130001I0J249999D01*
G01*
X254450000Y-106229999D01*
G75*
G02*
X254699999Y-105980000I249999J0D01*
G01*
X255350001Y-105980000D01*
G75*
G02*
X255600000Y-106229999I0J-249999D01*
G01*
G37*
%TD*%
%TO.C,R8*%
G36*
G01*
X253550000Y-102419999D02*
X253550000Y-103320001D01*
G75*
G02*
X253300001Y-103570000I-249999J0D01*
G01*
X252649999Y-103570000D01*
G75*
G02*
X252400000Y-103320001I0J249999D01*
G01*
X252400000Y-102419999D01*
G75*
G02*
X252649999Y-102170000I249999J0D01*
G01*
X253300001Y-102170000D01*
G75*
G02*
X253550000Y-102419999I0J-249999D01*
G01*
G37*
G36*
G01*
X255600000Y-102419999D02*
X255600000Y-103320001D01*
G75*
G02*
X255350001Y-103570000I-249999J0D01*
G01*
X254699999Y-103570000D01*
G75*
G02*
X254450000Y-103320001I0J249999D01*
G01*
X254450000Y-102419999D01*
G75*
G02*
X254699999Y-102170000I249999J0D01*
G01*
X255350001Y-102170000D01*
G75*
G02*
X255600000Y-102419999I0J-249999D01*
G01*
G37*
%TD*%
%TO.C,R7*%
G36*
G01*
X247199999Y-91255000D02*
X248100001Y-91255000D01*
G75*
G02*
X248350000Y-91504999I0J-249999D01*
G01*
X248350000Y-92155001D01*
G75*
G02*
X248100001Y-92405000I-249999J0D01*
G01*
X247199999Y-92405000D01*
G75*
G02*
X246950000Y-92155001I0J249999D01*
G01*
X246950000Y-91504999D01*
G75*
G02*
X247199999Y-91255000I249999J0D01*
G01*
G37*
G36*
G01*
X247199999Y-89205000D02*
X248100001Y-89205000D01*
G75*
G02*
X248350000Y-89454999I0J-249999D01*
G01*
X248350000Y-90105001D01*
G75*
G02*
X248100001Y-90355000I-249999J0D01*
G01*
X247199999Y-90355000D01*
G75*
G02*
X246950000Y-90105001I0J249999D01*
G01*
X246950000Y-89454999D01*
G75*
G02*
X247199999Y-89205000I249999J0D01*
G01*
G37*
%TD*%
%TO.C,R6*%
G36*
G01*
X251009999Y-91255000D02*
X251910001Y-91255000D01*
G75*
G02*
X252160000Y-91504999I0J-249999D01*
G01*
X252160000Y-92155001D01*
G75*
G02*
X251910001Y-92405000I-249999J0D01*
G01*
X251009999Y-92405000D01*
G75*
G02*
X250760000Y-92155001I0J249999D01*
G01*
X250760000Y-91504999D01*
G75*
G02*
X251009999Y-91255000I249999J0D01*
G01*
G37*
G36*
G01*
X251009999Y-89205000D02*
X251910001Y-89205000D01*
G75*
G02*
X252160000Y-89454999I0J-249999D01*
G01*
X252160000Y-90105001D01*
G75*
G02*
X251910001Y-90355000I-249999J0D01*
G01*
X251009999Y-90355000D01*
G75*
G02*
X250760000Y-90105001I0J249999D01*
G01*
X250760000Y-89454999D01*
G75*
G02*
X251009999Y-89205000I249999J0D01*
G01*
G37*
%TD*%
%TO.C,R5*%
G36*
G01*
X205416999Y-107511000D02*
X206317001Y-107511000D01*
G75*
G02*
X206567000Y-107760999I0J-249999D01*
G01*
X206567000Y-108411001D01*
G75*
G02*
X206317001Y-108661000I-249999J0D01*
G01*
X205416999Y-108661000D01*
G75*
G02*
X205167000Y-108411001I0J249999D01*
G01*
X205167000Y-107760999D01*
G75*
G02*
X205416999Y-107511000I249999J0D01*
G01*
G37*
G36*
G01*
X205416999Y-105461000D02*
X206317001Y-105461000D01*
G75*
G02*
X206567000Y-105710999I0J-249999D01*
G01*
X206567000Y-106361001D01*
G75*
G02*
X206317001Y-106611000I-249999J0D01*
G01*
X205416999Y-106611000D01*
G75*
G02*
X205167000Y-106361001I0J249999D01*
G01*
X205167000Y-105710999D01*
G75*
G02*
X205416999Y-105461000I249999J0D01*
G01*
G37*
%TD*%
%TO.C,R4*%
G36*
G01*
X215450000Y-122739999D02*
X215450000Y-123640001D01*
G75*
G02*
X215200001Y-123890000I-249999J0D01*
G01*
X214549999Y-123890000D01*
G75*
G02*
X214300000Y-123640001I0J249999D01*
G01*
X214300000Y-122739999D01*
G75*
G02*
X214549999Y-122490000I249999J0D01*
G01*
X215200001Y-122490000D01*
G75*
G02*
X215450000Y-122739999I0J-249999D01*
G01*
G37*
G36*
G01*
X217500000Y-122739999D02*
X217500000Y-123640001D01*
G75*
G02*
X217250001Y-123890000I-249999J0D01*
G01*
X216599999Y-123890000D01*
G75*
G02*
X216350000Y-123640001I0J249999D01*
G01*
X216350000Y-122739999D01*
G75*
G02*
X216599999Y-122490000I249999J0D01*
G01*
X217250001Y-122490000D01*
G75*
G02*
X217500000Y-122739999I0J-249999D01*
G01*
G37*
%TD*%
%TO.C,R3*%
G36*
G01*
X215450000Y-120199999D02*
X215450000Y-121100001D01*
G75*
G02*
X215200001Y-121350000I-249999J0D01*
G01*
X214549999Y-121350000D01*
G75*
G02*
X214300000Y-121100001I0J249999D01*
G01*
X214300000Y-120199999D01*
G75*
G02*
X214549999Y-119950000I249999J0D01*
G01*
X215200001Y-119950000D01*
G75*
G02*
X215450000Y-120199999I0J-249999D01*
G01*
G37*
G36*
G01*
X217500000Y-120199999D02*
X217500000Y-121100001D01*
G75*
G02*
X217250001Y-121350000I-249999J0D01*
G01*
X216599999Y-121350000D01*
G75*
G02*
X216350000Y-121100001I0J249999D01*
G01*
X216350000Y-120199999D01*
G75*
G02*
X216599999Y-119950000I249999J0D01*
G01*
X217250001Y-119950000D01*
G75*
G02*
X217500000Y-120199999I0J-249999D01*
G01*
G37*
%TD*%
%TO.C,R2*%
G36*
G01*
X215450000Y-117659999D02*
X215450000Y-118560001D01*
G75*
G02*
X215200001Y-118810000I-249999J0D01*
G01*
X214549999Y-118810000D01*
G75*
G02*
X214300000Y-118560001I0J249999D01*
G01*
X214300000Y-117659999D01*
G75*
G02*
X214549999Y-117410000I249999J0D01*
G01*
X215200001Y-117410000D01*
G75*
G02*
X215450000Y-117659999I0J-249999D01*
G01*
G37*
G36*
G01*
X217500000Y-117659999D02*
X217500000Y-118560001D01*
G75*
G02*
X217250001Y-118810000I-249999J0D01*
G01*
X216599999Y-118810000D01*
G75*
G02*
X216350000Y-118560001I0J249999D01*
G01*
X216350000Y-117659999D01*
G75*
G02*
X216599999Y-117410000I249999J0D01*
G01*
X217250001Y-117410000D01*
G75*
G02*
X217500000Y-117659999I0J-249999D01*
G01*
G37*
%TD*%
%TO.C,R1*%
G36*
G01*
X215450000Y-115119999D02*
X215450000Y-116020001D01*
G75*
G02*
X215200001Y-116270000I-249999J0D01*
G01*
X214549999Y-116270000D01*
G75*
G02*
X214300000Y-116020001I0J249999D01*
G01*
X214300000Y-115119999D01*
G75*
G02*
X214549999Y-114870000I249999J0D01*
G01*
X215200001Y-114870000D01*
G75*
G02*
X215450000Y-115119999I0J-249999D01*
G01*
G37*
G36*
G01*
X217500000Y-115119999D02*
X217500000Y-116020001D01*
G75*
G02*
X217250001Y-116270000I-249999J0D01*
G01*
X216599999Y-116270000D01*
G75*
G02*
X216350000Y-116020001I0J249999D01*
G01*
X216350000Y-115119999D01*
G75*
G02*
X216599999Y-114870000I249999J0D01*
G01*
X217250001Y-114870000D01*
G75*
G02*
X217500000Y-115119999I0J-249999D01*
G01*
G37*
%TD*%
D22*
%TO.C,Q2*%
X259350000Y-97790000D03*
X261350000Y-98740000D03*
X261350000Y-96840000D03*
%TD*%
%TO.C,Q1*%
X259350000Y-92710000D03*
X261350000Y-93660000D03*
X261350000Y-91760000D03*
%TD*%
D23*
%TO.C,D29*%
X259170000Y-86690000D03*
X259170000Y-83490000D03*
X264070000Y-86690000D03*
X264070000Y-83490000D03*
%TD*%
%TO.C,D28*%
X237580000Y-86690000D03*
X237580000Y-83490000D03*
X242480000Y-86690000D03*
X242480000Y-83490000D03*
%TD*%
%TO.C,D27*%
X194400000Y-86690000D03*
X194400000Y-83490000D03*
X199300000Y-86690000D03*
X199300000Y-83490000D03*
%TD*%
%TO.C,D26*%
X173445000Y-86690000D03*
X173445000Y-83490000D03*
X178345000Y-86690000D03*
X178345000Y-83490000D03*
%TD*%
%TO.C,D25*%
X153125000Y-86690000D03*
X153125000Y-83490000D03*
X158025000Y-86690000D03*
X158025000Y-83490000D03*
%TD*%
%TO.C,D24*%
X131535000Y-86690000D03*
X131535000Y-83490000D03*
X136435000Y-86690000D03*
X136435000Y-83490000D03*
%TD*%
%TO.C,D23*%
X109310000Y-86690000D03*
X109310000Y-83490000D03*
X114210000Y-86690000D03*
X114210000Y-83490000D03*
%TD*%
%TO.C,D22*%
X90895000Y-86690000D03*
X90895000Y-83490000D03*
X95795000Y-86690000D03*
X95795000Y-83490000D03*
%TD*%
%TO.C,D16*%
G36*
G01*
X233185000Y-136515000D02*
X233185000Y-135265000D01*
G75*
G02*
X233435000Y-135015000I250000J0D01*
G01*
X234360000Y-135015000D01*
G75*
G02*
X234610000Y-135265000I0J-250000D01*
G01*
X234610000Y-136515000D01*
G75*
G02*
X234360000Y-136765000I-250000J0D01*
G01*
X233435000Y-136765000D01*
G75*
G02*
X233185000Y-136515000I0J250000D01*
G01*
G37*
G36*
G01*
X230210000Y-136515000D02*
X230210000Y-135265000D01*
G75*
G02*
X230460000Y-135015000I250000J0D01*
G01*
X231385000Y-135015000D01*
G75*
G02*
X231635000Y-135265000I0J-250000D01*
G01*
X231635000Y-136515000D01*
G75*
G02*
X231385000Y-136765000I-250000J0D01*
G01*
X230460000Y-136765000D01*
G75*
G02*
X230210000Y-136515000I0J250000D01*
G01*
G37*
%TD*%
%TO.C,D15*%
G36*
G01*
X258305000Y-106055000D02*
X258305000Y-107305000D01*
G75*
G02*
X258055000Y-107555000I-250000J0D01*
G01*
X257130000Y-107555000D01*
G75*
G02*
X256880000Y-107305000I0J250000D01*
G01*
X256880000Y-106055000D01*
G75*
G02*
X257130000Y-105805000I250000J0D01*
G01*
X258055000Y-105805000D01*
G75*
G02*
X258305000Y-106055000I0J-250000D01*
G01*
G37*
G36*
G01*
X261280000Y-106055000D02*
X261280000Y-107305000D01*
G75*
G02*
X261030000Y-107555000I-250000J0D01*
G01*
X260105000Y-107555000D01*
G75*
G02*
X259855000Y-107305000I0J250000D01*
G01*
X259855000Y-106055000D01*
G75*
G02*
X260105000Y-105805000I250000J0D01*
G01*
X261030000Y-105805000D01*
G75*
G02*
X261280000Y-106055000I0J-250000D01*
G01*
G37*
%TD*%
%TO.C,D14*%
G36*
G01*
X258305000Y-102245000D02*
X258305000Y-103495000D01*
G75*
G02*
X258055000Y-103745000I-250000J0D01*
G01*
X257130000Y-103745000D01*
G75*
G02*
X256880000Y-103495000I0J250000D01*
G01*
X256880000Y-102245000D01*
G75*
G02*
X257130000Y-101995000I250000J0D01*
G01*
X258055000Y-101995000D01*
G75*
G02*
X258305000Y-102245000I0J-250000D01*
G01*
G37*
G36*
G01*
X261280000Y-102245000D02*
X261280000Y-103495000D01*
G75*
G02*
X261030000Y-103745000I-250000J0D01*
G01*
X260105000Y-103745000D01*
G75*
G02*
X259855000Y-103495000I0J250000D01*
G01*
X259855000Y-102245000D01*
G75*
G02*
X260105000Y-101995000I250000J0D01*
G01*
X261030000Y-101995000D01*
G75*
G02*
X261280000Y-102245000I0J-250000D01*
G01*
G37*
%TD*%
%TO.C,C21*%
G36*
G01*
X255720001Y-85275000D02*
X254819999Y-85275000D01*
G75*
G02*
X254570000Y-85025001I0J249999D01*
G01*
X254570000Y-84374999D01*
G75*
G02*
X254819999Y-84125000I249999J0D01*
G01*
X255720001Y-84125000D01*
G75*
G02*
X255970000Y-84374999I0J-249999D01*
G01*
X255970000Y-85025001D01*
G75*
G02*
X255720001Y-85275000I-249999J0D01*
G01*
G37*
G36*
G01*
X255720001Y-87325000D02*
X254819999Y-87325000D01*
G75*
G02*
X254570000Y-87075001I0J249999D01*
G01*
X254570000Y-86424999D01*
G75*
G02*
X254819999Y-86175000I249999J0D01*
G01*
X255720001Y-86175000D01*
G75*
G02*
X255970000Y-86424999I0J-249999D01*
G01*
X255970000Y-87075001D01*
G75*
G02*
X255720001Y-87325000I-249999J0D01*
G01*
G37*
%TD*%
%TO.C,C20*%
G36*
G01*
X246830001Y-85275000D02*
X245929999Y-85275000D01*
G75*
G02*
X245680000Y-85025001I0J249999D01*
G01*
X245680000Y-84374999D01*
G75*
G02*
X245929999Y-84125000I249999J0D01*
G01*
X246830001Y-84125000D01*
G75*
G02*
X247080000Y-84374999I0J-249999D01*
G01*
X247080000Y-85025001D01*
G75*
G02*
X246830001Y-85275000I-249999J0D01*
G01*
G37*
G36*
G01*
X246830001Y-87325000D02*
X245929999Y-87325000D01*
G75*
G02*
X245680000Y-87075001I0J249999D01*
G01*
X245680000Y-86424999D01*
G75*
G02*
X245929999Y-86175000I249999J0D01*
G01*
X246830001Y-86175000D01*
G75*
G02*
X247080000Y-86424999I0J-249999D01*
G01*
X247080000Y-87075001D01*
G75*
G02*
X246830001Y-87325000I-249999J0D01*
G01*
G37*
%TD*%
%TO.C,C19*%
G36*
G01*
X197300000Y-90620001D02*
X197300000Y-89719999D01*
G75*
G02*
X197549999Y-89470000I249999J0D01*
G01*
X198200001Y-89470000D01*
G75*
G02*
X198450000Y-89719999I0J-249999D01*
G01*
X198450000Y-90620001D01*
G75*
G02*
X198200001Y-90870000I-249999J0D01*
G01*
X197549999Y-90870000D01*
G75*
G02*
X197300000Y-90620001I0J249999D01*
G01*
G37*
G36*
G01*
X195250000Y-90620001D02*
X195250000Y-89719999D01*
G75*
G02*
X195499999Y-89470000I249999J0D01*
G01*
X196150001Y-89470000D01*
G75*
G02*
X196400000Y-89719999I0J-249999D01*
G01*
X196400000Y-90620001D01*
G75*
G02*
X196150001Y-90870000I-249999J0D01*
G01*
X195499999Y-90870000D01*
G75*
G02*
X195250000Y-90620001I0J249999D01*
G01*
G37*
%TD*%
%TO.C,C18*%
G36*
G01*
X176345000Y-90620001D02*
X176345000Y-89719999D01*
G75*
G02*
X176594999Y-89470000I249999J0D01*
G01*
X177245001Y-89470000D01*
G75*
G02*
X177495000Y-89719999I0J-249999D01*
G01*
X177495000Y-90620001D01*
G75*
G02*
X177245001Y-90870000I-249999J0D01*
G01*
X176594999Y-90870000D01*
G75*
G02*
X176345000Y-90620001I0J249999D01*
G01*
G37*
G36*
G01*
X174295000Y-90620001D02*
X174295000Y-89719999D01*
G75*
G02*
X174544999Y-89470000I249999J0D01*
G01*
X175195001Y-89470000D01*
G75*
G02*
X175445000Y-89719999I0J-249999D01*
G01*
X175445000Y-90620001D01*
G75*
G02*
X175195001Y-90870000I-249999J0D01*
G01*
X174544999Y-90870000D01*
G75*
G02*
X174295000Y-90620001I0J249999D01*
G01*
G37*
%TD*%
%TO.C,C17*%
G36*
G01*
X156025000Y-90620001D02*
X156025000Y-89719999D01*
G75*
G02*
X156274999Y-89470000I249999J0D01*
G01*
X156925001Y-89470000D01*
G75*
G02*
X157175000Y-89719999I0J-249999D01*
G01*
X157175000Y-90620001D01*
G75*
G02*
X156925001Y-90870000I-249999J0D01*
G01*
X156274999Y-90870000D01*
G75*
G02*
X156025000Y-90620001I0J249999D01*
G01*
G37*
G36*
G01*
X153975000Y-90620001D02*
X153975000Y-89719999D01*
G75*
G02*
X154224999Y-89470000I249999J0D01*
G01*
X154875001Y-89470000D01*
G75*
G02*
X155125000Y-89719999I0J-249999D01*
G01*
X155125000Y-90620001D01*
G75*
G02*
X154875001Y-90870000I-249999J0D01*
G01*
X154224999Y-90870000D01*
G75*
G02*
X153975000Y-90620001I0J249999D01*
G01*
G37*
%TD*%
%TO.C,C16*%
G36*
G01*
X134435000Y-90620001D02*
X134435000Y-89719999D01*
G75*
G02*
X134684999Y-89470000I249999J0D01*
G01*
X135335001Y-89470000D01*
G75*
G02*
X135585000Y-89719999I0J-249999D01*
G01*
X135585000Y-90620001D01*
G75*
G02*
X135335001Y-90870000I-249999J0D01*
G01*
X134684999Y-90870000D01*
G75*
G02*
X134435000Y-90620001I0J249999D01*
G01*
G37*
G36*
G01*
X132385000Y-90620001D02*
X132385000Y-89719999D01*
G75*
G02*
X132634999Y-89470000I249999J0D01*
G01*
X133285001Y-89470000D01*
G75*
G02*
X133535000Y-89719999I0J-249999D01*
G01*
X133535000Y-90620001D01*
G75*
G02*
X133285001Y-90870000I-249999J0D01*
G01*
X132634999Y-90870000D01*
G75*
G02*
X132385000Y-90620001I0J249999D01*
G01*
G37*
%TD*%
%TO.C,C15*%
G36*
G01*
X112210000Y-90620001D02*
X112210000Y-89719999D01*
G75*
G02*
X112459999Y-89470000I249999J0D01*
G01*
X113110001Y-89470000D01*
G75*
G02*
X113360000Y-89719999I0J-249999D01*
G01*
X113360000Y-90620001D01*
G75*
G02*
X113110001Y-90870000I-249999J0D01*
G01*
X112459999Y-90870000D01*
G75*
G02*
X112210000Y-90620001I0J249999D01*
G01*
G37*
G36*
G01*
X110160000Y-90620001D02*
X110160000Y-89719999D01*
G75*
G02*
X110409999Y-89470000I249999J0D01*
G01*
X111060001Y-89470000D01*
G75*
G02*
X111310000Y-89719999I0J-249999D01*
G01*
X111310000Y-90620001D01*
G75*
G02*
X111060001Y-90870000I-249999J0D01*
G01*
X110409999Y-90870000D01*
G75*
G02*
X110160000Y-90620001I0J249999D01*
G01*
G37*
%TD*%
%TO.C,C14*%
G36*
G01*
X93795000Y-90620001D02*
X93795000Y-89719999D01*
G75*
G02*
X94044999Y-89470000I249999J0D01*
G01*
X94695001Y-89470000D01*
G75*
G02*
X94945000Y-89719999I0J-249999D01*
G01*
X94945000Y-90620001D01*
G75*
G02*
X94695001Y-90870000I-249999J0D01*
G01*
X94044999Y-90870000D01*
G75*
G02*
X93795000Y-90620001I0J249999D01*
G01*
G37*
G36*
G01*
X91745000Y-90620001D02*
X91745000Y-89719999D01*
G75*
G02*
X91994999Y-89470000I249999J0D01*
G01*
X92645001Y-89470000D01*
G75*
G02*
X92895000Y-89719999I0J-249999D01*
G01*
X92895000Y-90620001D01*
G75*
G02*
X92645001Y-90870000I-249999J0D01*
G01*
X91994999Y-90870000D01*
G75*
G02*
X91745000Y-90620001I0J249999D01*
G01*
G37*
%TD*%
%TO.C,C8*%
G36*
G01*
X224145000Y-128765000D02*
X222895000Y-128765000D01*
G75*
G02*
X222645000Y-128515000I0J250000D01*
G01*
X222645000Y-127590000D01*
G75*
G02*
X222895000Y-127340000I250000J0D01*
G01*
X224145000Y-127340000D01*
G75*
G02*
X224395000Y-127590000I0J-250000D01*
G01*
X224395000Y-128515000D01*
G75*
G02*
X224145000Y-128765000I-250000J0D01*
G01*
G37*
G36*
G01*
X224145000Y-131740000D02*
X222895000Y-131740000D01*
G75*
G02*
X222645000Y-131490000I0J250000D01*
G01*
X222645000Y-130565000D01*
G75*
G02*
X222895000Y-130315000I250000J0D01*
G01*
X224145000Y-130315000D01*
G75*
G02*
X224395000Y-130565000I0J-250000D01*
G01*
X224395000Y-131490000D01*
G75*
G02*
X224145000Y-131740000I-250000J0D01*
G01*
G37*
%TD*%
%TO.C,C7*%
G36*
G01*
X239385000Y-128765000D02*
X238135000Y-128765000D01*
G75*
G02*
X237885000Y-128515000I0J250000D01*
G01*
X237885000Y-127590000D01*
G75*
G02*
X238135000Y-127340000I250000J0D01*
G01*
X239385000Y-127340000D01*
G75*
G02*
X239635000Y-127590000I0J-250000D01*
G01*
X239635000Y-128515000D01*
G75*
G02*
X239385000Y-128765000I-250000J0D01*
G01*
G37*
G36*
G01*
X239385000Y-131740000D02*
X238135000Y-131740000D01*
G75*
G02*
X237885000Y-131490000I0J250000D01*
G01*
X237885000Y-130565000D01*
G75*
G02*
X238135000Y-130315000I250000J0D01*
G01*
X239385000Y-130315000D01*
G75*
G02*
X239635000Y-130565000I0J-250000D01*
G01*
X239635000Y-131490000D01*
G75*
G02*
X239385000Y-131740000I-250000J0D01*
G01*
G37*
%TD*%
%TO.C,C6*%
G36*
G01*
X263340001Y-113850000D02*
X262439999Y-113850000D01*
G75*
G02*
X262190000Y-113600001I0J249999D01*
G01*
X262190000Y-112949999D01*
G75*
G02*
X262439999Y-112700000I249999J0D01*
G01*
X263340001Y-112700000D01*
G75*
G02*
X263590000Y-112949999I0J-249999D01*
G01*
X263590000Y-113600001D01*
G75*
G02*
X263340001Y-113850000I-249999J0D01*
G01*
G37*
G36*
G01*
X263340001Y-115900000D02*
X262439999Y-115900000D01*
G75*
G02*
X262190000Y-115650001I0J249999D01*
G01*
X262190000Y-114999999D01*
G75*
G02*
X262439999Y-114750000I249999J0D01*
G01*
X263340001Y-114750000D01*
G75*
G02*
X263590000Y-114999999I0J-249999D01*
G01*
X263590000Y-115650001D01*
G75*
G02*
X263340001Y-115900000I-249999J0D01*
G01*
G37*
%TD*%
%TO.C,C5*%
G36*
G01*
X258260001Y-130360000D02*
X257359999Y-130360000D01*
G75*
G02*
X257110000Y-130110001I0J249999D01*
G01*
X257110000Y-129459999D01*
G75*
G02*
X257359999Y-129210000I249999J0D01*
G01*
X258260001Y-129210000D01*
G75*
G02*
X258510000Y-129459999I0J-249999D01*
G01*
X258510000Y-130110001D01*
G75*
G02*
X258260001Y-130360000I-249999J0D01*
G01*
G37*
G36*
G01*
X258260001Y-132410000D02*
X257359999Y-132410000D01*
G75*
G02*
X257110000Y-132160001I0J249999D01*
G01*
X257110000Y-131509999D01*
G75*
G02*
X257359999Y-131260000I249999J0D01*
G01*
X258260001Y-131260000D01*
G75*
G02*
X258510000Y-131509999I0J-249999D01*
G01*
X258510000Y-132160001D01*
G75*
G02*
X258260001Y-132410000I-249999J0D01*
G01*
G37*
%TD*%
%TO.C,C3*%
G36*
G01*
X254450001Y-90355000D02*
X253549999Y-90355000D01*
G75*
G02*
X253300000Y-90105001I0J249999D01*
G01*
X253300000Y-89454999D01*
G75*
G02*
X253549999Y-89205000I249999J0D01*
G01*
X254450001Y-89205000D01*
G75*
G02*
X254700000Y-89454999I0J-249999D01*
G01*
X254700000Y-90105001D01*
G75*
G02*
X254450001Y-90355000I-249999J0D01*
G01*
G37*
G36*
G01*
X254450001Y-92405000D02*
X253549999Y-92405000D01*
G75*
G02*
X253300000Y-92155001I0J249999D01*
G01*
X253300000Y-91504999D01*
G75*
G02*
X253549999Y-91255000I249999J0D01*
G01*
X254450001Y-91255000D01*
G75*
G02*
X254700000Y-91504999I0J-249999D01*
G01*
X254700000Y-92155001D01*
G75*
G02*
X254450001Y-92405000I-249999J0D01*
G01*
G37*
%TD*%
%TO.C,C2*%
G36*
G01*
X237039999Y-93160000D02*
X237940001Y-93160000D01*
G75*
G02*
X238190000Y-93409999I0J-249999D01*
G01*
X238190000Y-94060001D01*
G75*
G02*
X237940001Y-94310000I-249999J0D01*
G01*
X237039999Y-94310000D01*
G75*
G02*
X236790000Y-94060001I0J249999D01*
G01*
X236790000Y-93409999D01*
G75*
G02*
X237039999Y-93160000I249999J0D01*
G01*
G37*
G36*
G01*
X237039999Y-91110000D02*
X237940001Y-91110000D01*
G75*
G02*
X238190000Y-91359999I0J-249999D01*
G01*
X238190000Y-92010001D01*
G75*
G02*
X237940001Y-92260000I-249999J0D01*
G01*
X237039999Y-92260000D01*
G75*
G02*
X236790000Y-92010001I0J249999D01*
G01*
X236790000Y-91359999D01*
G75*
G02*
X237039999Y-91110000I249999J0D01*
G01*
G37*
%TD*%
%TO.C,C1*%
G36*
G01*
X234325000Y-93485000D02*
X235575000Y-93485000D01*
G75*
G02*
X235825000Y-93735000I0J-250000D01*
G01*
X235825000Y-94660000D01*
G75*
G02*
X235575000Y-94910000I-250000J0D01*
G01*
X234325000Y-94910000D01*
G75*
G02*
X234075000Y-94660000I0J250000D01*
G01*
X234075000Y-93735000D01*
G75*
G02*
X234325000Y-93485000I250000J0D01*
G01*
G37*
G36*
G01*
X234325000Y-90510000D02*
X235575000Y-90510000D01*
G75*
G02*
X235825000Y-90760000I0J-250000D01*
G01*
X235825000Y-91685000D01*
G75*
G02*
X235575000Y-91935000I-250000J0D01*
G01*
X234325000Y-91935000D01*
G75*
G02*
X234075000Y-91685000I0J250000D01*
G01*
X234075000Y-90760000D01*
G75*
G02*
X234325000Y-90510000I250000J0D01*
G01*
G37*
%TD*%
M02*
