%TF.GenerationSoftware,KiCad,Pcbnew,(5.1.6-0-10_14)*%
%TF.CreationDate,2020-10-26T15:40:05+01:00*%
%TF.ProjectId,GenericEPaperRemote,47656e65-7269-4634-9550-617065725265,rev?*%
%TF.SameCoordinates,Original*%
%TF.FileFunction,Legend,Bot*%
%TF.FilePolarity,Positive*%
%FSLAX46Y46*%
G04 Gerber Fmt 4.6, Leading zero omitted, Abs format (unit mm)*
G04 Created by KiCad (PCBNEW (5.1.6-0-10_14)) date 2020-10-26 15:40:05*
%MOMM*%
%LPD*%
G01*
G04 APERTURE LIST*
%ADD10C,0.152400*%
%ADD11C,0.120000*%
%ADD12C,0.127000*%
%ADD13C,0.200000*%
%ADD14C,0.150000*%
%ADD15C,0.015000*%
G04 APERTURE END LIST*
D10*
X240228361Y-121524485D02*
X240267066Y-121563190D01*
X240383180Y-121601895D01*
X240460590Y-121601895D01*
X240576704Y-121563190D01*
X240654114Y-121485780D01*
X240692819Y-121408371D01*
X240731523Y-121253552D01*
X240731523Y-121137438D01*
X240692819Y-120982619D01*
X240654114Y-120905209D01*
X240576704Y-120827800D01*
X240460590Y-120789095D01*
X240383180Y-120789095D01*
X240267066Y-120827800D01*
X240228361Y-120866504D01*
X239531676Y-121060028D02*
X239531676Y-121601895D01*
X239880019Y-121060028D02*
X239880019Y-121485780D01*
X239841314Y-121563190D01*
X239763904Y-121601895D01*
X239647790Y-121601895D01*
X239570380Y-121563190D01*
X239531676Y-121524485D01*
X239260742Y-121060028D02*
X238951104Y-121060028D01*
X239144628Y-120789095D02*
X239144628Y-121485780D01*
X239105923Y-121563190D01*
X239028514Y-121601895D01*
X238951104Y-121601895D01*
X238177009Y-121060028D02*
X237867371Y-121060028D01*
X238060895Y-120789095D02*
X238060895Y-121485780D01*
X238022190Y-121563190D01*
X237944780Y-121601895D01*
X237867371Y-121601895D01*
X237480323Y-121601895D02*
X237557733Y-121563190D01*
X237596438Y-121524485D01*
X237635142Y-121447076D01*
X237635142Y-121214847D01*
X237596438Y-121137438D01*
X237557733Y-121098733D01*
X237480323Y-121060028D01*
X237364209Y-121060028D01*
X237286800Y-121098733D01*
X237248095Y-121137438D01*
X237209390Y-121214847D01*
X237209390Y-121447076D01*
X237248095Y-121524485D01*
X237286800Y-121563190D01*
X237364209Y-121601895D01*
X237480323Y-121601895D01*
X235893428Y-121601895D02*
X235893428Y-120789095D01*
X235893428Y-121563190D02*
X235970838Y-121601895D01*
X236125657Y-121601895D01*
X236203066Y-121563190D01*
X236241771Y-121524485D01*
X236280476Y-121447076D01*
X236280476Y-121214847D01*
X236241771Y-121137438D01*
X236203066Y-121098733D01*
X236125657Y-121060028D01*
X235970838Y-121060028D01*
X235893428Y-121098733D01*
X235506380Y-121601895D02*
X235506380Y-121060028D01*
X235506380Y-120789095D02*
X235545085Y-120827800D01*
X235506380Y-120866504D01*
X235467676Y-120827800D01*
X235506380Y-120789095D01*
X235506380Y-120866504D01*
X235158038Y-121563190D02*
X235080628Y-121601895D01*
X234925809Y-121601895D01*
X234848400Y-121563190D01*
X234809695Y-121485780D01*
X234809695Y-121447076D01*
X234848400Y-121369666D01*
X234925809Y-121330961D01*
X235041923Y-121330961D01*
X235119333Y-121292257D01*
X235158038Y-121214847D01*
X235158038Y-121176142D01*
X235119333Y-121098733D01*
X235041923Y-121060028D01*
X234925809Y-121060028D01*
X234848400Y-121098733D01*
X234113009Y-121601895D02*
X234113009Y-121176142D01*
X234151714Y-121098733D01*
X234229123Y-121060028D01*
X234383942Y-121060028D01*
X234461352Y-121098733D01*
X234113009Y-121563190D02*
X234190419Y-121601895D01*
X234383942Y-121601895D01*
X234461352Y-121563190D01*
X234500057Y-121485780D01*
X234500057Y-121408371D01*
X234461352Y-121330961D01*
X234383942Y-121292257D01*
X234190419Y-121292257D01*
X234113009Y-121253552D01*
X233725961Y-121601895D02*
X233725961Y-120789095D01*
X233725961Y-121098733D02*
X233648552Y-121060028D01*
X233493733Y-121060028D01*
X233416323Y-121098733D01*
X233377619Y-121137438D01*
X233338914Y-121214847D01*
X233338914Y-121447076D01*
X233377619Y-121524485D01*
X233416323Y-121563190D01*
X233493733Y-121601895D01*
X233648552Y-121601895D01*
X233725961Y-121563190D01*
X232874457Y-121601895D02*
X232951866Y-121563190D01*
X232990571Y-121485780D01*
X232990571Y-120789095D01*
X232255180Y-121563190D02*
X232332590Y-121601895D01*
X232487409Y-121601895D01*
X232564819Y-121563190D01*
X232603523Y-121485780D01*
X232603523Y-121176142D01*
X232564819Y-121098733D01*
X232487409Y-121060028D01*
X232332590Y-121060028D01*
X232255180Y-121098733D01*
X232216476Y-121176142D01*
X232216476Y-121253552D01*
X232603523Y-121330961D01*
X241002457Y-122160695D02*
X241002457Y-122818676D01*
X240963752Y-122896085D01*
X240925047Y-122934790D01*
X240847638Y-122973495D01*
X240692819Y-122973495D01*
X240615409Y-122934790D01*
X240576704Y-122896085D01*
X240538000Y-122818676D01*
X240538000Y-122160695D01*
X240189657Y-122934790D02*
X240073542Y-122973495D01*
X239880019Y-122973495D01*
X239802609Y-122934790D01*
X239763904Y-122896085D01*
X239725200Y-122818676D01*
X239725200Y-122741266D01*
X239763904Y-122663857D01*
X239802609Y-122625152D01*
X239880019Y-122586447D01*
X240034838Y-122547742D01*
X240112247Y-122509038D01*
X240150952Y-122470333D01*
X240189657Y-122392923D01*
X240189657Y-122315514D01*
X240150952Y-122238104D01*
X240112247Y-122199400D01*
X240034838Y-122160695D01*
X239841314Y-122160695D01*
X239725200Y-122199400D01*
X239105923Y-122547742D02*
X238989809Y-122586447D01*
X238951104Y-122625152D01*
X238912400Y-122702561D01*
X238912400Y-122818676D01*
X238951104Y-122896085D01*
X238989809Y-122934790D01*
X239067219Y-122973495D01*
X239376857Y-122973495D01*
X239376857Y-122160695D01*
X239105923Y-122160695D01*
X239028514Y-122199400D01*
X238989809Y-122238104D01*
X238951104Y-122315514D01*
X238951104Y-122392923D01*
X238989809Y-122470333D01*
X239028514Y-122509038D01*
X239105923Y-122547742D01*
X239376857Y-122547742D01*
X238564057Y-122663857D02*
X237944780Y-122663857D01*
X237673847Y-122431628D02*
X237364209Y-122431628D01*
X237557733Y-122160695D02*
X237557733Y-122857380D01*
X237519028Y-122934790D01*
X237441619Y-122973495D01*
X237364209Y-122973495D01*
X236977161Y-122973495D02*
X237054571Y-122934790D01*
X237093276Y-122896085D01*
X237131980Y-122818676D01*
X237131980Y-122586447D01*
X237093276Y-122509038D01*
X237054571Y-122470333D01*
X236977161Y-122431628D01*
X236861047Y-122431628D01*
X236783638Y-122470333D01*
X236744933Y-122509038D01*
X236706228Y-122586447D01*
X236706228Y-122818676D01*
X236744933Y-122896085D01*
X236783638Y-122934790D01*
X236861047Y-122973495D01*
X236977161Y-122973495D01*
X236357885Y-122663857D02*
X235738609Y-122663857D01*
X235390266Y-122934790D02*
X235312857Y-122973495D01*
X235158038Y-122973495D01*
X235080628Y-122934790D01*
X235041923Y-122857380D01*
X235041923Y-122818676D01*
X235080628Y-122741266D01*
X235158038Y-122702561D01*
X235274152Y-122702561D01*
X235351561Y-122663857D01*
X235390266Y-122586447D01*
X235390266Y-122547742D01*
X235351561Y-122470333D01*
X235274152Y-122431628D01*
X235158038Y-122431628D01*
X235080628Y-122470333D01*
X234383942Y-122934790D02*
X234461352Y-122973495D01*
X234616171Y-122973495D01*
X234693580Y-122934790D01*
X234732285Y-122857380D01*
X234732285Y-122547742D01*
X234693580Y-122470333D01*
X234616171Y-122431628D01*
X234461352Y-122431628D01*
X234383942Y-122470333D01*
X234345238Y-122547742D01*
X234345238Y-122625152D01*
X234732285Y-122702561D01*
X233996895Y-122973495D02*
X233996895Y-122431628D01*
X233996895Y-122586447D02*
X233958190Y-122509038D01*
X233919485Y-122470333D01*
X233842076Y-122431628D01*
X233764666Y-122431628D01*
X233493733Y-122973495D02*
X233493733Y-122431628D01*
X233493733Y-122160695D02*
X233532438Y-122199400D01*
X233493733Y-122238104D01*
X233455028Y-122199400D01*
X233493733Y-122160695D01*
X233493733Y-122238104D01*
X232797047Y-122934790D02*
X232874457Y-122973495D01*
X233029276Y-122973495D01*
X233106685Y-122934790D01*
X233145390Y-122857380D01*
X233145390Y-122547742D01*
X233106685Y-122470333D01*
X233029276Y-122431628D01*
X232874457Y-122431628D01*
X232797047Y-122470333D01*
X232758342Y-122547742D01*
X232758342Y-122625152D01*
X233145390Y-122702561D01*
X232293885Y-122973495D02*
X232371295Y-122934790D01*
X232410000Y-122857380D01*
X232410000Y-122160695D01*
X231868133Y-122973495D02*
X231945542Y-122934790D01*
X231984247Y-122857380D01*
X231984247Y-122160695D01*
X194094825Y-129094895D02*
X193591663Y-129094895D01*
X193862597Y-129404533D01*
X193746482Y-129404533D01*
X193669073Y-129443238D01*
X193630368Y-129481942D01*
X193591663Y-129559352D01*
X193591663Y-129752876D01*
X193630368Y-129830285D01*
X193669073Y-129868990D01*
X193746482Y-129907695D01*
X193978711Y-129907695D01*
X194056120Y-129868990D01*
X194094825Y-129830285D01*
X193359435Y-129094895D02*
X193088501Y-129907695D01*
X192817568Y-129094895D01*
X192624044Y-129094895D02*
X192120882Y-129094895D01*
X192391816Y-129404533D01*
X192275701Y-129404533D01*
X192198292Y-129443238D01*
X192159587Y-129481942D01*
X192120882Y-129559352D01*
X192120882Y-129752876D01*
X192159587Y-129830285D01*
X192198292Y-129868990D01*
X192275701Y-129907695D01*
X192507930Y-129907695D01*
X192585340Y-129868990D01*
X192624044Y-129830285D01*
X190688806Y-129907695D02*
X190959740Y-129520647D01*
X191153263Y-129907695D02*
X191153263Y-129094895D01*
X190843625Y-129094895D01*
X190766216Y-129133600D01*
X190727511Y-129172304D01*
X190688806Y-129249714D01*
X190688806Y-129365828D01*
X190727511Y-129443238D01*
X190766216Y-129481942D01*
X190843625Y-129520647D01*
X191153263Y-129520647D01*
X190417873Y-129094895D02*
X189876006Y-129907695D01*
X189876006Y-129094895D02*
X190417873Y-129907695D01*
X188443930Y-129094895D02*
X187979473Y-129094895D01*
X188211701Y-129907695D02*
X188211701Y-129094895D01*
X187785949Y-129094895D02*
X187244082Y-129907695D01*
X187244082Y-129094895D02*
X187785949Y-129907695D01*
X185850711Y-129907695D02*
X186121644Y-129520647D01*
X186315168Y-129907695D02*
X186315168Y-129094895D01*
X186005530Y-129094895D01*
X185928120Y-129133600D01*
X185889416Y-129172304D01*
X185850711Y-129249714D01*
X185850711Y-129365828D01*
X185889416Y-129443238D01*
X185928120Y-129481942D01*
X186005530Y-129520647D01*
X186315168Y-129520647D01*
X185618482Y-129094895D02*
X185154025Y-129094895D01*
X185386254Y-129907695D02*
X185386254Y-129094895D01*
X184921797Y-129868990D02*
X184805682Y-129907695D01*
X184612159Y-129907695D01*
X184534749Y-129868990D01*
X184496044Y-129830285D01*
X184457340Y-129752876D01*
X184457340Y-129675466D01*
X184496044Y-129598057D01*
X184534749Y-129559352D01*
X184612159Y-129520647D01*
X184766978Y-129481942D01*
X184844387Y-129443238D01*
X184883092Y-129404533D01*
X184921797Y-129327123D01*
X184921797Y-129249714D01*
X184883092Y-129172304D01*
X184844387Y-129133600D01*
X184766978Y-129094895D01*
X184573454Y-129094895D01*
X184457340Y-129133600D01*
X183489720Y-129907695D02*
X183489720Y-129094895D01*
X183296197Y-129094895D01*
X183180082Y-129133600D01*
X183102673Y-129211009D01*
X183063968Y-129288419D01*
X183025263Y-129443238D01*
X183025263Y-129559352D01*
X183063968Y-129714171D01*
X183102673Y-129791580D01*
X183180082Y-129868990D01*
X183296197Y-129907695D01*
X183489720Y-129907695D01*
X182793035Y-129094895D02*
X182328578Y-129094895D01*
X182560806Y-129907695D02*
X182560806Y-129094895D01*
X181593187Y-129907695D02*
X181864120Y-129520647D01*
X182057644Y-129907695D02*
X182057644Y-129094895D01*
X181748006Y-129094895D01*
X181670597Y-129133600D01*
X181631892Y-129172304D01*
X181593187Y-129249714D01*
X181593187Y-129365828D01*
X181631892Y-129443238D01*
X181670597Y-129481942D01*
X181748006Y-129520647D01*
X182057644Y-129520647D01*
X180199816Y-129133600D02*
X180277225Y-129094895D01*
X180393340Y-129094895D01*
X180509454Y-129133600D01*
X180586863Y-129211009D01*
X180625568Y-129288419D01*
X180664273Y-129443238D01*
X180664273Y-129559352D01*
X180625568Y-129714171D01*
X180586863Y-129791580D01*
X180509454Y-129868990D01*
X180393340Y-129907695D01*
X180315930Y-129907695D01*
X180199816Y-129868990D01*
X180161111Y-129830285D01*
X180161111Y-129559352D01*
X180315930Y-129559352D01*
X179812768Y-129907695D02*
X179812768Y-129094895D01*
X179348311Y-129907695D01*
X179348311Y-129094895D01*
X178961263Y-129907695D02*
X178961263Y-129094895D01*
X178767740Y-129094895D01*
X178651625Y-129133600D01*
X178574216Y-129211009D01*
X178535511Y-129288419D01*
X178496806Y-129443238D01*
X178496806Y-129559352D01*
X178535511Y-129714171D01*
X178574216Y-129791580D01*
X178651625Y-129868990D01*
X178767740Y-129907695D01*
X178961263Y-129907695D01*
X173211187Y-106895295D02*
X173211187Y-107475866D01*
X173249892Y-107591980D01*
X173327301Y-107669390D01*
X173443416Y-107708095D01*
X173520825Y-107708095D01*
X172940254Y-106895295D02*
X172475797Y-106895295D01*
X172708025Y-107708095D02*
X172708025Y-106895295D01*
X172243568Y-107475866D02*
X171856520Y-107475866D01*
X172320978Y-107708095D02*
X172050044Y-106895295D01*
X171779111Y-107708095D01*
X171082425Y-106934000D02*
X171159835Y-106895295D01*
X171275949Y-106895295D01*
X171392063Y-106934000D01*
X171469473Y-107011409D01*
X171508178Y-107088819D01*
X171546882Y-107243638D01*
X171546882Y-107359752D01*
X171508178Y-107514571D01*
X171469473Y-107591980D01*
X171392063Y-107669390D01*
X171275949Y-107708095D01*
X171198540Y-107708095D01*
X171082425Y-107669390D01*
X171043720Y-107630685D01*
X171043720Y-107359752D01*
X171198540Y-107359752D01*
X173017663Y-108305600D02*
X173095073Y-108266895D01*
X173211187Y-108266895D01*
X173327301Y-108305600D01*
X173404711Y-108383009D01*
X173443416Y-108460419D01*
X173482120Y-108615238D01*
X173482120Y-108731352D01*
X173443416Y-108886171D01*
X173404711Y-108963580D01*
X173327301Y-109040990D01*
X173211187Y-109079695D01*
X173133778Y-109079695D01*
X173017663Y-109040990D01*
X172978959Y-109002285D01*
X172978959Y-108731352D01*
X173133778Y-108731352D01*
X172630616Y-109079695D02*
X172630616Y-108266895D01*
X172166159Y-109079695D01*
X172166159Y-108266895D01*
X171779111Y-109079695D02*
X171779111Y-108266895D01*
X171585587Y-108266895D01*
X171469473Y-108305600D01*
X171392063Y-108383009D01*
X171353359Y-108460419D01*
X171314654Y-108615238D01*
X171314654Y-108731352D01*
X171353359Y-108886171D01*
X171392063Y-108963580D01*
X171469473Y-109040990D01*
X171585587Y-109079695D01*
X171779111Y-109079695D01*
X170347035Y-109002285D02*
X170308330Y-109040990D01*
X170347035Y-109079695D01*
X170385740Y-109040990D01*
X170347035Y-109002285D01*
X170347035Y-109079695D01*
X169959987Y-109002285D02*
X169921282Y-109040990D01*
X169959987Y-109079695D01*
X169998692Y-109040990D01*
X169959987Y-109002285D01*
X169959987Y-109079695D01*
X168953663Y-108770057D02*
X168334387Y-108770057D01*
X168644025Y-109079695D02*
X168644025Y-108460419D01*
X168024749Y-108266895D02*
X167521587Y-108266895D01*
X167792520Y-108576533D01*
X167676406Y-108576533D01*
X167598997Y-108615238D01*
X167560292Y-108653942D01*
X167521587Y-108731352D01*
X167521587Y-108924876D01*
X167560292Y-109002285D01*
X167598997Y-109040990D01*
X167676406Y-109079695D01*
X167908635Y-109079695D01*
X167986044Y-109040990D01*
X168024749Y-109002285D01*
X167289359Y-108266895D02*
X167018425Y-109079695D01*
X166747492Y-108266895D01*
X166553968Y-108266895D02*
X166050806Y-108266895D01*
X166321740Y-108576533D01*
X166205625Y-108576533D01*
X166128216Y-108615238D01*
X166089511Y-108653942D01*
X166050806Y-108731352D01*
X166050806Y-108924876D01*
X166089511Y-109002285D01*
X166128216Y-109040990D01*
X166205625Y-109079695D01*
X166437854Y-109079695D01*
X166515263Y-109040990D01*
X166553968Y-109002285D01*
X173520825Y-109638495D02*
X172978959Y-110451295D01*
X172978959Y-109638495D02*
X173520825Y-110451295D01*
X172475797Y-110722228D02*
X172475797Y-109561085D01*
X172011340Y-109638495D02*
X171546882Y-109638495D01*
X171779111Y-110451295D02*
X171779111Y-109638495D01*
X171275949Y-110451295D02*
X171275949Y-109638495D01*
X171082425Y-109638495D01*
X170966311Y-109677200D01*
X170888901Y-109754609D01*
X170850197Y-109832019D01*
X170811492Y-109986838D01*
X170811492Y-110102952D01*
X170850197Y-110257771D01*
X170888901Y-110335180D01*
X170966311Y-110412590D01*
X171082425Y-110451295D01*
X171275949Y-110451295D01*
X170463149Y-110451295D02*
X170463149Y-109638495D01*
X169882578Y-110722228D02*
X169882578Y-109561085D01*
X169418120Y-109638495D02*
X168953663Y-109638495D01*
X169185892Y-110451295D02*
X169185892Y-109638495D01*
X168682730Y-110451295D02*
X168682730Y-109638495D01*
X168489206Y-109638495D01*
X168373092Y-109677200D01*
X168295682Y-109754609D01*
X168256978Y-109832019D01*
X168218273Y-109986838D01*
X168218273Y-110102952D01*
X168256978Y-110257771D01*
X168295682Y-110335180D01*
X168373092Y-110412590D01*
X168489206Y-110451295D01*
X168682730Y-110451295D01*
X167715111Y-109638495D02*
X167637701Y-109638495D01*
X167560292Y-109677200D01*
X167521587Y-109715904D01*
X167482882Y-109793314D01*
X167444178Y-109948133D01*
X167444178Y-110141657D01*
X167482882Y-110296476D01*
X167521587Y-110373885D01*
X167560292Y-110412590D01*
X167637701Y-110451295D01*
X167715111Y-110451295D01*
X167792520Y-110412590D01*
X167831225Y-110373885D01*
X167869930Y-110296476D01*
X167908635Y-110141657D01*
X167908635Y-109948133D01*
X167869930Y-109793314D01*
X167831225Y-109715904D01*
X167792520Y-109677200D01*
X167715111Y-109638495D01*
X166902311Y-110722228D02*
X166902311Y-109561085D01*
X166437854Y-109638495D02*
X165973397Y-109638495D01*
X166205625Y-110451295D02*
X166205625Y-109638495D01*
X165238006Y-110373885D02*
X165276711Y-110412590D01*
X165392825Y-110451295D01*
X165470235Y-110451295D01*
X165586349Y-110412590D01*
X165663759Y-110335180D01*
X165702463Y-110257771D01*
X165741168Y-110102952D01*
X165741168Y-109986838D01*
X165702463Y-109832019D01*
X165663759Y-109754609D01*
X165586349Y-109677200D01*
X165470235Y-109638495D01*
X165392825Y-109638495D01*
X165276711Y-109677200D01*
X165238006Y-109715904D01*
X164889663Y-110451295D02*
X164889663Y-109638495D01*
X164425206Y-110451295D02*
X164773549Y-109986838D01*
X164425206Y-109638495D02*
X164889663Y-110102952D01*
X163883340Y-110722228D02*
X163883340Y-109561085D01*
X163418882Y-109638495D02*
X162954425Y-109638495D01*
X163186654Y-110451295D02*
X163186654Y-109638495D01*
X162683492Y-110451295D02*
X162683492Y-109638495D01*
X162412559Y-110219066D01*
X162141625Y-109638495D01*
X162141625Y-110451295D01*
X161793282Y-110412590D02*
X161677168Y-110451295D01*
X161483644Y-110451295D01*
X161406235Y-110412590D01*
X161367530Y-110373885D01*
X161328825Y-110296476D01*
X161328825Y-110219066D01*
X161367530Y-110141657D01*
X161406235Y-110102952D01*
X161483644Y-110064247D01*
X161638463Y-110025542D01*
X161715873Y-109986838D01*
X161754578Y-109948133D01*
X161793282Y-109870723D01*
X161793282Y-109793314D01*
X161754578Y-109715904D01*
X161715873Y-109677200D01*
X161638463Y-109638495D01*
X161444940Y-109638495D01*
X161328825Y-109677200D01*
X174498120Y-93699390D02*
X174382006Y-93738095D01*
X174188482Y-93738095D01*
X174111073Y-93699390D01*
X174072368Y-93660685D01*
X174033663Y-93583276D01*
X174033663Y-93505866D01*
X174072368Y-93428457D01*
X174111073Y-93389752D01*
X174188482Y-93351047D01*
X174343301Y-93312342D01*
X174420711Y-93273638D01*
X174459416Y-93234933D01*
X174498120Y-93157523D01*
X174498120Y-93080114D01*
X174459416Y-93002704D01*
X174420711Y-92964000D01*
X174343301Y-92925295D01*
X174149778Y-92925295D01*
X174033663Y-92964000D01*
X173375682Y-93699390D02*
X173453092Y-93738095D01*
X173607911Y-93738095D01*
X173685320Y-93699390D01*
X173724025Y-93621980D01*
X173724025Y-93312342D01*
X173685320Y-93234933D01*
X173607911Y-93196228D01*
X173453092Y-93196228D01*
X173375682Y-93234933D01*
X173336978Y-93312342D01*
X173336978Y-93389752D01*
X173724025Y-93467161D01*
X172988635Y-93738095D02*
X172988635Y-93196228D01*
X172988635Y-93351047D02*
X172949930Y-93273638D01*
X172911225Y-93234933D01*
X172833816Y-93196228D01*
X172756406Y-93196228D01*
X172485473Y-93738095D02*
X172485473Y-93196228D01*
X172485473Y-92925295D02*
X172524178Y-92964000D01*
X172485473Y-93002704D01*
X172446768Y-92964000D01*
X172485473Y-92925295D01*
X172485473Y-93002704D01*
X171788787Y-93699390D02*
X171866197Y-93738095D01*
X172021016Y-93738095D01*
X172098425Y-93699390D01*
X172137130Y-93621980D01*
X172137130Y-93312342D01*
X172098425Y-93234933D01*
X172021016Y-93196228D01*
X171866197Y-93196228D01*
X171788787Y-93234933D01*
X171750082Y-93312342D01*
X171750082Y-93389752D01*
X172137130Y-93467161D01*
X171285625Y-93738095D02*
X171363035Y-93699390D01*
X171401740Y-93621980D01*
X171401740Y-92925295D01*
X170859873Y-93738095D02*
X170937282Y-93699390D01*
X170975987Y-93621980D01*
X170975987Y-92925295D01*
X169930959Y-93738095D02*
X169930959Y-92925295D01*
X169621320Y-92925295D01*
X169543911Y-92964000D01*
X169505206Y-93002704D01*
X169466501Y-93080114D01*
X169466501Y-93196228D01*
X169505206Y-93273638D01*
X169543911Y-93312342D01*
X169621320Y-93351047D01*
X169930959Y-93351047D01*
X169118159Y-93738095D02*
X169118159Y-93196228D01*
X169118159Y-93351047D02*
X169079454Y-93273638D01*
X169040749Y-93234933D01*
X168963340Y-93196228D01*
X168885930Y-93196228D01*
X168498882Y-93738095D02*
X168576292Y-93699390D01*
X168614997Y-93660685D01*
X168653701Y-93583276D01*
X168653701Y-93351047D01*
X168614997Y-93273638D01*
X168576292Y-93234933D01*
X168498882Y-93196228D01*
X168382768Y-93196228D01*
X168305359Y-93234933D01*
X168266654Y-93273638D01*
X168227949Y-93351047D01*
X168227949Y-93583276D01*
X168266654Y-93660685D01*
X168305359Y-93699390D01*
X168382768Y-93738095D01*
X168498882Y-93738095D01*
X167531263Y-93196228D02*
X167531263Y-93854209D01*
X167569968Y-93931619D01*
X167608673Y-93970323D01*
X167686082Y-94009028D01*
X167802197Y-94009028D01*
X167879606Y-93970323D01*
X167531263Y-93699390D02*
X167608673Y-93738095D01*
X167763492Y-93738095D01*
X167840901Y-93699390D01*
X167879606Y-93660685D01*
X167918311Y-93583276D01*
X167918311Y-93351047D01*
X167879606Y-93273638D01*
X167840901Y-93234933D01*
X167763492Y-93196228D01*
X167608673Y-93196228D01*
X167531263Y-93234933D01*
X173994959Y-95109695D02*
X174265892Y-94722647D01*
X174459416Y-95109695D02*
X174459416Y-94296895D01*
X174149778Y-94296895D01*
X174072368Y-94335600D01*
X174033663Y-94374304D01*
X173994959Y-94451714D01*
X173994959Y-94567828D01*
X174033663Y-94645238D01*
X174072368Y-94683942D01*
X174149778Y-94722647D01*
X174459416Y-94722647D01*
X173724025Y-94296895D02*
X173182159Y-95109695D01*
X173182159Y-94296895D02*
X173724025Y-95109695D01*
X172678997Y-95380628D02*
X172678997Y-94219485D01*
X172214540Y-94296895D02*
X171750082Y-94296895D01*
X171982311Y-95109695D02*
X171982311Y-94296895D01*
X171556559Y-94296895D02*
X171014692Y-95109695D01*
X171014692Y-94296895D02*
X171556559Y-95109695D01*
X170511530Y-95380628D02*
X170511530Y-94219485D01*
X169930959Y-94683942D02*
X169660025Y-94683942D01*
X169543911Y-95109695D02*
X169930959Y-95109695D01*
X169930959Y-94296895D01*
X169543911Y-94296895D01*
X169195568Y-95109695D02*
X169195568Y-94296895D01*
X168731111Y-95109695D01*
X168731111Y-94296895D01*
X174459416Y-96481295D02*
X174459416Y-95668495D01*
X173917549Y-95668495D02*
X173762730Y-95668495D01*
X173685320Y-95707200D01*
X173607911Y-95784609D01*
X173569206Y-95939428D01*
X173569206Y-96210361D01*
X173607911Y-96365180D01*
X173685320Y-96442590D01*
X173762730Y-96481295D01*
X173917549Y-96481295D01*
X173994959Y-96442590D01*
X174072368Y-96365180D01*
X174111073Y-96210361D01*
X174111073Y-95939428D01*
X174072368Y-95784609D01*
X173994959Y-95707200D01*
X173917549Y-95668495D01*
X173066044Y-95668495D02*
X172988635Y-95668495D01*
X172911225Y-95707200D01*
X172872520Y-95745904D01*
X172833816Y-95823314D01*
X172795111Y-95978133D01*
X172795111Y-96171657D01*
X172833816Y-96326476D01*
X172872520Y-96403885D01*
X172911225Y-96442590D01*
X172988635Y-96481295D01*
X173066044Y-96481295D01*
X173143454Y-96442590D01*
X173182159Y-96403885D01*
X173220863Y-96326476D01*
X173259568Y-96171657D01*
X173259568Y-95978133D01*
X173220863Y-95823314D01*
X173182159Y-95745904D01*
X173143454Y-95707200D01*
X173066044Y-95668495D01*
X172253244Y-96752228D02*
X172253244Y-95591085D01*
X171246920Y-95707200D02*
X171324330Y-95668495D01*
X171440444Y-95668495D01*
X171556559Y-95707200D01*
X171633968Y-95784609D01*
X171672673Y-95862019D01*
X171711378Y-96016838D01*
X171711378Y-96132952D01*
X171672673Y-96287771D01*
X171633968Y-96365180D01*
X171556559Y-96442590D01*
X171440444Y-96481295D01*
X171363035Y-96481295D01*
X171246920Y-96442590D01*
X171208216Y-96403885D01*
X171208216Y-96132952D01*
X171363035Y-96132952D01*
X170859873Y-96481295D02*
X170859873Y-95668495D01*
X170395416Y-96481295D01*
X170395416Y-95668495D01*
X170008368Y-96481295D02*
X170008368Y-95668495D01*
X169814844Y-95668495D01*
X169698730Y-95707200D01*
X169621320Y-95784609D01*
X169582616Y-95862019D01*
X169543911Y-96016838D01*
X169543911Y-96132952D01*
X169582616Y-96287771D01*
X169621320Y-96365180D01*
X169698730Y-96442590D01*
X169814844Y-96481295D01*
X170008368Y-96481295D01*
X169002044Y-96752228D02*
X169002044Y-95591085D01*
X168421473Y-96171657D02*
X167802197Y-96171657D01*
X168111835Y-96481295D02*
X168111835Y-95862019D01*
X167492559Y-95668495D02*
X166989397Y-95668495D01*
X167260330Y-95978133D01*
X167144216Y-95978133D01*
X167066806Y-96016838D01*
X167028101Y-96055542D01*
X166989397Y-96132952D01*
X166989397Y-96326476D01*
X167028101Y-96403885D01*
X167066806Y-96442590D01*
X167144216Y-96481295D01*
X167376444Y-96481295D01*
X167453854Y-96442590D01*
X167492559Y-96403885D01*
X166757168Y-95668495D02*
X166486235Y-96481295D01*
X166215301Y-95668495D01*
X166021778Y-95668495D02*
X165518616Y-95668495D01*
X165789549Y-95978133D01*
X165673435Y-95978133D01*
X165596025Y-96016838D01*
X165557320Y-96055542D01*
X165518616Y-96132952D01*
X165518616Y-96326476D01*
X165557320Y-96403885D01*
X165596025Y-96442590D01*
X165673435Y-96481295D01*
X165905663Y-96481295D01*
X165983073Y-96442590D01*
X166021778Y-96403885D01*
X246309847Y-99427695D02*
X246309847Y-98614895D01*
X246000209Y-98614895D01*
X245922800Y-98653600D01*
X245884095Y-98692304D01*
X245845390Y-98769714D01*
X245845390Y-98885828D01*
X245884095Y-98963238D01*
X245922800Y-99001942D01*
X246000209Y-99040647D01*
X246309847Y-99040647D01*
X245497047Y-99427695D02*
X245497047Y-98885828D01*
X245497047Y-99040647D02*
X245458342Y-98963238D01*
X245419638Y-98924533D01*
X245342228Y-98885828D01*
X245264819Y-98885828D01*
X244877771Y-99427695D02*
X244955180Y-99388990D01*
X244993885Y-99350285D01*
X245032590Y-99272876D01*
X245032590Y-99040647D01*
X244993885Y-98963238D01*
X244955180Y-98924533D01*
X244877771Y-98885828D01*
X244761657Y-98885828D01*
X244684247Y-98924533D01*
X244645542Y-98963238D01*
X244606838Y-99040647D01*
X244606838Y-99272876D01*
X244645542Y-99350285D01*
X244684247Y-99388990D01*
X244761657Y-99427695D01*
X244877771Y-99427695D01*
X243910152Y-98885828D02*
X243910152Y-99543809D01*
X243948857Y-99621219D01*
X243987561Y-99659923D01*
X244064971Y-99698628D01*
X244181085Y-99698628D01*
X244258495Y-99659923D01*
X243910152Y-99388990D02*
X243987561Y-99427695D01*
X244142380Y-99427695D01*
X244219790Y-99388990D01*
X244258495Y-99350285D01*
X244297200Y-99272876D01*
X244297200Y-99040647D01*
X244258495Y-98963238D01*
X244219790Y-98924533D01*
X244142380Y-98885828D01*
X243987561Y-98885828D01*
X243910152Y-98924533D01*
X253736323Y-99427695D02*
X254007257Y-99040647D01*
X254200780Y-99427695D02*
X254200780Y-98614895D01*
X253891142Y-98614895D01*
X253813733Y-98653600D01*
X253775028Y-98692304D01*
X253736323Y-98769714D01*
X253736323Y-98885828D01*
X253775028Y-98963238D01*
X253813733Y-99001942D01*
X253891142Y-99040647D01*
X254200780Y-99040647D01*
X253078342Y-99388990D02*
X253155752Y-99427695D01*
X253310571Y-99427695D01*
X253387980Y-99388990D01*
X253426685Y-99311580D01*
X253426685Y-99001942D01*
X253387980Y-98924533D01*
X253310571Y-98885828D01*
X253155752Y-98885828D01*
X253078342Y-98924533D01*
X253039638Y-99001942D01*
X253039638Y-99079352D01*
X253426685Y-99156761D01*
X252730000Y-99388990D02*
X252652590Y-99427695D01*
X252497771Y-99427695D01*
X252420361Y-99388990D01*
X252381657Y-99311580D01*
X252381657Y-99272876D01*
X252420361Y-99195466D01*
X252497771Y-99156761D01*
X252613885Y-99156761D01*
X252691295Y-99118057D01*
X252730000Y-99040647D01*
X252730000Y-99001942D01*
X252691295Y-98924533D01*
X252613885Y-98885828D01*
X252497771Y-98885828D01*
X252420361Y-98924533D01*
X251723676Y-99388990D02*
X251801085Y-99427695D01*
X251955904Y-99427695D01*
X252033314Y-99388990D01*
X252072019Y-99311580D01*
X252072019Y-99001942D01*
X252033314Y-98924533D01*
X251955904Y-98885828D01*
X251801085Y-98885828D01*
X251723676Y-98924533D01*
X251684971Y-99001942D01*
X251684971Y-99079352D01*
X252072019Y-99156761D01*
X251452742Y-98885828D02*
X251143104Y-98885828D01*
X251336628Y-98614895D02*
X251336628Y-99311580D01*
X251297923Y-99388990D01*
X251220514Y-99427695D01*
X251143104Y-99427695D01*
D11*
%TO.C,D13*%
X246606000Y-132833000D02*
X246606000Y-128533000D01*
X246606000Y-128533000D02*
X253906000Y-128533000D01*
X246606000Y-132833000D02*
X253906000Y-132833000D01*
%TO.C,D12*%
X105692000Y-125104000D02*
X105692000Y-129404000D01*
X105692000Y-129404000D02*
X98392000Y-129404000D01*
X105692000Y-125104000D02*
X98392000Y-125104000D01*
D12*
%TO.C,U1*%
X231250000Y-87490000D02*
X231250000Y-80820000D01*
X231250000Y-80820000D02*
X213250000Y-80820000D01*
X213250000Y-80820000D02*
X213250000Y-87490000D01*
X231250000Y-111880000D02*
X231250000Y-112220000D01*
X231250000Y-112220000D02*
X213250000Y-112220000D01*
X213250000Y-112220000D02*
X213250000Y-111880000D01*
D13*
X232750000Y-88220000D02*
G75*
G03*
X232750000Y-88220000I-100000J0D01*
G01*
D11*
%TO.C,SW13*%
X243040000Y-94950000D02*
X243040000Y-95250000D01*
X247180000Y-98090000D02*
X247180000Y-97790000D01*
X247180000Y-95250000D02*
X247180000Y-94950000D01*
X243040000Y-98090000D02*
X247180000Y-98090000D01*
X243040000Y-97790000D02*
X243040000Y-98090000D01*
X247180000Y-94950000D02*
X243040000Y-94950000D01*
%TO.C,SW12*%
X250660000Y-94950000D02*
X250660000Y-95250000D01*
X254800000Y-98090000D02*
X254800000Y-97790000D01*
X254800000Y-95250000D02*
X254800000Y-94950000D01*
X250660000Y-98090000D02*
X254800000Y-98090000D01*
X250660000Y-97790000D02*
X250660000Y-98090000D01*
X254800000Y-94950000D02*
X250660000Y-94950000D01*
%TO.C,USB3*%
X266260000Y-132080000D02*
X266260000Y-131700000D01*
X270310000Y-132080000D02*
X270570000Y-132080000D01*
X266260000Y-132080000D02*
X268030000Y-132080000D01*
X266260000Y-124460000D02*
X266260000Y-124840000D01*
X268030000Y-124460000D02*
X266260000Y-124460000D01*
X270570000Y-124460000D02*
X270310000Y-124460000D01*
%TO.C,USB2*%
X266640000Y-100905000D02*
X269300000Y-100905000D01*
X266640000Y-113665000D02*
X266640000Y-100905000D01*
X269300000Y-113665000D02*
X269300000Y-100905000D01*
X266640000Y-113665000D02*
X269300000Y-113665000D01*
X266640000Y-114935000D02*
X266640000Y-116265000D01*
X266640000Y-116265000D02*
X267970000Y-116265000D01*
%TO.C,USB1*%
X255700000Y-136085000D02*
X255700000Y-135335000D01*
X255700000Y-135335000D02*
X255100000Y-135335000D01*
X256000000Y-135375000D02*
X258310000Y-135375000D01*
X249690000Y-135375000D02*
X249690000Y-139295000D01*
X258310000Y-139295000D02*
X256040000Y-139295000D01*
X258310000Y-135375000D02*
X258310000Y-139295000D01*
X249690000Y-139295000D02*
X251960000Y-139295000D01*
X252000000Y-135375000D02*
X249690000Y-135375000D01*
X251960000Y-138465000D02*
X251960000Y-139295000D01*
X256040000Y-138465000D02*
X256040000Y-139295000D01*
X256040000Y-138465000D02*
X255210000Y-138465000D01*
X251960000Y-138465000D02*
X252790000Y-138465000D01*
%TO.C,U3*%
X229230000Y-132950000D02*
X229230000Y-131690000D01*
X229230000Y-126130000D02*
X229230000Y-127390000D01*
X232990000Y-132950000D02*
X229230000Y-132950000D01*
X235240000Y-126130000D02*
X229230000Y-126130000D01*
D14*
%TO.C,U2*%
X253665000Y-124705000D02*
X253665000Y-124130000D01*
X259415000Y-124705000D02*
X259415000Y-124055000D01*
X259415000Y-114055000D02*
X259415000Y-114705000D01*
X253665000Y-114055000D02*
X253665000Y-114705000D01*
X253665000Y-124705000D02*
X259415000Y-124705000D01*
X253665000Y-114055000D02*
X259415000Y-114055000D01*
X253665000Y-124130000D02*
X252065000Y-124130000D01*
D11*
%TO.C,R13*%
X222623748Y-116280000D02*
X223146252Y-116280000D01*
X222623748Y-114860000D02*
X223146252Y-114860000D01*
%TO.C,R12*%
X266961252Y-92000000D02*
X266438748Y-92000000D01*
X266961252Y-93420000D02*
X266438748Y-93420000D01*
%TO.C,R11*%
X266961252Y-97080000D02*
X266438748Y-97080000D01*
X266961252Y-98500000D02*
X266438748Y-98500000D01*
%TO.C,R10*%
X238498748Y-136600000D02*
X239021252Y-136600000D01*
X238498748Y-135180000D02*
X239021252Y-135180000D01*
%TO.C,R9*%
X254261252Y-105970000D02*
X253738748Y-105970000D01*
X254261252Y-107390000D02*
X253738748Y-107390000D01*
%TO.C,R8*%
X254261252Y-102160000D02*
X253738748Y-102160000D01*
X254261252Y-103580000D02*
X253738748Y-103580000D01*
%TO.C,R7*%
X246940000Y-90543748D02*
X246940000Y-91066252D01*
X248360000Y-90543748D02*
X248360000Y-91066252D01*
%TO.C,R6*%
X250750000Y-90543748D02*
X250750000Y-91066252D01*
X252170000Y-90543748D02*
X252170000Y-91066252D01*
%TO.C,R5*%
X205157000Y-106799748D02*
X205157000Y-107322252D01*
X206577000Y-106799748D02*
X206577000Y-107322252D01*
%TO.C,R4*%
X216161252Y-122480000D02*
X215638748Y-122480000D01*
X216161252Y-123900000D02*
X215638748Y-123900000D01*
%TO.C,R3*%
X216161252Y-119940000D02*
X215638748Y-119940000D01*
X216161252Y-121360000D02*
X215638748Y-121360000D01*
%TO.C,R2*%
X216161252Y-117400000D02*
X215638748Y-117400000D01*
X216161252Y-118820000D02*
X215638748Y-118820000D01*
%TO.C,R1*%
X216161252Y-114860000D02*
X215638748Y-114860000D01*
X216161252Y-116280000D02*
X215638748Y-116280000D01*
%TO.C,Q2*%
X259590000Y-99370000D02*
X259590000Y-98440000D01*
X259590000Y-96210000D02*
X259590000Y-97140000D01*
X259590000Y-96210000D02*
X261750000Y-96210000D01*
X259590000Y-99370000D02*
X261050000Y-99370000D01*
%TO.C,Q1*%
X259590000Y-94290000D02*
X259590000Y-93360000D01*
X259590000Y-91130000D02*
X259590000Y-92060000D01*
X259590000Y-91130000D02*
X261750000Y-91130000D01*
X259590000Y-94290000D02*
X261050000Y-94290000D01*
%TO.C,JSerial1*%
X179010000Y-119550000D02*
X194370000Y-119550000D01*
X194370000Y-119550000D02*
X194370000Y-122210000D01*
X194370000Y-122210000D02*
X179010000Y-122210000D01*
X179010000Y-122210000D02*
X179010000Y-119550000D01*
X179960000Y-122210000D02*
X179960000Y-128210000D01*
X179960000Y-128210000D02*
X180720000Y-128210000D01*
X180720000Y-128210000D02*
X180720000Y-122210000D01*
X180020000Y-122210000D02*
X180020000Y-128210000D01*
X180140000Y-122210000D02*
X180140000Y-128210000D01*
X180260000Y-122210000D02*
X180260000Y-128210000D01*
X180380000Y-122210000D02*
X180380000Y-128210000D01*
X180500000Y-122210000D02*
X180500000Y-128210000D01*
X180620000Y-122210000D02*
X180620000Y-128210000D01*
X179960000Y-119220000D02*
X179960000Y-119550000D01*
X180720000Y-119220000D02*
X180720000Y-119550000D01*
X181610000Y-119550000D02*
X181610000Y-122210000D01*
X182500000Y-122210000D02*
X182500000Y-128210000D01*
X182500000Y-128210000D02*
X183260000Y-128210000D01*
X183260000Y-128210000D02*
X183260000Y-122210000D01*
X182500000Y-119152929D02*
X182500000Y-119550000D01*
X183260000Y-119152929D02*
X183260000Y-119550000D01*
X184150000Y-119550000D02*
X184150000Y-122210000D01*
X185040000Y-122210000D02*
X185040000Y-128210000D01*
X185040000Y-128210000D02*
X185800000Y-128210000D01*
X185800000Y-128210000D02*
X185800000Y-122210000D01*
X185040000Y-119152929D02*
X185040000Y-119550000D01*
X185800000Y-119152929D02*
X185800000Y-119550000D01*
X186690000Y-119550000D02*
X186690000Y-122210000D01*
X187580000Y-122210000D02*
X187580000Y-128210000D01*
X187580000Y-128210000D02*
X188340000Y-128210000D01*
X188340000Y-128210000D02*
X188340000Y-122210000D01*
X187580000Y-119152929D02*
X187580000Y-119550000D01*
X188340000Y-119152929D02*
X188340000Y-119550000D01*
X189230000Y-119550000D02*
X189230000Y-122210000D01*
X190120000Y-122210000D02*
X190120000Y-128210000D01*
X190120000Y-128210000D02*
X190880000Y-128210000D01*
X190880000Y-128210000D02*
X190880000Y-122210000D01*
X190120000Y-119152929D02*
X190120000Y-119550000D01*
X190880000Y-119152929D02*
X190880000Y-119550000D01*
X191770000Y-119550000D02*
X191770000Y-122210000D01*
X192660000Y-122210000D02*
X192660000Y-128210000D01*
X192660000Y-128210000D02*
X193420000Y-128210000D01*
X193420000Y-128210000D02*
X193420000Y-122210000D01*
X192660000Y-119152929D02*
X192660000Y-119550000D01*
X193420000Y-119152929D02*
X193420000Y-119550000D01*
X180340000Y-116840000D02*
X179070000Y-116840000D01*
X179070000Y-116840000D02*
X179070000Y-118110000D01*
%TO.C,JP4*%
X231270000Y-123490000D02*
X231270000Y-122890000D01*
X229170000Y-124190000D02*
X230570000Y-124190000D01*
X228470000Y-122890000D02*
X228470000Y-123490000D01*
X230570000Y-122190000D02*
X229170000Y-122190000D01*
X231270000Y-122890000D02*
G75*
G03*
X230570000Y-122190000I-700000J0D01*
G01*
X230570000Y-124190000D02*
G75*
G03*
X231270000Y-123490000I0J700000D01*
G01*
X228470000Y-123490000D02*
G75*
G03*
X229170000Y-124190000I700000J0D01*
G01*
X229170000Y-122190000D02*
G75*
G03*
X228470000Y-122890000I0J-700000D01*
G01*
%TO.C,JP3*%
X231270000Y-120950000D02*
X231270000Y-120350000D01*
X229170000Y-121650000D02*
X230570000Y-121650000D01*
X228470000Y-120350000D02*
X228470000Y-120950000D01*
X230570000Y-119650000D02*
X229170000Y-119650000D01*
X231270000Y-120350000D02*
G75*
G03*
X230570000Y-119650000I-700000J0D01*
G01*
X230570000Y-121650000D02*
G75*
G03*
X231270000Y-120950000I0J700000D01*
G01*
X228470000Y-120950000D02*
G75*
G03*
X229170000Y-121650000I700000J0D01*
G01*
X229170000Y-119650000D02*
G75*
G03*
X228470000Y-120350000I0J-700000D01*
G01*
%TO.C,JP2*%
X231270000Y-118410000D02*
X231270000Y-117810000D01*
X229170000Y-119110000D02*
X230570000Y-119110000D01*
X228470000Y-117810000D02*
X228470000Y-118410000D01*
X230570000Y-117110000D02*
X229170000Y-117110000D01*
X231270000Y-117810000D02*
G75*
G03*
X230570000Y-117110000I-700000J0D01*
G01*
X230570000Y-119110000D02*
G75*
G03*
X231270000Y-118410000I0J700000D01*
G01*
X228470000Y-118410000D02*
G75*
G03*
X229170000Y-119110000I700000J0D01*
G01*
X229170000Y-117110000D02*
G75*
G03*
X228470000Y-117810000I0J-700000D01*
G01*
%TO.C,JP1*%
X231270000Y-115870000D02*
X231270000Y-115270000D01*
X229170000Y-116570000D02*
X230570000Y-116570000D01*
X228470000Y-115270000D02*
X228470000Y-115870000D01*
X230570000Y-114570000D02*
X229170000Y-114570000D01*
X231270000Y-115270000D02*
G75*
G03*
X230570000Y-114570000I-700000J0D01*
G01*
X230570000Y-116570000D02*
G75*
G03*
X231270000Y-115870000I0J700000D01*
G01*
X228470000Y-115870000D02*
G75*
G03*
X229170000Y-116570000I700000J0D01*
G01*
X229170000Y-114570000D02*
G75*
G03*
X228470000Y-115270000I0J-700000D01*
G01*
%TO.C,J5*%
X87760000Y-132110000D02*
X93820000Y-132110000D01*
X93820000Y-132110000D02*
X93820000Y-129300000D01*
X93820000Y-124700000D02*
X93820000Y-121890000D01*
X93820000Y-121890000D02*
X87760000Y-121890000D01*
X83660000Y-121890000D02*
X80600000Y-121890000D01*
X80600000Y-121890000D02*
X80600000Y-132110000D01*
X80600000Y-132110000D02*
X83660000Y-132110000D01*
X94010000Y-128000000D02*
X94010000Y-126000000D01*
%TO.C,J4*%
X176400000Y-104660000D02*
X176400000Y-113780000D01*
X176400000Y-113780000D02*
X196980000Y-113780000D01*
X196980000Y-113780000D02*
X196980000Y-104660000D01*
X196980000Y-104660000D02*
X176400000Y-104660000D01*
X184640000Y-104660000D02*
X184640000Y-105970000D01*
X184640000Y-105970000D02*
X177700000Y-105970000D01*
X177700000Y-105970000D02*
X177700000Y-112470000D01*
X177700000Y-112470000D02*
X195680000Y-112470000D01*
X195680000Y-112470000D02*
X195680000Y-105970000D01*
X195680000Y-105970000D02*
X188740000Y-105970000D01*
X188740000Y-105970000D02*
X188740000Y-105970000D01*
X188740000Y-105970000D02*
X188740000Y-104660000D01*
X181610000Y-104270000D02*
X181110000Y-103270000D01*
X181110000Y-103270000D02*
X182110000Y-103270000D01*
X182110000Y-103270000D02*
X181610000Y-104270000D01*
%TO.C,J3*%
X176400000Y-93230000D02*
X176400000Y-102350000D01*
X176400000Y-102350000D02*
X191900000Y-102350000D01*
X191900000Y-102350000D02*
X191900000Y-93230000D01*
X191900000Y-93230000D02*
X176400000Y-93230000D01*
X182100000Y-93230000D02*
X182100000Y-94540000D01*
X182100000Y-94540000D02*
X177700000Y-94540000D01*
X177700000Y-94540000D02*
X177700000Y-101040000D01*
X177700000Y-101040000D02*
X190600000Y-101040000D01*
X190600000Y-101040000D02*
X190600000Y-94540000D01*
X190600000Y-94540000D02*
X186200000Y-94540000D01*
X186200000Y-94540000D02*
X186200000Y-94540000D01*
X186200000Y-94540000D02*
X186200000Y-93230000D01*
X181610000Y-92840000D02*
X181110000Y-91840000D01*
X181110000Y-91840000D02*
X182110000Y-91840000D01*
X182110000Y-91840000D02*
X181610000Y-92840000D01*
%TO.C,D29*%
X257970000Y-87840000D02*
X265270000Y-87840000D01*
X257970000Y-82340000D02*
X265270000Y-82340000D01*
X265270000Y-82340000D02*
X265270000Y-83490000D01*
%TO.C,D28*%
X236380000Y-87840000D02*
X243680000Y-87840000D01*
X236380000Y-82340000D02*
X243680000Y-82340000D01*
X243680000Y-82340000D02*
X243680000Y-83490000D01*
%TO.C,D27*%
X193200000Y-87840000D02*
X200500000Y-87840000D01*
X193200000Y-82340000D02*
X200500000Y-82340000D01*
X200500000Y-82340000D02*
X200500000Y-83490000D01*
%TO.C,D26*%
X172245000Y-87840000D02*
X179545000Y-87840000D01*
X172245000Y-82340000D02*
X179545000Y-82340000D01*
X179545000Y-82340000D02*
X179545000Y-83490000D01*
%TO.C,D25*%
X151925000Y-87840000D02*
X159225000Y-87840000D01*
X151925000Y-82340000D02*
X159225000Y-82340000D01*
X159225000Y-82340000D02*
X159225000Y-83490000D01*
%TO.C,D24*%
X130335000Y-87840000D02*
X137635000Y-87840000D01*
X130335000Y-82340000D02*
X137635000Y-82340000D01*
X137635000Y-82340000D02*
X137635000Y-83490000D01*
%TO.C,D23*%
X108110000Y-87840000D02*
X115410000Y-87840000D01*
X108110000Y-82340000D02*
X115410000Y-82340000D01*
X115410000Y-82340000D02*
X115410000Y-83490000D01*
%TO.C,D22*%
X89695000Y-87840000D02*
X96995000Y-87840000D01*
X89695000Y-82340000D02*
X96995000Y-82340000D01*
X96995000Y-82340000D02*
X96995000Y-83490000D01*
%TO.C,D16*%
X234010000Y-137025000D02*
X229950000Y-137025000D01*
X229950000Y-137025000D02*
X229950000Y-134755000D01*
X229950000Y-134755000D02*
X234010000Y-134755000D01*
%TO.C,D15*%
X257480000Y-105545000D02*
X261540000Y-105545000D01*
X261540000Y-105545000D02*
X261540000Y-107815000D01*
X261540000Y-107815000D02*
X257480000Y-107815000D01*
%TO.C,D14*%
X257480000Y-101735000D02*
X261540000Y-101735000D01*
X261540000Y-101735000D02*
X261540000Y-104005000D01*
X261540000Y-104005000D02*
X257480000Y-104005000D01*
%TO.C,C21*%
X255980000Y-85986252D02*
X255980000Y-85463748D01*
X254560000Y-85986252D02*
X254560000Y-85463748D01*
%TO.C,C20*%
X247090000Y-85986252D02*
X247090000Y-85463748D01*
X245670000Y-85986252D02*
X245670000Y-85463748D01*
%TO.C,C19*%
X196588748Y-90880000D02*
X197111252Y-90880000D01*
X196588748Y-89460000D02*
X197111252Y-89460000D01*
%TO.C,C18*%
X175633748Y-90880000D02*
X176156252Y-90880000D01*
X175633748Y-89460000D02*
X176156252Y-89460000D01*
%TO.C,C17*%
X155313748Y-90880000D02*
X155836252Y-90880000D01*
X155313748Y-89460000D02*
X155836252Y-89460000D01*
%TO.C,C16*%
X133723748Y-90880000D02*
X134246252Y-90880000D01*
X133723748Y-89460000D02*
X134246252Y-89460000D01*
%TO.C,C15*%
X111498748Y-90880000D02*
X112021252Y-90880000D01*
X111498748Y-89460000D02*
X112021252Y-89460000D01*
%TO.C,C14*%
X93083748Y-90880000D02*
X93606252Y-90880000D01*
X93083748Y-89460000D02*
X93606252Y-89460000D01*
%TO.C,C8*%
X224430000Y-130142064D02*
X224430000Y-128937936D01*
X222610000Y-130142064D02*
X222610000Y-128937936D01*
%TO.C,C7*%
X239670000Y-130142064D02*
X239670000Y-128937936D01*
X237850000Y-130142064D02*
X237850000Y-128937936D01*
%TO.C,C6*%
X263600000Y-114561252D02*
X263600000Y-114038748D01*
X262180000Y-114561252D02*
X262180000Y-114038748D01*
%TO.C,C5*%
X258520000Y-131071252D02*
X258520000Y-130548748D01*
X257100000Y-131071252D02*
X257100000Y-130548748D01*
%TO.C,C3*%
X254710000Y-91066252D02*
X254710000Y-90543748D01*
X253290000Y-91066252D02*
X253290000Y-90543748D01*
%TO.C,C2*%
X236780000Y-92448748D02*
X236780000Y-92971252D01*
X238200000Y-92448748D02*
X238200000Y-92971252D01*
%TO.C,C1*%
X234040000Y-92107936D02*
X234040000Y-93312064D01*
X235860000Y-92107936D02*
X235860000Y-93312064D01*
%TO.C,D13*%
D14*
X256484285Y-128214380D02*
X256484285Y-127214380D01*
X256246190Y-127214380D01*
X256103333Y-127262000D01*
X256008095Y-127357238D01*
X255960476Y-127452476D01*
X255912857Y-127642952D01*
X255912857Y-127785809D01*
X255960476Y-127976285D01*
X256008095Y-128071523D01*
X256103333Y-128166761D01*
X256246190Y-128214380D01*
X256484285Y-128214380D01*
X254960476Y-128214380D02*
X255531904Y-128214380D01*
X255246190Y-128214380D02*
X255246190Y-127214380D01*
X255341428Y-127357238D01*
X255436666Y-127452476D01*
X255531904Y-127500095D01*
X254627142Y-127214380D02*
X254008095Y-127214380D01*
X254341428Y-127595333D01*
X254198571Y-127595333D01*
X254103333Y-127642952D01*
X254055714Y-127690571D01*
X254008095Y-127785809D01*
X254008095Y-128023904D01*
X254055714Y-128119142D01*
X254103333Y-128166761D01*
X254198571Y-128214380D01*
X254484285Y-128214380D01*
X254579523Y-128166761D01*
X254627142Y-128119142D01*
%TO.C,D12*%
X102306285Y-124706380D02*
X102306285Y-123706380D01*
X102068190Y-123706380D01*
X101925333Y-123754000D01*
X101830095Y-123849238D01*
X101782476Y-123944476D01*
X101734857Y-124134952D01*
X101734857Y-124277809D01*
X101782476Y-124468285D01*
X101830095Y-124563523D01*
X101925333Y-124658761D01*
X102068190Y-124706380D01*
X102306285Y-124706380D01*
X100782476Y-124706380D02*
X101353904Y-124706380D01*
X101068190Y-124706380D02*
X101068190Y-123706380D01*
X101163428Y-123849238D01*
X101258666Y-123944476D01*
X101353904Y-123992095D01*
X100401523Y-123801619D02*
X100353904Y-123754000D01*
X100258666Y-123706380D01*
X100020571Y-123706380D01*
X99925333Y-123754000D01*
X99877714Y-123801619D01*
X99830095Y-123896857D01*
X99830095Y-123992095D01*
X99877714Y-124134952D01*
X100449142Y-124706380D01*
X99830095Y-124706380D01*
%TO.C,U1*%
D15*
X229036904Y-78837380D02*
X229036904Y-79646904D01*
X228989285Y-79742142D01*
X228941666Y-79789761D01*
X228846428Y-79837380D01*
X228655952Y-79837380D01*
X228560714Y-79789761D01*
X228513095Y-79742142D01*
X228465476Y-79646904D01*
X228465476Y-78837380D01*
X227465476Y-79837380D02*
X228036904Y-79837380D01*
X227751190Y-79837380D02*
X227751190Y-78837380D01*
X227846428Y-78980238D01*
X227941666Y-79075476D01*
X228036904Y-79123095D01*
X226083428Y-84240666D02*
X225607238Y-84240666D01*
X226178666Y-84526380D02*
X225845333Y-83526380D01*
X225511999Y-84526380D01*
X225178666Y-84526380D02*
X225178666Y-83526380D01*
X224607238Y-84526380D01*
X224607238Y-83526380D01*
X224273904Y-83526380D02*
X223702476Y-83526380D01*
X223988190Y-84526380D02*
X223988190Y-83526380D01*
X223369142Y-84002571D02*
X223035809Y-84002571D01*
X222892952Y-84526380D02*
X223369142Y-84526380D01*
X223369142Y-83526380D01*
X222892952Y-83526380D01*
X222464380Y-84526380D02*
X222464380Y-83526380D01*
X221892952Y-84526380D01*
X221892952Y-83526380D01*
X221416761Y-84526380D02*
X221416761Y-83526380D01*
X220845333Y-84526380D01*
X220845333Y-83526380D01*
X220416761Y-84240666D02*
X219940571Y-84240666D01*
X220511999Y-84526380D02*
X220178666Y-83526380D01*
X219845333Y-84526380D01*
%TO.C,SW13*%
D14*
X246919523Y-94674761D02*
X246776666Y-94722380D01*
X246538571Y-94722380D01*
X246443333Y-94674761D01*
X246395714Y-94627142D01*
X246348095Y-94531904D01*
X246348095Y-94436666D01*
X246395714Y-94341428D01*
X246443333Y-94293809D01*
X246538571Y-94246190D01*
X246729047Y-94198571D01*
X246824285Y-94150952D01*
X246871904Y-94103333D01*
X246919523Y-94008095D01*
X246919523Y-93912857D01*
X246871904Y-93817619D01*
X246824285Y-93770000D01*
X246729047Y-93722380D01*
X246490952Y-93722380D01*
X246348095Y-93770000D01*
X246014761Y-93722380D02*
X245776666Y-94722380D01*
X245586190Y-94008095D01*
X245395714Y-94722380D01*
X245157619Y-93722380D01*
X244252857Y-94722380D02*
X244824285Y-94722380D01*
X244538571Y-94722380D02*
X244538571Y-93722380D01*
X244633809Y-93865238D01*
X244729047Y-93960476D01*
X244824285Y-94008095D01*
X243919523Y-93722380D02*
X243300476Y-93722380D01*
X243633809Y-94103333D01*
X243490952Y-94103333D01*
X243395714Y-94150952D01*
X243348095Y-94198571D01*
X243300476Y-94293809D01*
X243300476Y-94531904D01*
X243348095Y-94627142D01*
X243395714Y-94674761D01*
X243490952Y-94722380D01*
X243776666Y-94722380D01*
X243871904Y-94674761D01*
X243919523Y-94627142D01*
%TO.C,SW12*%
X254539523Y-94674761D02*
X254396666Y-94722380D01*
X254158571Y-94722380D01*
X254063333Y-94674761D01*
X254015714Y-94627142D01*
X253968095Y-94531904D01*
X253968095Y-94436666D01*
X254015714Y-94341428D01*
X254063333Y-94293809D01*
X254158571Y-94246190D01*
X254349047Y-94198571D01*
X254444285Y-94150952D01*
X254491904Y-94103333D01*
X254539523Y-94008095D01*
X254539523Y-93912857D01*
X254491904Y-93817619D01*
X254444285Y-93770000D01*
X254349047Y-93722380D01*
X254110952Y-93722380D01*
X253968095Y-93770000D01*
X253634761Y-93722380D02*
X253396666Y-94722380D01*
X253206190Y-94008095D01*
X253015714Y-94722380D01*
X252777619Y-93722380D01*
X251872857Y-94722380D02*
X252444285Y-94722380D01*
X252158571Y-94722380D02*
X252158571Y-93722380D01*
X252253809Y-93865238D01*
X252349047Y-93960476D01*
X252444285Y-94008095D01*
X251491904Y-93817619D02*
X251444285Y-93770000D01*
X251349047Y-93722380D01*
X251110952Y-93722380D01*
X251015714Y-93770000D01*
X250968095Y-93817619D01*
X250920476Y-93912857D01*
X250920476Y-94008095D01*
X250968095Y-94150952D01*
X251539523Y-94722380D01*
X250920476Y-94722380D01*
%TO.C,USB3*%
X264122380Y-126531904D02*
X264931904Y-126531904D01*
X265027142Y-126579523D01*
X265074761Y-126627142D01*
X265122380Y-126722380D01*
X265122380Y-126912857D01*
X265074761Y-127008095D01*
X265027142Y-127055714D01*
X264931904Y-127103333D01*
X264122380Y-127103333D01*
X265074761Y-127531904D02*
X265122380Y-127674761D01*
X265122380Y-127912857D01*
X265074761Y-128008095D01*
X265027142Y-128055714D01*
X264931904Y-128103333D01*
X264836666Y-128103333D01*
X264741428Y-128055714D01*
X264693809Y-128008095D01*
X264646190Y-127912857D01*
X264598571Y-127722380D01*
X264550952Y-127627142D01*
X264503333Y-127579523D01*
X264408095Y-127531904D01*
X264312857Y-127531904D01*
X264217619Y-127579523D01*
X264170000Y-127627142D01*
X264122380Y-127722380D01*
X264122380Y-127960476D01*
X264170000Y-128103333D01*
X264598571Y-128865238D02*
X264646190Y-129008095D01*
X264693809Y-129055714D01*
X264789047Y-129103333D01*
X264931904Y-129103333D01*
X265027142Y-129055714D01*
X265074761Y-129008095D01*
X265122380Y-128912857D01*
X265122380Y-128531904D01*
X264122380Y-128531904D01*
X264122380Y-128865238D01*
X264170000Y-128960476D01*
X264217619Y-129008095D01*
X264312857Y-129055714D01*
X264408095Y-129055714D01*
X264503333Y-129008095D01*
X264550952Y-128960476D01*
X264598571Y-128865238D01*
X264598571Y-128531904D01*
X264122380Y-129436666D02*
X264122380Y-130055714D01*
X264503333Y-129722380D01*
X264503333Y-129865238D01*
X264550952Y-129960476D01*
X264598571Y-130008095D01*
X264693809Y-130055714D01*
X264931904Y-130055714D01*
X265027142Y-130008095D01*
X265074761Y-129960476D01*
X265122380Y-129865238D01*
X265122380Y-129579523D01*
X265074761Y-129484285D01*
X265027142Y-129436666D01*
%TO.C,USB2*%
X269708095Y-116717380D02*
X269708095Y-117526904D01*
X269660476Y-117622142D01*
X269612857Y-117669761D01*
X269517619Y-117717380D01*
X269327142Y-117717380D01*
X269231904Y-117669761D01*
X269184285Y-117622142D01*
X269136666Y-117526904D01*
X269136666Y-116717380D01*
X268708095Y-117669761D02*
X268565238Y-117717380D01*
X268327142Y-117717380D01*
X268231904Y-117669761D01*
X268184285Y-117622142D01*
X268136666Y-117526904D01*
X268136666Y-117431666D01*
X268184285Y-117336428D01*
X268231904Y-117288809D01*
X268327142Y-117241190D01*
X268517619Y-117193571D01*
X268612857Y-117145952D01*
X268660476Y-117098333D01*
X268708095Y-117003095D01*
X268708095Y-116907857D01*
X268660476Y-116812619D01*
X268612857Y-116765000D01*
X268517619Y-116717380D01*
X268279523Y-116717380D01*
X268136666Y-116765000D01*
X267374761Y-117193571D02*
X267231904Y-117241190D01*
X267184285Y-117288809D01*
X267136666Y-117384047D01*
X267136666Y-117526904D01*
X267184285Y-117622142D01*
X267231904Y-117669761D01*
X267327142Y-117717380D01*
X267708095Y-117717380D01*
X267708095Y-116717380D01*
X267374761Y-116717380D01*
X267279523Y-116765000D01*
X267231904Y-116812619D01*
X267184285Y-116907857D01*
X267184285Y-117003095D01*
X267231904Y-117098333D01*
X267279523Y-117145952D01*
X267374761Y-117193571D01*
X267708095Y-117193571D01*
X266755714Y-116812619D02*
X266708095Y-116765000D01*
X266612857Y-116717380D01*
X266374761Y-116717380D01*
X266279523Y-116765000D01*
X266231904Y-116812619D01*
X266184285Y-116907857D01*
X266184285Y-117003095D01*
X266231904Y-117145952D01*
X266803333Y-117717380D01*
X266184285Y-117717380D01*
%TO.C,USB1*%
X248880095Y-134326380D02*
X248880095Y-135135904D01*
X248832476Y-135231142D01*
X248784857Y-135278761D01*
X248689619Y-135326380D01*
X248499142Y-135326380D01*
X248403904Y-135278761D01*
X248356285Y-135231142D01*
X248308666Y-135135904D01*
X248308666Y-134326380D01*
X247880095Y-135278761D02*
X247737238Y-135326380D01*
X247499142Y-135326380D01*
X247403904Y-135278761D01*
X247356285Y-135231142D01*
X247308666Y-135135904D01*
X247308666Y-135040666D01*
X247356285Y-134945428D01*
X247403904Y-134897809D01*
X247499142Y-134850190D01*
X247689619Y-134802571D01*
X247784857Y-134754952D01*
X247832476Y-134707333D01*
X247880095Y-134612095D01*
X247880095Y-134516857D01*
X247832476Y-134421619D01*
X247784857Y-134374000D01*
X247689619Y-134326380D01*
X247451523Y-134326380D01*
X247308666Y-134374000D01*
X246546761Y-134802571D02*
X246403904Y-134850190D01*
X246356285Y-134897809D01*
X246308666Y-134993047D01*
X246308666Y-135135904D01*
X246356285Y-135231142D01*
X246403904Y-135278761D01*
X246499142Y-135326380D01*
X246880095Y-135326380D01*
X246880095Y-134326380D01*
X246546761Y-134326380D01*
X246451523Y-134374000D01*
X246403904Y-134421619D01*
X246356285Y-134516857D01*
X246356285Y-134612095D01*
X246403904Y-134707333D01*
X246451523Y-134754952D01*
X246546761Y-134802571D01*
X246880095Y-134802571D01*
X245356285Y-135326380D02*
X245927714Y-135326380D01*
X245642000Y-135326380D02*
X245642000Y-134326380D01*
X245737238Y-134469238D01*
X245832476Y-134564476D01*
X245927714Y-134612095D01*
%TO.C,U3*%
X231901904Y-124492380D02*
X231901904Y-125301904D01*
X231854285Y-125397142D01*
X231806666Y-125444761D01*
X231711428Y-125492380D01*
X231520952Y-125492380D01*
X231425714Y-125444761D01*
X231378095Y-125397142D01*
X231330476Y-125301904D01*
X231330476Y-124492380D01*
X230949523Y-124492380D02*
X230330476Y-124492380D01*
X230663809Y-124873333D01*
X230520952Y-124873333D01*
X230425714Y-124920952D01*
X230378095Y-124968571D01*
X230330476Y-125063809D01*
X230330476Y-125301904D01*
X230378095Y-125397142D01*
X230425714Y-125444761D01*
X230520952Y-125492380D01*
X230806666Y-125492380D01*
X230901904Y-125444761D01*
X230949523Y-125397142D01*
%TO.C,U2*%
X257301904Y-125082380D02*
X257301904Y-125891904D01*
X257254285Y-125987142D01*
X257206666Y-126034761D01*
X257111428Y-126082380D01*
X256920952Y-126082380D01*
X256825714Y-126034761D01*
X256778095Y-125987142D01*
X256730476Y-125891904D01*
X256730476Y-125082380D01*
X256301904Y-125177619D02*
X256254285Y-125130000D01*
X256159047Y-125082380D01*
X255920952Y-125082380D01*
X255825714Y-125130000D01*
X255778095Y-125177619D01*
X255730476Y-125272857D01*
X255730476Y-125368095D01*
X255778095Y-125510952D01*
X256349523Y-126082380D01*
X255730476Y-126082380D01*
%TO.C,R13*%
X223527857Y-117672380D02*
X223861190Y-117196190D01*
X224099285Y-117672380D02*
X224099285Y-116672380D01*
X223718333Y-116672380D01*
X223623095Y-116720000D01*
X223575476Y-116767619D01*
X223527857Y-116862857D01*
X223527857Y-117005714D01*
X223575476Y-117100952D01*
X223623095Y-117148571D01*
X223718333Y-117196190D01*
X224099285Y-117196190D01*
X222575476Y-117672380D02*
X223146904Y-117672380D01*
X222861190Y-117672380D02*
X222861190Y-116672380D01*
X222956428Y-116815238D01*
X223051666Y-116910476D01*
X223146904Y-116958095D01*
X222242142Y-116672380D02*
X221623095Y-116672380D01*
X221956428Y-117053333D01*
X221813571Y-117053333D01*
X221718333Y-117100952D01*
X221670714Y-117148571D01*
X221623095Y-117243809D01*
X221623095Y-117481904D01*
X221670714Y-117577142D01*
X221718333Y-117624761D01*
X221813571Y-117672380D01*
X222099285Y-117672380D01*
X222194523Y-117624761D01*
X222242142Y-117577142D01*
%TO.C,R12*%
X267342857Y-91512380D02*
X267676190Y-91036190D01*
X267914285Y-91512380D02*
X267914285Y-90512380D01*
X267533333Y-90512380D01*
X267438095Y-90560000D01*
X267390476Y-90607619D01*
X267342857Y-90702857D01*
X267342857Y-90845714D01*
X267390476Y-90940952D01*
X267438095Y-90988571D01*
X267533333Y-91036190D01*
X267914285Y-91036190D01*
X266390476Y-91512380D02*
X266961904Y-91512380D01*
X266676190Y-91512380D02*
X266676190Y-90512380D01*
X266771428Y-90655238D01*
X266866666Y-90750476D01*
X266961904Y-90798095D01*
X266009523Y-90607619D02*
X265961904Y-90560000D01*
X265866666Y-90512380D01*
X265628571Y-90512380D01*
X265533333Y-90560000D01*
X265485714Y-90607619D01*
X265438095Y-90702857D01*
X265438095Y-90798095D01*
X265485714Y-90940952D01*
X266057142Y-91512380D01*
X265438095Y-91512380D01*
%TO.C,R11*%
X267342857Y-96592380D02*
X267676190Y-96116190D01*
X267914285Y-96592380D02*
X267914285Y-95592380D01*
X267533333Y-95592380D01*
X267438095Y-95640000D01*
X267390476Y-95687619D01*
X267342857Y-95782857D01*
X267342857Y-95925714D01*
X267390476Y-96020952D01*
X267438095Y-96068571D01*
X267533333Y-96116190D01*
X267914285Y-96116190D01*
X266390476Y-96592380D02*
X266961904Y-96592380D01*
X266676190Y-96592380D02*
X266676190Y-95592380D01*
X266771428Y-95735238D01*
X266866666Y-95830476D01*
X266961904Y-95878095D01*
X265438095Y-96592380D02*
X266009523Y-96592380D01*
X265723809Y-96592380D02*
X265723809Y-95592380D01*
X265819047Y-95735238D01*
X265914285Y-95830476D01*
X266009523Y-95878095D01*
%TO.C,R10*%
X239402857Y-137992380D02*
X239736190Y-137516190D01*
X239974285Y-137992380D02*
X239974285Y-136992380D01*
X239593333Y-136992380D01*
X239498095Y-137040000D01*
X239450476Y-137087619D01*
X239402857Y-137182857D01*
X239402857Y-137325714D01*
X239450476Y-137420952D01*
X239498095Y-137468571D01*
X239593333Y-137516190D01*
X239974285Y-137516190D01*
X238450476Y-137992380D02*
X239021904Y-137992380D01*
X238736190Y-137992380D02*
X238736190Y-136992380D01*
X238831428Y-137135238D01*
X238926666Y-137230476D01*
X239021904Y-137278095D01*
X237831428Y-136992380D02*
X237736190Y-136992380D01*
X237640952Y-137040000D01*
X237593333Y-137087619D01*
X237545714Y-137182857D01*
X237498095Y-137373333D01*
X237498095Y-137611428D01*
X237545714Y-137801904D01*
X237593333Y-137897142D01*
X237640952Y-137944761D01*
X237736190Y-137992380D01*
X237831428Y-137992380D01*
X237926666Y-137944761D01*
X237974285Y-137897142D01*
X238021904Y-137801904D01*
X238069523Y-137611428D01*
X238069523Y-137373333D01*
X238021904Y-137182857D01*
X237974285Y-137087619D01*
X237926666Y-137040000D01*
X237831428Y-136992380D01*
%TO.C,R9*%
X254166666Y-105482380D02*
X254500000Y-105006190D01*
X254738095Y-105482380D02*
X254738095Y-104482380D01*
X254357142Y-104482380D01*
X254261904Y-104530000D01*
X254214285Y-104577619D01*
X254166666Y-104672857D01*
X254166666Y-104815714D01*
X254214285Y-104910952D01*
X254261904Y-104958571D01*
X254357142Y-105006190D01*
X254738095Y-105006190D01*
X253690476Y-105482380D02*
X253500000Y-105482380D01*
X253404761Y-105434761D01*
X253357142Y-105387142D01*
X253261904Y-105244285D01*
X253214285Y-105053809D01*
X253214285Y-104672857D01*
X253261904Y-104577619D01*
X253309523Y-104530000D01*
X253404761Y-104482380D01*
X253595238Y-104482380D01*
X253690476Y-104530000D01*
X253738095Y-104577619D01*
X253785714Y-104672857D01*
X253785714Y-104910952D01*
X253738095Y-105006190D01*
X253690476Y-105053809D01*
X253595238Y-105101428D01*
X253404761Y-105101428D01*
X253309523Y-105053809D01*
X253261904Y-105006190D01*
X253214285Y-104910952D01*
%TO.C,R8*%
X254166666Y-101672380D02*
X254500000Y-101196190D01*
X254738095Y-101672380D02*
X254738095Y-100672380D01*
X254357142Y-100672380D01*
X254261904Y-100720000D01*
X254214285Y-100767619D01*
X254166666Y-100862857D01*
X254166666Y-101005714D01*
X254214285Y-101100952D01*
X254261904Y-101148571D01*
X254357142Y-101196190D01*
X254738095Y-101196190D01*
X253595238Y-101100952D02*
X253690476Y-101053333D01*
X253738095Y-101005714D01*
X253785714Y-100910476D01*
X253785714Y-100862857D01*
X253738095Y-100767619D01*
X253690476Y-100720000D01*
X253595238Y-100672380D01*
X253404761Y-100672380D01*
X253309523Y-100720000D01*
X253261904Y-100767619D01*
X253214285Y-100862857D01*
X253214285Y-100910476D01*
X253261904Y-101005714D01*
X253309523Y-101053333D01*
X253404761Y-101100952D01*
X253595238Y-101100952D01*
X253690476Y-101148571D01*
X253738095Y-101196190D01*
X253785714Y-101291428D01*
X253785714Y-101481904D01*
X253738095Y-101577142D01*
X253690476Y-101624761D01*
X253595238Y-101672380D01*
X253404761Y-101672380D01*
X253309523Y-101624761D01*
X253261904Y-101577142D01*
X253214285Y-101481904D01*
X253214285Y-101291428D01*
X253261904Y-101196190D01*
X253309523Y-101148571D01*
X253404761Y-101100952D01*
%TO.C,R7*%
X246452380Y-90638333D02*
X245976190Y-90305000D01*
X246452380Y-90066904D02*
X245452380Y-90066904D01*
X245452380Y-90447857D01*
X245500000Y-90543095D01*
X245547619Y-90590714D01*
X245642857Y-90638333D01*
X245785714Y-90638333D01*
X245880952Y-90590714D01*
X245928571Y-90543095D01*
X245976190Y-90447857D01*
X245976190Y-90066904D01*
X245452380Y-90971666D02*
X245452380Y-91638333D01*
X246452380Y-91209761D01*
%TO.C,R6*%
X250262380Y-90638333D02*
X249786190Y-90305000D01*
X250262380Y-90066904D02*
X249262380Y-90066904D01*
X249262380Y-90447857D01*
X249310000Y-90543095D01*
X249357619Y-90590714D01*
X249452857Y-90638333D01*
X249595714Y-90638333D01*
X249690952Y-90590714D01*
X249738571Y-90543095D01*
X249786190Y-90447857D01*
X249786190Y-90066904D01*
X249262380Y-91495476D02*
X249262380Y-91305000D01*
X249310000Y-91209761D01*
X249357619Y-91162142D01*
X249500476Y-91066904D01*
X249690952Y-91019285D01*
X250071904Y-91019285D01*
X250167142Y-91066904D01*
X250214761Y-91114523D01*
X250262380Y-91209761D01*
X250262380Y-91400238D01*
X250214761Y-91495476D01*
X250167142Y-91543095D01*
X250071904Y-91590714D01*
X249833809Y-91590714D01*
X249738571Y-91543095D01*
X249690952Y-91495476D01*
X249643333Y-91400238D01*
X249643333Y-91209761D01*
X249690952Y-91114523D01*
X249738571Y-91066904D01*
X249833809Y-91019285D01*
%TO.C,R5*%
X204669380Y-106894333D02*
X204193190Y-106561000D01*
X204669380Y-106322904D02*
X203669380Y-106322904D01*
X203669380Y-106703857D01*
X203717000Y-106799095D01*
X203764619Y-106846714D01*
X203859857Y-106894333D01*
X204002714Y-106894333D01*
X204097952Y-106846714D01*
X204145571Y-106799095D01*
X204193190Y-106703857D01*
X204193190Y-106322904D01*
X203669380Y-107799095D02*
X203669380Y-107322904D01*
X204145571Y-107275285D01*
X204097952Y-107322904D01*
X204050333Y-107418142D01*
X204050333Y-107656238D01*
X204097952Y-107751476D01*
X204145571Y-107799095D01*
X204240809Y-107846714D01*
X204478904Y-107846714D01*
X204574142Y-107799095D01*
X204621761Y-107751476D01*
X204669380Y-107656238D01*
X204669380Y-107418142D01*
X204621761Y-107322904D01*
X204574142Y-107275285D01*
%TO.C,R4*%
X213145666Y-122880380D02*
X213479000Y-122404190D01*
X213717095Y-122880380D02*
X213717095Y-121880380D01*
X213336142Y-121880380D01*
X213240904Y-121928000D01*
X213193285Y-121975619D01*
X213145666Y-122070857D01*
X213145666Y-122213714D01*
X213193285Y-122308952D01*
X213240904Y-122356571D01*
X213336142Y-122404190D01*
X213717095Y-122404190D01*
X212288523Y-122213714D02*
X212288523Y-122880380D01*
X212526619Y-121832761D02*
X212764714Y-122547047D01*
X212145666Y-122547047D01*
%TO.C,R3*%
X213145666Y-120975380D02*
X213479000Y-120499190D01*
X213717095Y-120975380D02*
X213717095Y-119975380D01*
X213336142Y-119975380D01*
X213240904Y-120023000D01*
X213193285Y-120070619D01*
X213145666Y-120165857D01*
X213145666Y-120308714D01*
X213193285Y-120403952D01*
X213240904Y-120451571D01*
X213336142Y-120499190D01*
X213717095Y-120499190D01*
X212812333Y-119975380D02*
X212193285Y-119975380D01*
X212526619Y-120356333D01*
X212383761Y-120356333D01*
X212288523Y-120403952D01*
X212240904Y-120451571D01*
X212193285Y-120546809D01*
X212193285Y-120784904D01*
X212240904Y-120880142D01*
X212288523Y-120927761D01*
X212383761Y-120975380D01*
X212669476Y-120975380D01*
X212764714Y-120927761D01*
X212812333Y-120880142D01*
%TO.C,R2*%
X213145666Y-118054380D02*
X213479000Y-117578190D01*
X213717095Y-118054380D02*
X213717095Y-117054380D01*
X213336142Y-117054380D01*
X213240904Y-117102000D01*
X213193285Y-117149619D01*
X213145666Y-117244857D01*
X213145666Y-117387714D01*
X213193285Y-117482952D01*
X213240904Y-117530571D01*
X213336142Y-117578190D01*
X213717095Y-117578190D01*
X212764714Y-117149619D02*
X212717095Y-117102000D01*
X212621857Y-117054380D01*
X212383761Y-117054380D01*
X212288523Y-117102000D01*
X212240904Y-117149619D01*
X212193285Y-117244857D01*
X212193285Y-117340095D01*
X212240904Y-117482952D01*
X212812333Y-118054380D01*
X212193285Y-118054380D01*
%TO.C,R1*%
X213145666Y-115260380D02*
X213479000Y-114784190D01*
X213717095Y-115260380D02*
X213717095Y-114260380D01*
X213336142Y-114260380D01*
X213240904Y-114308000D01*
X213193285Y-114355619D01*
X213145666Y-114450857D01*
X213145666Y-114593714D01*
X213193285Y-114688952D01*
X213240904Y-114736571D01*
X213336142Y-114784190D01*
X213717095Y-114784190D01*
X212193285Y-115260380D02*
X212764714Y-115260380D01*
X212479000Y-115260380D02*
X212479000Y-114260380D01*
X212574238Y-114403238D01*
X212669476Y-114498476D01*
X212764714Y-114546095D01*
%TO.C,Q2*%
X260445238Y-95837619D02*
X260540476Y-95790000D01*
X260635714Y-95694761D01*
X260778571Y-95551904D01*
X260873809Y-95504285D01*
X260969047Y-95504285D01*
X260921428Y-95742380D02*
X261016666Y-95694761D01*
X261111904Y-95599523D01*
X261159523Y-95409047D01*
X261159523Y-95075714D01*
X261111904Y-94885238D01*
X261016666Y-94790000D01*
X260921428Y-94742380D01*
X260730952Y-94742380D01*
X260635714Y-94790000D01*
X260540476Y-94885238D01*
X260492857Y-95075714D01*
X260492857Y-95409047D01*
X260540476Y-95599523D01*
X260635714Y-95694761D01*
X260730952Y-95742380D01*
X260921428Y-95742380D01*
X260111904Y-94837619D02*
X260064285Y-94790000D01*
X259969047Y-94742380D01*
X259730952Y-94742380D01*
X259635714Y-94790000D01*
X259588095Y-94837619D01*
X259540476Y-94932857D01*
X259540476Y-95028095D01*
X259588095Y-95170952D01*
X260159523Y-95742380D01*
X259540476Y-95742380D01*
%TO.C,Q1*%
X260445238Y-90757619D02*
X260540476Y-90710000D01*
X260635714Y-90614761D01*
X260778571Y-90471904D01*
X260873809Y-90424285D01*
X260969047Y-90424285D01*
X260921428Y-90662380D02*
X261016666Y-90614761D01*
X261111904Y-90519523D01*
X261159523Y-90329047D01*
X261159523Y-89995714D01*
X261111904Y-89805238D01*
X261016666Y-89710000D01*
X260921428Y-89662380D01*
X260730952Y-89662380D01*
X260635714Y-89710000D01*
X260540476Y-89805238D01*
X260492857Y-89995714D01*
X260492857Y-90329047D01*
X260540476Y-90519523D01*
X260635714Y-90614761D01*
X260730952Y-90662380D01*
X260921428Y-90662380D01*
X259540476Y-90662380D02*
X260111904Y-90662380D01*
X259826190Y-90662380D02*
X259826190Y-89662380D01*
X259921428Y-89805238D01*
X260016666Y-89900476D01*
X260111904Y-89948095D01*
%TO.C,JSerial1*%
X177522380Y-119995000D02*
X178236666Y-119995000D01*
X178379523Y-119947380D01*
X178474761Y-119852142D01*
X178522380Y-119709285D01*
X178522380Y-119614047D01*
X178474761Y-120423571D02*
X178522380Y-120566428D01*
X178522380Y-120804523D01*
X178474761Y-120899761D01*
X178427142Y-120947380D01*
X178331904Y-120995000D01*
X178236666Y-120995000D01*
X178141428Y-120947380D01*
X178093809Y-120899761D01*
X178046190Y-120804523D01*
X177998571Y-120614047D01*
X177950952Y-120518809D01*
X177903333Y-120471190D01*
X177808095Y-120423571D01*
X177712857Y-120423571D01*
X177617619Y-120471190D01*
X177570000Y-120518809D01*
X177522380Y-120614047D01*
X177522380Y-120852142D01*
X177570000Y-120995000D01*
X178474761Y-121804523D02*
X178522380Y-121709285D01*
X178522380Y-121518809D01*
X178474761Y-121423571D01*
X178379523Y-121375952D01*
X177998571Y-121375952D01*
X177903333Y-121423571D01*
X177855714Y-121518809D01*
X177855714Y-121709285D01*
X177903333Y-121804523D01*
X177998571Y-121852142D01*
X178093809Y-121852142D01*
X178189047Y-121375952D01*
X178522380Y-122280714D02*
X177855714Y-122280714D01*
X178046190Y-122280714D02*
X177950952Y-122328333D01*
X177903333Y-122375952D01*
X177855714Y-122471190D01*
X177855714Y-122566428D01*
X178522380Y-122899761D02*
X177855714Y-122899761D01*
X177522380Y-122899761D02*
X177570000Y-122852142D01*
X177617619Y-122899761D01*
X177570000Y-122947380D01*
X177522380Y-122899761D01*
X177617619Y-122899761D01*
X178522380Y-123804523D02*
X177998571Y-123804523D01*
X177903333Y-123756904D01*
X177855714Y-123661666D01*
X177855714Y-123471190D01*
X177903333Y-123375952D01*
X178474761Y-123804523D02*
X178522380Y-123709285D01*
X178522380Y-123471190D01*
X178474761Y-123375952D01*
X178379523Y-123328333D01*
X178284285Y-123328333D01*
X178189047Y-123375952D01*
X178141428Y-123471190D01*
X178141428Y-123709285D01*
X178093809Y-123804523D01*
X178522380Y-124423571D02*
X178474761Y-124328333D01*
X178379523Y-124280714D01*
X177522380Y-124280714D01*
X178522380Y-125328333D02*
X178522380Y-124756904D01*
X178522380Y-125042619D02*
X177522380Y-125042619D01*
X177665238Y-124947380D01*
X177760476Y-124852142D01*
X177808095Y-124756904D01*
%TO.C,JP4*%
X226893333Y-122642380D02*
X226893333Y-123356666D01*
X226940952Y-123499523D01*
X227036190Y-123594761D01*
X227179047Y-123642380D01*
X227274285Y-123642380D01*
X226417142Y-123642380D02*
X226417142Y-122642380D01*
X226036190Y-122642380D01*
X225940952Y-122690000D01*
X225893333Y-122737619D01*
X225845714Y-122832857D01*
X225845714Y-122975714D01*
X225893333Y-123070952D01*
X225940952Y-123118571D01*
X226036190Y-123166190D01*
X226417142Y-123166190D01*
X224988571Y-122975714D02*
X224988571Y-123642380D01*
X225226666Y-122594761D02*
X225464761Y-123309047D01*
X224845714Y-123309047D01*
%TO.C,JP3*%
X226893333Y-120102380D02*
X226893333Y-120816666D01*
X226940952Y-120959523D01*
X227036190Y-121054761D01*
X227179047Y-121102380D01*
X227274285Y-121102380D01*
X226417142Y-121102380D02*
X226417142Y-120102380D01*
X226036190Y-120102380D01*
X225940952Y-120150000D01*
X225893333Y-120197619D01*
X225845714Y-120292857D01*
X225845714Y-120435714D01*
X225893333Y-120530952D01*
X225940952Y-120578571D01*
X226036190Y-120626190D01*
X226417142Y-120626190D01*
X225512380Y-120102380D02*
X224893333Y-120102380D01*
X225226666Y-120483333D01*
X225083809Y-120483333D01*
X224988571Y-120530952D01*
X224940952Y-120578571D01*
X224893333Y-120673809D01*
X224893333Y-120911904D01*
X224940952Y-121007142D01*
X224988571Y-121054761D01*
X225083809Y-121102380D01*
X225369523Y-121102380D01*
X225464761Y-121054761D01*
X225512380Y-121007142D01*
%TO.C,JP2*%
X226893333Y-117562380D02*
X226893333Y-118276666D01*
X226940952Y-118419523D01*
X227036190Y-118514761D01*
X227179047Y-118562380D01*
X227274285Y-118562380D01*
X226417142Y-118562380D02*
X226417142Y-117562380D01*
X226036190Y-117562380D01*
X225940952Y-117610000D01*
X225893333Y-117657619D01*
X225845714Y-117752857D01*
X225845714Y-117895714D01*
X225893333Y-117990952D01*
X225940952Y-118038571D01*
X226036190Y-118086190D01*
X226417142Y-118086190D01*
X225464761Y-117657619D02*
X225417142Y-117610000D01*
X225321904Y-117562380D01*
X225083809Y-117562380D01*
X224988571Y-117610000D01*
X224940952Y-117657619D01*
X224893333Y-117752857D01*
X224893333Y-117848095D01*
X224940952Y-117990952D01*
X225512380Y-118562380D01*
X224893333Y-118562380D01*
%TO.C,JP1*%
X226893333Y-115022380D02*
X226893333Y-115736666D01*
X226940952Y-115879523D01*
X227036190Y-115974761D01*
X227179047Y-116022380D01*
X227274285Y-116022380D01*
X226417142Y-116022380D02*
X226417142Y-115022380D01*
X226036190Y-115022380D01*
X225940952Y-115070000D01*
X225893333Y-115117619D01*
X225845714Y-115212857D01*
X225845714Y-115355714D01*
X225893333Y-115450952D01*
X225940952Y-115498571D01*
X226036190Y-115546190D01*
X226417142Y-115546190D01*
X224893333Y-116022380D02*
X225464761Y-116022380D01*
X225179047Y-116022380D02*
X225179047Y-115022380D01*
X225274285Y-115165238D01*
X225369523Y-115260476D01*
X225464761Y-115308095D01*
%TO.C,J5*%
X95557619Y-127333333D02*
X94843333Y-127333333D01*
X94700476Y-127380952D01*
X94605238Y-127476190D01*
X94557619Y-127619047D01*
X94557619Y-127714285D01*
X95557619Y-126380952D02*
X95557619Y-126857142D01*
X95081428Y-126904761D01*
X95129047Y-126857142D01*
X95176666Y-126761904D01*
X95176666Y-126523809D01*
X95129047Y-126428571D01*
X95081428Y-126380952D01*
X94986190Y-126333333D01*
X94748095Y-126333333D01*
X94652857Y-126380952D01*
X94605238Y-126428571D01*
X94557619Y-126523809D01*
X94557619Y-126761904D01*
X94605238Y-126857142D01*
X94652857Y-126904761D01*
%TO.C,J4*%
X174962380Y-108886666D02*
X175676666Y-108886666D01*
X175819523Y-108839047D01*
X175914761Y-108743809D01*
X175962380Y-108600952D01*
X175962380Y-108505714D01*
X175295714Y-109791428D02*
X175962380Y-109791428D01*
X174914761Y-109553333D02*
X175629047Y-109315238D01*
X175629047Y-109934285D01*
%TO.C,J3*%
X174962380Y-97456666D02*
X175676666Y-97456666D01*
X175819523Y-97409047D01*
X175914761Y-97313809D01*
X175962380Y-97170952D01*
X175962380Y-97075714D01*
X174962380Y-97837619D02*
X174962380Y-98456666D01*
X175343333Y-98123333D01*
X175343333Y-98266190D01*
X175390952Y-98361428D01*
X175438571Y-98409047D01*
X175533809Y-98456666D01*
X175771904Y-98456666D01*
X175867142Y-98409047D01*
X175914761Y-98361428D01*
X175962380Y-98266190D01*
X175962380Y-97980476D01*
X175914761Y-97885238D01*
X175867142Y-97837619D01*
%TO.C,D29*%
X262834285Y-89042380D02*
X262834285Y-88042380D01*
X262596190Y-88042380D01*
X262453333Y-88090000D01*
X262358095Y-88185238D01*
X262310476Y-88280476D01*
X262262857Y-88470952D01*
X262262857Y-88613809D01*
X262310476Y-88804285D01*
X262358095Y-88899523D01*
X262453333Y-88994761D01*
X262596190Y-89042380D01*
X262834285Y-89042380D01*
X261881904Y-88137619D02*
X261834285Y-88090000D01*
X261739047Y-88042380D01*
X261500952Y-88042380D01*
X261405714Y-88090000D01*
X261358095Y-88137619D01*
X261310476Y-88232857D01*
X261310476Y-88328095D01*
X261358095Y-88470952D01*
X261929523Y-89042380D01*
X261310476Y-89042380D01*
X260834285Y-89042380D02*
X260643809Y-89042380D01*
X260548571Y-88994761D01*
X260500952Y-88947142D01*
X260405714Y-88804285D01*
X260358095Y-88613809D01*
X260358095Y-88232857D01*
X260405714Y-88137619D01*
X260453333Y-88090000D01*
X260548571Y-88042380D01*
X260739047Y-88042380D01*
X260834285Y-88090000D01*
X260881904Y-88137619D01*
X260929523Y-88232857D01*
X260929523Y-88470952D01*
X260881904Y-88566190D01*
X260834285Y-88613809D01*
X260739047Y-88661428D01*
X260548571Y-88661428D01*
X260453333Y-88613809D01*
X260405714Y-88566190D01*
X260358095Y-88470952D01*
X257184285Y-87142380D02*
X257755714Y-87142380D01*
X257470000Y-87142380D02*
X257470000Y-86142380D01*
X257565238Y-86285238D01*
X257660476Y-86380476D01*
X257755714Y-86428095D01*
%TO.C,D28*%
X241244285Y-89042380D02*
X241244285Y-88042380D01*
X241006190Y-88042380D01*
X240863333Y-88090000D01*
X240768095Y-88185238D01*
X240720476Y-88280476D01*
X240672857Y-88470952D01*
X240672857Y-88613809D01*
X240720476Y-88804285D01*
X240768095Y-88899523D01*
X240863333Y-88994761D01*
X241006190Y-89042380D01*
X241244285Y-89042380D01*
X240291904Y-88137619D02*
X240244285Y-88090000D01*
X240149047Y-88042380D01*
X239910952Y-88042380D01*
X239815714Y-88090000D01*
X239768095Y-88137619D01*
X239720476Y-88232857D01*
X239720476Y-88328095D01*
X239768095Y-88470952D01*
X240339523Y-89042380D01*
X239720476Y-89042380D01*
X239149047Y-88470952D02*
X239244285Y-88423333D01*
X239291904Y-88375714D01*
X239339523Y-88280476D01*
X239339523Y-88232857D01*
X239291904Y-88137619D01*
X239244285Y-88090000D01*
X239149047Y-88042380D01*
X238958571Y-88042380D01*
X238863333Y-88090000D01*
X238815714Y-88137619D01*
X238768095Y-88232857D01*
X238768095Y-88280476D01*
X238815714Y-88375714D01*
X238863333Y-88423333D01*
X238958571Y-88470952D01*
X239149047Y-88470952D01*
X239244285Y-88518571D01*
X239291904Y-88566190D01*
X239339523Y-88661428D01*
X239339523Y-88851904D01*
X239291904Y-88947142D01*
X239244285Y-88994761D01*
X239149047Y-89042380D01*
X238958571Y-89042380D01*
X238863333Y-88994761D01*
X238815714Y-88947142D01*
X238768095Y-88851904D01*
X238768095Y-88661428D01*
X238815714Y-88566190D01*
X238863333Y-88518571D01*
X238958571Y-88470952D01*
X235594285Y-87142380D02*
X236165714Y-87142380D01*
X235880000Y-87142380D02*
X235880000Y-86142380D01*
X235975238Y-86285238D01*
X236070476Y-86380476D01*
X236165714Y-86428095D01*
%TO.C,D27*%
X198064285Y-89042380D02*
X198064285Y-88042380D01*
X197826190Y-88042380D01*
X197683333Y-88090000D01*
X197588095Y-88185238D01*
X197540476Y-88280476D01*
X197492857Y-88470952D01*
X197492857Y-88613809D01*
X197540476Y-88804285D01*
X197588095Y-88899523D01*
X197683333Y-88994761D01*
X197826190Y-89042380D01*
X198064285Y-89042380D01*
X197111904Y-88137619D02*
X197064285Y-88090000D01*
X196969047Y-88042380D01*
X196730952Y-88042380D01*
X196635714Y-88090000D01*
X196588095Y-88137619D01*
X196540476Y-88232857D01*
X196540476Y-88328095D01*
X196588095Y-88470952D01*
X197159523Y-89042380D01*
X196540476Y-89042380D01*
X196207142Y-88042380D02*
X195540476Y-88042380D01*
X195969047Y-89042380D01*
X192414285Y-87142380D02*
X192985714Y-87142380D01*
X192700000Y-87142380D02*
X192700000Y-86142380D01*
X192795238Y-86285238D01*
X192890476Y-86380476D01*
X192985714Y-86428095D01*
%TO.C,D26*%
X177109285Y-89042380D02*
X177109285Y-88042380D01*
X176871190Y-88042380D01*
X176728333Y-88090000D01*
X176633095Y-88185238D01*
X176585476Y-88280476D01*
X176537857Y-88470952D01*
X176537857Y-88613809D01*
X176585476Y-88804285D01*
X176633095Y-88899523D01*
X176728333Y-88994761D01*
X176871190Y-89042380D01*
X177109285Y-89042380D01*
X176156904Y-88137619D02*
X176109285Y-88090000D01*
X176014047Y-88042380D01*
X175775952Y-88042380D01*
X175680714Y-88090000D01*
X175633095Y-88137619D01*
X175585476Y-88232857D01*
X175585476Y-88328095D01*
X175633095Y-88470952D01*
X176204523Y-89042380D01*
X175585476Y-89042380D01*
X174728333Y-88042380D02*
X174918809Y-88042380D01*
X175014047Y-88090000D01*
X175061666Y-88137619D01*
X175156904Y-88280476D01*
X175204523Y-88470952D01*
X175204523Y-88851904D01*
X175156904Y-88947142D01*
X175109285Y-88994761D01*
X175014047Y-89042380D01*
X174823571Y-89042380D01*
X174728333Y-88994761D01*
X174680714Y-88947142D01*
X174633095Y-88851904D01*
X174633095Y-88613809D01*
X174680714Y-88518571D01*
X174728333Y-88470952D01*
X174823571Y-88423333D01*
X175014047Y-88423333D01*
X175109285Y-88470952D01*
X175156904Y-88518571D01*
X175204523Y-88613809D01*
X171459285Y-87142380D02*
X172030714Y-87142380D01*
X171745000Y-87142380D02*
X171745000Y-86142380D01*
X171840238Y-86285238D01*
X171935476Y-86380476D01*
X172030714Y-86428095D01*
%TO.C,D25*%
X156789285Y-89042380D02*
X156789285Y-88042380D01*
X156551190Y-88042380D01*
X156408333Y-88090000D01*
X156313095Y-88185238D01*
X156265476Y-88280476D01*
X156217857Y-88470952D01*
X156217857Y-88613809D01*
X156265476Y-88804285D01*
X156313095Y-88899523D01*
X156408333Y-88994761D01*
X156551190Y-89042380D01*
X156789285Y-89042380D01*
X155836904Y-88137619D02*
X155789285Y-88090000D01*
X155694047Y-88042380D01*
X155455952Y-88042380D01*
X155360714Y-88090000D01*
X155313095Y-88137619D01*
X155265476Y-88232857D01*
X155265476Y-88328095D01*
X155313095Y-88470952D01*
X155884523Y-89042380D01*
X155265476Y-89042380D01*
X154360714Y-88042380D02*
X154836904Y-88042380D01*
X154884523Y-88518571D01*
X154836904Y-88470952D01*
X154741666Y-88423333D01*
X154503571Y-88423333D01*
X154408333Y-88470952D01*
X154360714Y-88518571D01*
X154313095Y-88613809D01*
X154313095Y-88851904D01*
X154360714Y-88947142D01*
X154408333Y-88994761D01*
X154503571Y-89042380D01*
X154741666Y-89042380D01*
X154836904Y-88994761D01*
X154884523Y-88947142D01*
X151139285Y-87142380D02*
X151710714Y-87142380D01*
X151425000Y-87142380D02*
X151425000Y-86142380D01*
X151520238Y-86285238D01*
X151615476Y-86380476D01*
X151710714Y-86428095D01*
%TO.C,D24*%
X135199285Y-89042380D02*
X135199285Y-88042380D01*
X134961190Y-88042380D01*
X134818333Y-88090000D01*
X134723095Y-88185238D01*
X134675476Y-88280476D01*
X134627857Y-88470952D01*
X134627857Y-88613809D01*
X134675476Y-88804285D01*
X134723095Y-88899523D01*
X134818333Y-88994761D01*
X134961190Y-89042380D01*
X135199285Y-89042380D01*
X134246904Y-88137619D02*
X134199285Y-88090000D01*
X134104047Y-88042380D01*
X133865952Y-88042380D01*
X133770714Y-88090000D01*
X133723095Y-88137619D01*
X133675476Y-88232857D01*
X133675476Y-88328095D01*
X133723095Y-88470952D01*
X134294523Y-89042380D01*
X133675476Y-89042380D01*
X132818333Y-88375714D02*
X132818333Y-89042380D01*
X133056428Y-87994761D02*
X133294523Y-88709047D01*
X132675476Y-88709047D01*
X129549285Y-87142380D02*
X130120714Y-87142380D01*
X129835000Y-87142380D02*
X129835000Y-86142380D01*
X129930238Y-86285238D01*
X130025476Y-86380476D01*
X130120714Y-86428095D01*
%TO.C,D23*%
X112974285Y-89042380D02*
X112974285Y-88042380D01*
X112736190Y-88042380D01*
X112593333Y-88090000D01*
X112498095Y-88185238D01*
X112450476Y-88280476D01*
X112402857Y-88470952D01*
X112402857Y-88613809D01*
X112450476Y-88804285D01*
X112498095Y-88899523D01*
X112593333Y-88994761D01*
X112736190Y-89042380D01*
X112974285Y-89042380D01*
X112021904Y-88137619D02*
X111974285Y-88090000D01*
X111879047Y-88042380D01*
X111640952Y-88042380D01*
X111545714Y-88090000D01*
X111498095Y-88137619D01*
X111450476Y-88232857D01*
X111450476Y-88328095D01*
X111498095Y-88470952D01*
X112069523Y-89042380D01*
X111450476Y-89042380D01*
X111117142Y-88042380D02*
X110498095Y-88042380D01*
X110831428Y-88423333D01*
X110688571Y-88423333D01*
X110593333Y-88470952D01*
X110545714Y-88518571D01*
X110498095Y-88613809D01*
X110498095Y-88851904D01*
X110545714Y-88947142D01*
X110593333Y-88994761D01*
X110688571Y-89042380D01*
X110974285Y-89042380D01*
X111069523Y-88994761D01*
X111117142Y-88947142D01*
X107324285Y-87142380D02*
X107895714Y-87142380D01*
X107610000Y-87142380D02*
X107610000Y-86142380D01*
X107705238Y-86285238D01*
X107800476Y-86380476D01*
X107895714Y-86428095D01*
%TO.C,D22*%
X94559285Y-89042380D02*
X94559285Y-88042380D01*
X94321190Y-88042380D01*
X94178333Y-88090000D01*
X94083095Y-88185238D01*
X94035476Y-88280476D01*
X93987857Y-88470952D01*
X93987857Y-88613809D01*
X94035476Y-88804285D01*
X94083095Y-88899523D01*
X94178333Y-88994761D01*
X94321190Y-89042380D01*
X94559285Y-89042380D01*
X93606904Y-88137619D02*
X93559285Y-88090000D01*
X93464047Y-88042380D01*
X93225952Y-88042380D01*
X93130714Y-88090000D01*
X93083095Y-88137619D01*
X93035476Y-88232857D01*
X93035476Y-88328095D01*
X93083095Y-88470952D01*
X93654523Y-89042380D01*
X93035476Y-89042380D01*
X92654523Y-88137619D02*
X92606904Y-88090000D01*
X92511666Y-88042380D01*
X92273571Y-88042380D01*
X92178333Y-88090000D01*
X92130714Y-88137619D01*
X92083095Y-88232857D01*
X92083095Y-88328095D01*
X92130714Y-88470952D01*
X92702142Y-89042380D01*
X92083095Y-89042380D01*
X88909285Y-87142380D02*
X89480714Y-87142380D01*
X89195000Y-87142380D02*
X89195000Y-86142380D01*
X89290238Y-86285238D01*
X89385476Y-86380476D01*
X89480714Y-86428095D01*
%TO.C,D16*%
X233624285Y-138162380D02*
X233624285Y-137162380D01*
X233386190Y-137162380D01*
X233243333Y-137210000D01*
X233148095Y-137305238D01*
X233100476Y-137400476D01*
X233052857Y-137590952D01*
X233052857Y-137733809D01*
X233100476Y-137924285D01*
X233148095Y-138019523D01*
X233243333Y-138114761D01*
X233386190Y-138162380D01*
X233624285Y-138162380D01*
X232100476Y-138162380D02*
X232671904Y-138162380D01*
X232386190Y-138162380D02*
X232386190Y-137162380D01*
X232481428Y-137305238D01*
X232576666Y-137400476D01*
X232671904Y-137448095D01*
X231243333Y-137162380D02*
X231433809Y-137162380D01*
X231529047Y-137210000D01*
X231576666Y-137257619D01*
X231671904Y-137400476D01*
X231719523Y-137590952D01*
X231719523Y-137971904D01*
X231671904Y-138067142D01*
X231624285Y-138114761D01*
X231529047Y-138162380D01*
X231338571Y-138162380D01*
X231243333Y-138114761D01*
X231195714Y-138067142D01*
X231148095Y-137971904D01*
X231148095Y-137733809D01*
X231195714Y-137638571D01*
X231243333Y-137590952D01*
X231338571Y-137543333D01*
X231529047Y-137543333D01*
X231624285Y-137590952D01*
X231671904Y-137638571D01*
X231719523Y-137733809D01*
%TO.C,D15*%
X260294285Y-105312380D02*
X260294285Y-104312380D01*
X260056190Y-104312380D01*
X259913333Y-104360000D01*
X259818095Y-104455238D01*
X259770476Y-104550476D01*
X259722857Y-104740952D01*
X259722857Y-104883809D01*
X259770476Y-105074285D01*
X259818095Y-105169523D01*
X259913333Y-105264761D01*
X260056190Y-105312380D01*
X260294285Y-105312380D01*
X258770476Y-105312380D02*
X259341904Y-105312380D01*
X259056190Y-105312380D02*
X259056190Y-104312380D01*
X259151428Y-104455238D01*
X259246666Y-104550476D01*
X259341904Y-104598095D01*
X257865714Y-104312380D02*
X258341904Y-104312380D01*
X258389523Y-104788571D01*
X258341904Y-104740952D01*
X258246666Y-104693333D01*
X258008571Y-104693333D01*
X257913333Y-104740952D01*
X257865714Y-104788571D01*
X257818095Y-104883809D01*
X257818095Y-105121904D01*
X257865714Y-105217142D01*
X257913333Y-105264761D01*
X258008571Y-105312380D01*
X258246666Y-105312380D01*
X258341904Y-105264761D01*
X258389523Y-105217142D01*
%TO.C,D14*%
X260294285Y-101502380D02*
X260294285Y-100502380D01*
X260056190Y-100502380D01*
X259913333Y-100550000D01*
X259818095Y-100645238D01*
X259770476Y-100740476D01*
X259722857Y-100930952D01*
X259722857Y-101073809D01*
X259770476Y-101264285D01*
X259818095Y-101359523D01*
X259913333Y-101454761D01*
X260056190Y-101502380D01*
X260294285Y-101502380D01*
X258770476Y-101502380D02*
X259341904Y-101502380D01*
X259056190Y-101502380D02*
X259056190Y-100502380D01*
X259151428Y-100645238D01*
X259246666Y-100740476D01*
X259341904Y-100788095D01*
X257913333Y-100835714D02*
X257913333Y-101502380D01*
X258151428Y-100454761D02*
X258389523Y-101169047D01*
X257770476Y-101169047D01*
%TO.C,C21*%
X255627142Y-81653142D02*
X255674761Y-81605523D01*
X255722380Y-81462666D01*
X255722380Y-81367428D01*
X255674761Y-81224571D01*
X255579523Y-81129333D01*
X255484285Y-81081714D01*
X255293809Y-81034095D01*
X255150952Y-81034095D01*
X254960476Y-81081714D01*
X254865238Y-81129333D01*
X254770000Y-81224571D01*
X254722380Y-81367428D01*
X254722380Y-81462666D01*
X254770000Y-81605523D01*
X254817619Y-81653142D01*
X254817619Y-82034095D02*
X254770000Y-82081714D01*
X254722380Y-82176952D01*
X254722380Y-82415047D01*
X254770000Y-82510285D01*
X254817619Y-82557904D01*
X254912857Y-82605523D01*
X255008095Y-82605523D01*
X255150952Y-82557904D01*
X255722380Y-81986476D01*
X255722380Y-82605523D01*
X255722380Y-83557904D02*
X255722380Y-82986476D01*
X255722380Y-83272190D02*
X254722380Y-83272190D01*
X254865238Y-83176952D01*
X254960476Y-83081714D01*
X255008095Y-82986476D01*
%TO.C,C20*%
X246737142Y-81653142D02*
X246784761Y-81605523D01*
X246832380Y-81462666D01*
X246832380Y-81367428D01*
X246784761Y-81224571D01*
X246689523Y-81129333D01*
X246594285Y-81081714D01*
X246403809Y-81034095D01*
X246260952Y-81034095D01*
X246070476Y-81081714D01*
X245975238Y-81129333D01*
X245880000Y-81224571D01*
X245832380Y-81367428D01*
X245832380Y-81462666D01*
X245880000Y-81605523D01*
X245927619Y-81653142D01*
X245927619Y-82034095D02*
X245880000Y-82081714D01*
X245832380Y-82176952D01*
X245832380Y-82415047D01*
X245880000Y-82510285D01*
X245927619Y-82557904D01*
X246022857Y-82605523D01*
X246118095Y-82605523D01*
X246260952Y-82557904D01*
X246832380Y-81986476D01*
X246832380Y-82605523D01*
X245832380Y-83224571D02*
X245832380Y-83319809D01*
X245880000Y-83415047D01*
X245927619Y-83462666D01*
X246022857Y-83510285D01*
X246213333Y-83557904D01*
X246451428Y-83557904D01*
X246641904Y-83510285D01*
X246737142Y-83462666D01*
X246784761Y-83415047D01*
X246832380Y-83319809D01*
X246832380Y-83224571D01*
X246784761Y-83129333D01*
X246737142Y-83081714D01*
X246641904Y-83034095D01*
X246451428Y-82986476D01*
X246213333Y-82986476D01*
X246022857Y-83034095D01*
X245927619Y-83081714D01*
X245880000Y-83129333D01*
X245832380Y-83224571D01*
%TO.C,C19*%
X197492857Y-92177142D02*
X197540476Y-92224761D01*
X197683333Y-92272380D01*
X197778571Y-92272380D01*
X197921428Y-92224761D01*
X198016666Y-92129523D01*
X198064285Y-92034285D01*
X198111904Y-91843809D01*
X198111904Y-91700952D01*
X198064285Y-91510476D01*
X198016666Y-91415238D01*
X197921428Y-91320000D01*
X197778571Y-91272380D01*
X197683333Y-91272380D01*
X197540476Y-91320000D01*
X197492857Y-91367619D01*
X196540476Y-92272380D02*
X197111904Y-92272380D01*
X196826190Y-92272380D02*
X196826190Y-91272380D01*
X196921428Y-91415238D01*
X197016666Y-91510476D01*
X197111904Y-91558095D01*
X196064285Y-92272380D02*
X195873809Y-92272380D01*
X195778571Y-92224761D01*
X195730952Y-92177142D01*
X195635714Y-92034285D01*
X195588095Y-91843809D01*
X195588095Y-91462857D01*
X195635714Y-91367619D01*
X195683333Y-91320000D01*
X195778571Y-91272380D01*
X195969047Y-91272380D01*
X196064285Y-91320000D01*
X196111904Y-91367619D01*
X196159523Y-91462857D01*
X196159523Y-91700952D01*
X196111904Y-91796190D01*
X196064285Y-91843809D01*
X195969047Y-91891428D01*
X195778571Y-91891428D01*
X195683333Y-91843809D01*
X195635714Y-91796190D01*
X195588095Y-91700952D01*
%TO.C,C18*%
X176537857Y-92177142D02*
X176585476Y-92224761D01*
X176728333Y-92272380D01*
X176823571Y-92272380D01*
X176966428Y-92224761D01*
X177061666Y-92129523D01*
X177109285Y-92034285D01*
X177156904Y-91843809D01*
X177156904Y-91700952D01*
X177109285Y-91510476D01*
X177061666Y-91415238D01*
X176966428Y-91320000D01*
X176823571Y-91272380D01*
X176728333Y-91272380D01*
X176585476Y-91320000D01*
X176537857Y-91367619D01*
X175585476Y-92272380D02*
X176156904Y-92272380D01*
X175871190Y-92272380D02*
X175871190Y-91272380D01*
X175966428Y-91415238D01*
X176061666Y-91510476D01*
X176156904Y-91558095D01*
X175014047Y-91700952D02*
X175109285Y-91653333D01*
X175156904Y-91605714D01*
X175204523Y-91510476D01*
X175204523Y-91462857D01*
X175156904Y-91367619D01*
X175109285Y-91320000D01*
X175014047Y-91272380D01*
X174823571Y-91272380D01*
X174728333Y-91320000D01*
X174680714Y-91367619D01*
X174633095Y-91462857D01*
X174633095Y-91510476D01*
X174680714Y-91605714D01*
X174728333Y-91653333D01*
X174823571Y-91700952D01*
X175014047Y-91700952D01*
X175109285Y-91748571D01*
X175156904Y-91796190D01*
X175204523Y-91891428D01*
X175204523Y-92081904D01*
X175156904Y-92177142D01*
X175109285Y-92224761D01*
X175014047Y-92272380D01*
X174823571Y-92272380D01*
X174728333Y-92224761D01*
X174680714Y-92177142D01*
X174633095Y-92081904D01*
X174633095Y-91891428D01*
X174680714Y-91796190D01*
X174728333Y-91748571D01*
X174823571Y-91700952D01*
%TO.C,C17*%
X156217857Y-92177142D02*
X156265476Y-92224761D01*
X156408333Y-92272380D01*
X156503571Y-92272380D01*
X156646428Y-92224761D01*
X156741666Y-92129523D01*
X156789285Y-92034285D01*
X156836904Y-91843809D01*
X156836904Y-91700952D01*
X156789285Y-91510476D01*
X156741666Y-91415238D01*
X156646428Y-91320000D01*
X156503571Y-91272380D01*
X156408333Y-91272380D01*
X156265476Y-91320000D01*
X156217857Y-91367619D01*
X155265476Y-92272380D02*
X155836904Y-92272380D01*
X155551190Y-92272380D02*
X155551190Y-91272380D01*
X155646428Y-91415238D01*
X155741666Y-91510476D01*
X155836904Y-91558095D01*
X154932142Y-91272380D02*
X154265476Y-91272380D01*
X154694047Y-92272380D01*
%TO.C,C16*%
X134627857Y-92177142D02*
X134675476Y-92224761D01*
X134818333Y-92272380D01*
X134913571Y-92272380D01*
X135056428Y-92224761D01*
X135151666Y-92129523D01*
X135199285Y-92034285D01*
X135246904Y-91843809D01*
X135246904Y-91700952D01*
X135199285Y-91510476D01*
X135151666Y-91415238D01*
X135056428Y-91320000D01*
X134913571Y-91272380D01*
X134818333Y-91272380D01*
X134675476Y-91320000D01*
X134627857Y-91367619D01*
X133675476Y-92272380D02*
X134246904Y-92272380D01*
X133961190Y-92272380D02*
X133961190Y-91272380D01*
X134056428Y-91415238D01*
X134151666Y-91510476D01*
X134246904Y-91558095D01*
X132818333Y-91272380D02*
X133008809Y-91272380D01*
X133104047Y-91320000D01*
X133151666Y-91367619D01*
X133246904Y-91510476D01*
X133294523Y-91700952D01*
X133294523Y-92081904D01*
X133246904Y-92177142D01*
X133199285Y-92224761D01*
X133104047Y-92272380D01*
X132913571Y-92272380D01*
X132818333Y-92224761D01*
X132770714Y-92177142D01*
X132723095Y-92081904D01*
X132723095Y-91843809D01*
X132770714Y-91748571D01*
X132818333Y-91700952D01*
X132913571Y-91653333D01*
X133104047Y-91653333D01*
X133199285Y-91700952D01*
X133246904Y-91748571D01*
X133294523Y-91843809D01*
%TO.C,C15*%
X112402857Y-92177142D02*
X112450476Y-92224761D01*
X112593333Y-92272380D01*
X112688571Y-92272380D01*
X112831428Y-92224761D01*
X112926666Y-92129523D01*
X112974285Y-92034285D01*
X113021904Y-91843809D01*
X113021904Y-91700952D01*
X112974285Y-91510476D01*
X112926666Y-91415238D01*
X112831428Y-91320000D01*
X112688571Y-91272380D01*
X112593333Y-91272380D01*
X112450476Y-91320000D01*
X112402857Y-91367619D01*
X111450476Y-92272380D02*
X112021904Y-92272380D01*
X111736190Y-92272380D02*
X111736190Y-91272380D01*
X111831428Y-91415238D01*
X111926666Y-91510476D01*
X112021904Y-91558095D01*
X110545714Y-91272380D02*
X111021904Y-91272380D01*
X111069523Y-91748571D01*
X111021904Y-91700952D01*
X110926666Y-91653333D01*
X110688571Y-91653333D01*
X110593333Y-91700952D01*
X110545714Y-91748571D01*
X110498095Y-91843809D01*
X110498095Y-92081904D01*
X110545714Y-92177142D01*
X110593333Y-92224761D01*
X110688571Y-92272380D01*
X110926666Y-92272380D01*
X111021904Y-92224761D01*
X111069523Y-92177142D01*
%TO.C,C14*%
X93987857Y-92177142D02*
X94035476Y-92224761D01*
X94178333Y-92272380D01*
X94273571Y-92272380D01*
X94416428Y-92224761D01*
X94511666Y-92129523D01*
X94559285Y-92034285D01*
X94606904Y-91843809D01*
X94606904Y-91700952D01*
X94559285Y-91510476D01*
X94511666Y-91415238D01*
X94416428Y-91320000D01*
X94273571Y-91272380D01*
X94178333Y-91272380D01*
X94035476Y-91320000D01*
X93987857Y-91367619D01*
X93035476Y-92272380D02*
X93606904Y-92272380D01*
X93321190Y-92272380D02*
X93321190Y-91272380D01*
X93416428Y-91415238D01*
X93511666Y-91510476D01*
X93606904Y-91558095D01*
X92178333Y-91605714D02*
X92178333Y-92272380D01*
X92416428Y-91224761D02*
X92654523Y-91939047D01*
X92035476Y-91939047D01*
%TO.C,C8*%
X222099142Y-126833333D02*
X222146761Y-126785714D01*
X222194380Y-126642857D01*
X222194380Y-126547619D01*
X222146761Y-126404761D01*
X222051523Y-126309523D01*
X221956285Y-126261904D01*
X221765809Y-126214285D01*
X221622952Y-126214285D01*
X221432476Y-126261904D01*
X221337238Y-126309523D01*
X221242000Y-126404761D01*
X221194380Y-126547619D01*
X221194380Y-126642857D01*
X221242000Y-126785714D01*
X221289619Y-126833333D01*
X221622952Y-127404761D02*
X221575333Y-127309523D01*
X221527714Y-127261904D01*
X221432476Y-127214285D01*
X221384857Y-127214285D01*
X221289619Y-127261904D01*
X221242000Y-127309523D01*
X221194380Y-127404761D01*
X221194380Y-127595238D01*
X221242000Y-127690476D01*
X221289619Y-127738095D01*
X221384857Y-127785714D01*
X221432476Y-127785714D01*
X221527714Y-127738095D01*
X221575333Y-127690476D01*
X221622952Y-127595238D01*
X221622952Y-127404761D01*
X221670571Y-127309523D01*
X221718190Y-127261904D01*
X221813428Y-127214285D01*
X222003904Y-127214285D01*
X222099142Y-127261904D01*
X222146761Y-127309523D01*
X222194380Y-127404761D01*
X222194380Y-127595238D01*
X222146761Y-127690476D01*
X222099142Y-127738095D01*
X222003904Y-127785714D01*
X221813428Y-127785714D01*
X221718190Y-127738095D01*
X221670571Y-127690476D01*
X221622952Y-127595238D01*
%TO.C,C7*%
X240937142Y-129373333D02*
X240984761Y-129325714D01*
X241032380Y-129182857D01*
X241032380Y-129087619D01*
X240984761Y-128944761D01*
X240889523Y-128849523D01*
X240794285Y-128801904D01*
X240603809Y-128754285D01*
X240460952Y-128754285D01*
X240270476Y-128801904D01*
X240175238Y-128849523D01*
X240080000Y-128944761D01*
X240032380Y-129087619D01*
X240032380Y-129182857D01*
X240080000Y-129325714D01*
X240127619Y-129373333D01*
X240032380Y-129706666D02*
X240032380Y-130373333D01*
X241032380Y-129944761D01*
%TO.C,C6*%
X264897142Y-114133333D02*
X264944761Y-114085714D01*
X264992380Y-113942857D01*
X264992380Y-113847619D01*
X264944761Y-113704761D01*
X264849523Y-113609523D01*
X264754285Y-113561904D01*
X264563809Y-113514285D01*
X264420952Y-113514285D01*
X264230476Y-113561904D01*
X264135238Y-113609523D01*
X264040000Y-113704761D01*
X263992380Y-113847619D01*
X263992380Y-113942857D01*
X264040000Y-114085714D01*
X264087619Y-114133333D01*
X263992380Y-114990476D02*
X263992380Y-114800000D01*
X264040000Y-114704761D01*
X264087619Y-114657142D01*
X264230476Y-114561904D01*
X264420952Y-114514285D01*
X264801904Y-114514285D01*
X264897142Y-114561904D01*
X264944761Y-114609523D01*
X264992380Y-114704761D01*
X264992380Y-114895238D01*
X264944761Y-114990476D01*
X264897142Y-115038095D01*
X264801904Y-115085714D01*
X264563809Y-115085714D01*
X264468571Y-115038095D01*
X264420952Y-114990476D01*
X264373333Y-114895238D01*
X264373333Y-114704761D01*
X264420952Y-114609523D01*
X264468571Y-114561904D01*
X264563809Y-114514285D01*
%TO.C,C5*%
X259817142Y-130643333D02*
X259864761Y-130595714D01*
X259912380Y-130452857D01*
X259912380Y-130357619D01*
X259864761Y-130214761D01*
X259769523Y-130119523D01*
X259674285Y-130071904D01*
X259483809Y-130024285D01*
X259340952Y-130024285D01*
X259150476Y-130071904D01*
X259055238Y-130119523D01*
X258960000Y-130214761D01*
X258912380Y-130357619D01*
X258912380Y-130452857D01*
X258960000Y-130595714D01*
X259007619Y-130643333D01*
X258912380Y-131548095D02*
X258912380Y-131071904D01*
X259388571Y-131024285D01*
X259340952Y-131071904D01*
X259293333Y-131167142D01*
X259293333Y-131405238D01*
X259340952Y-131500476D01*
X259388571Y-131548095D01*
X259483809Y-131595714D01*
X259721904Y-131595714D01*
X259817142Y-131548095D01*
X259864761Y-131500476D01*
X259912380Y-131405238D01*
X259912380Y-131167142D01*
X259864761Y-131071904D01*
X259817142Y-131024285D01*
%TO.C,C3*%
X256007142Y-90638333D02*
X256054761Y-90590714D01*
X256102380Y-90447857D01*
X256102380Y-90352619D01*
X256054761Y-90209761D01*
X255959523Y-90114523D01*
X255864285Y-90066904D01*
X255673809Y-90019285D01*
X255530952Y-90019285D01*
X255340476Y-90066904D01*
X255245238Y-90114523D01*
X255150000Y-90209761D01*
X255102380Y-90352619D01*
X255102380Y-90447857D01*
X255150000Y-90590714D01*
X255197619Y-90638333D01*
X255102380Y-90971666D02*
X255102380Y-91590714D01*
X255483333Y-91257380D01*
X255483333Y-91400238D01*
X255530952Y-91495476D01*
X255578571Y-91543095D01*
X255673809Y-91590714D01*
X255911904Y-91590714D01*
X256007142Y-91543095D01*
X256054761Y-91495476D01*
X256102380Y-91400238D01*
X256102380Y-91114523D01*
X256054761Y-91019285D01*
X256007142Y-90971666D01*
%TO.C,C2*%
X237847142Y-96353333D02*
X237894761Y-96305714D01*
X237942380Y-96162857D01*
X237942380Y-96067619D01*
X237894761Y-95924761D01*
X237799523Y-95829523D01*
X237704285Y-95781904D01*
X237513809Y-95734285D01*
X237370952Y-95734285D01*
X237180476Y-95781904D01*
X237085238Y-95829523D01*
X236990000Y-95924761D01*
X236942380Y-96067619D01*
X236942380Y-96162857D01*
X236990000Y-96305714D01*
X237037619Y-96353333D01*
X237037619Y-96734285D02*
X236990000Y-96781904D01*
X236942380Y-96877142D01*
X236942380Y-97115238D01*
X236990000Y-97210476D01*
X237037619Y-97258095D01*
X237132857Y-97305714D01*
X237228095Y-97305714D01*
X237370952Y-97258095D01*
X237942380Y-96686666D01*
X237942380Y-97305714D01*
%TO.C,C1*%
X235307142Y-96353333D02*
X235354761Y-96305714D01*
X235402380Y-96162857D01*
X235402380Y-96067619D01*
X235354761Y-95924761D01*
X235259523Y-95829523D01*
X235164285Y-95781904D01*
X234973809Y-95734285D01*
X234830952Y-95734285D01*
X234640476Y-95781904D01*
X234545238Y-95829523D01*
X234450000Y-95924761D01*
X234402380Y-96067619D01*
X234402380Y-96162857D01*
X234450000Y-96305714D01*
X234497619Y-96353333D01*
X235402380Y-97305714D02*
X235402380Y-96734285D01*
X235402380Y-97020000D02*
X234402380Y-97020000D01*
X234545238Y-96924761D01*
X234640476Y-96829523D01*
X234688095Y-96734285D01*
%TD*%
M02*
